<?xml version="1.0" encoding="utf-8"?>
<!-- Generator: Adobe Illustrator 23.0.5, SVG Export Plug-In . SVG Version: 6.00 Build 0)  -->
<svg version="1.1" id="Layer_1" xmlns="http://www.w3.org/2000/svg" xmlns:xlink="http://www.w3.org/1999/xlink" x="0px" y="0px"
	 viewBox="0 0 1654.2 1200" style="enable-background:new 0 0 1654.2 1200;" xml:space="preserve">
<style type="text/css">
	.st0{fill:#B0E2F5;}
	.st1{fill:#1B204D;}
	.st2{fill:#008EDD;}
	.st3{font-family:'SourceSansPro-Regular';}
	.st4{font-size:47.4695px;}
	.st5{fill:#FF2086;}
	.st6{fill:#1C8BCC;}
	.st7{fill:url(#SVGID_1_);}
	.st8{fill:#919191;}
	.st9{fill:#BABBBA;}
	.st10{fill:#D6D8D6;}
	.st11{fill:#0087B2;}
	.st12{fill:#0079A0;}
	.st13{fill:#778586;}
	.st14{fill:#4F475C;}
	.st15{fill:#657172;}
	.st16{fill:#005483;}
	.st17{fill:#004064;}
	.st18{fill:#FF9300;}
	.st19{fill:#FFFFFF;}
	.st20{fill:#FFC5AC;}
	.st21{fill:#EBB59E;}
	.st22{fill:#607CC0;}
	.st23{fill:#566FAC;}
	.st24{fill:#A7339F;}
	.st25{fill:#7C564F;}
	.st26{fill:#DC8C7A;}
	.st27{fill:none;stroke:#DC8C7A;stroke-width:0.9723;stroke-miterlimit:10;}
	.st28{fill:#E37306;}
	.st29{fill:none;stroke:#E37306;stroke-width:0.9723;stroke-miterlimit:10;}
	.st30{fill:#AB7A22;}
	.st31{fill:#B89A22;}
	.st32{fill:url(#SVGID_2_);}
	.st33{fill:#C4C5C4;}
	.st34{fill:#D7D8D7;}
	.st35{fill:none;stroke:#A9A4A9;stroke-miterlimit:10;}
	.st36{font-size:73.0695px;}
</style>
<title>m2</title>
<g>
	<path class="st0" d="M401.3,119.1c-31.4,62.2-11.7,137.7-50.2,194.9s-158.3,47.8-171.7,181.6c-13.4,133.8,27,265.8,121.5,305.8
		s177.5,53.5,200.6,120.3c23.1,66.8,189.2,88,279.8,74.5c90.8-13.3,198.7-130,291.5-112.9c92.8,17.1,231.6-43.9,237.4-156.8
		c5.8-112.9-59.9-179.7-61.8-218s3.9-49.7,44.3-88s80.4-83.4,71.3-145.2c-13.4-93.6-106.2-179.7-216.2-204.5
		C1035.3,45.6,870,172.2,815.9,153.1C761.9,134.1,721.5,48,646,32.8S434.1,54,401.3,119.1z"/>
	<path class="st0" d="M1405.4,469.3c-1.5-7.5-5.6-14-11.2-19.3c-10.5-17.8-30.7-27.7-52.6-16.6c-23.1,11.6-30.9,46.1-20,67.8
		c11.2,21.9,35.8,30.4,58,19.3C1397.1,511.5,1409.3,488.8,1405.4,469.3z"/>
	<path class="st0" d="M370.8,900.7c52.8-32.3,90.6,36.4,87.7,76.4c-2.9,11.6-26.1,14.2-43.3,8.7c-26.1-11.6-52.1-34.5-53.1-67.3
		C362.6,912.3,365.5,906.3,370.8,900.7z"/>
</g>
<g>
	<g>
		<path class="st1" d="M1318,215.3c0,13-10.7,23.6-23.9,23.6H893.4c-13.1,0-23.9-10.6-23.9-23.6V30.8c0-13,10.7-23.6,23.9-23.6h401
			c13.1,0,23.9,10.6,23.9,23.6v184.5H1318z"/>
		<polygon class="st1" points="983.9,219.7 983.9,312 1059.7,221.6 		"/>
	</g>
	<text transform="matrix(1.0096 0 0 1 902.5811 90.2715)" class="st2 st3 st4">&lt;html </text>
	<text transform="matrix(1.0096 0 0 1 1035.0391 90.2715)" class="st5 st3 st4">lang</text>
	<text transform="matrix(1.0096 0 0 1 1122.9385 90.2715)" class="st2 st3 st4">=&quot;en&quot;&gt;</text>
	<text transform="matrix(1.0096 0 0 1 902.5811 163.2998)" class="st2 st3 st4">&lt;body&gt;</text>
</g>
<path class="st6" d="M1283.4,1108.4c0,47-235.9,85.1-526.9,85.1s-526.9-38.1-526.9-85.1c0-47,235.9-85.1,526.9-85.1
	C1047.5,1023.3,1283.4,1061.4,1283.4,1108.4z"/>
<g>
	
		<linearGradient id="SVGID_1_" gradientUnits="userSpaceOnUse" x1="617.6226" y1="838.1125" x2="489.3968" y2="542.7049" gradientTransform="matrix(1 0 0 -1 0 1200)">
		<stop  offset="5.263160e-03" style="stop-color:#FFFFFF;stop-opacity:0"/>
		<stop  offset="1" style="stop-color:#FFFFFF"/>
	</linearGradient>
	<polygon class="st7" points="279.8,444 449.7,187.8 891.7,426.8 602.1,644.6 	"/>
	<path class="st8" d="M617.5,647.3c0.2,3.9-2.7,7-6.8,7H292.2c-3.9,0-7.3-3.1-7.5-7L270,433.4c-0.2-3.9,2.7-7,6.8-7h318.7
		c3.9,0,7.3,3.1,7.5,7L617.5,647.3z"/>
	<path class="st9" d="M603.1,433.4c-0.2-3.9-3.7-7-7.5-7h-10.2c3.9,0,7.3,3.1,7.5,7L607.3,647c0.2,3.9-2.7,7-6.8,7h10.2
		c3.9,0,7.1-3.1,6.8-7L603.1,433.4z"/>
	<g>
		<path class="st10" d="M481.1,704.4c0,1.2-1,2.2-2.2,2.2h-48.2c-1.2,0-2.2-1-2.2-2.2v-3.1c0-1.2,1-2.2,2.2-2.2h48
			c1.2,0,2.2,1,2.2,2.2v3.1H481.1z"/>
		<path class="st9" d="M441.2,702.7c-0.2,2.2-2.2,3.9-4.4,3.9h-68.4c-2.2,0-3.7-1.7-3.4-3.9l21.2-172.4c0.2-2.2,2.2-3.9,4.4-3.9H459
			c2.2,0,3.7,1.7,3.4,3.9L441.2,702.7z"/>
		<path class="st10" d="M462.4,530.3c0.2-2.2-1.2-3.9-3.4-3.9h-8.8c2.2,0,3.7,1.7,3.4,3.9l-21.2,172.4c-0.2,2.2,4.1,3.9,4.1,3.9
			c2.2,0,4.1-1.7,4.4-3.9L462.4,530.3z"/>
	</g>
</g>
<g>
	<g>
		<path class="st11" d="M958.9,829.3v205l0,0c-0.2,3.4-4.9,5.8-10.7,5.8s-10.5-2.7-10.7-5.8l0,0v-205H958.9z"/>
	</g>
	<g>
		<g>
			<g>
				<g>
					<path class="st12" d="M810.3,1078c-6.6,0-12.2-5.3-12.2-12.1c0-27.7,22.2-36.4,41.6-41c23.6-5.5,102.3-10.6,105.7-10.9
						c6.6-0.5,12.4,4.6,12.9,11.1c0.5,6.5-4.6,12.3-11.2,12.8c-0.7,0-79.9,5.3-101.5,10.4c-22.9,5.3-22.9,11.6-22.9,17.6
						C822.5,1072.7,817.1,1078,810.3,1078z"/>
				</g>
			</g>
			<g>
				<path class="st13" d="M837.4,1090.8c0,16.6-13.6,29.9-30.2,29.9c-16.8,0-30.2-13.5-30.2-29.9c0-16.6,13.6-29.9,30.2-29.9
					C823.7,1060.6,837.4,1074.1,837.4,1090.8z"/>
			</g>
			<g>
				<path class="st14" d="M819.6,1090.8c0,6.8-5.6,12.5-12.4,12.5c-6.8,0-12.4-5.5-12.4-12.5c0-6.8,5.6-12.3,12.4-12.3
					C814,1078.2,819.6,1083.8,819.6,1090.8z"/>
			</g>
		</g>
		<g>
			<g>
				<g>
					<path class="st12" d="M1086.2,1078c6.6,0,12.2-5.3,12.2-12.1c0-27.7-22.2-36.4-41.6-41c-23.6-5.5-102.3-10.6-105.7-10.9
						c-6.6-0.5-12.4,4.6-12.9,11.1c-0.5,6.5,4.6,12.3,11.2,12.8c0.7,0,79.9,5.3,101.5,10.4c22.9,5.3,22.9,11.6,22.9,17.6
						C1074,1072.7,1079.4,1078,1086.2,1078z"/>
				</g>
			</g>
			<g>
				<path class="st13" d="M1059.2,1090.8c0,16.6,13.6,29.9,30.2,29.9c16.8,0,30.2-13.5,30.2-29.9c0-16.6-13.6-29.9-30.2-29.9
					C1072.8,1060.6,1059.2,1074.1,1059.2,1090.8z"/>
			</g>
			<g>
				<path class="st14" d="M1076.9,1090.8c0,6.8,5.6,12.5,12.4,12.5s12.4-5.5,12.4-12.5c0-6.8-5.6-12.3-12.4-12.3
					C1082.5,1078.2,1076.9,1083.8,1076.9,1090.8z"/>
			</g>
		</g>
	</g>
	<g>
		<path class="st12" d="M948.4,1096.6c-6.6,0-12.2-5.3-12.2-12.1v-58.6c0-6.5,5.4-12.1,12.2-12.1c6.6,0,12.2,5.3,12.2,12.1v58.6
			C960.3,1091.3,955,1096.6,948.4,1096.6z"/>
	</g>
	<path class="st15" d="M962.8,1115.1c0,3.1-2.4,5.5-5.6,5.5h-17.5c-3.2,0-5.6-2.4-5.6-5.5v-46.1c0-3.1,2.4-5.5,5.6-5.5h17.3
		c3.2,0,5.6,2.4,5.6,5.5v46.1H962.8z"/>
	<path class="st16" d="M1078.9,790.5c-3.4-4.3-257.9-4.3-261.3,0c-4.4,5.8-20.2,67.3,21.7,67.3c14.1,0,203.8,0,217.7,0
		C1099.1,857.8,1083.3,796.3,1078.9,790.5z"/>
	<path class="st16" d="M946.2,506.7c20.2-5.8,157.8-15.7,168,17.1c10.2,33-18.7,223.6-24.6,268.2c-5.8,44.6-96.9,28.7-143.4,27.3
		c-46.3-1.4-62.3-21.5-52.1-58.8c10.2-37.4,34.8-150.5,37.7-174.8C934.5,561.2,926,512.5,946.2,506.7z"/>
	<path class="st17" d="M1024.4,512.5c0,0,33.4,1.4,33.4,37.4s-10.2,86.1-2.9,111.9c7.3,25.8,11.7,98.9,5.8,121.8
		c-5.8,22.9-37.7,50.2-63.8,48.7c-26.1-1.4-115.9,28.7-140.5,0S989.5,500.9,1024.4,512.5z"/>
</g>
<g>
	<path class="st18" d="M904.1,303.6c23.1,0.7,71.8,12.5,83,69c11.2,56.4-2.2,60.5,16.8,80.1c19,19.5,40.2,45.3,35.1,75.2
		c-4.9,29.9-93.5,29.2-93.5,29.2s-115.4,4.8-123.9-9.6c-8.5-14.7,9.7-46.1,9.3-73.1c-0.7-27.3-10.5-91.9-2.9-113.6
		C835.7,339.1,880.7,302.9,904.1,303.6z"/>
	<g>
		<path class="st19" d="M670.3,973.1c0,0-9.5,11.3-28.2,32.3c-7.1,7.7-24.6,17.1-30.7,24.6c-11.7,14.5-17,24.8,0,29.7
			c13.1,3.6,28.2,5.8,44.1,1.4c13.4-3.6,27.5-28,38.2-34c10.5-6,13.6-8.2,19.5-13.5s-1.7-36.4-1.7-36.4L670.3,973.1z"/>
		<path class="st20" d="M671.5,959.8c0,0-17.5,25.8-24.3,39.1c-6.8,13.3-17,21.9-3.4,25.6c13.6,3.6,23.6-3.1,38.2-13.3
			c14.4-10.1,27.5-16.6,29.5-24.4c1.9-7.7,1.5-19.8,0.5-27c-1.2-7.2,4.6-44.6,4.6-44.6l-35.3-8.4L671.5,959.8z"/>
	</g>
	<g>
		<path class="st19" d="M810.8,1034.6c0,0-4.1,14-12.9,40.8c-3.2,9.9-15.8,25.3-18.3,34.7c-5.1,17.8-5.8,29.4,11.9,27.3
			c13.4-1.7,28.2-5.8,40.9-15.9c10.7-8.7,14.1-36.7,21.4-46.3s9-13,12.4-20c3.2-7.2-16.1-32.8-16.1-32.8L810.8,1034.6z"/>
		<path class="st21" d="M806.4,1022c0,0-5.6,30.6-6.6,45.3c-1,14.7-6.8,26.8,7.3,24.8c14.1-1.9,20.5-12.1,29.7-27.3
			c9.3-15,18.5-26,17.3-34c-1.2-8-6.6-18.8-10.5-25.1c-3.9-6-13.6-42.7-13.6-42.7l-35.8,6L806.4,1022z"/>
	</g>
	<path class="st22" d="M866.6,725.4c0,0-167.5,4.6-182.1,43.4c-14.6,38.6-32.9,202.1-28.2,207.4c4.9,5.3,83.8-10.9,85-17.4
		c2.2-11.8,18.5-134.8,26.1-147.4c7.8-12.5,69.6,24.4,105.4,21.5c37-2.9,77.7-10.9,88.4-32.8c10-20.5-5.4-76.4-5.4-76.4L866.6,725.4
		z"/>
	<g>
		<path class="st23" d="M927.2,734.3c0,0-31.9,16.2-73.3,31.4c-35.5,13-80.8,23.6-86.4,41.7c-12.2,39.6,20.5,206.9,25.6,212
			c5.1,5.1,77.7-14.5,78.4-21c1.5-12.1-13.6-145.7-12.2-153.9c1.7-8.2,50.4-3.9,86-8.9c36.8-5.3,65.7-13.7,81.1-32.8
			c26.8-32.8,2.7-100.3,2.7-100.3L927.2,734.3z"/>
	</g>
	<path class="st20" d="M845.9,489.1c-11.7,3.9-24.6,19.5-23.6,55c1,35.5,1,66.8,1,66.8l-34.3,64.6c0,0,16.8,17.6,24.6,13
		c7.8-4.6,44.3-57.9,46.3-64.2C861.7,618.1,863.4,483.3,845.9,489.1z"/>
	<path class="st24" d="M941.6,469.8c0,0,60.9-4.1,75.5,21.7c14.4,25.8,11.2,40.8,7.8,69.7c-2.2,18.6-6.6,49.2-8.8,66.8
		c-1.9,17.6,1.7,11.6,6.6,33.5c4.9,21.9,13.9,60.8,11.7,65.8c-8.8,18.1-75,27-125.9,22.9c-50.9-4.1-58-20-58-20s8.3-68.2,10.2-82.7
		c1.2-8.4-2.2-26.8-6.8-42.4c-3.2-11.1-9.3-14.7-11.7-30.6c-2.4-15.7,4.4-30.6,2.9-44.4c-1.9-19.8-2.9-38.6-1-42
		c1.9-3.4,8.3-6.3,10.5-6.5C893.6,476,941.6,469.8,941.6,469.8z"/>
	<path class="st20" d="M910.9,521.1c13.4,0,57-28,70.4-49c-19.7-3.6-47.7-7-61.1-5.1c-13.4,1.9-27,2.9-59.9,12.1
		C864.6,497.5,897.5,521.1,910.9,521.1z"/>
	<path class="st20" d="M1032.6,511.5c7.8,27.7,1.5,113.1-16.1,140.8c-14.1,22.4-64.8,29.7-81.1,36.4c-16.3,6.8-29-16.4-18.3-22.9
		c10.7-6.8,62.8-35.5,62.8-35.5s-2.4-116,10.2-133.1C1002.7,480.1,1024.8,484,1032.6,511.5z"/>
	<path class="st18" d="M886.5,305.8c0,0-68.4,15.9-62.6,68c4.9,43.7,34.1,58.6,34.1,58.6s9-56.4,20.9-73.6
		C891.2,341.7,886.5,305.8,886.5,305.8z"/>
	<path class="st20" d="M928.7,331.3c-19.7-18.8-37.3-20.5-60.9-8.2c-16.1,8.4-28.5,35.9-29,56.2c-0.5,16.2,1.9,76.2,48.5,83
		c27.8,4.1,34.8-1.2,48.2-15.2C966.4,415.3,960.3,361.5,928.7,331.3z"/>
	<path class="st20" d="M887.8,431.2l1.7,56.2c0,0,3.9,32.1,21.2,32.1s35.3-42,35.3-42l-19.2-63.4L887.8,431.2z"/>
	<path class="st18" d="M951.6,401.5c5.1,3.9-3.7,32.3-1,33.5c5.4,2.4,20.2-20.5,26.3-31.1c9.3-15.9,5.6-49.2-4.4-66.6
		s-29.9-29.9-52.1-35.7c-23.4-6-86.7,23.2-75.7,44.1c11.2,21,29.9,23.9,44.1,23.9s33.1,4.3,40.4,8.4
		C936.5,382.2,936.7,390.2,951.6,401.5z"/>
	<path class="st20" d="M961.5,382.7c-2.7-4.1-7.8-7.2-12.2-6c-3.9,1.2-14.9,13.5-14.9,26.8c0,10.1,9.3,14.2,14.6,15.2
		c4.9,1,8.8-1.9,11.2-5.8C966.2,404.9,967.1,391.9,961.5,382.7z"/>
	<path class="st25" d="M899.4,402.5c0,4.6,3.9,8.4,8.5,8.4c4.6,0,8.5-3.9,8.5-8.4s-3.9-8.4-8.5-8.4
		C903.1,394,899.4,397.9,899.4,402.5z"/>
	<path class="st25" d="M851.5,408c0,4.6,3.9,8.4,8.5,8.4c4.6,0,8.5-3.9,8.5-8.4s-3.9-8.4-8.5-8.4C855.1,399.8,851.5,403.4,851.5,408
		z"/>
	<g>
		<path class="st26" d="M877.5,391.6c1,1.2,1.5,2.4,2.2,3.6c0.7,1.2,1.2,2.7,1.7,3.9c0.5,1.4,1,2.7,1,4.3c0,0.7,0.2,1.4,0.2,2.4
			c0,1,0,1.9-1,3.4l0.5-1c-0.7,2.7-1.5,4.3-2.2,6.3c-0.7,1.9-1.2,4.1-0.7,4.3c0.5,0.5,1.7,0.7,2.7,1c1,0.2,2.2,0.5,3.2,0.5
			c2.2,0.2,4.4,0.5,6.8,0.7c-2.2,0.5-4.4,1-6.8,1c-1.2,0-2.2,0.2-3.4,0c-1.2,0-2.4-0.2-3.9-0.7c-0.7-0.2-1.7-1.2-1.9-1.9
			c-0.2-0.7-0.5-1.7-0.5-2.2c0-1.4,0.2-2.7,0.5-3.9c0.5-2.4,1.5-4.6,1.9-6.3l0.5-1c-0.2,0.2,0,0,0-0.5s0-1.2,0-1.7
			c0-1.2-0.2-2.7-0.2-3.9c-0.2-1.4-0.2-2.7-0.2-4.1C877.5,394.5,877.5,393.1,877.5,391.6z"/>
	</g>
	<path class="st27" d="M891.4,462.8c20.7,2.2,27.5-2.9,38.5-11.8"/>
	<g>
		<g>
			<path class="st28" d="M913.1,385.1c0,0,0,0.2,0.2,0.2c0-0.2-0.2-0.5-0.2-0.7c0,0.2,0,0.7,0.2,1c0.7-0.7,1.2-1.7,1.9-2.4
				c-0.5,0-0.2,0-0.5-0.2c-0.2-0.2-0.5-0.2-0.7-0.5h-0.2c0,0-0.7-0.2-0.2,0c-0.5,0-0.7-0.2-1.2-0.2c-1.2-0.2-2.7,0-3.9,0
				c-2.7,0.2-5.8,0-8,1.7c-0.7,0.5-0.7,1.4-0.2,2.2c0.5,0.7,1.2,1,2.2,0.7c0.5-0.2,1-0.2,1.5-0.5c0.2,0,0.5-0.2,0.7-0.2
				c0.2,0,0.2,0,0.7,0c1.2,0,2.4,0,3.7-0.2c1.2,0,2.4-0.2,3.7-0.2c0.2,0-0.2,0,0,0c0.2,0,0.2,0,0.5,0c0.2,0,0.2,0,0,0
				c-0.2,0-0.2,0,0,0h0.2c0.5,0.2,1.2,0.2,1.7,0.2c1.7-0.2,2.2-2.2,0.7-3.1c-0.2-0.2-0.7-0.2-1-0.2c0.2,0,0.5,0.2,0.7,0.2
				c0,0-0.2,0-0.2-0.2C913.8,382.7,912.6,383.9,913.1,385.1L913.1,385.1z"/>
		</g>
	</g>
	<g>
		<g>
			<path class="st28" d="M862.4,390.2C862.4,390.2,862.7,390.4,862.4,390.2c0.2,0.5,0.2,0.5,0.5,1c0.5-1,0.7-1.9,1.2-2.9
				c-0.5,0-1-0.2-1.7-0.5c-0.5,0-1,0-1.5,0c-1.5,0-2.9,0.5-4.1,0.7c-0.2,0-0.5,0-0.7,0.2c-0.2,0-0.5,0-0.2,0c-0.2,0-0.5,0-0.7,0
				c-0.7,0-1.2,0.2-1.9,0.5c-1.2,0.5-2.9,1-3.7,2.2c-0.2,0.7-0.2,1.4,0.2,1.9c0.5,0.7,1.2,0.7,1.9,0.7c0.7,0,1.2-0.5,1.7-0.7
				c0,0,0.2-0.2,0.2,0c-0.2,0,0.2,0,0.2,0c0.2,0,0.5-0.2,0.7-0.2c1.2-0.2,2.4-0.5,3.7-0.7c0.5-0.2,1.2-0.2,1.7-0.5
				c0.7-0.2,1-0.2,1.5-0.2c0.2,0,0.5,0,0.7,0h0.2c-0.2,0-0.2,0,0,0c0.7,0.2,1.5,0.2,2.2,0c1.5-0.2,1.7-2.4,0.5-2.9
				c-0.2,0-1.2-0.5-1.2-0.2c0-0.2,0.7,0,0.2,0C862.9,387.8,861.7,389.2,862.4,390.2L862.4,390.2z"/>
		</g>
	</g>
	<path class="st29" d="M889.2,321c0,0,39,0,54.8,48.7"/>
	<path class="st29" d="M853.9,336.9c0,0,18.7,22.4,35.3,25.3"/>
	<path class="st29" d="M873.6,328.2c0,0,45.3,17.4,48.7,36.2"/>
	<path class="st19" d="M910.2,425.2l-36,8c0,0,15.6,22.2,27.3,15.7C912.8,442.5,910.2,425.2,910.2,425.2z"/>
	<path class="st29" d="M955.9,345.3c0,0,20.5,15.4,21.2,50.2c0.5,24.4-7.8,39.8,1.5,51.6c9.3,11.8,21.2,21,21.9,30.6"/>
	<path class="st29" d="M840,425.4c0,0,7.1,9.2,9.3,28.5c2.2,19.5-4.1,22.9-4.9,29.9"/>
	<path class="st20" d="M922.1,667.8c0,0-32.9-21-45.5-17.8c-12.7,3.1-24.3,0-31.9,11.6c-7.3,11.6-12.7,23.2-6.3,25.1
		c2.9,1,7.3-1.2,10-5.8c3.4-5.5,9-8.9,9-8.9s-2.2,5.1-3.4,10.9c-1.2,5.5-1.9,11.6,1.2,13c3.4,1.7,5.4-2.2,8-7.7
		c2.2-4.8,8-11.3,8-11.3s-1.7,4.8-2.7,10.1c-1,5.1-1.2,10.4,1.9,11.3c2.9,0.7,7.3-5.1,8.3-8c1.2-3.6,6.8-5.1,6.8-5.1s6.3,13,21.4,13
		s28-6,26.5-12.3C931.8,679.6,922.1,667.8,922.1,667.8z"/>
	<path class="st27" d="M864.9,663.4c0,0-10,4.1-11,21.2"/>
	<path class="st27" d="M885.3,666.6c-8.8-1.4-12.7,6.8-14.4,10.1c-1.7,3.4-5.1,9.4-2.9,15"/>
</g>
<g>
	<g>
		<rect x="353.8" y="738.9" class="st30" width="13.1" height="423"/>
		<rect x="331.9" y="738.9" class="st31" width="24.6" height="423"/>
	</g>
	<g>
		<rect x="522.5" y="714.1" class="st30" width="13.1" height="396.2"/>
		<rect x="500.9" y="714.1" class="st31" width="24.6" height="396.2"/>
	</g>
	<g>
		<rect x="1024.4" y="738.9" class="st30" width="13.1" height="423"/>
		<rect x="1002.7" y="738.9" class="st31" width="24.6" height="423"/>
	</g>
	<g>
		<rect x="1193.3" y="714.1" class="st30" width="13.1" height="396.2"/>
		<rect x="1171.4" y="714.1" class="st31" width="24.6" height="396.2"/>
	</g>
	<path class="st19" d="M1268.3,744.2c0,4.8-3.9,8.7-8.8,8.7H253.2c-4.9,0-8.8-3.9-8.8-8.7v-28.7c0-4.8,3.9-8.7,8.8-8.7h1006.6
		c4.9,0,8.8,3.9,8.8,8.7v28.7H1268.3z"/>
</g>
<g>
	
		<linearGradient id="SVGID_2_" gradientUnits="userSpaceOnUse" x1="910.6026" y1="754.587" x2="782.3721" y2="459.1679" gradientTransform="matrix(1 0 0 -1 0 1200)">
		<stop  offset="5.263160e-03" style="stop-color:#FFFFFF;stop-opacity:0"/>
		<stop  offset="1" style="stop-color:#FFFFFF"/>
	</linearGradient>
	<polygon class="st32" points="602.1,579.7 725.6,296.9 1158,451.7 834.4,702 	"/>
	<path class="st33" d="M931.6,699.1l-92.5-9.4c-11.7-32.6-39.4-136.3-44.6-141.3c-6.1-6-213.8-3.1-219.6,5.1
		c-6.1,8,45.5,158.9,45.5,158.9s303.1-1.4,309.2-1.4C935.7,711.2,931.6,699.1,931.6,699.1z"/>
	<path class="st34" d="M704.2,623.6c2.9,11.8-3.4,23.6-14.1,26.3c-10.7,2.7-21.9-4.8-24.8-16.6c-2.9-11.8,3.4-23.6,14.1-26.3
		C690,604.1,701.2,611.6,704.2,623.6z"/>
	<line class="st35" x1="782.6" y1="561.2" x2="820.8" y2="691.6"/>
	<line class="st35" x1="624.8" y1="701.5" x2="811.5" y2="701.5"/>
	<path class="st34" d="M839.1,689.7c-11.7-32.6-39.4-136.3-44.6-141.3c-0.5-0.5-2.7-1-5.8-1.4c1.9,25.8,46,154.8,46,154.8
		s43.3-0.2,97.6-0.5c-0.2-1.4-0.7-2.4-0.7-2.4L839.1,689.7z"/>
</g>
<g>
	<g>
		<path class="st1" d="M523,252.7c0,11.8,9.7,21.5,21.7,21.5h246.7c11.9,0,21.7-9.6,21.7-21.5V142c0-11.8-9.7-21.5-21.7-21.5H544.7
			c-11.9,0-21.7,9.6-21.7,21.5L523,252.7L523,252.7z"/>
		<polygon class="st1" points="783.1,256.6 783.1,341 713.9,258.3 		"/>
	</g>
	<text transform="matrix(1.0096 0 0 1 576.7598 213.645)" class="st2 st3 st4">&lt;/CODE&gt;</text>
</g>
<g>
	<g>
		<path class="st1" d="M1295.6,424.7c0,9.9-8,17.8-18,17.8h-146.3c-10,0-18-8-18-17.8v-91.4c0-9.9,8-17.8,18-17.8h146.3
			c10,0,18,8,18,17.8V424.7z"/>
		<polygon class="st1" points="1140.3,423.2 1069.6,423.2 1138.8,372.8 		"/>
	</g>
	<text transform="matrix(1.0096 0 0 1 1153.0557 403.8789)" class="st2 st3 st36">&lt;/&gt;</text>
</g>
</svg>
