<?xml version="1.0" encoding="utf-8"?>
<!-- Generator: Adobe Illustrator 23.0.5, SVG Export Plug-In . SVG Version: 6.00 Build 0)  -->
<svg version="1.1" id="Layer_1" xmlns="http://www.w3.org/2000/svg" xmlns:xlink="http://www.w3.org/1999/xlink" x="0px" y="0px"
	 viewBox="0 0 520.7 547.8" style="enable-background:new 0 0 520.7 547.8;" xml:space="preserve">
<style type="text/css">
	.st0{fill-rule:evenodd;clip-rule:evenodd;fill:#C2D4FF;}
	.st1{fill-rule:evenodd;clip-rule:evenodd;fill:#99B7FF;}
	.st2{fill-rule:evenodd;clip-rule:evenodd;fill:#FFFFFF;}
</style>
<title>pattern illustration 2</title>
<path class="st0" d="M4.4,264.8C14.2,180.9,66.6,117.5,136,93.3C179.7,78,320.6,81.1,387.8,159c93.8,108.7,3.6,184.4-95.1,172.3
	c-135.9-16.7-17.2,102.9-104.4,179.4C119,571.3,136,458.4,53,425.6C-8,401.4-3.2,329.9,4.4,264.8z"/>
<path class="st1" d="M516.2,404.4c19.1,43.3-25.2,132.7-102.9,133.3s-146.8-79.8-165.9-123s52.6,5.5,117.7-30.9
	S497.1,361.1,516.2,404.4z"/>
<g>
	<path class="st2" d="M127.1,179.9c0,1.7-2,3-3.7,3c-1.7,0-3-1.3-3-3c0-1.7,1.3-4.1,3-4.1S127.1,178.2,127.1,179.9z"/>
	<path class="st2" d="M140.9,179.9c0,1.7-2,3-3.7,3c-1.7,0-3-1.3-3-3c0-1.7,1.3-4.1,3-4.1S140.9,178.2,140.9,179.9z"/>
	<path class="st2" d="M154.8,179.9c0,1.7-2,3-3.7,3c-1.7,0-3-1.3-3-3c0-1.7,1.3-4.1,3-4.1S154.8,178.2,154.8,179.9z"/>
	<path class="st2" d="M168.6,179.9c0,1.7-2,3-3.7,3c-1.7,0-3-1.3-3-3c0-1.7,1.4-4.1,3-4.1S168.6,178.2,168.6,179.9z"/>
	<path class="st2" d="M182.4,179.9c0,1.7-2,3-3.7,3c-1.7,0-3-1.3-3-3c0-1.7,1.4-4.1,3-4.1S182.4,178.2,182.4,179.9z"/>
	<path class="st2" d="M196.3,179.9c0,1.7-2,3-3.7,3c-1.7,0-3-1.3-3-3c0-1.7,1.4-4.1,3-4.1S196.3,178.2,196.3,179.9z"/>
	<path class="st2" d="M210.1,179.9c0,1.7-2,3-3.7,3c-1.7,0-3-1.3-3-3c0-1.7,1.4-4.1,3-4.1S210.1,178.2,210.1,179.9z"/>
	<path class="st2" d="M223.9,179.9c0,1.7-2,3-3.7,3c-1.7,0-3-1.3-3-3c0-1.7,1.4-4.1,3-4.1S223.9,178.2,223.9,179.9z"/>
	<path class="st2" d="M237.8,179.9c0,1.7-2,3-3.7,3c-1.7,0-3-1.3-3-3c0-1.7,1.3-4.1,3-4.1S237.8,178.2,237.8,179.9z"/>
	<path class="st2" d="M251.6,179.9c0,1.7-2,3-3.7,3c-1.7,0-3-1.3-3-3c0-1.7,1.3-4.1,3-4.1S251.6,178.2,251.6,179.9z"/>
	<path class="st2" d="M265.5,179.9c0,1.7-2,3-3.7,3c-1.7,0-3-1.3-3-3c0-1.7,1.4-4.1,3-4.1S265.5,178.2,265.5,179.9z"/>
	<path class="st2" d="M279.3,179.9c0,1.7-2,3-3.7,3c-1.7,0-3-1.3-3-3c0-1.7,1.4-4.1,3-4.1S279.3,178.2,279.3,179.9z"/>
	<path class="st2" d="M293.1,179.9c0,1.7-2,3-3.7,3c-1.7,0-3-1.3-3-3c0-1.7,1.3-4.1,3-4.1S293.1,178.2,293.1,179.9z"/>
	<path class="st2" d="M307,179.9c0,1.7-2,3-3.7,3c-1.7,0-3-1.3-3-3c0-1.7,1.4-4.1,3-4.1S307,178.2,307,179.9z"/>
	<path class="st2" d="M127.1,192.7c0,1.7-2,3-3.7,3c-1.7,0-3-1.3-3-3c0-1.7,1.3-4.1,3-4.1S127.1,191,127.1,192.7z"/>
	<path class="st2" d="M127.1,206c0,1.7-2,3-3.7,3c-1.7,0-3-1.3-3-3c0-1.7,1.3-4.1,3-4.1S127.1,204.3,127.1,206z"/>
	<path class="st2" d="M140.9,192.7c0,1.7-2,3-3.7,3c-1.7,0-3-1.3-3-3c0-1.7,1.3-4.1,3-4.1S140.9,191,140.9,192.7z"/>
	<path class="st2" d="M154.8,192.7c0,1.7-2,3-3.7,3c-1.7,0-3-1.3-3-3c0-1.7,1.3-4.1,3-4.1S154.8,191,154.8,192.7z"/>
	<path class="st2" d="M168.6,192.7c0,1.7-2,3-3.7,3c-1.7,0-3-1.3-3-3c0-1.7,1.4-4.1,3-4.1S168.6,191,168.6,192.7z"/>
	<path class="st2" d="M182.4,192.7c0,1.7-2,3-3.7,3c-1.7,0-3-1.3-3-3c0-1.7,1.4-4.1,3-4.1S182.4,191,182.4,192.7z"/>
	<path class="st2" d="M196.3,192.7c0,1.7-2,3-3.7,3c-1.7,0-3-1.3-3-3c0-1.7,1.4-4.1,3-4.1S196.3,191,196.3,192.7z"/>
	<path class="st2" d="M210.1,192.7c0,1.7-2,3-3.7,3c-1.7,0-3-1.3-3-3c0-1.7,1.4-4.1,3-4.1S210.1,191,210.1,192.7z"/>
	<path class="st2" d="M223.9,192.7c0,1.7-2,3-3.7,3c-1.7,0-3-1.3-3-3c0-1.7,1.4-4.1,3-4.1S223.9,191,223.9,192.7z"/>
	<path class="st2" d="M237.8,192.7c0,1.7-2,3-3.7,3c-1.7,0-3-1.3-3-3c0-1.7,1.3-4.1,3-4.1S237.8,191,237.8,192.7z"/>
	<path class="st2" d="M251.6,192.7c0,1.7-2,3-3.7,3c-1.7,0-3-1.3-3-3c0-1.7,1.3-4.1,3-4.1S251.6,191,251.6,192.7z"/>
	<path class="st2" d="M265.5,192.7c0,1.7-2,3-3.7,3c-1.7,0-3-1.3-3-3c0-1.7,1.4-4.1,3-4.1S265.5,191,265.5,192.7z"/>
	<path class="st2" d="M279.3,192.7c0,1.7-2,3-3.7,3c-1.7,0-3-1.3-3-3c0-1.7,1.4-4.1,3-4.1S279.3,191,279.3,192.7z"/>
	<path class="st2" d="M293.1,192.7c0,1.7-2,3-3.7,3c-1.7,0-3-1.3-3-3c0-1.7,1.3-4.1,3-4.1S293.1,191,293.1,192.7z"/>
	<path class="st2" d="M307,192.7c0,1.7-2,3-3.7,3c-1.7,0-3-1.3-3-3c0-1.7,1.4-4.1,3-4.1S307,191,307,192.7z"/>
	<path class="st2" d="M140.9,205.5c0,1.7-2,3-3.7,3c-1.7,0-3-1.3-3-3c0-1.7,1.3-4.1,3-4.1S140.9,203.8,140.9,205.5z"/>
	<path class="st2" d="M154.8,205.5c0,1.7-2,3-3.7,3c-1.7,0-3-1.3-3-3c0-1.7,1.3-4.1,3-4.1S154.8,203.8,154.8,205.5z"/>
	<path class="st2" d="M168.6,205.5c0,1.7-2,3-3.7,3c-1.7,0-3-1.3-3-3c0-1.7,1.4-4.1,3-4.1S168.6,203.8,168.6,205.5z"/>
	<path class="st2" d="M182.4,205.5c0,1.7-2,3-3.7,3c-1.7,0-3-1.3-3-3c0-1.7,1.4-4.1,3-4.1S182.4,203.8,182.4,205.5z"/>
	<path class="st2" d="M223.9,205.5c0,1.7-2,3-3.7,3c-1.7,0-3-1.3-3-3c0-1.7,1.4-4.1,3-4.1S223.9,203.8,223.9,205.5z"/>
	<path class="st2" d="M265.5,205.5c0,1.7-2,3-3.7,3c-1.7,0-3-1.3-3-3c0-1.7,1.4-4.1,3-4.1S265.5,203.8,265.5,205.5z"/>
	<path class="st2" d="M279.3,205.5c0,1.7-2,3-3.7,3c-1.7,0-3-1.3-3-3c0-1.7,1.4-4.1,3-4.1S279.3,203.8,279.3,205.5z"/>
	<path class="st2" d="M293.1,205.5c0,1.7-2,3-3.7,3c-1.7,0-3-1.3-3-3c0-1.7,1.3-4.1,3-4.1S293.1,203.8,293.1,205.5z"/>
	<path class="st2" d="M307,205.5c0,1.7-2,3-3.7,3c-1.7,0-3-1.3-3-3c0-1.7,1.4-4.1,3-4.1S307,203.8,307,205.5z"/>
	<path class="st2" d="M127.1,218.2c0,1.7-2,3-3.7,3c-1.7,0-3-1.3-3-3c0-1.7,1.3-4.1,3-4.1S127.1,216.6,127.1,218.2z"/>
	<path class="st2" d="M140.9,218.2c0,1.7-2,3-3.7,3c-1.7,0-3-1.3-3-3c0-1.7,1.3-4.1,3-4.1S140.9,216.6,140.9,218.2z"/>
	<path class="st2" d="M154.8,218.2c0,1.7-2,3-3.7,3c-1.7,0-3-1.3-3-3c0-1.7,1.3-4.1,3-4.1S154.8,216.6,154.8,218.2z"/>
	<path class="st2" d="M168.6,218.2c0,1.7-2,3-3.7,3c-1.7,0-3-1.3-3-3c0-1.7,1.4-4.1,3-4.1S168.6,216.6,168.6,218.2z"/>
	<path class="st2" d="M196.3,218.2c0,1.7-2,3-3.7,3c-1.7,0-3-1.3-3-3c0-1.7,1.4-4.1,3-4.1S196.3,216.6,196.3,218.2z"/>
	<path class="st2" d="M210.1,218.2c0,1.7-2,3-3.7,3c-1.7,0-3-1.3-3-3c0-1.7,1.4-4.1,3-4.1S210.1,216.6,210.1,218.2z"/>
	<path class="st2" d="M223.9,218.2c0,1.7-2,3-3.7,3c-1.7,0-3-1.3-3-3c0-1.7,1.4-4.1,3-4.1S223.9,216.6,223.9,218.2z"/>
	<path class="st2" d="M279.3,218.2c0,1.7-2,3-3.7,3c-1.7,0-3-1.3-3-3c0-1.7,1.4-4.1,3-4.1S279.3,216.6,279.3,218.2z"/>
	<path class="st2" d="M293.1,218.2c0,1.7-2,3-3.7,3c-1.7,0-3-1.3-3-3c0-1.7,1.3-4.1,3-4.1S293.1,216.6,293.1,218.2z"/>
	<path class="st2" d="M307,218.2c0,1.7-2,3-3.7,3c-1.7,0-3-1.3-3-3c0-1.7,1.4-4.1,3-4.1S307,216.6,307,218.2z"/>
	<path class="st2" d="M127.1,231c0,1.7-2,3-3.7,3c-1.7,0-3-1.3-3-3c0-1.7,1.3-4.1,3-4.1S127.1,229.3,127.1,231z"/>
	<path class="st2" d="M140.9,231c0,1.7-2,3-3.7,3c-1.7,0-3-1.3-3-3c0-1.7,1.3-4.1,3-4.1S140.9,229.3,140.9,231z"/>
	<path class="st2" d="M154.8,231c0,1.7-2,3-3.7,3c-1.7,0-3-1.3-3-3c0-1.7,1.3-4.1,3-4.1S154.8,229.3,154.8,231z"/>
	<path class="st2" d="M182.4,231c0,1.7-2,3-3.7,3c-1.7,0-3-1.3-3-3c0-1.7,1.4-4.1,3-4.1S182.4,229.3,182.4,231z"/>
	<path class="st2" d="M196.3,231c0,1.7-2,3-3.7,3c-1.7,0-3-1.3-3-3c0-1.7,1.4-4.1,3-4.1S196.3,229.3,196.3,231z"/>
	<path class="st2" d="M210.1,231c0,1.7-2,3-3.7,3c-1.7,0-3-1.3-3-3c0-1.7,1.4-4.1,3-4.1S210.1,229.3,210.1,231z"/>
	<path class="st2" d="M223.9,231c0,1.7-2,3-3.7,3c-1.7,0-3-1.3-3-3c0-1.7,1.4-4.1,3-4.1S223.9,229.3,223.9,231z"/>
	<path class="st2" d="M237.8,231c0,1.7-2,3-3.7,3c-1.7,0-3-1.3-3-3c0-1.7,1.3-4.1,3-4.1S237.8,229.3,237.8,231z"/>
	<path class="st2" d="M251.6,231c0,1.7-2,3-3.7,3c-1.7,0-3-1.3-3-3c0-1.7,1.3-4.1,3-4.1S251.6,229.3,251.6,231z"/>
	<path class="st2" d="M293.1,231c0,1.7-2,3-3.7,3c-1.7,0-3-1.3-3-3c0-1.7,1.3-4.1,3-4.1S293.1,229.3,293.1,231z"/>
	<path class="st2" d="M307,231c0,1.7-2,3-3.7,3c-1.7,0-3-1.3-3-3c0-1.7,1.4-4.1,3-4.1S307,229.3,307,231z"/>
	<path class="st2" d="M127.1,243.8c0,1.7-2,3-3.7,3c-1.7,0-3-1.3-3-3c0-1.7,1.3-4.1,3-4.1S127.1,242.1,127.1,243.8z"/>
	<path class="st2" d="M140.9,243.8c0,1.7-2,3-3.7,3c-1.7,0-3-1.3-3-3c0-1.7,1.3-4.1,3-4.1S140.9,242.1,140.9,243.8z"/>
	<path class="st2" d="M154.8,243.8c0,1.7-2,3-3.7,3c-1.7,0-3-1.3-3-3c0-1.7,1.3-4.1,3-4.1S154.8,242.1,154.8,243.8z"/>
	<path class="st2" d="M168.6,243.8c0,1.7-2,3-3.7,3c-1.7,0-3-1.3-3-3c0-1.7,1.4-4.1,3-4.1S168.6,242.1,168.6,243.8z"/>
	<path class="st2" d="M182.4,243.8c0,1.7-2,3-3.7,3c-1.7,0-3-1.3-3-3c0-1.7,1.4-4.1,3-4.1S182.4,242.1,182.4,243.8z"/>
	<path class="st2" d="M196.3,243.8c0,1.7-2,3-3.7,3c-1.7,0-3-1.3-3-3c0-1.7,1.4-4.1,3-4.1S196.3,242.1,196.3,243.8z"/>
	<path class="st2" d="M210.1,243.8c0,1.7-2,3-3.7,3c-1.7,0-3-1.3-3-3c0-1.7,1.4-4.1,3-4.1S210.1,242.1,210.1,243.8z"/>
	<path class="st2" d="M223.9,243.8c0,1.7-2,3-3.7,3c-1.7,0-3-1.3-3-3c0-1.7,1.4-4.1,3-4.1S223.9,242.1,223.9,243.8z"/>
	<path class="st2" d="M237.8,243.8c0,1.7-2,3-3.7,3c-1.7,0-3-1.3-3-3c0-1.7,1.3-4.1,3-4.1S237.8,242.1,237.8,243.8z"/>
	<path class="st2" d="M251.6,243.8c0,1.7-2,3-3.7,3c-1.7,0-3-1.3-3-3c0-1.7,1.3-4.1,3-4.1S251.6,242.1,251.6,243.8z"/>
	<path class="st2" d="M265.5,243.8c0,1.7-2,3-3.7,3c-1.7,0-3-1.3-3-3c0-1.7,1.4-4.1,3-4.1S265.5,242.1,265.5,243.8z"/>
	<path class="st2" d="M279.3,243.8c0,1.7-2,3-3.7,3c-1.7,0-3-1.3-3-3c0-1.7,1.4-4.1,3-4.1S279.3,242.1,279.3,243.8z"/>
	<path class="st2" d="M307,243.8c0,1.7-2,3-3.7,3c-1.7,0-3-1.3-3-3c0-1.7,1.4-4.1,3-4.1S307,242.1,307,243.8z"/>
	<path class="st2" d="M237.8,218.8c0,1.7-2,3-3.7,3c-1.7,0-3-1.3-3-3l0,0c0-1.7,1.3-4.1,3-4.1S237.8,217.1,237.8,218.8z"/>
	<path class="st2" d="M251.6,218.8c0,1.7-2,3-3.7,3c-1.7,0-3-1.3-3-3l0,0c0-1.7,1.3-4.1,3-4.1S251.6,217.1,251.6,218.8z"/>
	<path class="st2" d="M265.5,231.5c0,1.7-2,3-3.7,3c-1.7,0-3-1.3-3-3l0,0c0-1.7,1.4-4.1,3-4.1S265.5,229.9,265.5,231.5z"/>
	<path class="st2" d="M293.1,244.3c0,1.7-2,3-3.7,3c-1.7,0-3-1.3-3-3c0-1.7,1.3-4.1,3-4.1S293.1,242.6,293.1,244.3z"/>
	<path class="st2" d="M307,257.1c0,1.7-2,3-3.7,3c-1.7,0-3-1.3-3-3c0-1.7,1.4-4.1,3-4.1S307,255.4,307,257.1z"/>
	<path class="st2" d="M127.1,256.6c0,1.7-2,3-3.7,3c-1.7,0-3-1.3-3-3c0-1.7,1.3-4.1,3-4.1S127.1,254.9,127.1,256.6z"/>
	<path class="st2" d="M140.9,256.6c0,1.7-2,3-3.7,3c-1.7,0-3-1.3-3-3c0-1.7,1.3-4.1,3-4.1S140.9,254.9,140.9,256.6z"/>
	<path class="st2" d="M168.6,256.6c0,1.7-2,3-3.7,3c-1.7,0-3-1.3-3-3c0-1.7,1.4-4.1,3-4.1S168.6,254.9,168.6,256.6z"/>
	<path class="st2" d="M182.4,256.6c0,1.7-2,3-3.7,3c-1.7,0-3-1.3-3-3c0-1.7,1.4-4.1,3-4.1S182.4,254.9,182.4,256.6z"/>
	<path class="st2" d="M196.3,256.6c0,1.7-2,3-3.7,3c-1.7,0-3-1.3-3-3c0-1.7,1.4-4.1,3-4.1S196.3,254.9,196.3,256.6z"/>
	<path class="st2" d="M210.1,256.6c0,1.7-2,3-3.7,3c-1.7,0-3-1.3-3-3c0-1.7,1.4-4.1,3-4.1S210.1,254.9,210.1,256.6z"/>
	<path class="st2" d="M223.9,256.6c0,1.7-2,3-3.7,3c-1.7,0-3-1.3-3-3c0-1.7,1.4-4.1,3-4.1S223.9,254.9,223.9,256.6z"/>
	<path class="st2" d="M237.8,256.6c0,1.7-2,3-3.7,3c-1.7,0-3-1.3-3-3c0-1.7,1.3-4.1,3-4.1S237.8,254.9,237.8,256.6z"/>
	<path class="st2" d="M251.6,256.6c0,1.7-2,3-3.7,3c-1.7,0-3-1.3-3-3c0-1.7,1.3-4.1,3-4.1S251.6,254.9,251.6,256.6z"/>
	<path class="st2" d="M265.5,256.6c0,1.7-2,3-3.7,3c-1.7,0-3-1.3-3-3c0-1.7,1.4-4.1,3-4.1S265.5,254.9,265.5,256.6z"/>
	<path class="st2" d="M279.3,256.6c0,1.7-2,3-3.7,3c-1.7,0-3-1.3-3-3c0-1.7,1.4-4.1,3-4.1S279.3,254.9,279.3,256.6z"/>
	<path class="st2" d="M293.1,256.6c0,1.7-2,3-3.7,3c-1.7,0-3-1.3-3-3c0-1.7,1.3-4.1,3-4.1S293.1,254.9,293.1,256.6z"/>
	<path class="st2" d="M127.1,269.3c0,1.7-2,3-3.7,3c-1.7,0-3-1.3-3-3c0-1.7,1.3-4.1,3-4.1S127.1,267.7,127.1,269.3z"/>
	<path class="st2" d="M140.9,269.3c0,1.7-2,3-3.7,3c-1.7,0-3-1.3-3-3c0-1.7,1.3-4.1,3-4.1S140.9,267.7,140.9,269.3z"/>
	<path class="st2" d="M168.6,269.3c0,1.7-2,3-3.7,3c-1.7,0-3-1.3-3-3c0-1.7,1.4-4.1,3-4.1S168.6,267.7,168.6,269.3z"/>
	<path class="st2" d="M182.4,269.3c0,1.7-2,3-3.7,3c-1.7,0-3-1.3-3-3c0-1.7,1.4-4.1,3-4.1S182.4,267.7,182.4,269.3z"/>
	<path class="st2" d="M196.3,269.3c0,1.7-2,3-3.7,3c-1.7,0-3-1.3-3-3c0-1.7,1.4-4.1,3-4.1S196.3,267.7,196.3,269.3z"/>
	<path class="st2" d="M210.1,269.3c0,1.7-2,3-3.7,3c-1.7,0-3-1.3-3-3c0-1.7,1.4-4.1,3-4.1S210.1,267.7,210.1,269.3z"/>
	<path class="st2" d="M223.9,269.3c0,1.7-2,3-3.7,3c-1.7,0-3-1.3-3-3c0-1.7,1.4-4.1,3-4.1S223.9,267.7,223.9,269.3z"/>
	<path class="st2" d="M237.8,269.3c0,1.7-2,3-3.7,3c-1.7,0-3-1.3-3-3c0-1.7,1.3-4.1,3-4.1S237.8,267.7,237.8,269.3z"/>
	<path class="st2" d="M251.6,269.3c0,1.7-2,3-3.7,3c-1.7,0-3-1.3-3-3c0-1.7,1.3-4.1,3-4.1S251.6,267.7,251.6,269.3z"/>
	<path class="st2" d="M265.5,269.3c0,1.7-2,3-3.7,3c-1.7,0-3-1.3-3-3c0-1.7,1.4-4.1,3-4.1S265.5,267.7,265.5,269.3z"/>
	<path class="st2" d="M279.3,269.3c0,1.7-2,3-3.7,3c-1.7,0-3-1.3-3-3c0-1.7,1.4-4.1,3-4.1S279.3,267.7,279.3,269.3z"/>
	<path class="st2" d="M293.1,269.3c0,1.7-2,3-3.7,3c-1.7,0-3-1.3-3-3c0-1.7,1.3-4.1,3-4.1S293.1,267.7,293.1,269.3z"/>
	<path class="st2" d="M307,269.3c0,1.7-2,3-3.7,3c-1.7,0-3-1.3-3-3c0-1.7,1.4-4.1,3-4.1S307,267.7,307,269.3z"/>
	<path class="st2" d="M127.1,282.1c0,1.7-2,3-3.7,3c-1.7,0-3-1.3-3-3c0-1.7,1.3-4.1,3-4.1S127.1,280.4,127.1,282.1z"/>
	<path class="st2" d="M140.9,282.1c0,1.7-2,3-3.7,3c-1.7,0-3-1.3-3-3c0-1.7,1.3-4.1,3-4.1S140.9,280.4,140.9,282.1z"/>
	<path class="st2" d="M154.8,282.1c0,1.7-2,3-3.7,3c-1.7,0-3-1.3-3-3c0-1.7,1.3-4.1,3-4.1S154.8,280.4,154.8,282.1z"/>
	<path class="st2" d="M168.6,282.1c0,1.7-2,3-3.7,3c-1.7,0-3-1.3-3-3c0-1.7,1.4-4.1,3-4.1S168.6,280.4,168.6,282.1z"/>
	<path class="st2" d="M182.4,282.1c0,1.7-2,3-3.7,3c-1.7,0-3-1.3-3-3c0-1.7,1.4-4.1,3-4.1S182.4,280.4,182.4,282.1z"/>
	<path class="st2" d="M196.3,282.1c0,1.7-2,3-3.7,3c-1.7,0-3-1.3-3-3c0-1.7,1.4-4.1,3-4.1S196.3,280.4,196.3,282.1z"/>
	<path class="st2" d="M210.1,282.1c0,1.7-2,3-3.7,3c-1.7,0-3-1.3-3-3c0-1.7,1.4-4.1,3-4.1S210.1,280.4,210.1,282.1z"/>
	<path class="st2" d="M223.9,282.1c0,1.7-2,3-3.7,3c-1.7,0-3-1.3-3-3c0-1.7,1.4-4.1,3-4.1S223.9,280.4,223.9,282.1z"/>
	<path class="st2" d="M237.8,282.1c0,1.7-2,3-3.7,3c-1.7,0-3-1.3-3-3c0-1.7,1.3-4.1,3-4.1S237.8,280.4,237.8,282.1z"/>
	<path class="st2" d="M251.6,282.1c0,1.7-2,3-3.7,3c-1.7,0-3-1.3-3-3c0-1.7,1.3-4.1,3-4.1S251.6,280.4,251.6,282.1z"/>
	<path class="st2" d="M265.5,282.1c0,1.7-2,3-3.7,3c-1.7,0-3-1.3-3-3c0-1.7,1.4-4.1,3-4.1S265.5,280.4,265.5,282.1z"/>
	<path class="st2" d="M279.3,282.1c0,1.7-2,3-3.7,3c-1.7,0-3-1.3-3-3c0-1.7,1.4-4.1,3-4.1S279.3,280.4,279.3,282.1z"/>
	<path class="st2" d="M293.1,282.1c0,1.7-2,3-3.7,3c-1.7,0-3-1.3-3-3c0-1.7,1.3-4.1,3-4.1S293.1,280.4,293.1,282.1z"/>
	<path class="st2" d="M307,282.1c0,1.7-2,3-3.7,3c-1.7,0-3-1.3-3-3c0-1.7,1.4-4.1,3-4.1S307,280.4,307,282.1z"/>
	<path class="st2" d="M127.1,294.9c0,1.7-2,3-3.7,3c-1.7,0-3-1.3-3-3c0-1.7,1.3-4.1,3-4.1S127.1,293.2,127.1,294.9z"/>
	<path class="st2" d="M140.9,294.9c0,1.7-2,3-3.7,3c-1.7,0-3-1.3-3-3c0-1.7,1.3-4.1,3-4.1S140.9,293.2,140.9,294.9z"/>
	<path class="st2" d="M168.6,294.9c0,1.7-2,3-3.7,3c-1.7,0-3-1.3-3-3c0-1.7,1.4-4.1,3-4.1S168.6,293.2,168.6,294.9z"/>
	<path class="st2" d="M182.4,294.9c0,1.7-2,3-3.7,3c-1.7,0-3-1.3-3-3c0-1.7,1.4-4.1,3-4.1S182.4,293.2,182.4,294.9z"/>
	<path class="st2" d="M196.3,294.9c0,1.7-2,3-3.7,3c-1.7,0-3-1.3-3-3c0-1.7,1.4-4.1,3-4.1S196.3,293.2,196.3,294.9z"/>
	<path class="st2" d="M210.1,294.9c0,1.7-2,3-3.7,3c-1.7,0-3-1.3-3-3c0-1.7,1.4-4.1,3-4.1S210.1,293.2,210.1,294.9z"/>
	<path class="st2" d="M223.9,294.9c0,1.7-2,3-3.7,3c-1.7,0-3-1.3-3-3c0-1.7,1.4-4.1,3-4.1S223.9,293.2,223.9,294.9z"/>
	<path class="st2" d="M237.8,294.9c0,1.7-2,3-3.7,3c-1.7,0-3-1.3-3-3c0-1.7,1.3-4.1,3-4.1S237.8,293.2,237.8,294.9z"/>
	<path class="st2" d="M251.6,294.9c0,1.7-2,3-3.7,3c-1.7,0-3-1.3-3-3c0-1.7,1.3-4.1,3-4.1S251.6,293.2,251.6,294.9z"/>
	<path class="st2" d="M265.5,294.9c0,1.7-2,3-3.7,3c-1.7,0-3-1.3-3-3c0-1.7,1.4-4.1,3-4.1S265.5,293.2,265.5,294.9z"/>
	<path class="st2" d="M293.1,294.9c0,1.7-2,3-3.7,3c-1.7,0-3-1.3-3-3c0-1.7,1.3-4.1,3-4.1S293.1,293.2,293.1,294.9z"/>
	<path class="st2" d="M307,294.9c0,1.7-2,3-3.7,3c-1.7,0-3-1.3-3-3c0-1.7,1.4-4.1,3-4.1S307,293.2,307,294.9z"/>
	<path class="st2" d="M127.1,307.7c0,1.7-2,3-3.7,3c-1.7,0-3-1.3-3-3c0-1.7,1.3-4.1,3-4.1S127.1,306,127.1,307.7z"/>
	<path class="st2" d="M140.9,307.7c0,1.7-2,3-3.7,3c-1.7,0-3-1.3-3-3c0-1.7,1.3-4.1,3-4.1S140.9,306,140.9,307.7z"/>
	<path class="st2" d="M168.6,307.7c0,1.7-2,3-3.7,3c-1.7,0-3-1.3-3-3c0-1.7,1.4-4.1,3-4.1S168.6,306,168.6,307.7z"/>
	<path class="st2" d="M182.4,307.7c0,1.7-2,3-3.7,3c-1.7,0-3-1.3-3-3c0-1.7,1.4-4.1,3-4.1S182.4,306,182.4,307.7z"/>
	<path class="st2" d="M196.3,307.7c0,1.7-2,3-3.7,3c-1.7,0-3-1.3-3-3c0-1.7,1.4-4.1,3-4.1S196.3,306,196.3,307.7z"/>
	<path class="st2" d="M210.1,307.7c0,1.7-2,3-3.7,3c-1.7,0-3-1.3-3-3c0-1.7,1.4-4.1,3-4.1S210.1,306,210.1,307.7z"/>
	<path class="st2" d="M223.9,307.7c0,1.7-2,3-3.7,3c-1.7,0-3-1.3-3-3c0-1.7,1.4-4.1,3-4.1S223.9,306,223.9,307.7z"/>
	<path class="st2" d="M237.8,307.7c0,1.7-2,3-3.7,3c-1.7,0-3-1.3-3-3c0-1.7,1.3-4.1,3-4.1S237.8,306,237.8,307.7z"/>
	<path class="st2" d="M251.6,307.7c0,1.7-2,3-3.7,3c-1.7,0-3-1.3-3-3c0-1.7,1.3-4.1,3-4.1S251.6,306,251.6,307.7z"/>
	<path class="st2" d="M293.1,307.7c0,1.7-2,3-3.7,3c-1.7,0-3-1.3-3-3c0-1.7,1.3-4.1,3-4.1S293.1,306,293.1,307.7z"/>
	<path class="st2" d="M307,307.7c0,1.7-2,3-3.7,3c-1.7,0-3-1.3-3-3c0-1.7,1.4-4.1,3-4.1S307,306,307,307.7z"/>
	<path class="st2" d="M127.1,320.4c0,1.7-2,3-3.7,3c-1.7,0-3-1.3-3-3c0-1.7,1.3-4.1,3-4.1S127.1,318.8,127.1,320.4z"/>
	<path class="st2" d="M140.9,320.4c0,1.7-2,3-3.7,3c-1.7,0-3-1.3-3-3c0-1.7,1.3-4.1,3-4.1S140.9,318.8,140.9,320.4z"/>
	<path class="st2" d="M154.8,320.4c0,1.7-2,3-3.7,3c-1.7,0-3-1.3-3-3c0-1.7,1.3-4.1,3-4.1S154.8,318.8,154.8,320.4z"/>
	<path class="st2" d="M182.4,320.4c0,1.7-2,3-3.7,3c-1.7,0-3-1.3-3-3c0-1.7,1.4-4.1,3-4.1S182.4,318.8,182.4,320.4z"/>
	<path class="st2" d="M196.3,320.4c0,1.7-2,3-3.7,3c-1.7,0-3-1.3-3-3c0-1.7,1.4-4.1,3-4.1S196.3,318.8,196.3,320.4z"/>
	<path class="st2" d="M210.1,320.4c0,1.7-2,3-3.7,3c-1.7,0-3-1.3-3-3c0-1.7,1.4-4.1,3-4.1S210.1,318.8,210.1,320.4z"/>
	<path class="st2" d="M223.9,320.4c0,1.7-2,3-3.7,3c-1.7,0-3-1.3-3-3c0-1.7,1.4-4.1,3-4.1S223.9,318.8,223.9,320.4z"/>
	<path class="st2" d="M237.8,320.4c0,1.7-2,3-3.7,3c-1.7,0-3-1.3-3-3c0-1.7,1.3-4.1,3-4.1S237.8,318.8,237.8,320.4z"/>
	<path class="st2" d="M279.3,320.4c0,1.7-2,3-3.7,3c-1.7,0-3-1.3-3-3c0-1.7,1.4-4.1,3-4.1S279.3,318.8,279.3,320.4z"/>
	<path class="st2" d="M293.1,320.4c0,1.7-2,3-3.7,3c-1.7,0-3-1.3-3-3c0-1.7,1.3-4.1,3-4.1S293.1,318.8,293.1,320.4z"/>
	<path class="st2" d="M307,320.4c0,1.7-2,3-3.7,3c-1.7,0-3-1.3-3-3c0-1.7,1.4-4.1,3-4.1S307,318.8,307,320.4z"/>
	<path class="st2" d="M127.1,333.2c0,1.7-2,3-3.7,3c-1.7,0-3-1.3-3-3c0-1.7,1.3-4.1,3-4.1S127.1,331.5,127.1,333.2z"/>
	<path class="st2" d="M140.9,333.2c0,1.7-2,3-3.7,3c-1.7,0-3-1.3-3-3c0-1.7,1.3-4.1,3-4.1S140.9,331.5,140.9,333.2z"/>
	<path class="st2" d="M154.8,333.2c0,1.7-2,3-3.7,3c-1.7,0-3-1.3-3-3c0-1.7,1.3-4.1,3-4.1S154.8,331.5,154.8,333.2z"/>
	<path class="st2" d="M168.6,333.2c0,1.7-2,3-3.7,3c-1.7,0-3-1.3-3-3c0-1.7,1.4-4.1,3-4.1S168.6,331.5,168.6,333.2z"/>
	<path class="st2" d="M182.4,333.2c0,1.7-2,3-3.7,3c-1.7,0-3-1.3-3-3c0-1.7,1.4-4.1,3-4.1S182.4,331.5,182.4,333.2z"/>
	<path class="st2" d="M237.8,333.2c0,1.7-2,3-3.7,3c-1.7,0-3-1.3-3-3c0-1.7,1.3-4.1,3-4.1S237.8,331.5,237.8,333.2z"/>
	<path class="st2" d="M265.5,333.2c0,1.7-2,3-3.7,3c-1.7,0-3-1.3-3-3c0-1.7,1.4-4.1,3-4.1S265.5,331.5,265.5,333.2z"/>
	<path class="st2" d="M279.3,333.2c0,1.7-2,3-3.7,3c-1.7,0-3-1.3-3-3c0-1.7,1.4-4.1,3-4.1S279.3,331.5,279.3,333.2z"/>
	<path class="st2" d="M293.1,333.2c0,1.7-2,3-3.7,3c-1.7,0-3-1.3-3-3c0-1.7,1.3-4.1,3-4.1S293.1,331.5,293.1,333.2z"/>
	<path class="st2" d="M307,333.2c0,1.7-2,3-3.7,3c-1.7,0-3-1.3-3-3c0-1.7,1.4-4.1,3-4.1S307,331.5,307,333.2z"/>
	<path class="st2" d="M127.1,346c0,1.7-2,3-3.7,3c-1.7,0-3-1.3-3-3c0-1.7,1.3-4.1,3-4.1S127.1,344.3,127.1,346z"/>
	<path class="st2" d="M140.9,346c0,1.7-2,3-3.7,3c-1.7,0-3-1.3-3-3c0-1.7,1.3-4.1,3-4.1S140.9,344.3,140.9,346z"/>
	<path class="st2" d="M154.8,346c0,1.7-2,3-3.7,3c-1.7,0-3-1.3-3-3c0-1.7,1.3-4.1,3-4.1S154.8,344.3,154.8,346z"/>
	<path class="st2" d="M168.6,346c0,1.7-2,3-3.7,3c-1.7,0-3-1.3-3-3c0-1.7,1.4-4.1,3-4.1S168.6,344.3,168.6,346z"/>
	<path class="st2" d="M182.4,346c0,1.7-2,3-3.7,3c-1.7,0-3-1.3-3-3c0-1.7,1.4-4.1,3-4.1S182.4,344.3,182.4,346z"/>
	<path class="st2" d="M196.3,346c0,1.7-2,3-3.7,3c-1.7,0-3-1.3-3-3c0-1.7,1.4-4.1,3-4.1S196.3,344.3,196.3,346z"/>
	<path class="st2" d="M210.1,346c0,1.7-2,3-3.7,3c-1.7,0-3-1.3-3-3c0-1.7,1.4-4.1,3-4.1S210.1,344.3,210.1,346z"/>
	<path class="st2" d="M223.9,346c0,1.7-2,3-3.7,3c-1.7,0-3-1.3-3-3c0-1.7,1.4-4.1,3-4.1S223.9,344.3,223.9,346z"/>
	<path class="st2" d="M251.6,346c0,1.7-2,3-3.7,3c-1.7,0-3-1.3-3-3c0-1.7,1.3-4.1,3-4.1S251.6,344.3,251.6,346z"/>
	<path class="st2" d="M265.5,346c0,1.7-2,3-3.7,3c-1.7,0-3-1.3-3-3c0-1.7,1.4-4.1,3-4.1S265.5,344.3,265.5,346z"/>
	<path class="st2" d="M279.3,346c0,1.7-2,3-3.7,3c-1.7,0-3-1.3-3-3c0-1.7,1.4-4.1,3-4.1S279.3,344.3,279.3,346z"/>
	<path class="st2" d="M293.1,346c0,1.7-2,3-3.7,3c-1.7,0-3-1.3-3-3c0-1.7,1.3-4.1,3-4.1S293.1,344.3,293.1,346z"/>
	<path class="st2" d="M307,346c0,1.7-2,3-3.7,3c-1.7,0-3-1.3-3-3c0-1.7,1.4-4.1,3-4.1S307,344.3,307,346z"/>
	<path class="st2" d="M127.1,358.8c0,1.7-2,3-3.7,3c-1.7,0-3-1.3-3-3c0-1.7,1.3-4.1,3-4.1S127.1,357.1,127.1,358.8z"/>
	<path class="st2" d="M140.9,358.8c0,1.7-2,3-3.7,3c-1.7,0-3-1.3-3-3c0-1.7,1.3-4.1,3-4.1S140.9,357.1,140.9,358.8z"/>
	<path class="st2" d="M154.8,358.8c0,1.7-2,3-3.7,3c-1.7,0-3-1.3-3-3c0-1.7,1.3-4.1,3-4.1S154.8,357.1,154.8,358.8z"/>
	<path class="st2" d="M168.6,358.8c0,1.7-2,3-3.7,3c-1.7,0-3-1.3-3-3c0-1.7,1.4-4.1,3-4.1S168.6,357.1,168.6,358.8z"/>
	<path class="st2" d="M182.4,358.8c0,1.7-2,3-3.7,3c-1.7,0-3-1.3-3-3c0-1.7,1.4-4.1,3-4.1S182.4,357.1,182.4,358.8z"/>
	<path class="st2" d="M196.3,358.8c0,1.7-2,3-3.7,3c-1.7,0-3-1.3-3-3c0-1.7,1.4-4.1,3-4.1S196.3,357.1,196.3,358.8z"/>
	<path class="st2" d="M210.1,358.8c0,1.7-2,3-3.7,3c-1.7,0-3-1.3-3-3c0-1.7,1.4-4.1,3-4.1S210.1,357.1,210.1,358.8z"/>
	<path class="st2" d="M237.8,358.8c0,1.7-2,3-3.7,3c-1.7,0-3-1.3-3-3c0-1.7,1.3-4.1,3-4.1S237.8,357.1,237.8,358.8z"/>
	<path class="st2" d="M251.6,358.8c0,1.7-2,3-3.7,3c-1.7,0-3-1.3-3-3c0-1.7,1.3-4.1,3-4.1S251.6,357.1,251.6,358.8z"/>
	<path class="st2" d="M265.5,358.8c0,1.7-2,3-3.7,3c-1.7,0-3-1.3-3-3c0-1.7,1.4-4.1,3-4.1S265.5,357.1,265.5,358.8z"/>
	<path class="st2" d="M279.3,358.8c0,1.7-2,3-3.7,3c-1.7,0-3-1.3-3-3c0-1.7,1.4-4.1,3-4.1S279.3,357.1,279.3,358.8z"/>
	<path class="st2" d="M293.1,358.8c0,1.7-2,3-3.7,3c-1.7,0-3-1.3-3-3c0-1.7,1.3-4.1,3-4.1S293.1,357.1,293.1,358.8z"/>
	<path class="st2" d="M307,358.8c0,1.7-2,3-3.7,3c-1.7,0-3-1.3-3-3c0-1.7,1.4-4.1,3-4.1S307,357.1,307,358.8z"/>
	<path class="st2" d="M279.3,306.7c0,1.7-2,3-3.7,3c-1.7,0-3-1.3-3-3c0-1.7,1.4-4.1,3-4.1S279.3,305.1,279.3,306.7z"/>
	<path class="st2" d="M265.5,319.5c0,1.7-2,3-3.7,3c-1.7,0-3-1.3-3-3c0-1.7,1.4-4.1,3-4.1S265.5,317.9,265.5,319.5z"/>
	<path class="st2" d="M251.6,332.3c0,1.7-2,3-3.7,3c-1.7,0-3-1.3-3-3c0-1.7,1.3-4.1,3-4.1S251.6,330.6,251.6,332.3z"/>
	<path class="st2" d="M237.8,345.1c0,1.7-2,3-3.7,3c-1.7,0-3-1.3-3-3c0-1.7,1.3-4.1,3-4.1S237.8,343.4,237.8,345.1z"/>
	<path class="st2" d="M223.9,357.9c0,1.7-2,3-3.7,3c-1.7,0-3-1.3-3-3c0-1.7,1.4-4.1,3-4.1S223.9,356.2,223.9,357.9z"/>
</g>
</svg>
