<?xml version="1.0" encoding="utf-8"?>
<!-- Generator: Adobe Illustrator 23.0.5, SVG Export Plug-In . SVG Version: 6.00 Build 0)  -->
<svg version="1.1" id="Layer_1" xmlns="http://www.w3.org/2000/svg" xmlns:xlink="http://www.w3.org/1999/xlink" x="0px" y="0px"
	 viewBox="0 0 1654.2 1200" style="enable-background:new 0 0 1654.2 1200;" xml:space="preserve">
<style type="text/css">
	.st0{fill:#C0D6FF;}
	.st1{opacity:0.5;fill:#42538A;}
	.st2{fill:#FBA47A;}
	.st3{fill:#42538A;}
	.st4{font-family:'QuicksandBold-Regular';}
	.st5{font-size:53.6384px;}
	.st6{fill:url(#SVGID_1_);}
	.st7{opacity:0.5;}
	.st8{fill:#789EEA;}
	.st9{opacity:0.7;}
	.st10{fill:url(#SVGID_2_);}
	.st11{fill:url(#SVGID_3_);}
	.st12{fill:url(#SVGID_4_);}
	.st13{opacity:0.6;fill:url(#SVGID_5_);}
	.st14{fill:#EA875B;}
	.st15{opacity:0.6;fill:url(#SVGID_6_);}
	.st16{opacity:0.4;}
	.st17{fill:url(#SVGID_7_);}
	.st18{fill:url(#SVGID_8_);}
	.st19{opacity:0.6;fill:url(#SVGID_9_);}
	.st20{opacity:0.5;fill:url(#SVGID_10_);}
	.st21{fill:#2D3246;}
	.st22{fill:#FFFFFF;}
	.st23{opacity:0.1;fill:url(#SVGID_11_);}
	.st24{opacity:0.5;fill:url(#SVGID_12_);}
	.st25{opacity:0.6;fill:url(#SVGID_13_);}
	.st26{fill:#5571B7;}
	.st27{opacity:0.6;fill:url(#SVGID_14_);}
	.st28{fill:url(#SVGID_15_);}
	.st29{fill:url(#SVGID_16_);}
	.st30{opacity:0.3;fill:url(#SVGID_17_);}
	.st31{fill:url(#SVGID_18_);}
</style>
<title>m2</title>
<g>
	<g>
		<g>
			<g>
				<path class="st0" d="M1027,591h-19.2c-1.1,0-2-0.9-2-2l0,0c0-1.1,0.9-2,2-2h19.2c1.1,0,2,0.9,2,2l0,0
					C1028.9,590.1,1028,591,1027,591z"/>
				<path class="st0" d="M1019.3,579.4v19.2c0,1.1-0.9,2-2,2l0,0c-1.1,0-2-0.9-2-2v-19.2c0-1.1,0.9-2,2-2l0,0
					C1018.4,577.5,1019.3,578.3,1019.3,579.4z"/>
			</g>
			<g>
				<path class="st0" d="M1137,942.9h-19.2c-1.1,0-2-0.9-2-2l0,0c0-1.1,0.9-2,2-2h19.2c1.1,0,2,0.9,2,2l0,0
					C1139,942,1138.1,942.9,1137,942.9z"/>
				<path class="st0" d="M1129.3,931.3v19.2c0,1.1-0.9,2-2,2l0,0c-1.1,0-2-0.9-2-2v-19.2c0-1.1,0.9-2,2-2l0,0
					C1128.5,929.4,1129.3,930.3,1129.3,931.3z"/>
			</g>
			<g>
				<path class="st0" d="M677.9,367.3h-19.2c-1.1,0-2-0.9-2-2l0,0c0-1.1,0.9-2,2-2h19.2c1.1,0,2,0.9,2,2l0,0
					C679.9,366.4,679,367.3,677.9,367.3z"/>
				<path class="st0" d="M670.3,355.7V375c0,1.1-0.9,2-2,2l0,0c-1.1,0-2-0.9-2-2v-19.2c0-1.1,0.9-2,2-2l0,0
					C669.4,353.8,670.3,354.6,670.3,355.7z"/>
			</g>
			<g>
				<path class="st0" d="M376.9,885.8h-19.2c-1.1,0-2-0.9-2-2l0,0c0-1.1,0.9-2,2-2h19.2c1.1,0,2,0.9,2,2l0,0
					C378.9,884.9,378,885.8,376.9,885.8z"/>
				<path class="st0" d="M369.3,874.2v19.2c0,1.1-0.9,2-2,2l0,0c-1.1,0-2-0.9-2-2v-19.2c0-1.1,0.9-2,2-2l0,0
					C368.4,872.2,369.3,873.1,369.3,874.2z"/>
			</g>
			<g>
				<path class="st0" d="M768.6,801.1h-19.2c-1.1,0-2-0.9-2-2l0,0c0-1.1,0.9-2,2-2h19.2c1.1,0,2,0.9,2,2l0,0
					C770.5,800.2,769.7,801.1,768.6,801.1z"/>
				<path class="st0" d="M760.9,789.5v19.2c0,1.1-0.9,2-2,2l0,0c-1.1,0-2-0.9-2-2v-19.2c0-1.1,0.9-2,2-2l0,0
					C760,787.6,760.9,788.4,760.9,789.5z"/>
			</g>
			<path class="st0" d="M1096.9,636.6h-31.3c-1.1,0-2-0.9-2-2l0,0c0-1.1,0.9-2,2-2h31.3c1.1,0,2,0.9,2,2l0,0
				C1098.9,635.7,1098,636.6,1096.9,636.6z"/>
			<path class="st0" d="M1132.8,644.2c0,1.1-0.9,2-2,2H1080c-1.1,0-2-0.9-2-2c0-1.1,0.9-2,2-2h50.8
				C1131.9,642.2,1132.8,643.1,1132.8,644.2z"/>
			<path class="st0" d="M424,952.5c0,1.1-0.9,2-2,2h-50.8c-1.1,0-2-0.9-2-2s0.9-2,2-2h50.8C423.2,950.6,424,951.5,424,952.5z"/>
			<path class="st0" d="M584.9,441.3h-31.3c-1.1,0-2-0.9-2-2l0,0c0-1.1,0.9-2,2-2h31.3c1.1,0,2,0.9,2,2l0,0
				C586.9,440.5,586,441.3,584.9,441.3z"/>
			<path class="st0" d="M649.1,430.9c0,1.1-0.9,2-2,2h-49c-1.1,0-2-0.9-2-2c0-1.1,0.9-2,2-2h49C648.2,428.9,649.1,429.8,649.1,430.9
				z"/>
			<path class="st0" d="M620.8,448.9c0,1.1-0.9,2-2,2H568c-1.1,0-2-0.9-2-2c0-1.1,0.9-2,2-2h50.8C619.9,447,620.8,447.9,620.8,448.9
				z"/>
			<path class="st0" d="M853.4,372.8h-31.3c-1.1,0-2-0.9-2-2l0,0c0-1.1,0.9-2,2-2h31.3c1.1,0,2,0.9,2,2l0,0
				C855.4,371.9,854.5,372.8,853.4,372.8z"/>
			<path class="st0" d="M438.7,965.3h-31.3c-1.1,0-2-0.9-2-2l0,0c0-1.1,0.9-2,2-2h31.3c1.1,0,2,0.9,2,2l0,0
				C440.6,964.4,439.7,965.3,438.7,965.3z"/>
			<path class="st0" d="M826.9,360.8c0,1.1-0.9,2-2,2h-50.8c-1.1,0-2-0.9-2-2s0.9-2,2-2h50.8C826,358.8,826.9,359.7,826.9,360.8z"/>
			<path class="st0" d="M826.5,379.7c0,1.1-0.9,2-2,2H741c-1.1,0-2-0.9-2-2c0-1.1,0.9-2,2-2h83.6
				C825.6,377.7,826.5,378.6,826.5,379.7z"/>
		</g>
		<g>
			<g>
				<rect x="446.8" y="503.8" class="st1" width="341.4" height="241.3"/>
				<g>
					<rect x="419.7" y="477.3" class="st0" width="341.4" height="241.3"/>
					<rect x="419.7" y="477.3" class="st2" width="341.4" height="25.1"/>
					<g>
						<rect x="449.2" y="603.4" class="st3" width="103.6" height="4.4"/>
						<rect x="449.2" y="611.9" class="st3" width="93.9" height="4.4"/>
						<rect x="449.2" y="620.3" class="st3" width="59.4" height="4.4"/>
						<rect x="449.2" y="628.8" class="st3" width="97.1" height="4.4"/>
						<rect x="449.2" y="637.2" class="st3" width="103.6" height="4.4"/>
						<rect x="586.5" y="526.6" class="st3" width="128.2" height="4.4"/>
						<rect x="586.5" y="535" class="st3" width="145.1" height="4.4"/>
						<rect x="586.5" y="543.5" class="st3" width="140.7" height="4.4"/>
						<rect x="586.5" y="551.9" class="st3" width="136" height="4.4"/>
						<rect x="586.5" y="560.4" class="st3" width="145.1" height="4.4"/>
						<rect x="449.2" y="654.2" class="st3" width="74.9" height="4.7"/>
						<rect x="449.2" y="662.6" class="st3" width="103.6" height="4.4"/>
						<rect x="449.2" y="671.1" class="st3" width="58.3" height="4.4"/>
						<rect x="449.2" y="679.5" class="st3" width="103.6" height="4.4"/>
						<rect x="449.2" y="688" class="st3" width="91.6" height="4.4"/>
						<rect x="586.5" y="578" class="st3" width="145.1" height="4.7"/>
						<rect x="586.5" y="586.5" class="st3" width="112.8" height="4.7"/>
						<rect x="586.5" y="595" class="st3" width="129.2" height="4.4"/>
						<rect x="586.5" y="603.4" class="st3" width="95.9" height="4.4"/>
						<rect x="586.5" y="611.9" class="st3" width="128.2" height="4.4"/>
						<g>
							<path class="st3" d="M653.9,692.6h-67.4v-67.4h67.4V692.6z M589.3,689.8h61.9v-61.9h-61.9V689.8z"/>
							<g>
								
									<rect x="618.9" y="613.2" transform="matrix(0.7071 -0.7071 0.7071 0.7071 -284.2286 631.5426)" class="st3" width="2.7" height="91.4"/>
								
									<rect x="574.5" y="657.5" transform="matrix(0.7071 -0.7071 0.7071 0.7071 -284.2289 631.553)" class="st3" width="91.4" height="2.7"/>
							</g>
						</g>
						<g>
							<path class="st3" d="M733,692.6h-67.4v-67.4H733V692.6z M668.3,689.8h61.9v-61.9h-61.9V689.8z"/>
							<g>
								
									<rect x="697.9" y="613.2" transform="matrix(0.7071 -0.7071 0.7071 0.7071 -261.0729 687.4462)" class="st3" width="2.7" height="91.4"/>
								
									<rect x="653.6" y="657.5" transform="matrix(0.7071 -0.7071 0.7071 0.7071 -261.0726 687.4555)" class="st3" width="91.4" height="2.7"/>
							</g>
						</g>
						<g>
							<path class="st3" d="M554.2,592.6H447.9v-67.4h106.4V592.6z M450.6,589.9h100.9v-61.9H450.6V589.9z"/>
							
								<rect x="499.7" y="497.8" transform="matrix(0.5293 -0.8485 0.8485 0.5293 -238.3243 688.2088)" class="st3" width="2.7" height="122.2"/>
							
								<rect x="440" y="557.5" transform="matrix(0.8485 -0.5292 0.5292 0.8485 -219.8537 349.8436)" class="st3" width="122.2" height="2.7"/>
						</g>
					</g>
				</g>
			</g>
			<g>
				<g>
					<rect x="403.2" y="391.9" class="st1" width="133.7" height="85.3"/>
					<rect x="388.2" y="377" class="st0" width="133.7" height="85.3"/>
					<rect x="388.2" y="377" class="st2" width="133.7" height="16.1"/>
				</g>
				<g>
					<rect x="380.9" y="377" class="st1" width="24.2" height="24.2"/>
					<g>
						<rect x="374.5" y="370.6" class="st0" width="24.2" height="24.2"/>
						<g>
							
								<rect x="376.9" y="381.7" transform="matrix(0.7072 -0.7071 0.7071 0.7072 -157.3317 385.4181)" class="st3" width="19.5" height="1.9"/>
							
								<rect x="385.7" y="372.9" transform="matrix(0.7071 -0.7071 0.7071 0.7071 -157.3316 385.4362)" class="st3" width="1.9" height="19.5"/>
						</g>
					</g>
				</g>
				<text transform="matrix(1 0 0 1 412.6704 446.0684)" class="st3 st4 st5">CSS</text>
			</g>
			<g>
				<g>
					<rect x="899.1" y="350.5" class="st1" width="133.7" height="85.3"/>
					<rect x="884.1" y="335.5" class="st0" width="133.7" height="85.3"/>
					<rect x="884.1" y="335.5" class="st2" width="133.7" height="16.1"/>
				</g>
				<g>
					<rect x="876.8" y="335.5" class="st1" width="24.2" height="24.2"/>
					<g>
						<rect x="870.4" y="329.1" class="st0" width="24.2" height="24.2"/>
						<g>
							
								<rect x="872.7" y="340.3" transform="matrix(0.7071 -0.7071 0.7071 0.7071 17.2005 723.9724)" class="st3" width="19.5" height="1.9"/>
							
								<rect x="881.5" y="331.5" transform="matrix(0.7071 -0.7071 0.7071 0.7071 17.1881 723.9444)" class="st3" width="1.9" height="19.5"/>
						</g>
					</g>
				</g>
				<text transform="matrix(1 0 0 1 903.04 404.6431)" class="st3 st4 st5">C++</text>
			</g>
			<g>
				<g>
					<rect x="989.3" y="457.4" class="st1" width="159.6" height="101.8"/>
					<rect x="971.4" y="439.5" class="st0" width="159.6" height="101.8"/>
					<rect x="971.4" y="439.5" class="st2" width="159.6" height="19.3"/>
				</g>
				<g>
					<rect x="962.7" y="439.5" class="st1" width="28.9" height="28.9"/>
					<g>
						<rect x="955.1" y="431.8" class="st0" width="28.9" height="28.9"/>
						<g>
							
								<rect x="957.9" y="445.1" transform="matrix(0.7071 -0.7071 0.7071 0.7071 -31.5933 816.2573)" class="st3" width="23.3" height="2.3"/>
							
								<rect x="968.4" y="434.6" transform="matrix(0.7071 -0.7071 0.7071 0.7071 -31.6053 816.2247)" class="st3" width="2.3" height="23.3"/>
						</g>
					</g>
				</g>
				<g>
					<path class="st3" d="M1026.8,521.7l-23.4-19.8c-1.2-1-1.2-2.9,0-4l23.4-19.8c1-0.8,2.4-0.7,3.2,0.3l0,0c0.8,1,0.7,2.4-0.3,3.2
						l-19.2,16.3c-1.2,1-1.2,2.9,0,4l19.2,16.3c1,0.8,1.1,2.3,0.3,3.2l0,0C1029.3,522.4,1027.8,522.5,1026.8,521.7z"/>
					<path class="st3" d="M1072.5,521.4L1072.5,521.4c-0.8-1-0.7-2.4,0.3-3.2l19.2-16.3c1.2-1,1.2-2.9,0-4l-19.2-16.3
						c-1-0.8-1.1-2.3-0.3-3.2l0,0c0.8-1,2.3-1.1,3.2-0.3l23.4,19.8c1.2,1,1.2,2.9,0,4l-23.4,19.8
						C1074.7,522.5,1073.3,522.4,1072.5,521.4z"/>
					<path class="st3" d="M1037.3,532.1L1037.3,532.1c-1.2-0.5-1.8-1.8-1.3-3l24.5-61.3c0.5-1.2,1.8-1.8,3-1.3l0,0
						c1.2,0.5,1.8,1.8,1.3,3l-24.5,61.3C1039.8,532,1038.4,532.5,1037.3,532.1z"/>
				</g>
			</g>
		</g>
	</g>
	<g>
		<g>
			<path class="st3" d="M905.7,671.3c21.2-27.4,178.3-18.8,213.5,17.6c35.2,36.3-54.7,187.4-53.4,317.8
				c0.2,21.4-182.2,17.8-199.5-2.2C839.2,973.1,835.2,762.2,905.7,671.3z"/>
			<linearGradient id="SVGID_1_" gradientUnits="userSpaceOnUse" x1="903.2308" y1="966.3775" x2="1069.0498" y2="710.6569">
				<stop  offset="0" style="stop-color:#2D3246"/>
				<stop  offset="1" style="stop-color:#2C3144;stop-opacity:0"/>
			</linearGradient>
			<path class="st6" d="M905.7,671.3c21.2-27.4,178.3-18.8,213.5,17.6c35.2,36.3-54.7,187.4-53.4,317.8
				c0.2,21.4-182.2,17.8-199.5-2.2C839.2,973.1,835.2,762.2,905.7,671.3z"/>
			<g>
				<g>
					<path class="st3" d="M661.5,970.8c0.6,18.2-116.6,23.9-124.7,9.9s11.9-33.1,27.9-39.3C591.3,931.1,660.7,946,661.5,970.8z"/>
					<g>
						<path class="st0" d="M610.2,927.3c-6.9-1.8-25-4.3-29-3.6c-7.6,1.2-22.4,11.4-19.6,15.8c2.8,4.5,16.6-3,21.1-2.7
							c4.5,0.3,25.7,3.9,25.7,3.9L610.2,927.3z"/>
						<path class="st0" d="M766.9,896.8c9.3-2.3,35.3-68,54.2-91.6c18.9-23.6,55.4-14.2,56.3,13.6c1.6,48.3-54,124.9-64.9,131.7
							c-15.7,9.7-137.3,26.9-148.4,25.1c-11.2-1.8-32.2-29.8-19.7-39.2C656.9,927,752.7,900.2,766.9,896.8z"/>
						<path class="st0" d="M659,931.1c-9.8,2.9-45.2-8.2-54.3-6.1c-9,2.1-30.9,12.3-31.6,17.9c-0.7,5.6,27.9-2.5,32.6-2.2
							c4.7,0.3,31.5,13,32.9,20.5c1.4,7.5-21,16.7-24.5,23.9c-3.5,7.2,6.5,7.3,12.8,5.1c6.4-2.2,22.1-10.7,26.3-10.9
							s20.1-3.3,20.1-3.3L659,931.1z"/>
					</g>
					<g class="st7">
						<path class="st8" d="M610.2,927.3c-6.9-1.8-25-4.3-29-3.6c-7.6,1.2-22.4,11.4-19.6,15.8c2.8,4.5,16.6-3,21.1-2.7
							c4.5,0.3,25.7,3.9,25.7,3.9L610.2,927.3z"/>
						<path class="st8" d="M766.9,896.8c9.3-2.3,35.3-68,54.2-91.6c18.9-23.6,55.4-14.2,56.3,13.6c1.6,48.3-54,124.9-64.9,131.7
							c-15.7,9.7-137.3,26.9-148.4,25.1c-11.2-1.8-32.2-29.8-19.7-39.2C656.9,927,752.7,900.2,766.9,896.8z"/>
						<path class="st8" d="M659,931.1c-9.8,2.9-45.2-8.2-54.3-6.1c-9,2.1-30.9,12.3-31.6,17.9c-0.7,5.6,27.9-2.5,32.6-2.2
							c4.7,0.3,31.5,13,32.9,20.5c1.4,7.5-21,16.7-24.5,23.9c-3.5,7.2,6.5,7.3,12.8,5.1c6.4-2.2,22.1-10.7,26.3-10.9
							s20.1-3.3,20.1-3.3L659,931.1z"/>
					</g>
					<g class="st9">
						<linearGradient id="SVGID_2_" gradientUnits="userSpaceOnUse" x1="719.2196" y1="743.4235" x2="658.2669" y2="832.0081">
							<stop  offset="0" style="stop-color:#2D3246"/>
							<stop  offset="1" style="stop-color:#2C3144;stop-opacity:0"/>
						</linearGradient>
						<path class="st10" d="M610.2,927.3c-6.9-1.8-25-4.3-29-3.6c-7.6,1.2-22.4,11.4-19.6,15.8c2.8,4.5,16.6-3,21.1-2.7
							c4.5,0.3,25.7,3.9,25.7,3.9L610.2,927.3z"/>
						<linearGradient id="SVGID_3_" gradientUnits="userSpaceOnUse" x1="819.9161" y1="812.7097" x2="758.9634" y2="901.2944">
							<stop  offset="0" style="stop-color:#2D3246"/>
							<stop  offset="1" style="stop-color:#2C3144;stop-opacity:0"/>
						</linearGradient>
						<path class="st11" d="M766.9,896.8c9.3-2.3,35.3-68,54.2-91.6c18.9-23.6,55.4-14.2,56.3,13.6c1.6,48.3-54,124.9-64.9,131.7
							c-15.7,9.7-137.3,26.9-148.4,25.1c-11.2-1.8-32.2-29.8-19.7-39.2C656.9,927,752.7,900.2,766.9,896.8z"/>
						<linearGradient id="SVGID_4_" gradientUnits="userSpaceOnUse" x1="754.7795" y1="767.8905" x2="693.8267" y2="856.4752">
							<stop  offset="0" style="stop-color:#2D3246"/>
							<stop  offset="1" style="stop-color:#2C3144;stop-opacity:0"/>
						</linearGradient>
						<path class="st12" d="M659,931.1c-9.8,2.9-45.2-8.2-54.3-6.1c-9,2.1-30.9,12.3-31.6,17.9c-0.7,5.6,27.9-2.5,32.6-2.2
							c4.7,0.3,31.5,13,32.9,20.5c1.4,7.5-21,16.7-24.5,23.9c-3.5,7.2,6.5,7.3,12.8,5.1c6.4-2.2,22.1-10.7,26.3-10.9
							s20.1-3.3,20.1-3.3L659,931.1z"/>
					</g>
					<path class="st2" d="M864.5,727.3c-23.2,9.5-43.5,38.6-54.5,59.7c-11.1,21.1-23.1,52.3-21.6,55.6c1.4,3.3,32.5,31.5,84.4,31.7
						c9,0,29.5-69,31.8-92.4C906.8,758.5,904.7,711,864.5,727.3z"/>
					<linearGradient id="SVGID_5_" gradientUnits="userSpaceOnUse" x1="856.4575" y1="857.0934" x2="842.9815" y2="779.4083">
						<stop  offset="0" style="stop-color:#EA875B"/>
						<stop  offset="1" style="stop-color:#EA875B;stop-opacity:0"/>
					</linearGradient>
					<path class="st13" d="M864.5,727.3c-23.2,9.5-43.5,38.6-54.5,59.7c-11.1,21.1-23.1,52.3-21.6,55.6c1.4,3.3,32.5,31.5,84.4,31.7
						c9,0,29.5-69,31.8-92.4C906.8,758.5,904.7,711,864.5,727.3z"/>
					<path class="st14" d="M780.6,844.2c23.1,27.3,63.5,37.4,97.6,35.8c7.5-0.4,7.1-12-0.4-11.6c-31.4,1.5-68.1-7.5-89.3-32.6
						C783.7,830,775.8,838.5,780.6,844.2L780.6,844.2z"/>
				</g>
				<path class="st2" d="M932.5,704.2c-17.9,0-70.1,22.2-85.9,60.1c-15.8,37.9-36.3,232.9-37.9,237.9c-1.7,5,81.1,21.8,134.2,21.8
					s110.7-12.3,115.1-18.4c4.4-6.1-25-188.4-26-203.1C1031,787.7,1017.8,704.2,932.5,704.2z"/>
				<linearGradient id="SVGID_6_" gradientUnits="userSpaceOnUse" x1="1016.7233" y1="1048.4165" x2="954.9238" y2="946.8888">
					<stop  offset="0" style="stop-color:#EA875B"/>
					<stop  offset="1" style="stop-color:#EA875B;stop-opacity:0"/>
				</linearGradient>
				<path class="st15" d="M932.5,704.2c-17.9,0-70.1,22.2-85.9,60.1c-15.8,37.9-36.3,232.9-37.9,237.9c-1.7,5,81.1,21.8,134.2,21.8
					s110.7-12.3,115.1-18.4c4.4-6.1-25-188.4-26-203.1C1031,787.7,1017.8,704.2,932.5,704.2z"/>
				<path class="st14" d="M909.5,706c-0.8-3-6.1-4.7-9.9,0s-25.5,43.1-8.6,53.1c16.9,10,48-3.7,66.1-28c14.2-19,14.7-25.6,15.1-29.8
					s-8.7-5.8-11.4-0.5C958.6,704.8,909.5,706,909.5,706z"/>
				<g>
					<path class="st3" d="M836.3,804.3c-5.8,20.4-9.3,41.7-12.6,62.6c-3.2,19.8-6.9,40.3-7.2,60.4c0,1.3,2.1,1.7,2.4,0.3
						c3.6-20.3,5.1-41.1,8.4-61.5c3.3-20.5,8.1-40.7,11.7-61.1C839.3,803.3,836.8,802.6,836.3,804.3z"/>
					<path class="st3" d="M839.4,795c-0.9-0.1-1.6,0.6-1.5,1.5c-0.2,1.4,1.7,2.7,2.9,1.5C842,796.8,840.8,794.8,839.4,795z"/>
				</g>
				<g>
					<g>
						<path class="st0" d="M904.4,913.1c11.2-2.3,42.7-99.4,66.2-127c23.5-27.5,66.8-14.8,66.8,18.4c0,57.8-67.3,166.7-80.6,174.4
							c-19.1,11-167.3,7.2-180.6,4.7c-13.3-2.6-37.3-36.8-22-47.6C769.6,925.4,887.2,916.7,904.4,913.1z"/>
						<path class="st0" d="M767.1,931.5c-25.2,1.7-45.6,2.3-59.7,6.6c-14.1,4.3-51.7,25.4-53.2,30.4s11.1,1.2,11.1,1.2
							s-11.7,9.1-9.4,13.6c2.3,4.5,29-7.5,29-7.5s-15.8,12-12.3,17c3.5,5,20.8-3.8,20.8-3.8s-6.3,5.3-2.7,8.8
							c3.6,3.5,34-14,45.4-14.5c11.4-0.4,21.2,5.1,38.5,0L767.1,931.5z"/>
					</g>
					<g class="st16">
						<linearGradient id="SVGID_7_" gradientUnits="userSpaceOnUse" x1="959.7136" y1="801.319" x2="843.497" y2="977.6757">
							<stop  offset="0" style="stop-color:#2D3246"/>
							<stop  offset="1" style="stop-color:#2C3144;stop-opacity:0"/>
						</linearGradient>
						<path class="st17" d="M904.4,913.1c11.2-2.3,42.7-99.4,66.2-127c23.5-27.5,66.8-14.8,66.8,18.4c0,57.8-67.3,166.7-80.6,174.4
							c-19.1,11-167.3,7.2-180.6,4.7c-13.3-2.6-37.3-36.8-22-47.6C769.6,925.4,887.2,916.7,904.4,913.1z"/>
						<linearGradient id="SVGID_8_" gradientUnits="userSpaceOnUse" x1="868.8809" y1="741.4617" x2="752.6641" y2="917.8188">
							<stop  offset="0" style="stop-color:#2D3246"/>
							<stop  offset="1" style="stop-color:#2C3144;stop-opacity:0"/>
						</linearGradient>
						<path class="st18" d="M767.1,931.5c-25.2,1.7-45.6,2.3-59.7,6.6c-14.1,4.3-51.7,25.4-53.2,30.4s11.1,1.2,11.1,1.2
							s-11.7,9.1-9.4,13.6c2.3,4.5,29-7.5,29-7.5s-15.8,12-12.3,17c3.5,5,20.8-3.8,20.8-3.8s-6.3,5.3-2.7,8.8
							c3.6,3.5,34-14,45.4-14.5c11.4-0.4,21.2,5.1,38.5,0L767.1,931.5z"/>
					</g>
					<g>
						<path class="st2" d="M970.6,710.2c14.1,3.9,66.4,26.4,78.7,57.5c12.3,31.1-11.8,113.2-15.3,115.4
							c-3.5,2.2-63.5,0.7-102.9-31.4C922.7,844.9,970.6,710.2,970.6,710.2z"/>
						<linearGradient id="SVGID_9_" gradientUnits="userSpaceOnUse" x1="1049.4574" y1="890.109" x2="970.001" y2="780.6357">
							<stop  offset="0" style="stop-color:#EA875B"/>
							<stop  offset="1" style="stop-color:#EA875B;stop-opacity:0"/>
						</linearGradient>
						<path class="st19" d="M970.6,710.2c14.1,3.9,66.4,26.4,78.7,57.5c12.3,31.1-11.8,113.2-15.3,115.4
							c-3.5,2.2-63.5,0.7-102.9-31.4C922.7,844.9,970.6,710.2,970.6,710.2z"/>
						<g>
							<path class="st3" d="M936.8,809.9c-3.8,13.4-6.9,27.1-8.2,41c-0.1,1.4,2.1,1.7,2.4,0.3c2.6-13.6,5-27.2,8-40.7
								C939.3,809.1,937.2,808.5,936.8,809.9z"/>
							<path class="st3" d="M940.5,803.9c-0.8-0.8-2-0.6-2.6,0.3c-0.1,0.1-0.1,0.2-0.2,0.3c-0.8,1.3,0.8,3,2.2,2.2
								c0.1-0.1,0.2-0.1,0.3-0.2C941.1,806,941.3,804.7,940.5,803.9z"/>
						</g>
						<path class="st14" d="M922.8,851.7c26.9,29.9,72.8,40.3,111.2,37.2c7.4-0.6,7.5-12.2,0-11.6c-35.6,2.9-78-6-103-33.8
							C926,837.9,917.8,846.2,922.8,851.7L922.8,851.7z"/>
					</g>
				</g>
			</g>
			<g>
				<path class="st0" d="M960.1,651.9c-0.1,1.6-0.1,3,0,4.2c0,0.1,0,0.3,0,0.4c0.9,14.3,1.7,43.2,0,47.5
					c-12,30.1-47.7,51.6-59.4,45.9s6.2-30.7,8.2-38.1c0.3-1,0.4-2.1,0.6-3.5c0.9-8.9-0.6-24.5-0.6-24.5s-26.6,15.2-49.5,0
					c-13.7-9-16.9-44.3-14.7-74.9c0.1-1.8,0.3-3.7,0.5-5.5c0.5-5.5,1.2-10.8,2.1-15.7c2-11.5,4.7-20.7,7.9-25.2
					c24.6-35.2,97-11.3,105.9,11.4c4.6,11.8,4.1,29.1,2.6,45.1C962.4,631.8,960.5,644,960.1,651.9z"/>
				<linearGradient id="SVGID_10_" gradientUnits="userSpaceOnUse" x1="904.3268" y1="561.6382" x2="904.3268" y2="608.3022">
					<stop  offset="0" style="stop-color:#2D3246"/>
					<stop  offset="1" style="stop-color:#2C3144;stop-opacity:0"/>
				</linearGradient>
				<path class="st20" d="M960.1,651.9c-0.1,1.6-0.1,3,0,4.2c0,0.1,0,0.3,0,0.4c0.9,14.3,1.7,43.2,0,47.5
					c-12,30.1-47.7,51.6-59.4,45.9s6.2-30.7,8.2-38.1c0.3-1,0.4-2.1,0.6-3.5c0.9-8.9-0.6-24.5-0.6-24.5s-26.6,15.2-49.5,0
					c-13.7-9-16.9-44.3-14.7-74.9c0.1-1.8,0.3-3.7,0.5-5.5c0.5-5.5,1.2-10.8,2.1-15.7c2-11.5,4.7-20.7,7.9-25.2
					c24.6-35.2,97-11.3,105.9,11.4c4.6,11.8,4.1,29.1,2.6,45.1C962.4,631.8,960.5,644,960.1,651.9z"/>
				<path class="st21" d="M948.4,630.6c-3.7,8.8-11.8,0.6-13.8-23.3c-0.2-2.4-22.6,3.7-29.2-23.3c0,0-21.6,16.9-35.7-8.9
					c0,0-12.1,15.1-27,12.1c-19.2-3.8-23.3-40.9-3.6-57.4c20.8-17.5,41.1,2.2,41.1,2.2s18.5-11.5,40-4.8c22.4,7,27.3,29.9,27.3,29.9
					s17.8,2.4,29.9,18.5c12.1,16.1-11.7,76.2-17.1,76.4C955,652.1,948.4,630.6,948.4,630.6z"/>
				<g>
					<path class="st21" d="M854.7,625.5c0.1,2.3-1.2,4.3-3,4.4c-1.8,0.1-3.3-1.7-3.5-4c-0.1-2.3,1.2-4.3,3-4.4
						C853.1,621.4,854.6,623.2,854.7,625.5z"/>
					<path class="st21" d="M894.6,627.4c0.1,2.3-1.2,4.3-3,4.4c-1.8,0.1-3.3-1.7-3.5-4s1.2-4.3,3-4.4
						C892.9,623.3,894.5,625.1,894.6,627.4z"/>
					<path class="st21" d="M859.2,605.3c0.1,2.2-3.4,4.2-8,4.5c-4.5,0.3-8.3-1.3-8.5-3.5c-0.1-2.2,3.4-4.2,8-4.5
						C855.3,601.5,859,603.1,859.2,605.3z"/>
					<path class="st21" d="M901.4,610.3c-0.5,2.1-4.6,3-9,1.9c-4.4-1.1-7.5-3.8-7-5.9c0.5-2.1,4.6-3,9-1.9
						C898.8,605.5,901.9,608.1,901.4,610.3z"/>
					<path class="st8" d="M869,639c-1.2,0.7-4.3,2.3-5.6,0.9c-1.6-1.8,2.1-26.1,2.8-32c0.1-0.6-0.8-0.8-1-0.2
						c-2.6,9.4-7.2,34.5-2.6,35.1c2.6,0.3,5.6-1,7.3-2.4C870.7,639.7,870,638.5,869,639z"/>
					<g>
						<path class="st22" d="M892.9,655.9c-2.5,3.2-6.9,4.3-10.9,4.4c-3.7,0.1-8.8-1-10.5-4.7c-0.1-0.3-0.3-0.7-0.3-1
							c0-0.1,0-0.2-0.1-0.3c-0.4-2.3,0.5-4.9,3.2-5.5c2.4-0.5,4.5,0.3,6.9,0.2c1.9-0.1,3.3-0.9,4.8-2c3.5-2.4,7.4-0.6,8.4,2.7
							c0,0.1,0.1,0.3,0.1,0.4C894.9,651.8,894.5,653.8,892.9,655.9z"/>
						<linearGradient id="SVGID_11_" gradientUnits="userSpaceOnUse" x1="882.189" y1="648.5298" x2="882.9956" y2="653.5487">
							<stop  offset="0" style="stop-color:#2D3246"/>
							<stop  offset="1" style="stop-color:#2C3144;stop-opacity:0"/>
						</linearGradient>
						<path class="st23" d="M892.9,655.9c-2.5,3.2-6.9,4.3-10.9,4.4c-3.7,0.1-8.8-1-10.5-4.7c-0.1-0.3-0.3-0.7-0.3-1
							c0-0.1,0-0.2-0.1-0.3c-0.4-2.3,0.5-4.9,3.2-5.5c2.4-0.5,4.5,0.3,6.9,0.2c1.9-0.1,3.3-0.9,4.8-2c3.5-2.4,7.4-0.6,8.4,2.7
							c0,0.1,0.1,0.3,0.1,0.4C894.9,651.8,894.5,653.8,892.9,655.9z"/>
						<g>
							<path class="st8" d="M882.1,654.6c-3.6,0.6-7.4,0.7-11-0.1c0-0.1,0-0.2-0.1-0.3c3.7,0.5,7.3,0.7,11,0.3
								C882.2,654.5,882.2,654.6,882.1,654.6z"/>
							<path class="st8" d="M894.5,650c-1.8,1.5-3.8,2.5-6.1,3.2c-0.1,0-0.1-0.1,0-0.2c2.2-0.8,4.2-2,6-3.5
								C894.4,649.7,894.4,649.9,894.5,650z"/>
						</g>
					</g>
				</g>
				<g>
					<path class="st0" d="M947.5,632.4c2.2-4.8,7-14.2,18.5-13.5c11.7,0.7,17.2,12.8,14.8,23.2c-2.3,10.3-14.8,20.5-30.7,9.7
						L947.5,632.4z"/>
					<path class="st8" d="M971.7,638.6c-3.7-2-9.7-0.5-12.8,2.8c1.6-4.8,4-8.8,8.2-12.2c0.4-0.3-0.1-0.9-0.6-0.7
						c-6,3.3-10.5,10-9.8,17c0,0.1,0.1,0.2,0.2,0.3c0.1,0.2,0.3,0.2,0.5,0.1c0.1,0,0.2-0.1,0.3-0.3c0,0,0,0,0-0.1
						c2.9-4.3,8.5-7.3,13.7-6.3C971.8,639.4,972.1,638.8,971.7,638.6z"/>
				</g>
			</g>
			<linearGradient id="SVGID_12_" gradientUnits="userSpaceOnUse" x1="888.7975" y1="670.2785" x2="920.9023" y2="690.5623">
				<stop  offset="0" style="stop-color:#2D3246"/>
				<stop  offset="1" style="stop-color:#2C3144;stop-opacity:0"/>
			</linearGradient>
			<path class="st24" d="M909.5,708.2c0.9-8.9-0.6-24.5-0.6-24.5s9.1-4.2,19.5-13.2C928.4,670.5,928.7,699.7,909.5,708.2z"/>
		</g>
		<g>
			<polygon class="st3" points="824.8,996 615.3,996 615.3,981.2 824.8,987.2 			"/>
			<g>
				<path class="st21" d="M709.8,916.2H442.6c-13,0-24-9.4-26.1-22.1L385,704.8c-2.7-16.1,9.8-30.8,26.1-30.8h267.3
					c13,0,24,9.4,26.1,22.1l31.4,189.2C738.6,901.5,726.2,916.2,709.8,916.2z"/>
				<path class="st3" d="M692.5,916.2H425.2c-13,0-24-9.4-26.1-22.1l-31.4-189.2c-2.7-16.1,9.8-30.8,26.1-30.8H661
					c13,0,24,9.4,26.1,22.1l31.4,189.2C721.3,901.5,708.8,916.2,692.5,916.2z"/>
				<linearGradient id="SVGID_13_" gradientUnits="userSpaceOnUse" x1="393.6531" y1="928.1053" x2="625.2444" y2="722.0193">
					<stop  offset="0" style="stop-color:#2D3246"/>
					<stop  offset="1" style="stop-color:#2C3144;stop-opacity:0"/>
				</linearGradient>
				<path class="st25" d="M692.5,916.2H425.2c-13,0-24-9.4-26.1-22.1l-31.4-189.2c-2.7-16.1,9.8-30.8,26.1-30.8H661
					c13,0,24,9.4,26.1,22.1l31.4,189.2C721.3,901.5,708.8,916.2,692.5,916.2z"/>
				<rect x="433.7" y="986.6" class="st3" width="220.6" height="9.4"/>
				<polygon class="st21" points="584.7,986.6 477.2,986.6 497.3,832.3 604.8,832.3 				"/>
				<polygon class="st26" points="570.4,986.6 462.8,986.6 482.9,832.3 590.5,832.3 				"/>
				<linearGradient id="SVGID_14_" gradientUnits="userSpaceOnUse" x1="434.1401" y1="1001.4437" x2="617.7809" y2="818.8232">
					<stop  offset="0" style="stop-color:#2D3246"/>
					<stop  offset="1" style="stop-color:#2C3144;stop-opacity:0"/>
				</linearGradient>
				<polygon class="st27" points="570.4,986.6 462.8,986.6 482.9,832.3 590.5,832.3 				"/>
				<g>
					<path class="st26" d="M484.1,807.2L484.1,807.2c-2.4,0-4.4-1.7-4.8-4.1l-6.8-40.8c-0.5-3,1.8-5.7,4.8-5.7l0,0
						c2.4,0,4.4,1.7,4.8,4.1l6.8,40.8C489.5,804.5,487.2,807.2,484.1,807.2z"/>
					<path class="st26" d="M500.8,807.2L500.8,807.2c-2.4,0-4.4-1.7-4.8-4.1l-6.8-40.8c-0.5-3,1.8-5.7,4.8-5.7l0,0
						c2.4,0,4.4,1.7,4.8,4.1l6.8,40.8C506.1,804.5,503.8,807.2,500.8,807.2z"/>
					<path class="st26" d="M517.5,807.2L517.5,807.2c-2.4,0-4.4-1.7-4.8-4.1l-6.8-40.8c-0.5-3,1.8-5.7,4.8-5.7l0,0
						c2.4,0,4.4,1.7,4.8,4.1l6.8,40.8C522.8,804.5,520.5,807.2,517.5,807.2z"/>
					<path class="st26" d="M534.1,807.2L534.1,807.2c-2.4,0-4.4-1.7-4.8-4.1l-6.8-40.8c-0.5-3,1.8-5.7,4.8-5.7l0,0
						c2.4,0,4.4,1.7,4.8,4.1l6.8,40.8C539.5,804.5,537.2,807.2,534.1,807.2z"/>
					<path class="st26" d="M550.8,807.2L550.8,807.2c-2.4,0-4.4-1.7-4.8-4.1l-6.8-40.8c-0.5-3,1.8-5.7,4.8-5.7l0,0
						c2.4,0,4.4,1.7,4.8,4.1l6.8,40.8C556.1,804.5,553.8,807.2,550.8,807.2z"/>
					<path class="st26" d="M567.4,807.2L567.4,807.2c-2.4,0-4.4-1.7-4.8-4.1l-6.8-40.8c-0.5-3,1.8-5.7,4.8-5.7l0,0
						c2.4,0,4.4,1.7,4.8,4.1l6.8,40.8C572.8,804.5,570.5,807.2,567.4,807.2z"/>
					<path class="st26" d="M584.1,807.2L584.1,807.2c-2.4,0-4.4-1.7-4.8-4.1l-6.8-40.8c-0.5-3,1.8-5.7,4.8-5.7l0,0
						c2.4,0,4.4,1.7,4.8,4.1l6.8,40.8C589.5,804.5,587.1,807.2,584.1,807.2z"/>
					<path class="st26" d="M600.8,807.2L600.8,807.2c-2.4,0-4.4-1.7-4.8-4.1l-6.8-40.8c-0.5-3,1.8-5.7,4.8-5.7l0,0
						c2.4,0,4.4,1.7,4.8,4.1l6.8,40.8C606.1,804.5,603.8,807.2,600.8,807.2z"/>
				</g>
			</g>
		</g>
		<rect x="367.3" y="996" class="st21" width="777.2" height="28"/>
	</g>
	<g>
		
			<rect x="871.5" y="908.8" transform="matrix(-1 -1.224647e-16 1.224647e-16 -1 1962.4274 1861.1272)" class="st0" width="219.4" height="43.5"/>
		<linearGradient id="SVGID_15_" gradientUnits="userSpaceOnUse" x1="871.5256" y1="930.5636" x2="1090.9017" y2="930.5636">
			<stop  offset="0" style="stop-color:#2D3246"/>
			<stop  offset="1" style="stop-color:#2C3144;stop-opacity:0"/>
		</linearGradient>
		<polygon class="st28" points="871.5,908.8 1090.9,908.8 1090.9,952.3 871.5,952.3 		"/>
		
			<rect x="871.5" y="908.8" transform="matrix(-1 -1.224647e-16 1.224647e-16 -1 1921.7375 1861.1272)" class="st3" width="178.7" height="43.5"/>
		<linearGradient id="SVGID_16_" gradientUnits="userSpaceOnUse" x1="871.5256" y1="930.5636" x2="1050.212" y2="930.5636">
			<stop  offset="0" style="stop-color:#2D3246"/>
			<stop  offset="1" style="stop-color:#2C3144;stop-opacity:0"/>
		</linearGradient>
		<polygon class="st29" points="871.5,908.8 1050.2,908.8 1050.2,952.3 871.5,952.3 		"/>
		<g>
			
				<rect x="917.9" y="923.2" transform="matrix(-1 -1.224647e-16 1.224647e-16 -1 1944.0393 1861.1272)" class="st0" width="108.3" height="14.7"/>
			<path class="st0" d="M886,930.6c0-4.8,3.9-8.6,8.6-8.6s8.6,3.9,8.6,8.6c0,4.8-3.9,8.6-8.6,8.6S886,935.3,886,930.6z"/>
		</g>
	</g>
	<g>
		<rect x="894.6" y="952.3" class="st26" width="219.4" height="43.5"/>
		<linearGradient id="SVGID_17_" gradientUnits="userSpaceOnUse" x1="894.579" y1="974.0266" x2="1113.9552" y2="974.0266">
			<stop  offset="0" style="stop-color:#2D3246"/>
			<stop  offset="1" style="stop-color:#2C3144;stop-opacity:0"/>
		</linearGradient>
		<rect x="894.6" y="952.3" class="st30" width="219.4" height="43.5"/>
		<rect x="935.3" y="952.3" class="st21" width="178.7" height="43.5"/>
		<linearGradient id="SVGID_18_" gradientUnits="userSpaceOnUse" x1="935.2686" y1="974.0266" x2="1113.9552" y2="974.0266">
			<stop  offset="0" style="stop-color:#2D3246"/>
			<stop  offset="1" style="stop-color:#2C3144;stop-opacity:0"/>
		</linearGradient>
		<rect x="935.3" y="952.3" class="st31" width="178.7" height="43.5"/>
		<g>
			<rect x="959.3" y="966.7" class="st0" width="108.3" height="14.7"/>
			<path class="st0" d="M1099.5,974c0,4.8-3.9,8.6-8.6,8.6c-4.8,0-8.6-3.9-8.6-8.6c0-4.8,3.9-8.6,8.6-8.6
				C1095.7,965.4,1099.5,969.3,1099.5,974z"/>
		</g>
	</g>
</g>
</svg>
