<?xml version="1.0" encoding="utf-8"?>
<!-- Generator: Adobe Illustrator 23.0.5, SVG Export Plug-In . SVG Version: 6.00 Build 0)  -->
<svg version="1.1" id="Layer_1" xmlns="http://www.w3.org/2000/svg" xmlns:xlink="http://www.w3.org/1999/xlink" x="0px" y="0px"
	 viewBox="0 0 541.9 561.2" style="enable-background:new 0 0 541.9 561.2;" xml:space="preserve">
<style type="text/css">
	.st0{fill:#6330A2;}
	.st1{fill:#1B204D;}
	.st2{fill:#008EDD;}
	.st3{font-family:'SourceSansPro-Bold';}
	.st4{font-size:19.6834px;}
	.st5{fill:#FF2086;}
	.st6{fill:#4A2478;}
	.st7{fill:url(#SVGID_1_);}
	.st8{fill:#919191;}
	.st9{fill:#BABBBA;}
	.st10{fill:#D6D8D6;}
	.st11{fill:#0087B2;}
	.st12{fill:#0079A0;}
	.st13{fill:#778586;}
	.st14{fill:#4F475C;}
	.st15{fill:#657172;}
	.st16{fill:#005483;}
	.st17{fill:#004064;}
	.st18{fill:#FF9300;}
	.st19{fill:#FFFFFF;}
	.st20{fill:#FFC5AC;}
	.st21{fill:#EBB59E;}
	.st22{fill:#607CC0;}
	.st23{fill:#566FAC;}
	.st24{fill:#A7339F;}
	.st25{fill:#7C564F;}
	.st26{fill:#DC8C7A;}
	.st27{fill:none;stroke:#DC8C7A;stroke-width:0.9723;stroke-miterlimit:10;}
	.st28{fill:#E37306;}
	.st29{fill:none;stroke:#E37306;stroke-width:0.9723;stroke-miterlimit:10;}
	.st30{fill:#AB7A22;}
	.st31{fill:#B89A22;}
	.st32{fill:url(#SVGID_2_);}
	.st33{fill:#C4C5C4;}
	.st34{fill:#D7D8D7;}
	.st35{fill:none;stroke:#A9A4A9;stroke-miterlimit:10;}
	.st36{font-size:30.2985px;}
</style>
<title>computer_bg</title>
<g>
	<path class="st0" d="M120.9,83.1c-12.9,25.8-4.8,57.1-20.6,80.8s-65,19.8-70.5,75.3S40.9,349.4,79.7,366
		c38.8,16.6,72.9,22.2,82.4,49.9c9.5,27.7,77.7,36.5,114.9,30.9c37.3-5.5,81.6-53.9,119.7-46.8s95.1-18.2,97.5-65
		s-24.6-74.5-25.4-90.4c-0.8-15.9,1.6-20.6,18.2-36.5s33-34.6,29.3-60.2c-5.5-38.8-43.6-74.5-88.8-84.8
		c-46.2-10.5-114.1,42-136.3,34.1c-22.2-7.9-38.8-43.6-69.8-49.9S134.4,56.1,120.9,83.1z"/>
	<path class="st0" d="M533.3,228.3c-0.6-3.1-2.3-5.8-4.6-8c-4.3-7.4-12.6-11.5-21.6-6.9c-9.5,4.8-12.7,19.1-8.2,28.1
		c4.6,9.1,14.7,12.6,23.8,8C529.9,245.8,534.9,236.4,533.3,228.3z"/>
	<path class="st0" d="M108.4,407.2c21.7-13.4,37.2,15.1,36,31.7c-1.2,4.8-10.7,5.9-17.8,3.6c-10.7-4.8-21.4-14.3-21.8-27.9
		C105,412,106.2,409.5,108.4,407.2z"/>
</g>
<g>
	<g>
		<path class="st1" d="M497.4,123c0,5.4-4.4,9.8-9.8,9.8H323c-5.4,0-9.8-4.4-9.8-9.8V46.5c0-5.4,4.4-9.8,9.8-9.8h164.7
			c5.4,0,9.8,4.4,9.8,9.8V123z"/>
		<polygon class="st1" points="360.2,124.8 360.2,163.1 391.3,125.6 		"/>
	</g>
	<text transform="matrix(1 0 0 1 326.7879 71.1407)"><tspan x="0" y="0" class="st2 st3 st4">&lt;html </tspan><tspan x="54.4" y="0" class="st5 st3 st4">lang</tspan><tspan x="90.5" y="0" class="st2 st3 st4">=&quot;en&quot;&gt;</tspan></text>
	<text transform="matrix(1 0 0 1 326.7879 101.422)" class="st2 st3 st4">&lt;body&gt;</text>
</g>
<path class="st6" d="M483.2,501.2c0,19.5-96.9,35.3-216.4,35.3c-119.5,0-216.4-15.8-216.4-35.3c0-19.5,96.9-35.3,216.4-35.3
	C386.3,465.9,483.2,481.7,483.2,501.2z"/>
<g>
	<linearGradient id="SVGID_1_" gradientUnits="userSpaceOnUse" x1="209.9342" y1="183.6243" x2="156.6791" y2="306.3139">
		<stop  offset="5.263160e-03" style="stop-color:#FFFFFF;stop-opacity:0"/>
		<stop  offset="1" style="stop-color:#FFFFFF"/>
	</linearGradient>
	<polygon class="st7" points="71,217.8 140.8,111.6 322.3,210.7 203.4,301 	"/>
	<path class="st8" d="M209.7,302.1c0.1,1.6-1.1,2.9-2.8,2.9H76.1c-1.6,0-3-1.3-3.1-2.9L67,213.4c-0.1-1.6,1.1-2.9,2.8-2.9h130.9
		c1.6,0,3,1.3,3.1,2.9L209.7,302.1z"/>
	<path class="st9" d="M203.8,213.4c-0.1-1.6-1.5-2.9-3.1-2.9h-4.2c1.6,0,3,1.3,3.1,2.9l5.9,88.6c0.1,1.6-1.1,2.9-2.8,2.9h4.2
		c1.6,0,2.9-1.3,2.8-2.9L203.8,213.4z"/>
	<g>
		<path class="st10" d="M153.7,325.8c0,0.5-0.4,0.9-0.9,0.9H133c-0.5,0-0.9-0.4-0.9-0.9v-1.3c0-0.5,0.4-0.9,0.9-0.9h19.7
			c0.5,0,0.9,0.4,0.9,0.9V325.8z"/>
		<path class="st9" d="M137.3,325.1c-0.1,0.9-0.9,1.6-1.8,1.6h-28.1c-0.9,0-1.5-0.7-1.4-1.6l8.7-71.5c0.1-0.9,0.9-1.6,1.8-1.6h28.1
			c0.9,0,1.5,0.7,1.4,1.6L137.3,325.1z"/>
		<path class="st10" d="M146,253.6c0.1-0.9-0.5-1.6-1.4-1.6H141c0.9,0,1.5,0.7,1.4,1.6l-8.7,71.5c-0.1,0.9,1.7,1.6,1.7,1.6
			c0.9,0,1.7-0.7,1.8-1.6L146,253.6z"/>
	</g>
</g>
<g>
	<g>
		<path class="st11" d="M349.9,377.6v85h0c-0.1,1.4-2,2.4-4.4,2.4c-2.4,0-4.3-1.1-4.4-2.4h0v-85H349.9z"/>
	</g>
	<g>
		<g>
			<g>
				<g>
					<path class="st12" d="M288.9,480.7c-2.7,0-5-2.2-5-5c0-11.5,9.1-15.1,17.1-17c9.7-2.3,42-4.4,43.4-4.5c2.7-0.2,5.1,1.9,5.3,4.6
						c0.2,2.7-1.9,5.1-4.6,5.3c-0.3,0-32.8,2.2-41.7,4.3c-9.4,2.2-9.4,4.8-9.4,7.3C293.9,478.5,291.7,480.7,288.9,480.7z"/>
				</g>
			</g>
			<g>
				<path class="st13" d="M300,486c0,6.9-5.6,12.4-12.4,12.4c-6.9,0-12.4-5.6-12.4-12.4c0-6.9,5.6-12.4,12.4-12.4
					C294.4,473.5,300,479.1,300,486z"/>
			</g>
			<g>
				<path class="st14" d="M292.7,486c0,2.8-2.3,5.2-5.1,5.2c-2.8,0-5.1-2.3-5.1-5.2c0-2.8,2.3-5.1,5.1-5.1
					C290.4,480.8,292.7,483.1,292.7,486z"/>
			</g>
		</g>
		<g>
			<g>
				<g>
					<path class="st12" d="M402.2,480.7c2.7,0,5-2.2,5-5c0-11.5-9.1-15.1-17.1-17c-9.7-2.3-42-4.4-43.4-4.5
						c-2.7-0.2-5.1,1.9-5.3,4.6c-0.2,2.7,1.9,5.1,4.6,5.3c0.3,0,32.8,2.2,41.7,4.3c9.4,2.2,9.4,4.8,9.4,7.3
						C397.2,478.5,399.4,480.7,402.2,480.7z"/>
				</g>
			</g>
			<g>
				<path class="st13" d="M391.1,486c0,6.9,5.6,12.4,12.4,12.4c6.9,0,12.4-5.6,12.4-12.4c0-6.9-5.6-12.4-12.4-12.4
					C396.7,473.5,391.1,479.1,391.1,486z"/>
			</g>
			<g>
				<path class="st14" d="M398.4,486c0,2.8,2.3,5.2,5.1,5.2c2.8,0,5.1-2.3,5.1-5.2c0-2.8-2.3-5.1-5.1-5.1
					C400.7,480.8,398.4,483.1,398.4,486z"/>
			</g>
		</g>
	</g>
	<g>
		<path class="st12" d="M345.6,488.4c-2.7,0-5-2.2-5-5v-24.3c0-2.7,2.2-5,5-5c2.7,0,5,2.2,5,5v24.3
			C350.5,486.2,348.3,488.4,345.6,488.4z"/>
	</g>
	<path class="st15" d="M351.5,496.1c0,1.3-1,2.3-2.3,2.3H342c-1.3,0-2.3-1-2.3-2.3V477c0-1.3,1-2.3,2.3-2.3h7.1c1.3,0,2.3,1,2.3,2.3
		V496.1z"/>
	<path class="st16" d="M399.2,361.5c-1.4-1.8-105.9-1.8-107.3,0c-1.8,2.4-8.3,27.9,8.9,27.9c5.8,0,83.7,0,89.4,0
		C407.5,389.4,401,363.9,399.2,361.5z"/>
	<path class="st16" d="M344.7,243.8c8.3-2.4,64.8-6.5,69,7.1c4.2,13.7-7.7,92.7-10.1,111.2s-39.8,11.9-58.9,11.3
		c-19-0.6-25.6-8.9-21.4-24.4c4.2-15.5,14.3-62.4,15.5-72.5C339.9,266.4,336.4,246.2,344.7,243.8z"/>
	<path class="st17" d="M376.8,246.2c0,0,13.7,0.6,13.7,15.5c0,14.9-4.2,35.7-1.2,46.4c3,10.7,4.8,41,2.4,50.5s-15.5,20.8-26.2,20.2
		c-10.7-0.6-47.6,11.9-57.7,0S362.5,241.4,376.8,246.2z"/>
</g>
<g>
	<path class="st18" d="M327.4,159.6c9.5,0.3,29.5,5.2,34.1,28.6c4.6,23.4-0.9,25.1,6.9,33.2c7.8,8.1,16.5,18.8,14.4,31.2
		c-2,12.4-38.4,12.1-38.4,12.1s-47.4,2-50.9-4c-3.5-6.1,4-19.1,3.8-30.3c-0.3-11.3-4.3-38.1-1.2-47.1
		C299.3,174.3,317.8,159.3,327.4,159.6z"/>
	<g>
		<path class="st19" d="M231.4,437.2c0,0-3.9,4.7-11.6,13.4c-2.9,3.2-10.1,7.1-12.6,10.2c-4.8,6-7,10.3,0,12.3
			c5.4,1.5,11.6,2.4,18.1,0.6c5.5-1.5,11.3-11.6,15.7-14.1c4.3-2.5,5.6-3.4,8-5.6c2.4-2.2-0.7-15.1-0.7-15.1L231.4,437.2z"/>
		<path class="st20" d="M231.9,431.7c0,0-7.2,10.7-10,16.2c-2.8,5.5-7,9.1-1.4,10.6c5.6,1.5,9.7-1.3,15.7-5.5
			c5.9-4.2,11.3-6.9,12.1-10.1c0.8-3.2,0.6-8.2,0.2-11.2c-0.5-3,1.9-18.5,1.9-18.5l-14.5-3.5L231.9,431.7z"/>
	</g>
	<g>
		<path class="st19" d="M289.1,462.7c0,0-1.7,5.8-5.3,16.9c-1.3,4.1-6.5,10.5-7.5,14.4c-2.1,7.4-2.4,12.2,4.9,11.3
			c5.5-0.7,11.6-2.4,16.8-6.6c4.4-3.6,5.8-15.2,8.8-19.2c3-4,3.7-5.4,5.1-8.3c1.3-3-6.6-13.6-6.6-13.6L289.1,462.7z"/>
		<path class="st21" d="M287.3,457.5c0,0-2.3,12.7-2.7,18.8c-0.4,6.1-2.8,11.1,3,10.3c5.8-0.8,8.4-5,12.2-11.3
			c3.8-6.2,7.6-10.8,7.1-14.1c-0.5-3.3-2.7-7.8-4.3-10.4c-1.6-2.5-5.6-17.7-5.6-17.7l-14.7,2.5L287.3,457.5z"/>
	</g>
	<path class="st22" d="M312,334.5c0,0-68.8,1.9-74.8,18c-6,16-13.5,83.8-11.6,86c2,2.2,34.4-4.5,34.9-7.2
		c0.9-4.9,7.6-55.9,10.7-61.1c3.2-5.2,28.6,10.1,43.3,8.9c15.2-1.2,31.9-4.5,36.3-13.6c4.1-8.5-2.2-31.7-2.2-31.7L312,334.5z"/>
	<g>
		<path class="st23" d="M336.9,338.2c0,0-13.1,6.7-30.1,13c-14.6,5.4-33.2,9.8-35.5,17.3c-5,16.4,8.4,85.8,10.5,87.9
			c2.1,2.1,31.9-6,32.2-8.7c0.6-5-5.6-60.4-5-63.8c0.7-3.4,20.7-1.6,35.3-3.7c15.1-2.2,27-5.7,33.3-13.6c11-13.6,1.1-41.6,1.1-41.6
			L336.9,338.2z"/>
	</g>
	<path class="st20" d="M303.5,236.5c-4.8,1.6-10.1,8.1-9.7,22.8c0.4,14.7,0.4,27.7,0.4,27.7l-14.1,26.8c0,0,6.9,7.3,10.1,5.4
		s18.2-24,19-26.6C310,290,310.7,234.1,303.5,236.5z"/>
	<path class="st24" d="M342.8,228.5c0,0,25-1.7,31,9c5.9,10.7,4.6,16.9,3.2,28.9c-0.9,7.7-2.7,20.4-3.6,27.7
		c-0.8,7.3,0.7,4.8,2.7,13.9c2,9.1,5.7,25.2,4.8,27.3c-3.6,7.5-30.8,11.2-51.7,9.5c-20.9-1.7-23.8-8.3-23.8-8.3s3.4-28.3,4.2-34.3
		c0.5-3.5-0.9-11.1-2.8-17.6c-1.3-4.6-3.8-6.1-4.8-12.7c-1-6.5,1.8-12.7,1.2-18.4c-0.8-8.2-1.2-16-0.4-17.4c0.8-1.4,3.4-2.6,4.3-2.7
		C323.1,231.1,342.8,228.5,342.8,228.5z"/>
	<path class="st20" d="M330.2,249.8c5.5,0,23.4-11.6,28.9-20.3c-8.1-1.5-19.6-2.9-25.1-2.1c-5.5,0.8-11.1,1.2-24.6,5
		C311.2,240,324.7,249.8,330.2,249.8z"/>
	<path class="st20" d="M380.2,245.8c3.2,11.5,0.6,46.9-6.6,58.4c-5.8,9.3-26.6,12.3-33.3,15.1c-6.7,2.8-11.9-6.8-7.5-9.5
		c4.4-2.8,25.8-14.7,25.8-14.7s-1-48.1,4.2-55.2C367.9,232.8,377,234.4,380.2,245.8z"/>
	<path class="st18" d="M320.2,160.5c0,0-28.1,6.6-25.7,28.2c2,18.1,14,24.3,14,24.3s3.7-23.4,8.6-30.5
		C322.1,175.4,320.2,160.5,320.2,160.5z"/>
	<path class="st20" d="M337.5,171.1c-8.1-7.8-15.3-8.5-25-3.4c-6.6,3.5-11.7,14.9-11.9,23.3c-0.2,6.7,0.8,31.6,19.9,34.4
		c11.4,1.7,14.3-0.5,19.8-6.3C353,205.9,350.5,183.6,337.5,171.1z"/>
	<path class="st20" d="M320.7,212.5l0.7,23.3c0,0,1.6,13.3,8.7,13.3c7.1,0,14.5-17.4,14.5-17.4l-7.9-26.3L320.7,212.5z"/>
	<path class="st18" d="M346.9,200.2c2.1,1.6-1.5,13.4-0.4,13.9c2.2,1,8.3-8.5,10.8-12.9c3.8-6.6,2.3-20.4-1.8-27.6
		c-4.1-7.2-12.3-12.4-21.4-14.8c-9.6-2.5-35.6,9.6-31.1,18.3c4.6,8.7,12.3,9.9,18.1,9.9c5.8,0,13.6,1.8,16.6,3.5
		C340.7,192.2,340.8,195.5,346.9,200.2z"/>
	<path class="st20" d="M351,192.4c-1.1-1.7-3.2-3-5-2.5c-1.6,0.5-6.1,5.6-6.1,11.1c0,4.2,3.8,5.9,6,6.3c2,0.4,3.6-0.8,4.6-2.4
		C352.9,201.6,353.3,196.2,351,192.4z"/>
	<path class="st25" d="M325.5,200.6c0,1.9,1.6,3.5,3.5,3.5c1.9,0,3.5-1.6,3.5-3.5c0-1.9-1.6-3.5-3.5-3.5
		C327,197.1,325.5,198.7,325.5,200.6z"/>
	<path class="st25" d="M305.8,202.9c0,1.9,1.6,3.5,3.5,3.5c1.9,0,3.5-1.6,3.5-3.5c0-1.9-1.6-3.5-3.5-3.5
		C307.3,199.5,305.8,201,305.8,202.9z"/>
	<g>
		<path class="st26" d="M316.5,196.1c0.4,0.5,0.6,1,0.9,1.5c0.3,0.5,0.5,1.1,0.7,1.6c0.2,0.6,0.4,1.1,0.4,1.8c0,0.3,0.1,0.6,0.1,1
			c0,0.4,0,0.8-0.4,1.4l0.2-0.4c-0.3,1.1-0.6,1.8-0.9,2.6c-0.3,0.8-0.5,1.7-0.3,1.8c0.2,0.2,0.7,0.3,1.1,0.4
			c0.4,0.1,0.9,0.2,1.3,0.2c0.9,0.1,1.8,0.2,2.8,0.3c-0.9,0.2-1.8,0.4-2.8,0.4c-0.5,0-0.9,0.1-1.4,0c-0.5,0-1-0.1-1.6-0.3
			c-0.3-0.1-0.7-0.5-0.8-0.8c-0.1-0.3-0.2-0.7-0.2-0.9c0-0.6,0.1-1.1,0.2-1.6c0.2-1,0.6-1.9,0.8-2.6l0.2-0.4c-0.1,0.1,0,0,0-0.2
			c0-0.2,0-0.5,0-0.7c0-0.5-0.1-1.1-0.1-1.6c-0.1-0.6-0.1-1.1-0.1-1.7C316.5,197.3,316.5,196.7,316.5,196.1z"/>
	</g>
	<path class="st27" d="M322.2,225.6c8.5,0.9,11.3-1.2,15.8-4.9"/>
	<g>
		<g>
			<path class="st28" d="M331.1,193.4c0,0,0,0.1,0.1,0.1c0-0.1-0.1-0.2-0.1-0.3c0,0.1,0,0.3,0.1,0.4c0.3-0.3,0.5-0.7,0.8-1
				c-0.2,0-0.1,0-0.2-0.1c-0.1-0.1-0.2-0.1-0.3-0.2c0,0-0.1,0-0.1,0c0,0-0.3-0.1-0.1,0c-0.2,0-0.3-0.1-0.5-0.1c-0.5-0.1-1.1,0-1.6,0
				c-1.1,0.1-2.4,0-3.3,0.7c-0.3,0.2-0.3,0.6-0.1,0.9c0.2,0.3,0.5,0.4,0.9,0.3c0.2-0.1,0.4-0.1,0.6-0.2c0.1,0,0.2-0.1,0.3-0.1
				c0.1,0,0.1,0,0.3,0c0.5,0,1,0,1.5-0.1c0.5,0,1-0.1,1.5-0.1c0.1,0-0.1,0,0,0c0.1,0,0.1,0,0.2,0c0.1,0,0.1,0,0,0c-0.1,0-0.1,0,0,0
				c0,0,0.1,0,0.1,0c0.2,0.1,0.5,0.1,0.7,0.1c0.7-0.1,0.9-0.9,0.3-1.3c-0.1-0.1-0.3-0.1-0.4-0.1c0.1,0,0.2,0.1,0.3,0.1
				c0,0-0.1,0-0.1-0.1C331.4,192.4,330.9,192.9,331.1,193.4L331.1,193.4z"/>
		</g>
	</g>
	<g>
		<g>
			<path class="st28" d="M310.3,195.5C310.3,195.5,310.4,195.6,310.3,195.5c0.1,0.2,0.1,0.2,0.2,0.4c0.2-0.4,0.3-0.8,0.5-1.2
				c-0.2,0-0.4-0.1-0.7-0.2c-0.2,0-0.4,0-0.6,0c-0.6,0-1.2,0.2-1.7,0.3c-0.1,0-0.2,0-0.3,0.1c-0.1,0-0.2,0-0.1,0c-0.1,0-0.2,0-0.3,0
				c-0.3,0-0.5,0.1-0.8,0.2c-0.5,0.2-1.2,0.4-1.5,0.9c-0.1,0.3-0.1,0.6,0.1,0.8c0.2,0.3,0.5,0.3,0.8,0.3c0.3,0,0.5-0.2,0.7-0.3
				c0,0,0.1-0.1,0.1,0c-0.1,0,0.1,0,0.1,0c0.1,0,0.2-0.1,0.3-0.1c0.5-0.1,1-0.2,1.5-0.3c0.2-0.1,0.5-0.1,0.7-0.2
				c0.3-0.1,0.4-0.1,0.6-0.1c0.1,0,0.2,0,0.3,0c0,0,0.1,0,0.1,0c-0.1,0-0.1,0,0,0c0.3,0.1,0.6,0.1,0.9,0c0.6-0.1,0.7-1,0.2-1.2
				c-0.1,0-0.5-0.2-0.5-0.1c0-0.1,0.3,0,0.1,0C310.5,194.5,310,195.1,310.3,195.5L310.3,195.5z"/>
		</g>
	</g>
	<path class="st29" d="M321.3,166.8c0,0,16,0,22.5,20.2"/>
	<path class="st29" d="M306.8,173.4c0,0,7.7,9.3,14.5,10.5"/>
	<path class="st29" d="M314.9,169.8c0,0,18.6,7.2,20,15"/>
	<path class="st19" d="M329.9,210l-14.8,3.3c0,0,6.4,9.2,11.2,6.5C331,217.2,329.9,210,329.9,210z"/>
	<path class="st29" d="M348.7,176.9c0,0,8.4,6.4,8.7,20.8c0.2,10.1-3.2,16.5,0.6,21.4c3.8,4.9,8.7,8.7,9,12.7"/>
	<path class="st29" d="M301.1,210.1c0,0,2.9,3.8,3.8,11.8c0.9,8.1-1.7,9.5-2,12.4"/>
	<path class="st20" d="M334.8,310.6c0,0-13.5-8.7-18.7-7.4c-5.2,1.3-10,0-13.1,4.8c-3,4.8-5.2,9.6-2.6,10.4c1.2,0.4,3-0.5,4.1-2.4
		c1.4-2.3,3.7-3.7,3.7-3.7s-0.9,2.1-1.4,4.5c-0.5,2.3-0.8,4.8,0.5,5.4c1.4,0.7,2.2-0.9,3.3-3.2c0.9-2,3.3-4.7,3.3-4.7
		s-0.7,2-1.1,4.2c-0.4,2.1-0.5,4.3,0.8,4.7c1.2,0.3,3-2.1,3.4-3.3c0.5-1.5,2.8-2.1,2.8-2.1s2.6,5.4,8.8,5.4c6.2,0,11.5-2.5,10.9-5.1
		C338.8,315.5,334.8,310.6,334.8,310.6z"/>
	<path class="st27" d="M311.3,308.8c0,0-4.1,1.7-4.5,8.8"/>
	<path class="st27" d="M319.7,310.1c-3.6-0.6-5.2,2.8-5.9,4.2c-0.7,1.4-2.1,3.9-1.2,6.2"/>
</g>
<g>
	<g>
		<rect x="101.4" y="340.1" class="st30" width="5.4" height="175.4"/>
		<rect x="92.4" y="340.1" class="st31" width="10.1" height="175.4"/>
	</g>
	<g>
		<rect x="170.7" y="329.8" class="st30" width="5.4" height="164.3"/>
		<rect x="161.8" y="329.8" class="st31" width="10.1" height="164.3"/>
	</g>
	<g>
		<rect x="376.8" y="340.1" class="st30" width="5.4" height="175.4"/>
		<rect x="367.9" y="340.1" class="st31" width="10.1" height="175.4"/>
	</g>
	<g>
		<rect x="446.2" y="329.8" class="st30" width="5.4" height="164.3"/>
		<rect x="437.2" y="329.8" class="st31" width="10.1" height="164.3"/>
	</g>
	<path class="st19" d="M477,342.3c0,2-1.6,3.6-3.6,3.6H60.1c-2,0-3.6-1.6-3.6-3.6v-11.9c0-2,1.6-3.6,3.6-3.6h413.4
		c2,0,3.6,1.6,3.6,3.6V342.3z"/>
</g>
<g>
	<linearGradient id="SVGID_2_" gradientUnits="userSpaceOnUse" x1="329.9676" y1="218.6327" x2="276.9787" y2="340.7092">
		<stop  offset="5.263160e-03" style="stop-color:#FFFFFF;stop-opacity:0"/>
		<stop  offset="1" style="stop-color:#FFFFFF"/>
	</linearGradient>
	<polygon class="st32" points="203.4,274.1 254.1,156.8 431.7,221 298.8,324.8 	"/>
	<path class="st33" d="M338.7,323.6l-38-3.9c-4.8-13.5-16.2-56.5-18.3-58.6c-2.5-2.5-87.8-1.3-90.2,2.1
		c-2.5,3.3,18.7,65.9,18.7,65.9s124.5-0.6,127-0.6C340.4,328.6,338.7,323.6,338.7,323.6z"/>
	<path class="st34" d="M245.3,292.3c1.2,4.9-1.4,9.8-5.8,10.9c-4.4,1.1-9-2-10.2-6.9c-1.2-4.9,1.4-9.8,5.8-10.9
		C239.5,284.2,244.1,287.3,245.3,292.3z"/>
	<line class="st35" x1="277.5" y1="266.4" x2="293.2" y2="320.5"/>
	<line class="st35" x1="212.7" y1="324.6" x2="289.4" y2="324.6"/>
	<path class="st34" d="M300.7,319.7c-4.8-13.5-16.2-56.5-18.3-58.6c-0.2-0.2-1.1-0.4-2.4-0.6c0.8,10.7,18.9,64.2,18.9,64.2
		s17.8-0.1,40.1-0.2c-0.1-0.6-0.3-1-0.3-1L300.7,319.7z"/>
</g>
<g>
	<g>
		<path class="st1" d="M170.9,138.5c0,4.9,4,8.9,8.9,8.9h101.3c4.9,0,8.9-4,8.9-8.9V92.6c0-4.9-4-8.9-8.9-8.9H179.8
			c-4.9,0-8.9,4-8.9,8.9V138.5z"/>
		<polygon class="st1" points="277.7,140.1 277.7,175.1 249.3,140.8 		"/>
	</g>
	<text transform="matrix(1 0 0 1 192.973 122.298)" class="st2 st3 st4">&lt;/CODE&gt;</text>
</g>
<g>
	<g>
		<path class="st1" d="M488.2,209.8c0,4.1-3.3,7.4-7.4,7.4h-60.1c-4.1,0-7.4-3.3-7.4-7.4v-37.9c0-4.1,3.3-7.4,7.4-7.4h60.1
			c4.1,0,7.4,3.3,7.4,7.4V209.8z"/>
		<polygon class="st1" points="424.4,209.2 395.4,209.2 423.8,188.3 		"/>
	</g>
	<text transform="matrix(1 0 0 1 429.6571 201.1793)" class="st2 st3 st36">&lt;/&gt;</text>
</g>
</svg>
