<?xml version="1.0" encoding="utf-8"?>
<!-- Generator: Adobe Illustrator 23.0.5, SVG Export Plug-In . SVG Version: 6.00 Build 0)  -->
<svg version="1.1" id="Layer_1" xmlns="http://www.w3.org/2000/svg" xmlns:xlink="http://www.w3.org/1999/xlink" x="0px" y="0px"
	 viewBox="0 0 541.9 561.2" style="enable-background:new 0 0 541.9 561.2;" xml:space="preserve">
<style type="text/css">
	.st0{fill:#E7F3FE;}
	.st1{fill:#CCE2FF;}
	.st2{opacity:0.5;fill:#9EC8FF;}
	.st3{fill:#FFFFFF;}
	.st4{fill:#303C60;}
	.st5{fill:#4476BD;}
	.st6{fill:#3E6BAB;}
	.st7{fill:#F09959;}
	.st8{fill:#A2DFF2;}
	.st9{fill:#96CFE0;}
	.st10{fill:#E38540;}
	.st11{fill:#F5DC95;}
	.st12{fill:#A8CEFF;}
	.st13{fill:#93BBF0;}
	.st14{fill:#75A1DE;}
	.st15{fill:#2E5B9A;}
	.st16{fill:#6791C9;}
	.st17{fill:#F37168;}
	.st18{fill:#D54A41;}
	.st19{fill:#F2E5DE;}
	.st20{fill:#A86B48;}
	.st21{fill:#7A4E34;}
	.st22{fill:#74B570;}
	.st23{fill:#9CD499;}
	.st24{opacity:0.5;fill:#FFFFFF;}
	.st25{fill:#94BDF2;}
	.st26{fill:#9EC8FF;}
	.st27{fill:#F39892;}
	.st28{clip-path:url(#SVGID_2_);fill:#A2DFF2;}
	.st29{clip-path:url(#SVGID_2_);fill:#9CD499;}
	.st30{clip-path:url(#SVGID_2_);fill:#9EC8FF;}
	.st31{clip-path:url(#SVGID_2_);fill:#F39892;}
	.st32{clip-path:url(#SVGID_2_);fill:#FFFFFF;}
	.st33{clip-path:url(#SVGID_2_);fill:#E7F3FE;}
	.st34{fill:#FFB8B3;}
	.st35{fill:#FAE8B6;}
</style>
<title>computer_bg</title>
<g>
	<path class="st0" d="M62,125.2c80.7-29.3,162.6-3.4,218.2,53c55.6,56.4,172.3-38.9,234.2,17.4c42.2,38.4,22.9,137.2-35,180
		c-78.7,58.2-371.9,59.9-420.6,39.9c-83.1-34.1-0.5-97.3-39.3-157.8C-26.3,186.3,26.4,138.1,62,125.2z"/>
	<path class="st1" d="M516,398.7c-40.4-1.9-177.7,1.3-219.5,2.6c-41.8,1.3-90.3-1.7-115.4-6c-25.2-4.3-170.8,0.4-164.2,12.1
		c6.6,11.7,64.9,5.2,130.9,9.9c66.1,4.7,214.6-0.6,248.2,0c33.5,0.6,64.2-1.2,107.4-3.5C546.6,411.4,539.4,399.8,516,398.7z"/>
	<g>
		<path class="st2" d="M428.4,141.3c0.2-1.4,0.2-2.8,0.2-4.3c0-0.8,0-1.5-0.1-2.3l-7.2-2.3c-0.4-3-1.3-5.8-2.5-8.4l4.8-5.7
			c-1.1-1.9-2.4-3.7-3.8-5.4l-7.2,2.3c-2.1-2.1-4.5-3.9-7.1-5.3l0.4-7.4c-2-0.9-4.1-1.6-6.3-2.2l-4.4,6c-1.7-0.3-3.5-0.4-5.3-0.4
			c-1.2,0-2.5,0.1-3.7,0.2l-4.1-6.2c-2.2,0.4-4.3,1.1-6.4,1.8l0,7.4c-2.7,1.3-5.2,3-7.4,5l-7-2.7c-1.5,1.6-2.9,3.3-4.1,5.2l4.4,6
			c-1.4,2.6-2.4,5.3-3,8.3l-7.3,1.9c-0.2,1.4-0.2,2.8-0.2,4.3c0,0.8,0,1.5,0.1,2.3l7.2,2.3c0.4,3,1.3,5.8,2.5,8.4l-4.8,5.7
			c1.1,1.9,2.4,3.7,3.8,5.4l7.2-2.3c2.1,2.1,4.5,3.9,7.1,5.3l-0.4,7.4c2,0.9,4.1,1.6,6.3,2.2l4.4-6c1.7,0.3,3.5,0.4,5.3,0.4
			c1.2,0,2.5-0.1,3.6-0.2l4.1,6.2c2.2-0.4,4.3-1.1,6.4-1.8l0-7.4c2.7-1.3,5.2-3,7.4-5l7,2.7c1.5-1.6,2.9-3.3,4.1-5.2l-4.4-6
			c1.4-2.6,2.4-5.3,3-8.3L428.4,141.3z M390,151.9c-8.4,0-15.2-6.6-15.2-14.8c0-8.2,6.8-14.8,15.2-14.8c8.4,0,15.2,6.6,15.2,14.8
			C405.2,145.3,398.4,151.9,390,151.9z"/>
		<g>
			<path class="st3" d="M410.7,154.2c-0.2,0-0.4-0.1-0.5-0.2c-0.3-0.3-0.4-0.8-0.1-1.1c3.8-4.4,5.9-10.1,5.9-15.9
				c0-2.8-0.5-5.5-1.4-8.1c-0.1-0.4,0.1-0.8,0.5-1c0.4-0.1,0.9,0.1,1,0.5c1,2.8,1.5,5.7,1.5,8.6c0,6.2-2.2,12.1-6.2,16.9
				C411.1,154.1,410.9,154.2,410.7,154.2z"/>
		</g>
		<g>
			<path class="st3" d="M408.5,119.2c-0.2,0-0.4-0.1-0.5-0.2c-2.5-2.3-5.5-4.1-8.8-5.3c-0.4-0.1-0.6-0.6-0.5-1s0.6-0.6,1-0.5
				c3.5,1.2,6.6,3.1,9.3,5.6c0.3,0.3,0.3,0.8,0,1.1C408.9,119.1,408.7,119.2,408.5,119.2z"/>
		</g>
		<g>
			<path class="st3" d="M384.1,113c-0.3,0-0.7-0.2-0.8-0.6c-0.1-0.4,0.1-0.8,0.6-0.9c2.2-0.5,4.4-0.8,6.6-0.8c0.4,0,0.8,0.3,0.8,0.8
				c0,0.4-0.4,0.8-0.8,0.8c-2.1,0-4.2,0.3-6.2,0.8C384.2,113,384.2,113,384.1,113z"/>
		</g>
	</g>
	<rect x="124.7" y="100.1" class="st2" width="241.9" height="142.1"/>
	<rect x="136.5" y="103.6" class="st3" width="227.6" height="130.5"/>
	<g>
		<path class="st4" d="M330.5,171c10.8-10.1,29.4-9.9,29,5.5c-0.4,15.4,0.9,16.8,5.4,24.9c15.5,28-18.5,26.3-32.6,27.3
			c-14.2,0.9-13-25.2-10.5-39.6S327.4,174,330.5,171z"/>
		<path class="st5" d="M335.6,259.2c-3.5,28.6-9.8,49.7-10.5,63.2c-0.7,13.5-3.5,66.9-3.5,66.9s7.7-0.5,8.4-1.7
			c0.7-1.1,14.5-31.2,13.8-49.8c-0.7-18.6,13.8-46.9,13.8-46.9l-3.5-27.7L335.6,259.2z"/>
		<path class="st6" d="M338.9,271.6l-5.4,2.2c-1.5,9.1-3.1,17.2-4.6,24.4c8.7,5.5,13.1,23.7,15,34.8c1-12.5,7-27.5,10.7-35.9
			L338.9,271.6z"/>
		<path class="st5" d="M364,256.3c0,0,11.7,14.6,11.4,31.2c-0.6,25.3-3.4,32.5,1.5,58.9c1.9,10.3-4.2,44.2-4.2,44.2s-5.2,0.4-8.1-1
			c0.2-2.5-3.4-42.9-10.4-61.5c-3.4-9-8.2-34.2-10.8-48.7c-2.6-14.5-3-17.4-2.1-17.4C342.2,262,364,256.3,364,256.3z"/>
		<path class="st7" d="M297.3,215.7c0,0,0.5-7.6-0.3-9.9c-0.8-2.3-8-4.4-8-4.4s-0.3,10.8,0.4,12.1c0.7,1.3,5,5.1,5,5.1L297.3,215.7z
			"/>
		<path class="st8" d="M337.7,210.2c-16.5,17.3-21.9,24.6-23.1,24.6c-3.9-6.8-16.9-21-16.9-21l-5.5,3.5c0,0,12.8,32.7,20.9,33
			c8.1,0.3,24.7-11.3,24.9-12.6C338.2,236.4,337.7,210.2,337.7,210.2z"/>
		<path class="st9" d="M320.5,248.6c8.1-3.2,17.3-9.9,17.4-10.9c0.2-1.3-0.3-27.5-0.3-27.5c-3.6,3.8-6.7,7.1-9.4,10.1
			C325.3,231,325.5,242.7,320.5,248.6z"/>
		<path class="st8" d="M354.5,198.7c0,0,15.8,7.7,19.2,21.4c3.4,13.7-6.7,30.6-8,39.6c-1.3,9-30,10.6-30,1c0-9.3-7.2-28.9-6.8-33.9
			c1-11.7,18.5-26.1,18.5-26.1L354.5,198.7z"/>
		<path class="st7" d="M349.9,181l6.8,20.4c0,0-7.2,5.5-19.6,18.6c0.5-8.7,8-18.3,8-18.3l-5.1-19.3L349.9,181z"/>
		<path class="st10" d="M353,190.5l-3.2-9.5l-10,1.5l5.1,19.3c0,0-0.5,0.8-1.2,2C348.6,200.3,351.6,195.9,353,190.5z"/>
		<path class="st7" d="M346.2,185.6c-1.8,6.5-8.9,10.1-13.9,8.7c-5-1.4-6.1-7.1-4.3-13.6c1.8-6.5,7.4-10.7,12.4-9.3
			C345.4,172.8,348,179.1,346.2,185.6z"/>
		<path class="st8" d="M334.4,251.6c2.2,13.6-5.9,42.6-5.9,42.6s4.9,1.1,19.4-0.3c14.5-1.4,21-15.6,23.1-16
			c2.2-0.4,3.3,13.2,4.4,14.3c1.1,1.1,1.2-17.2-1.6-24.4c-5-12.7-4-18.1-2.2-25.8C375,228.3,334.4,251.6,334.4,251.6z"/>
		<path class="st5" d="M321.9,382.5c1.3,5.2-1.3,9.3-4.7,12.3c-2.8,2.4-11.5,3.5-11.1,4.7c0.4,1.2,10.6,1.6,14.1,1.1
			c3.4-0.5,4.4-2.1,8.7-2.1c2.8,0,3.3-2.2,2.1-5c-1.3-2.8-1.7-4.3-0.6-6.8C331.5,384.3,321.9,382.5,321.9,382.5z"/>
		<path class="st5" d="M373,382.5c-0.2,5.4-0.9,9.4,0.5,11.9c5.2,4.3,9.6,9.1,7.9,9.5c-7.9,1.6-10.9-3-15.4-4.4
			c-5.5-1.6,0.5-8.4-1.6-17.1c-1.2-4.8,8.3-3.7,8.3-3.7L373,382.5z"/>
		<path class="st9" d="M375,272.3c-0.3-1.7-0.7-3.2-1.2-4.4c-5-12.7-4-18.1-2.2-25.8c0.1-0.6,0.2-1.1,0.2-1.6
			c0.4-1.4,0.8-2.8,1.2-4.2l-1.7-15L359.1,207c-9.2,13.2-3,29.5-4.4,38.6c-1.4,9-16.8,20.5-16.8,20.5l0.5,3.2
			c0.7,4.4,4.9,7.4,9.4,6.8c6.3-0.9,14.7-2.6,18.4-5.9C369.7,266.9,372.9,269.5,375,272.3z"/>
		<path class="st7" d="M341.5,265.6c0,0-6.8,1.9-7.6,2.3c-0.8,0.4-1.3,2.6-1.3,2.6s-3.9,3.3-2.4,4.5c1.5,1.2,4.1,4.1,7.7,2.8
			c2.2-0.8,3.8-8.6,5.2-8.7C344.6,269,341.5,265.6,341.5,265.6z"/>
		<path class="st8" d="M360.8,205.3c7.3,0.2,13.9,13,16.2,24.1c2.3,11.1,4.7,26.9,4.7,26.9s-12,9.3-23.9,12
			c-10.4,2.4-15.7,3.3-15.7,3.3l-2.1-5.8l24.8-14.3c0,0-9.1-16.8-10-29.5C353.8,209.3,355.2,205.1,360.8,205.3z"/>
		<polygon class="st11" points="293.2,210.1 275,213.7 272.7,202.4 290.8,198.9 		"/>
		<path class="st7" d="M292.9,214.8c0.3-4.7-2.1-11-3.5-11c-1.4,0,0.4,4.2-0.3,6.9C288.7,212.2,292.9,214.8,292.9,214.8z"/>
		<path class="st4" d="M329.3,173.5c0.4,12.7,15.6,11.8,19.8,11c4.2-0.8-5.1,26.9,2.9,28.5c5.8,1.2,4.5-7.8,11-7.2
			c2.9,0.3,5.7,4.6,5.7,4.6s-0.4-2.7-2.6-4.6c-2.2-1.9-7.9-13.8-9.4-22.2c-1.5-8.5-11.7-13.9-14.8-14.1c-3-0.2-10.4,3.2-10.4,3.2
			L329.3,173.5z"/>
		<g>
			<path class="st4" d="M351.8,215.8c-0.2,0-0.4,0-0.6-0.1c-2.5-0.5-3.8-3.1-3.9-8.2c-0.1-4.4,0.6-9.9,1.4-15.9
				c0.3-2.4,0.6-4.9,0.9-7.3c0-0.2,0.2-0.4,0.4-0.3c0.2,0,0.4,0.2,0.3,0.4c-0.3,2.4-0.6,4.9-0.9,7.3c-1.5,11.5-2.9,22.3,1.9,23.3
				c0.1,0,0.3,0,0.4,0c2.8,0,5.2-5.2,6.7-10.4c0.1-0.2,0.3-0.3,0.5-0.3c0.2,0.1,0.3,0.3,0.3,0.5
				C358.3,208.3,355.7,215.8,351.8,215.8z"/>
		</g>
		<g>
			<path class="st4" d="M350.8,218.8c-0.9,0-1.6-0.3-2.3-1c-5.2-5.4-0.1-32.3,0.2-33.4c0-0.2,0.2-0.3,0.4-0.3c0.2,0,0.3,0.2,0.3,0.4
				c-0.1,0.3-5.3,27.7-0.4,32.8c0.6,0.6,1.3,0.8,2.1,0.7c2.7-0.3,4.3-3.9,5.6-7.1c1.3-3.1,2.6-6,4.8-5.9c0.2,0,0.4,0.2,0.4,0.4
				c0,0.2-0.2,0.4-0.4,0.4c0,0,0,0-0.1,0c-1.7,0-2.8,2.6-4,5.4c-1.5,3.3-3.1,7.1-6.2,7.5C351.1,218.8,351,218.8,350.8,218.8z"/>
		</g>
		<path class="st7" d="M349.7,186.9c-1.1,1.4-2.8,1.8-3.8,1.1c-1-0.8-0.9-2.5,0.1-3.8c1.1-1.4,2.8-1.8,3.8-1.1
			C350.8,183.8,350.7,185.5,349.7,186.9z"/>
	</g>
	<g>
		<path class="st4" d="M231.4,234.1c3.7,7.3,0.6,15.6-6.7,18.6c-7.4,3-15.4,1.3-19.1-6c-3.7-7.3-1-16,6.2-19.5
			C218.9,223.8,227.6,226.8,231.4,234.1z"/>
		<g>
			<path class="st4" d="M211.3,253.6c-0.8,0-2.4-0.3-4.5-2.1c-1.7-1.5-2.9-3.7-3.4-6.3c-0.6-3.3-0.2-7.1,1.3-11.3
				c0.1-0.2,0.3-0.3,0.5-0.2c0.2,0.1,0.3,0.3,0.2,0.5c-1.4,4.1-1.8,7.7-1.2,10.9c0.5,2.5,1.6,4.5,3.2,5.9c2.6,2.3,4.4,1.9,4.4,1.8
				c0.2-0.1,0.4,0.1,0.5,0.3c0.1,0.2-0.1,0.4-0.3,0.5C211.9,253.5,211.7,253.6,211.3,253.6z"/>
		</g>
		<g>
			<path class="st12" d="M222.7,262.4c4.2,0.9,9.6,12.4,12.2,19.8c2.6,7.4,7.1,16.6,10,19.5c2.9,2.9,22.2,9.5,22.2,9.5
				s-47.5,0.1-46.6,0C221.5,311.1,222.7,262.4,222.7,262.4z"/>
			<path class="st13" d="M247.9,307.5c-2.6-0.4-12,0.8-8-0.8c4-1.6,3.4-3.7,3.4-3.7s-5.7,4.6-6.7,0.6c-0.9-3.5-1.2-15.8-4.6-28.2
				c-2.8-6.1-6.4-12.3-9.4-12.9c0,0-0.1,4.4-0.3,10.5c1.2,13.5,3.1,33.4,3.7,38.4c6.3,0,16.8,0,25.7,0l5.9-0.3
				C257.6,310.9,250.5,307.9,247.9,307.5z"/>
			<path class="st12" d="M207.1,259.8c0,0-13.5,7.4-16.6,8.9c-3.1,1.6,8.8,47.5,11.4,49.4c2.7,2,26,0.3,28.7-2.1
				c2.7-2.5-2-10.1,0.3-25.3c2.3-15.2-7-28.4-8.2-28.4c-1.2,0-9-2.5-9-2.5H207.1z"/>
			<path class="st13" d="M202,318.2c2.7,2,19.4,2,26.5-0.2c0.8-0.2,4.4-1.7,4.5-3c-0.9-0.2-4.3,0.2-5.6-0.1
				c-4.8-1.1-7.5-6.9-7.5-6.9s-2.6-0.9-8.6-3.4c-5.9-2.5-3.5-9.9-3.6-13.2c-0.1-3.3-5.9-14-16.6-22.1l-1,0.4
				C189.3,277.3,199.5,316.4,202,318.2z"/>
			<g>
				<path class="st14" d="M294.4,282.2H262l-14.8,30.7H283l13.4-27.8C297,283.7,296,282.2,294.4,282.2z"/>
				<g>
					<path class="st6" d="M249.2,313.3h-19.5c-1.2,0-2.2-1-2.2-2.1s1-2.1,2.2-2.1h18.1l12.2-25.8c0.5-1.1,1.8-1.5,2.9-1
						c1.1,0.5,1.6,1.8,1.1,2.8l-12.8,27C250.8,312.8,250.1,313.3,249.2,313.3z"/>
				</g>
			</g>
			<path class="st7" d="M215.4,306.8c8.5,1.5,10.5,3.4,15.1,4.2c5.2,0.8,4.6,2,0.7,2c-3.9,0-13.6,0.1-17-0.6
				C210.9,311.6,215.4,306.8,215.4,306.8z"/>
			<path class="st12" d="M189.5,269.6c-6.5,20.3-15.7,43.3-14.2,43.3c1.5,0,38.7,1.5,40.1,0.2c1.5-1.2,1-5.9,0.8-6.5
				c-0.2-0.6-21.2-4.3-21.2-4.3s2.8-5.3,3.8-15.5C200,276.5,190.7,265.8,189.5,269.6z"/>
		</g>
		<path class="st7" d="M212.1,242.2l-5.2,18.7c0,0,8.8,13.5,11.2,12.3s-1.4-10.9-1.4-12.3c0-1.3,3.8-15,3.8-15L212.1,242.2z"/>
		<path class="st10" d="M216.9,261.8c-0.1-0.4-0.2-0.8-0.2-1c0-1.3,3.8-15,3.8-15l-8.5-3.7l-1.7,6.2
			C211.9,254.8,214.6,259,216.9,261.8z"/>
		<path class="st7" d="M231.6,241.9c1,5.4,0.3,12.6-4.6,14.4c-4.9,1.8-10.8-1.7-13.2-7.8c-2.4-6.1-0.3-12.6,4.6-14.4
			C223.3,232.3,230.4,235.5,231.6,241.9z"/>
		<path class="st7" d="M215,245c0.7,1.9,0.1,3.8-1.3,4.3c-1.4,0.5-3.1-0.6-3.8-2.5c-0.7-1.9-0.1-3.8,1.3-4.3
			C212.6,241.9,214.3,243.1,215,245z"/>
		<path class="st4" d="M231.7,235.1c-1.7,12.7-17.4,11.1-17.4,11.1s-3.3-4.2-4.7-2c-1.5,2.2,2-12.9,11.1-13.4
			C223.6,230.7,231.7,235.1,231.7,235.1z"/>
		<ellipse class="st4" cx="207.1" cy="229.7" rx="8.5" ry="7.8"/>
	</g>
	<g>
		<g>
			<polygon class="st15" points="190.1,405.2 192,405.2 204.6,348 200.3,348 			"/>
			<polygon class="st15" points="250.8,405.2 248.9,405.2 234.2,346 238.5,346 			"/>
			<g>
				<path class="st15" d="M212.4,350.1c-7.8,0-12.8-1.4-15.9-4.4c-3.9-3.7-4.7-9.5-4.7-17.1c0-5.9-0.2-9.8-0.5-12.9
					c-0.1-1.2,0.8-2.2,2-2.4c1.2-0.1,2.3,0.7,2.4,1.9c0.3,3.3,0.5,7.3,0.5,13.4c0,7.6,1,11.7,3.4,14c2.5,2.4,7,3.3,14.5,3.2
					c7.3-0.2,12.4-1.2,16.4-2c5.3-1.1,9.2-1.8,13.7,0.3c1.1,0.5,1.6,1.8,1,2.9c-0.5,1.1-1.8,1.5-2.9,1c-3.2-1.5-6-1-11,0
					c-4.2,0.8-9.5,1.9-17.2,2.1C213.5,350.1,212.9,350.1,212.4,350.1z"/>
			</g>
		</g>
		<path class="st15" d="M194.6,313.1l12,0.5l-3.2,32.4c0,0-8.9-5.6-8.8-11.6C194.7,328.4,194.6,313.1,194.6,313.1z"/>
		<path class="st7" d="M253.7,316.2c10.1-1.5,13.6-1,19.8,10.3c6.2,11.3,14.5,31.6,19.2,34.2c7.1,4,9.5,13.6,12.4,13.2
			c2.9-0.4,4.8,0.8,1.6,3.4c-3.2,2.6-8.3,4.8-10.1,4.3c-1.8-0.5-3.1-7.9-7.7-10.3c-4.6-2.4-3.2-4.4-2.9-6.5
			c0.3-2.1-13.4-12-23.8-24.2c-6.3-7.5-9.6-12.4-10.1-16.9C251.6,319.1,253.7,316.2,253.7,316.2z"/>
		<path class="st10" d="M278.8,357.1c-2.4-5.8-4.7-15.5-6.9-24.3c-3.2-12.6-6.5-15.5-8.6-16.9c-2.5-0.6-5.5-0.3-9.6,0.3
			c0,0-2.1,2.9-1.6,7.4c0.5,4.5,3.7,9.4,10.1,16.9C267.7,346.9,274,352.7,278.8,357.1L278.8,357.1z"/>
		<path class="st15" d="M256.8,326.1c0,0-2.7,19.9-5.2,21.9c-1.8,1.4-3.1,1.5-4.3-4.4c-1.3-5.9,2-28.1,2-28.1L256.8,326.1z"/>
		<polygon class="st7" points="254.7,336.9 229.7,341 243.8,321.2 254.5,319.1 260.9,320.5 		"/>
		<path class="st15" d="M286,364.7c-0.8,3.2-0.7,5.5,0.7,6.7c1.4,1.2,6.7,10,6.7,10l1.7-0.2l-3.8-8L286,364.7z"/>
		<path class="st15" d="M296.7,381.6c1.8,0.5,6.9-1.7,10.1-4.3c3.2-2.6,1.3-3.9-1.6-3.4c-0.2,0-0.3,0-0.5,0
			c-1.5,3.2-6.3,5.6-7.8,2.2c-1.5-3.4-8.1-10-10.8-11.5c0,0.1,0,0.1,0,0.1c-0.3,2.1-1.7,4.1,2.9,6.5
			C293.5,373.7,294.9,381.2,296.7,381.6z"/>
		<path class="st10" d="M202.8,317c-8.9,15.5-2.8,25.4,8,26.4c10.8,1,27.7-0.9,37.6-9c9.9-8,18-16.6,16.9-17.8
			C264.1,315.3,202.8,317,202.8,317z"/>
		<path class="st7" d="M253,328.5c1.8-5.3,3.9-9.4,7.9-9.5c4.3-0.1,6.9,2.1,7.1,8.9c0.2,8.1,0.5,34.9,0.1,46.9
			c-0.3,9,2.4,11.9,2.2,21.3c-0.2,7.1,7.6,3.5,4.6,7.2c-2.1,2.5-8.2,1.7-11.9,1.2c-3.3-0.4,1.7-10.2-2.9-12.8
			c-4-2.2-4.1-5.9-1.5-8.7c2.5-2.8,0.3-10.9-1.4-16.7c-1.7-5.7-4.3-11.9-6-25.5C250.7,337.1,251.9,331.8,253,328.5z"/>
		<path class="st15" d="M272.2,400.5c-1.3,0.4-2.9,0.8-4.2,0.8c-2.8,0.1-3.6-2.9-3.8-7c-0.2-3.6-2.8-9.2-5.5-11.4
			c0,0.1-0.1,0.1-0.2,0.2c-2.5,2.8-2.4,6.4,1.5,8.7c4.6,2.6-0.4,12.4,2.9,12.8c3.8,0.5,9.9,1.3,11.9-1.2
			C276.8,401,274.4,400.8,272.2,400.5z"/>
		<path class="st15" d="M259.1,382.1c0,0-4.1,4.2-3.7,5.9c0.4,1.7,1.6,6.1,1.8,9.5c0.2,3.4,0.4,7.2,0.4,7.2s1.5,0,1.6-0.4
			c0.1-0.4,0.9-13.7,0.9-13.7L259.1,382.1z"/>
		<path class="st14" d="M198.5,315.5c0,0-5.2,21.8,1.4,27.8c6.6,6,34.2,0.6,40.7,0.2c4.4-0.2,8.6,5,8.6,5s-3.1-12.2-1-22
			c2.1-9.8,5.5-10.5,5.5-10.5l-4.5-0.6H198.5z"/>
		<path class="st12" d="M197.4,309.8c2.2,4.7-2.4,12.7-0.8,15c1.6,2.3,11,0.3,17.1-4.5c6.1-4.8,17.7-5.9,17.7-5.9L197.4,309.8z"/>
		<path class="st15" d="M206.8,349.5c18.5,0.7,38.1,0.4,38.1-2.3c0-2.7-0.8-4.6-15.2-3.5c-14.4,1.1-24.1,2.6-28.4,1.6
			C196.9,344.4,206.8,349.5,206.8,349.5z"/>
	</g>
	<path class="st15" d="M404.3,317.8H143.6c-1.3,0-2.3-1-2.3-2.3v-0.4c0-1.3,1-2.3,2.3-2.3h260.7c1.3,0,2.3,1,2.3,2.3v0.4
		C406.6,316.8,405.6,317.8,404.3,317.8z"/>
	<g>
		<path class="st7" d="M439.3,246.7c1.8,6.2-2.6,12.6-7.4,13.9c-4.8,1.3-8.3-2.9-10.1-9.1c-1.8-6.2,0.7-12.3,5.5-13.6
			C432.1,236.6,437.5,240.5,439.3,246.7z"/>
		<path class="st7" d="M412.2,366.8c0,0,12.4,18.8,14.1,19.6c1.7,0.8,5.9,1,4.3,4.1c-1.6,3.1-2.2,15.1-3.7,15.7
			c-1.5,0.6-14,2-12.1,0c1.9-2,3-1,4-4.7c0.9-3.7,2.3-10.6,0.5-12.1c-1.8-1.4-12.7-14.3-12.7-14.3L412.2,366.8z"/>
		<path class="st7" d="M349.9,374.8c0,0-15.1,24.3-17.8,26.5c-2.8,2.2-12,5.5-4.5,6c7.5,0.5,11.2-2.5,15.9-3.8
			c4.7-1.4,10.6-2.2,8.4-5.7s-1.3-11.3,3.5-16.2C360.1,376.6,349.9,374.8,349.9,374.8z"/>
		<path class="st16" d="M426.7,318.6c0,0-37.3-1-52.1,10.9c-8.6,12.8-29.6,50.6-31.2,54.8c1.1,1.1,7.4,3.1,10.2,2.8
			c8.2-9.6,19.1-17.9,23.4-25.4c5.3-9.3,7-13.9,15.6-14.7c8.6-0.8,28.2-3.5,34-3.5C432.5,343.4,426.7,318.6,426.7,318.6z"/>
		<polygon class="st15" points="459.2,407.4 457.2,407.4 443.2,350.2 447.5,350.2 		"/>
		<polygon class="st15" points="400.7,407.4 402.6,407.4 418.7,348.2 414.4,348.2 		"/>
		<path class="st14" d="M447.9,316.1l-21.7,3.7c0,0-28.8,0.3-42,2.7c-12,2.2-13.7,15.5,0,33.8c7.8,10.4,14.4,18.7,27.9,28.1
			c3.4-2.5,4.7-3.4,5.7-9.3c-1-1.3-3.5-9.5-4.3-11.1c-7.5-15.3-17.4-20.8-17.6-22.3c1.7-2.7,44.3,13.9,52.8,4.1
			C456.9,336.4,447.9,316.1,447.9,316.1z"/>
		<path class="st17" d="M448.8,268.1c-5.7-0.8-11.5,0.3-17,4.1c-4.8,4.7-10.1,12.5-9.8,25.4c0.4,16.4-2.6,17.4,0.5,21.9
			c13.1,5.3,35.5,28,30.2,3.6c-3.8-17.6,8.4-30.8-1.5-50.3C450.5,271.3,449.5,269.7,448.8,268.1z"/>
		<path class="st18" d="M422.1,303.8c-0.3,8.5-1.5,11-0.5,13.7c5.3,0.5,15.1,2.6,17.5,6c2.8,3.8,5.6,4.4,4.3,1.5
			c-1.3-2.8-4.7-6.8,0.6-20.5c5.3-13.7,7.8-23,2.6-32.5L422.1,303.8z"/>
		<path class="st7" d="M448.8,268.1c-3.5-8.1-4.4-17.3-4.4-17.3l-9.2,2.7c0,0,5.2,11.5,0.2,15.5c-1.1,0.9-2.3,1.9-3.6,3.2
			C437.3,268.3,443.1,267.3,448.8,268.1z"/>
		<path class="st10" d="M444.7,253c-0.5-0.5-1.2-1.1-1.9-1.7l-7.5,2.2c0,0,0,0,0,0c0.2,0.4,2.1,4.8,2.3,9c2.2-1.3,4.7-3.5,7.5-7.3
			C444.9,254.3,444.8,253.6,444.7,253z"/>
		<path class="st7" d="M442.4,270.6c-9.5,3.2-8.4,13-17.1,27.4c-4.5,7.5-8.7,7.3-8.7,7.3s-10.6,0.1-23.4-1.4c-8-1-8.5,1.4-3,3.3
			c11.2,3.9,22.9,8.2,32.3,7.1c9.4-1,25.5-24.5,26.3-30.6C450,275.3,447.1,269,442.4,270.6z"/>
		<g>
			<path class="st15" d="M437.5,352.3c-0.6,0-1.2,0-1.8,0c-7.7-0.2-12.9-1.2-17.2-2.1c-5-1-7.7-1.5-11,0c-1.1,0.5-2.4,0.1-2.9-1
				c-0.5-1.1-0.1-2.3,1-2.9c4.6-2.1,8.4-1.4,13.7-0.3c4,0.8,9.1,1.8,16.4,2c8.2,0.2,13.3-1,15.9-3.8c2.3-2.5,3-6.7,2.1-13.1
				c-0.3-2.2-0.6-4-0.8-5.6c-0.7-4.5-1.2-7.4-0.6-12c0.5-4.3,2-9.9,5.3-21c0.3-1.1,1.6-1.8,2.7-1.4c1.2,0.3,1.8,1.5,1.5,2.7
				c-6.3,20.6-5.9,22.6-4.6,31.1c0.3,1.6,0.5,3.5,0.8,5.7c1,7.8,0,13-3.2,16.5C451.6,350.7,446.2,352.3,437.5,352.3z"/>
		</g>
		<path class="st18" d="M350.9,395.3c-10,4.8-15.4,7.5-18.6,7.3c-0.8-0.1-1.4-0.1-1.9-0.2c-3.6,2.1-9.2,4.5-2.9,5
			c7.5,0.5,11.2-2.5,15.9-3.8c4.7-1.4,10.6-2.2,8.4-5.7C351.4,397.1,351.1,396.2,350.9,395.3z"/>
		<path class="st18" d="M427.3,386.8c-0.2,7.7-1.3,15.4-6.2,16.9c-1.3,0.4-2.5,0.4-3.5,0.3c-0.8,0.9-1.7,0.9-2.9,2.3
			c-1.9,2,10.7,0.6,12.1,0c1.5-0.6,2.1-12.7,3.7-15.7C431.8,388,429.2,387.4,427.3,386.8z"/>
		<g>
			<path class="st14" d="M388.9,313.3h-31.7c-0.9,0-1.6-0.5-2-1.2l-12.8-27c-0.5-1.1,0-2.3,1.1-2.8c1.1-0.5,2.4,0,2.9,1l12.2,25.8
				h30.3c1.2,0,2.2,1,2.2,2.1S390.1,313.3,388.9,313.3z"/>
		</g>
		<path class="st7" d="M395.5,304.2c-6.4-0.1-12.8-3.8-15.9-3.3c-3.2,0.5-13.5,7.5-12.2,7.8c1.3,0.3,9.5-3.9,9.8-3.9
			c0.3-0.1,2,2.9,6.4,3.9c4.4,1.1,0-3.2,13.6,0.8C405.9,312.1,395.5,304.2,395.5,304.2z"/>
		<path class="st19" d="M447.9,260.6l0.9,7.4c0,0-8.3,0.5-12.4,2.8c-4.1,2.3-10.2,8.8-10.2,8.8l5-8.4l0.7-5.4L447.9,260.6z"/>
		<path class="st19" d="M444.4,269.7c-6.2-1.1-9,4.3-13,13.1c-4,8.8-10.8,19.5-12.2,20.9c-1.4,1.4-22.9,0-22.9,0s-0.7,6.1,0,6.8
			c0.7,0.7,4.4,0.6,4.4,0.6s1.5,1.2,2.9,2.1c1.4,0.9,13.2,2.6,18.7,2.4c5.5-0.3,10.5-0.7,11.2-1.5c0.7-0.8,15.7-23.4,16.6-31.5
			C451,274.6,447.5,270.3,444.4,269.7z"/>
		<path class="st4" d="M426.2,232.6c-11.7,0.5-9.8,17.7-9.8,17.7s3,0.9,9.4-0.1c-0.5-1.8-0.3-6.5-0.3-6.5s0.7,3.8,1.7,6.1
			c1.3,0.6,2.9,0.1,5.4-0.5c1.3,5.5,5.1,7.8,7.6,8.5c2.8,0.9,5.8,1.9,9.2,0.3c3.3-1.6,1.5-18.4-0.3-21.7c-2.7-5-7.1-9.6-14.8-7.2
			C430.5,230.4,426.2,232.6,426.2,232.6z"/>
		<path class="st4" d="M446.4,253l4.8,6.8c0,0-5.3,12.9,10.1,18.8c12,4.6,10.6,12.7,5.2,20.8c-5.4,8.1,3.3,15.2,3.3,15.2
			s1.3-9,13-10.7c15.9-2.3,20.5-23.2,8.5-33.7c-9.9-8.7-12.8-1.5-19.5-9.3c-6.7-7.8-19.3-2.5-19.3-2.5l-4.6-6.6L446.4,253z"/>
		<g>
			<path class="st4" d="M496.8,291.2c-0.1,0-0.1,0-0.2,0c-0.2-0.1-0.3-0.3-0.2-0.5c4-7.2,0.7-15.9-0.9-18.2
				c-0.2-0.2-0.3-0.5-0.5-0.8c-1.6-2.5-3.6-5.6-14.4-7.4c-2.6-0.5-4.7-2-6.9-3.5c-4.6-3.3-9.8-7-21.1-1.9c-0.2,0.1-0.4,0-0.5-0.2
				c-0.1-0.2,0-0.4,0.2-0.5c11.7-5.3,17.1-1.4,21.8,2c2.1,1.5,4.2,3,6.6,3.4c11.1,2,13.2,5.2,14.9,7.8c0.2,0.3,0.3,0.5,0.5,0.7
				c1,1.4,2.2,4.4,2.7,7.7c0.4,2.9,0.5,7.3-1.8,11.3C497,291.1,496.9,291.2,496.8,291.2z"/>
		</g>
		<g>
			<path class="st4" d="M443.9,260c-0.8,0-1.6-0.1-2.5-0.2c-4.1-0.6-9.5-2.9-9.9-15.6c0-0.2,0.2-0.4,0.4-0.4c0.2,0,0.4,0.2,0.4,0.4
				c0.2,5.3,1.2,9.1,3.2,11.6c1.5,1.8,3.4,2.9,6.1,3.3c3.8,0.6,6.3-0.1,7.5-2c0.1-0.2,0.3-0.2,0.5-0.1c0.2,0.1,0.2,0.3,0.1,0.5
				C448.6,259.1,446.7,260,443.9,260z"/>
		</g>
	</g>
	<g>
		<path class="st9" d="M80.1,269c-13.5,7.6-32.4,39-28.4,44.2c4,5.1,25.3-8.4,25.3-8.4L80.1,269z"/>
		<path class="st4" d="M105.4,232.5c-5.2-0.1-3.2-3.9-9.2-2.4c-3.1,0.8-0.8,2-4.9,1.6c-4.1-0.4-6.1-0.8-6.6,1.8
			c-0.5,2.6-0.8,3.4-2.7,3.8c-2,0.4-2.8,3.8,0,6.1c2.8,2.3,1.5,3.3,0.8,5.2c-0.6,1.9,1.5,2,2.7,3.8c1.2,1.8-1.1,2.1,0.6,3.6
			c1.7,1.5,4,1.4,4,1.4l7-13.2L105.4,232.5z"/>
		<path class="st15" d="M210.6,391c0,0,7.5,0.2,13.4-2c5.9-2.2,9.8-5.7,8.8-1.6c-1,4.1-5.9,11.1-10,11.8c-4.2,0.7-5.6,5.2-7.9,5.2
			c-2.3,0-5.6-5.2-11.5-7.8C198,394.2,210.6,391,210.6,391z"/>
		<path class="st15" d="M151.3,390.3c0,0,3.2,4.3,8.7,7.2c5.7,3.1,12.3,4.5,8.2,5.9c-4.1,1.4-10,2.5-15.8,0.8
			c-4.1-1.2-8.8-1.4-10.1-3.3c-1.3-1.9,1.5-6.6,0.3-13.7C141.6,381.7,151.3,390.3,151.3,390.3z"/>
		<path class="st6" d="M116,321.7c0,0,43.6,16,47.1,20.4c3.5,4.5,49.4,45.1,49.4,48.1s-7.8,8.5-7.8,8.5s-39.3-23.6-49.1-35.6
			c-9.8-12-33.6-17.8-46.2-18.9C96.7,343.1,116,321.7,116,321.7z"/>
		<path class="st5" d="M117.7,321.7c0,0,29.8-1.1,36.2,0c6.4,1.1,20.5,1.1,11.3,26.5c-7.2,19.9-9.6,45.1-9.6,45.1l-14.3,3.4
			c0,0,0.6-45.3,7.4-57.4c-5,0.8-14.1,2.4-26.8,5.9c-23.5,6.6-36.4,3.3-36.4,3.3l-3.5-12L117.7,321.7z"/>
		<polygon class="st20" points="92.8,246.3 85.5,267.4 94.7,273.3 99.9,255.1 		"/>
		<path class="st21" d="M95.5,270.5l4.4-15.3l-7.1-8.8l-2.7,7.7C91.1,261,93.3,266.8,95.5,270.5z"/>
		<path class="st20" d="M111.4,249.9c0.2,6.4-3,12-8.1,12.4c-5.1,0.5-9.8-4.3-10.4-10.7c-0.6-6.4,3-12,8.1-12.4
			C106.1,238.8,111,239.8,111.4,249.9z"/>
		<path class="st8" d="M82,266.8c-22.4,14.8-8.5,38.7-3.5,56.1c4.2,14.9,4,23.9,4.7,23.9c0.6,0,16-2.2,24.8-10
			c8.8-7.8,14.7-15.3,14.7-15.3s-11.3-2-14.9-16.2c-1.9-7.2-1-11.2-5.3-22.6C98.2,271.2,82,266.8,82,266.8z"/>
		<path class="st8" d="M82,266.8l2.4-5.7c0,0,7.6,4.9,10.6,7.2c3,2.3,4.9,2.9,4.9,2.9s1.1,8.2,0.4,7.5C91.4,269.2,82,266.8,82,266.8
			z"/>
		<g>
			<polygon class="st15" points="72.1,407.4 74,407.4 88.1,350.2 83.8,350.2 			"/>
			<polygon class="st15" points="130.6,407.4 128.7,407.4 112.6,348.2 116.9,348.2 			"/>
			<g>
				<path class="st15" d="M93.9,352.3c-7.8,0-12.8-1.4-15.9-4.4c-3.9-3.7-4.7-9.5-4.7-17.1c0-15.9-0.9-19.1-5.5-28.8
					c-0.5-1.1,0-2.3,1.1-2.8c1.1-0.5,2.4,0,2.9,1c4.8,10.2,5.9,14,5.9,30.6c0,7.6,1,11.7,3.4,14c2.5,2.4,7,3.3,14.5,3.2
					c7.3-0.2,12.4-1.2,16.4-2c5.3-1.1,9.2-1.8,13.7,0.3c1.1,0.5,1.6,1.8,1,2.9c-0.5,1.1-1.8,1.5-2.9,1c-3.2-1.5-6-1-11,0
					c-4.2,0.8-9.5,1.9-17.2,2.1C95,352.3,94.4,352.3,93.9,352.3z"/>
			</g>
		</g>
		<g>
			<path class="st6" d="M190.5,313.1h-31.7c-1.2,0-2.2-1-2.2-2.1c0-1.2,1-2.1,2.2-2.1h30.3l12.2-25.8c0.5-1.1,1.8-1.5,2.9-1
				c1.1,0.5,1.6,1.8,1.1,2.8l-12.8,27C192.2,312.6,191.4,313.1,190.5,313.1z"/>
		</g>
		<path class="st9" d="M82.8,288.3c0,0,5.6,16.6,12.5,23.5c6.9,6.9,20.8,9.2,25.1,8.9c-3.5-1.4-10.1-5.2-12.7-15.5
			c-1.9-7.2-1-11.2-5.3-22.6c-3.2-8.5-12.9-13.1-17.7-14.9c6,4.2,13.5,11.2,15.8,16.4C103.1,290,82.8,288.3,82.8,288.3z"/>
		<path class="st20" d="M159.8,302.9c0,0,9.6-4.3,10.7-3.9s11.7,6.7,11.7,7.8c0,1-9.4-3.9-9.4-3.9s1,2.7,0.4,4
			c-0.6,1.3-7.9,1.3-14.4,0.9C152.3,307.4,159.8,302.9,159.8,302.9z"/>
		<path class="st8" d="M83.1,275.5c-8.9,17.8,21.5,35.8,39.6,37.4c18,1.6,39.5-4.2,39.5-4.2l-2.4-5.8c0,0-36.2-4.6-37.1-5.3
			C121.8,297,86.4,269,83.1,275.5z"/>
		<path class="st20" d="M94.7,246.9c0.8,2.1,0.2,4.3-1.3,4.9c-1.6,0.6-3.5-0.7-4.3-2.8c-0.8-2.1-0.2-4.3,1.3-4.9
			C91.9,243.6,93.9,244.8,94.7,246.9z"/>
		<path class="st4" d="M111.4,233.4c2.5-1,5.2-2.1,4.4,2c-0.4,1.8,0,1.3,0.7,2.9c0.7,1.6-1.6,2.9-2.4,3.8c-0.7,0.9,1.1,1.9-0.4,3
			c-1.5,1.1-3.4-0.4-4.8,0c-4.1,1.2-3.6-2-5.9-2.6c-2.3-0.7-3.5-0.6-3.9,0.9c-0.4,1.5,1.6,6.2-0.1,5.8c-1.8-0.5-2.2,3.4-2.6,5.6
			s-1.7-1.5-1.6-4c0.1-3.8-0.9-5.4-2.3-6.5c-1.4-1.1-2.1-10.8,4.9-11.2c7-0.4,7-1,10-1.6C110.1,230.8,110.3,233.9,111.4,233.4z"/>
	</g>
	<g>
		<path class="st22" d="M502.2,344.6c4.4,4,2.5,7.9-0.8,15.3c-3.3,7.4-3.9,34.6-3.9,34.6l2.7-0.4c0,0-0.4-28,3.3-35.5
			c3.7-7.6,5.2-11.3,8.5-8.9C515.4,352.2,502.2,344.6,502.2,344.6z"/>
		<path class="st23" d="M499.8,339.5c0.5-2.4,3.7-4.9,8-7.1c-0.6,3.5-2.7,9.1-0.6,10.3c2.9,1.6,0.3-6.4,1.4-10.7
			c4-1.9,8.9-3.5,13.3-4.3c0,0,0,0,0,0c-2.5,6.2-5.8,8.7-4.4,9.6c1,0.7,4.3-6.5,8.7-10.2c3.3-0.2,6.1,0.3,7.7,1.5
			c2.5,2,4.2,3.7,1.7,9.7c-1.5,1-3.4,1.8-5.5,2c-5.8,0.6-8.5,0.8-4.4,2.6c2,0.9,5.3-0.1,8-0.6c-0.9,1.6-2,3.4-3.3,5.4
			c-0.8,1.3-1.7,2.4-2.7,3.4c-1.9,0.4-3.5,0.4-4.4,0c-2.7-1.1-9.7-4.7-11.4-3.2c-1.7,1.5,12.9,2.4,11.9,6.2
			c-7.1,4-15.2,2.1-16.6-1.6C505.2,347.7,498.1,346.6,499.8,339.5z"/>
		<path class="st22" d="M514.4,366.4c-7.7-5.7-15.7-0.4-19.7,5.7c-4.1,6-1.2,19.7-1.2,19.7s1.5,0,1.5-0.6c0-0.6-4.3-16.1,5.8-23.1
			c6.3-4.4,10.8-2.3,11.4-0.2c0.6,2.1-2.5,5.9-2.5,5.9L514.4,366.4z"/>
		<path class="st23" d="M496.6,354.7c7.7,0,10.2,11.7,8.1,18.5c-2.1,6.8-5,19.5-5,19.5l-1.9-1.9c0,0,7.3-17.8,5.6-25.7
			c-1.7-7.9-6-9.3-6.8-9.3C495.8,355.8,496.6,354.7,496.6,354.7z"/>
		<path class="st22" d="M503.1,373.3c0.5-0.7,1.2-1.3,2-1.7c-0.1,0.6-0.2,1.1-0.4,1.6c-1,3.1-2.1,7.4-3,11.2
			c-0.1-0.5-0.2-1.2-0.4-2.4c0-0.3-0.1-0.6-0.1-0.9C501.9,378.6,502.6,375.9,503.1,373.3z"/>
		<path class="st23" d="M505.2,373.3c14.7-6,6.9-14.3,19.9-8.9c0.9,0.4,2,1.4,3.1,2.7c-1.2,0.3-2.5,0.5-4.1,0.3
			c-3.9-0.6-2.5,2.5,3.9,3.2c1.2,0.1,2.2,0.3,3,0.6c3,5.7,4.4,13.2-2,15.8c-1.3,0.5-2.8,0.8-4.6,0.9c-2-1.5,0.5-10.5-2.6-9.2
			c-2.9,1.2,0.9,7.7,0.4,9.3c-2.9-0.1-6.1-0.5-9.2-1.3c-1.2-0.7-2.1-1.6-2.4-2.7c-1-4,5.4-6.4,5.6-9.8c0.2-3.1-2.3,6.9-9,8.4
			C501.2,379.9,498.3,376.2,505.2,373.3z"/>
		<path class="st23" d="M494.7,362.6c1.5-3.2-2.5-4-2.3-1.5c0.2,2.2,0.2,7.5-2.1,8.9c-3.9-0.4-9.3-2-13.3-4.3c-0.1-0.3,0-0.6,0.2-1
			c1.7-3.4,12.9-6.2,9.5-7.4c-2.8-0.9-7.6,4.4-11.5,7.1c-2.3-1.7-3.9-3.8-3.9-6.1c0-3.1,3.9-6.7,8.9-8.4c2.3,0.2,4.4,1.4,7.7,3.3
			c4.9,2.7,3.7-1.7-0.9-4.3c4,0.2,7.9,1.9,10.9,5.8c0,0-0.3,1.7,1.6,4.3c5,7.2-0.8,11.3-7.7,11.1
			C492.1,368.2,493.7,364.9,494.7,362.6z"/>
		<path class="st22" d="M513.9,366c3.8,2.9,8,6.2,13.1,8.5c5.2,2.3,4.1,9.7,4.1,9.7s0.8-6.4-3.5-8.6c-4.3-2.2-7.1-4.8-10.4-5.3
			c-3.3-0.5-5.1-1-5.1-1s1-2,0.4-2.8C512,365.8,513.9,366,513.9,366z"/>
		<path class="st22" d="M532.6,332.5c-13.8,3.6-24,12.3-25.9,14.4c-1.9,2.1-1.9,2.7-1.9,2.7l1.5,2.7l0.7-0.3c0,0-1.1-2.3,1.8-5.2
			c5-5.1,11.2-9.1,15.4-10.8C528.3,334.1,532.6,332.5,532.6,332.5z"/>
		<path class="st14" d="M496.3,407.4h1.4c4.8,0,8.7-3.9,8.7-8.7v-9.8h-18.9v9.8C487.6,403.4,491.5,407.4,496.3,407.4z"/>
		<rect x="487.6" y="391" class="st3" width="18.9" height="1.3"/>
		<rect x="487.6" y="393.3" class="st3" width="18.9" height="0.8"/>
	</g>
	<g>
		<g>
			<path class="st11" d="M270.3,140.9c0-14-11.5-25.4-25.8-25.6c-14.3-0.2-26.2,11.1-26.5,25.1c-0.1,6.8,2.5,13.1,6.9,17.7
				c2,2.1,3.1,4.9,3.1,7.9v11.5c0,7.4,6.2,13.5,13.8,13.5h4.6c7.6,0,13.8-6.1,13.8-13.5v-11.5c0-2.9,1.2-5.7,3.2-7.9
				C267.7,153.6,270.3,147.6,270.3,140.9z"/>
			<path class="st24" d="M266.7,142.6c0-12-9.9-21.8-22.2-22c-12.3-0.2-22.6,9.6-22.8,21.6c-0.1,5.9,2.2,11.3,5.9,15.3
				c1.7,1.8,2.7,4.3,2.7,6.8v9.9c0,6.4,5.3,11.6,11.9,11.6h4c6.5,0,11.9-5.2,11.9-11.6v-9.9c0-2.5,1-4.9,2.7-6.8
				C264.4,153.6,266.7,148.3,266.7,142.6z"/>
			<g>
				<path class="st25" d="M248.1,170.7h-8.6c-0.4,0-0.7-0.3-0.8-0.7c0-0.2-1.6-16.4-9-21c-0.4-0.2-0.5-0.7-0.2-1.1
					c0.2-0.4,0.7-0.5,1.1-0.2c7.2,4.4,9.3,18.1,9.7,21.4h7.1c0-1.1,0-3.3,0.7-6.1c0.9-3.8,3.1-9.5,8.4-15.2c0.3-0.3,0.8-0.3,1.1,0
					c0.3,0.3,0.3,0.8,0,1.1c-9.8,10.4-8.7,20.8-8.7,20.9c0,0.2,0,0.4-0.2,0.6C248.5,170.6,248.3,170.7,248.1,170.7z"/>
			</g>
			<g>
				<path class="st25" d="M254.5,150.1c-2.9,0-6.9-2-11-4.2c-5.4,2.8-10.4,5.3-13.2,3.7c-1.3-0.8-2-2.3-1.9-4.7
					c0-2.2,0.7-3.7,1.9-4.5c2.8-1.6,7.9,1,13.2,3.8c5.5-2.9,10.6-5.5,13.4-3.8c1.3,0.8,1.9,2.3,1.9,4.5c0,2.4-0.7,3.9-2.1,4.7
					C256.1,149.9,255.3,150.1,254.5,150.1z M245.1,145c4.3,2.2,8.8,4.4,10.8,3.2c0.8-0.5,1.3-1.6,1.3-3.4c0-1.7-0.4-2.8-1.1-3.2
					C254.2,140.5,249.5,142.7,245.1,145z M232.3,141.3c-0.5,0-1,0.1-1.3,0.3c-0.8,0.4-1.2,1.5-1.2,3.2c0,1.8,0.4,2.9,1.2,3.4
					c1.9,1.1,6.4-1,10.8-3.2C238.3,143.2,234.6,141.3,232.3,141.3z"/>
			</g>
			<path class="st25" d="M247,194.6h-5.2c-1.7,0-3.1-1.4-3.1-3.1V191c0-1.7,1.4-3.1,3.1-3.1h5.2c1.7,0,3.1,1.4,3.1,3.1v0.5
				C250.2,193.2,248.8,194.6,247,194.6z"/>
			<path class="st25" d="M227.4,169.3v8.1c0,7.8,6.5,14.1,14.4,14.1h4.8c7.9,0,14.4-6.3,14.4-14.1v-8.1H227.4z"/>
			<path class="st26" d="M261,171.8h-33.1c-1,0-1.8-0.8-1.8-1.8v-0.3c0-1,0.8-1.8,1.8-1.8H261c1,0,1.8,0.8,1.8,1.8v0.3
				C262.8,171,261.9,171.8,261,171.8z"/>
			<path class="st26" d="M261,174.7l-32.7,4c-1,0.1-2-0.6-2.1-1.6l0-0.2c-0.1-1,0.6-1.9,1.6-2l32.7-4c1-0.1,2,0.6,2.1,1.6l0,0.2
				C262.8,173.7,262,174.6,261,174.7z"/>
			<path class="st26" d="M261,180.3l-32.7,4c-1,0.1-2-0.6-2.1-1.6l0-0.2c-0.1-1,0.6-1.9,1.6-2l32.7-4c1-0.1,2,0.6,2.1,1.6l0,0.2
				C262.8,179.3,262,180.2,261,180.3z"/>
			<path class="st26" d="M259,186.3l-27.2,3.3c-0.9,0.1-1.8-0.5-1.9-1.5l-0.1-0.5c-0.1-0.9,0.6-1.8,1.5-1.9l27.2-3.3
				c0.9-0.1,1.8,0.5,1.9,1.5l0.1,0.5C260.6,185.4,259.9,186.2,259,186.3z"/>
		</g>
		<g>
			<path class="st26" d="M494.8,193.6h17.6c0,9.4-7.9,17.2-17.6,17.2s-17.6-7.8-17.6-17.2c0-9.4,7.9-17.2,17.6-17.2V193.6z"/>
			<g>
				<path class="st27" d="M515.3,191.2c0-9.5-7.9-17.2-17.6-17.2v17.2H515.3z"/>
				<path class="st27" d="M480.2,191.2c0,9.5,7.9,17.2,17.6,17.2C488.1,208.4,480.2,200.6,480.2,191.2z"/>
				<path class="st27" d="M497.7,174c-9.7,0-17.6,7.7-17.6,17.2C480.2,181.8,488.1,174,497.7,174z"/>
				<path class="st27" d="M497.7,208.4c9.7,0,17.6-7.7,17.6-17.2C515.3,200.6,507.4,208.4,497.7,208.4z"/>
			</g>
		</g>
		<g>
			<rect x="151.2" y="182.2" class="st26" width="3.8" height="10.9"/>
			<rect x="200.4" y="185.8" class="st26" width="3.8" height="7.3"/>
			<rect x="167.5" y="167.7" class="st26" width="3.8" height="25.4"/>
			<rect x="175.6" y="181.7" class="st26" width="3.8" height="11.4"/>
			<rect x="183.7" y="178.4" class="st26" width="3.8" height="14.6"/>
			<rect x="159.3" y="175.1" class="st26" width="3.8" height="18"/>
			<rect x="191.9" y="170.9" class="st26" width="3.8" height="22.2"/>
		</g>
		<g>
			<defs>
				<path id="SVGID_1_" d="M28.9,127.8c-12.3,0-22.2,9.7-22.2,21.8c0,12,10,21.8,22.2,21.8s22.2-9.7,22.2-21.8
					C51.2,137.6,41.2,127.8,28.9,127.8z M28.9,161.1c-6.5,0-11.8-5.2-11.8-11.5c0-6.4,5.3-11.5,11.8-11.5c6.5,0,11.8,5.2,11.8,11.5
					C40.7,156,35.4,161.1,28.9,161.1z"/>
			</defs>
			<clipPath id="SVGID_2_">
				<use xlink:href="#SVGID_1_"  style="overflow:visible;"/>
			</clipPath>
			<path class="st28" d="M49,161.6l-20.1-12l-3.6,22.8C34.7,173.8,44.1,169.5,49,161.6z"/>
			<path class="st29" d="M49,161.6c0.1-0.1,0.1-0.2,0.1-0.2c4.2-7,4.4-15.6,0.5-22.7c-7.1,3.6-2.9,1.4-20.8,10.9
				C49.1,161.6,45.9,159.8,49,161.6z"/>
			<path class="st30" d="M6.8,141.6l22.1,8l20.7-11C39.9,121.1,13.8,123.2,6.8,141.6z"/>
			<path class="st31" d="M25.3,172.4l3.6-22.8l-22.1-8C1.5,155.4,10.9,170.2,25.3,172.4z"/>
			<path class="st32" d="M5.4,145.4c0.4,0,0.8,0.1,1.1,0.3c0.2-1,0.5-2.1,0.8-3.1l12,4.3c0,0,0,0,0,0c0-0.5,0.2-1,0.5-1.4l-1.2-0.4
				l-10.8-3.9c0.9-2.1,2.1-4,3.5-5.7c-0.5-0.2-0.9-0.5-1.2-1c-1.5,1.8-2.8,3.9-3.7,6.2l0,0l-0.3,0.7l-0.3,0.7l0,0
				c-0.4,1.1-0.7,2.2-0.9,3.4C5.1,145.4,5.2,145.4,5.4,145.4z"/>
			<path class="st33" d="M50.7,138.9L50.7,138.9l-0.4-0.7c0,0,0,0,0,0l-0.3-0.6l0,0c-2.3-4-5.7-7.2-9.7-9.2c-3.9-2-8.4-2.9-13-2.6
				c-5.3,0.4-10.2,2.3-14.1,5.5c0.5,0.3,0.8,0.7,1,1.2c3.6-3,8.2-4.8,13.2-5.1c8.7-0.6,16.8,3.6,21.1,10.9l-6.1,3.2
				c-1.3,0.7-3,1.6-6,3.2c-1.9,1-4.3,2.3-7.3,3.9l-0.2,0.1l-0.6-0.4l0,0.2L24,147c0,0.5-0.2,1-0.6,1.4l4.6,1.7l-3.4,21.4
				c-6.5-1.2-12-5.1-15.4-10.7c-2-3.4-3.1-7.1-3.1-10.9c-0.2,0.1-0.5,0.1-0.8,0.1c-0.3,0-0.6-0.1-0.8-0.1c0,4,1.2,8.1,3.3,11.7
				c3.6,6,9.6,10.2,16.5,11.5l0,0l0.8,0.1c0,0,0.8,0.1,0.8,0.1l0,0c1,0.1,2,0.2,3,0.2c3.5,0,7-0.8,10.2-2.2
				c4.1-1.9,7.6-4.8,10.1-8.6l0,0l0.2-0.2c0,0,0.2-0.4,0.2-0.4c0-0.1,0.1-0.1,0.1-0.2l0,0c0,0,0,0,0,0l0.2-0.4l0,0
				C54.1,154.5,54.3,146,50.7,138.9z M26.2,171.7l3.3-20.9l8.7,5.2c3.5,2.1,5.5,3.3,6.8,4l3,1.8C43.2,169,34.8,172.8,26.2,171.7z
				 M48.8,160.5c0,0-0.1-0.1-0.1-0.1c-0.8-0.5-1.2-0.7-2.8-1.7l-15.3-9.2l12.7-6.7c1.9-1,2.6-1.4,4.5-2.3c0.5-0.2,1-0.5,1.6-0.8
				C52.7,146.3,52.4,154.2,48.8,160.5z"/>
		</g>
		<g>
			<path class="st26" d="M151,153.8H99.9c-4.5,0-8.2-3.7-8.2-8.2v-13.5c0-4.5,3.7-8.2,8.2-8.2H151c4.5,0,8.2,3.7,8.2,8.2v13.5
				C159.1,150.2,155.5,153.8,151,153.8z"/>
			<path class="st3" d="M150.7,152.4h-50.5c-3.6,0-6.6-3-6.6-6.6v-7.4c0-3.6,3-6.6,6.6-6.6h50.5c3.6,0,6.6,3,6.6,6.6v7.4
				C157.3,149.5,154.3,152.4,150.7,152.4z"/>
			<g>
				<path class="st3" d="M96.1,128.5h-0.5c-0.6,0-1.1-0.5-1.1-1.1v-0.2c0-0.6,0.5-1.1,1.1-1.1h0.5c0.6,0,1.1,0.5,1.1,1.1v0.2
					C97.2,128.1,96.7,128.5,96.1,128.5z"/>
				<path class="st3" d="M100.9,128.5h-0.5c-0.6,0-1.1-0.5-1.1-1.1v-0.2c0-0.6,0.5-1.1,1.1-1.1h0.5c0.6,0,1.1,0.5,1.1,1.1v0.2
					C102,128.1,101.5,128.5,100.9,128.5z"/>
				<path class="st3" d="M105.7,128.5h-0.5c-0.6,0-1.1-0.5-1.1-1.1v-0.2c0-0.6,0.5-1.1,1.1-1.1h0.5c0.6,0,1.1,0.5,1.1,1.1v0.2
					C106.8,128.1,106.3,128.5,105.7,128.5z"/>
			</g>
			<path class="st26" d="M154.7,136.4H121c-0.6,0-1-0.4-1-1c0-0.5,0.5-1,1-1h33.7c0.6,0,1,0.4,1,1
				C155.7,135.9,155.3,136.4,154.7,136.4z"/>
			<path class="st26" d="M129.3,151.6H95.6c-0.6,0-1-0.4-1-1c0-0.5,0.5-1,1-1h33.7c0.6,0,1,0.4,1,1
				C130.4,151.1,129.9,151.6,129.3,151.6z"/>
			<path class="st26" d="M135,151.6h-2.4c-0.5,0-0.9-0.4-0.9-0.9v-0.1c0-0.5,0.4-0.9,0.9-0.9h2.4c0.5,0,0.9,0.4,0.9,0.9v0.1
				C135.9,151.2,135.5,151.6,135,151.6z"/>
			<path class="st26" d="M140.2,151.6h-2.4c-0.5,0-0.9-0.4-0.9-0.9v-0.1c0-0.5,0.4-0.9,0.9-0.9h2.4c0.5,0,0.9,0.4,0.9,0.9v0.1
				C141.2,151.2,140.7,151.6,140.2,151.6z"/>
			<path class="st26" d="M155,140.7H99.2c-0.4,0-0.7-0.3-0.7-0.7c0-0.4,0.3-0.7,0.7-0.7H155c0.4,0,0.7,0.3,0.7,0.7
				C155.7,140.3,155.4,140.7,155,140.7z"/>
			<path class="st26" d="M155,143.5H99.2c-0.4,0-0.7-0.3-0.7-0.7c0-0.4,0.3-0.7,0.7-0.7H155c0.4,0,0.7,0.3,0.7,0.7
				C155.7,143.2,155.4,143.5,155,143.5z"/>
		</g>
		<g>
			<path class="st34" d="M323.4,134.8h-28.8v-16.4h21.6c2.8,2.7,4.3,4.3,7.1,7V134.8z"/>
			<polygon class="st27" points="315.7,118.4 315.7,127.2 323.4,127.2 323.4,125.5 316.2,118.5 			"/>
			<polygon class="st34" points="316.3,118.4 316.3,125.5 323.4,125.5 			"/>
			<path class="st3" d="M310.7,124.6h-12.8c-0.3,0-0.5-0.2-0.5-0.5c0-0.3,0.2-0.5,0.5-0.5h12.8c0.3,0,0.5,0.2,0.5,0.5
				C311.2,124.4,311,124.6,310.7,124.6z"/>
			<path class="st3" d="M310.7,127.1h-12.8c-0.3,0-0.5-0.2-0.5-0.5c0-0.3,0.2-0.5,0.5-0.5h12.8c0.3,0,0.5,0.2,0.5,0.5
				C311.2,126.9,311,127.1,310.7,127.1z"/>
			<path class="st3" d="M310.7,129.8h-12.8c-0.3,0-0.5-0.2-0.5-0.5c0-0.3,0.2-0.5,0.5-0.5h12.8c0.3,0,0.5,0.2,0.5,0.5
				C311.2,129.6,311,129.8,310.7,129.8z"/>
		</g>
		<ellipse class="st6" cx="308.1" cy="119.7" rx="0.9" ry="0.8"/>
		<polygon class="st35" points="195.5,140.4 177.5,137 181.7,115.8 199.6,119.2 		"/>
		<path class="st26" d="M195.8,128.4l-9.5-1.8c-0.3,0-0.4-0.3-0.4-0.5c0-0.2,0.3-0.4,0.5-0.4l9.5,1.8c0.3,0,0.4,0.3,0.4,0.5
			C196.3,128.3,196.1,128.4,195.8,128.4z"/>
		<path class="st26" d="M195.4,130.7l-9.5-1.8c-0.3,0-0.4-0.3-0.4-0.5c0-0.2,0.3-0.4,0.5-0.4l9.5,1.8c0.3,0,0.4,0.3,0.4,0.5
			C195.9,130.6,195.6,130.8,195.4,130.7z"/>
		<path class="st26" d="M194.9,133.1l-9.5-1.8c-0.3,0-0.4-0.3-0.4-0.5c0-0.2,0.3-0.4,0.5-0.4l9.5,1.8c0.3,0,0.4,0.3,0.4,0.5
			C195.4,133,195.2,133.2,194.9,133.1z"/>
		<path class="st6" d="M189.4,118.7c-0.1,0.4-0.5,0.7-0.9,0.6c-0.4-0.1-0.7-0.5-0.6-0.9c0.1-0.4,0.5-0.7,0.9-0.6
			C189.2,117.9,189.5,118.3,189.4,118.7z"/>
		<path class="st26" d="M336.7,157.8l-27.8-2.9l1.8-17l22,2.3c2,2.4,3.1,3.8,5.2,6.2L336.7,157.8z"/>
		<polygon class="st3" points="332.4,141.4 311.7,139.2 310.1,153.6 335.8,156.3 336.7,147.9 331.7,147.3 		"/>
		<path class="st26" d="M329.6,146.6l-13.4-1.4c-0.3,0-0.5-0.3-0.5-0.6c0-0.3,0.3-0.5,0.6-0.5l13.4,1.4c0.3,0,0.5,0.3,0.5,0.6
			C330.1,146.4,329.9,146.6,329.6,146.6z"/>
		<path class="st26" d="M329.2,149.5l-13.4-1.4c-0.3,0-0.5-0.3-0.5-0.6c0-0.3,0.3-0.5,0.6-0.5l13.4,1.4c0.3,0,0.5,0.3,0.5,0.6
			C329.8,149.3,329.6,149.5,329.2,149.5z"/>
		<path class="st26" d="M328.9,152.5l-13.4-1.4c-0.3,0-0.5-0.3-0.5-0.6c0-0.3,0.3-0.5,0.6-0.5l13.4,1.4c0.3,0,0.5,0.3,0.5,0.6
			S329.2,152.5,328.9,152.5z"/>
		<ellipse class="st6" cx="321.1" cy="141.8" rx="0.9" ry="0.8"/>
		<g>
			<path class="st23" d="M474.8,128.5c0,5.2-4.3,9.4-9.6,9.4c-5.3,0-9.6-4.2-9.6-9.4c0-5.2,4.3-9.4,9.6-9.4
				C470.5,119.1,474.8,123.4,474.8,128.5z"/>
			<g>
				<path class="st3" d="M464.2,131.7C464.2,131.7,464.2,131.7,464.2,131.7c-0.1,0-0.3-0.1-0.4-0.2l-2.6-2.9c-0.2-0.2-0.2-0.5,0-0.6
					c0.2-0.2,0.5-0.1,0.7,0l2.3,2.5l5.2-5c0.2-0.2,0.5-0.2,0.7,0c0.2,0.2,0.2,0.5,0,0.6l-5.6,5.3
					C464.5,131.7,464.3,131.7,464.2,131.7z"/>
			</g>
		</g>
		<g>
			<path class="st26" d="M41.5,215.7h37.9c6.2,0,11.3-5.1,11.3-11.3v-1.8c0-6.2-5.1-11.3-11.3-11.3H41.5c-6.2,0-11.3,5.1-11.3,11.3
				v1.8C30.2,210.6,35.3,215.7,41.5,215.7z"/>
			<path class="st26" d="M83.4,212v13.4l-15.8-15.5C67.6,209.9,83.1,212,83.4,212z"/>
			<path class="st3" d="M42.4,213.2h36.1c5,0,9.1-4.1,9.1-9.1v-1.4c0-5-4.1-9.1-9.1-9.1H42.4c-5,0-9.1,4.1-9.1,9.1v1.4
				C33.4,209.2,37.4,213.2,42.4,213.2z"/>
			<path class="st26" d="M58.1,198.5h24.5c0.6,0,1.1-0.5,1.1-1.1c0-0.6-0.5-1.1-1.1-1.1H58.1c-0.6,0-1.1,0.5-1.1,1.1
				C57,198.1,57.5,198.5,58.1,198.5z"/>
			<path class="st26" d="M37.6,202.6h45.5c0.3,0,0.5-0.2,0.5-0.5v-0.1c0-0.3-0.2-0.5-0.5-0.5H37.6c-0.3,0-0.5,0.2-0.5,0.5v0.1
				C37,202.3,37.2,202.6,37.6,202.6z"/>
			<path class="st26" d="M37.6,204.8h45.5c0.3,0,0.5-0.2,0.5-0.5v-0.1c0-0.3-0.2-0.5-0.5-0.5H37.6c-0.3,0-0.5,0.2-0.5,0.5v0.1
				C37,204.6,37.2,204.8,37.6,204.8z"/>
		</g>
		<g>
			<path class="st26" d="M443,198.6h0.9c1.2,0,2.1-0.9,2.1-2.1v-0.3c0-1.2-0.9-2.1-2.1-2.1H443c-1.2,0-2.1,0.9-2.1,2.1v0.3
				C440.9,197.7,441.8,198.6,443,198.6z"/>
			<path class="st26" d="M433.7,198.6h0.9c1.2,0,2.1-0.9,2.1-2.1v-0.3c0-1.2-0.9-2.1-2.1-2.1h-0.9c-1.2,0-2.1,0.9-2.1,2.1v0.3
				C431.6,197.7,432.5,198.6,433.7,198.6z"/>
			<path class="st26" d="M424.4,198.6h0.9c1.2,0,2.1-0.9,2.1-2.1v-0.3c0-1.2-0.9-2.1-2.1-2.1h-0.9c-1.2,0-2.1,0.9-2.1,2.1v0.3
				C422.3,197.7,423.2,198.6,424.4,198.6z"/>
		</g>
	</g>
</g>
</svg>
