<?xml version="1.0" encoding="utf-8"?>
<!-- Generator: Adobe Illustrator 23.0.5, SVG Export Plug-In . SVG Version: 6.00 Build 0)  -->
<svg version="1.1" id="Layer_1" xmlns="http://www.w3.org/2000/svg" xmlns:xlink="http://www.w3.org/1999/xlink" x="0px" y="0px"
	 viewBox="0 0 541.9 561.2" style="enable-background:new 0 0 541.9 561.2;" xml:space="preserve">
<style type="text/css">
	.st0{fill:#F1F1F4;}
	.st1{fill:#E0F3FF;}
	.st2{fill:url(#SVGID_1_);}
	.st3{fill:url(#SVGID_2_);}
	.st4{fill:#E5E2FF;}
	.st5{fill:url(#SVGID_3_);}
	.st6{opacity:0.62;fill:url(#SVGID_4_);}
	.st7{opacity:0.62;fill:url(#SVGID_5_);}
	.st8{opacity:0.5;fill:url(#SVGID_6_);}
	.st9{fill:#FFFFFF;}
	.st10{fill:url(#SVGID_7_);}
	.st11{opacity:0.5;fill:url(#SVGID_8_);}
	.st12{opacity:0.5;fill:url(#SVGID_9_);}
	.st13{fill:url(#SVGID_10_);}
	.st14{fill:url(#SVGID_11_);}
	.st15{opacity:0.76;fill:url(#SVGID_12_);}
	.st16{opacity:0.76;fill:url(#SVGID_13_);}
	.st17{opacity:0.76;fill:url(#SVGID_14_);}
	.st18{fill:#FE9083;}
	.st19{fill:url(#SVGID_15_);}
	.st20{opacity:0.5;fill:url(#SVGID_16_);}
	.st21{fill:url(#SVGID_17_);}
	.st22{opacity:0.5;fill:url(#SVGID_18_);}
	.st23{fill:url(#SVGID_19_);}
	.st24{fill:url(#SVGID_20_);}
	.st25{fill:#CB4D7A;}
	.st26{fill:#EE8183;}
	.st27{fill:url(#SVGID_21_);}
	.st28{opacity:0.6;fill:url(#SVGID_22_);}
	.st29{fill:url(#SVGID_23_);}
	.st30{fill:#E28183;}
	.st31{opacity:0.91;fill:url(#SVGID_24_);}
	.st32{fill:url(#SVGID_25_);}
	.st33{opacity:0.6;fill:url(#SVGID_26_);}
	.st34{fill:url(#SVGID_27_);}
	.st35{fill:url(#SVGID_28_);}
	.st36{opacity:0.91;fill:url(#SVGID_29_);}
	.st37{opacity:0.5;fill:url(#SVGID_30_);}
	.st38{opacity:0.5;fill:url(#SVGID_31_);}
	.st39{opacity:0.5;fill:url(#SVGID_32_);}
	.st40{opacity:0.5;fill:url(#SVGID_33_);}
	.st41{opacity:0.5;fill:url(#SVGID_34_);}
	.st42{opacity:0.5;fill:url(#SVGID_35_);}
	.st43{opacity:0.5;fill:url(#SVGID_36_);}
	.st44{opacity:0.5;fill:url(#SVGID_37_);}
	.st45{opacity:0.5;fill:url(#SVGID_38_);}
	.st46{opacity:0.76;fill:url(#SVGID_39_);}
	.st47{opacity:0.5;fill:url(#SVGID_40_);}
	.st48{opacity:0.3;fill:url(#SVGID_41_);}
	.st49{opacity:0.5;fill:url(#SVGID_42_);}
	.st50{opacity:0.5;fill:url(#SVGID_43_);}
	.st51{opacity:0.5;fill:url(#SVGID_44_);}
	.st52{opacity:0.5;fill:url(#SVGID_45_);}
	.st53{fill:url(#SVGID_46_);}
	.st54{fill:#EBEFFF;}
	.st55{opacity:0.5;fill:url(#SVGID_47_);}
	.st56{opacity:0.3;fill:url(#SVGID_48_);}
	.st57{opacity:0.5;fill:url(#SVGID_49_);}
	.st58{opacity:0.5;fill:url(#SVGID_50_);}
	.st59{opacity:0.5;fill:url(#SVGID_51_);}
	.st60{opacity:0.5;fill:#7A4AC0;}
	.st61{fill:url(#SVGID_52_);}
	.st62{fill:url(#SVGID_53_);}
	.st63{fill:url(#SVGID_54_);}
	.st64{opacity:0.6;fill:url(#SVGID_55_);}
	.st65{fill:#38368E;}
	.st66{fill:url(#SVGID_56_);}
	.st67{fill:url(#SVGID_57_);}
	.st68{fill:#FFEBED;}
	.st69{fill:#7F9EC9;}
	.st70{fill:#131163;}
	.st71{fill:#C6659C;}
	.st72{fill:#CB5F7D;}
	.st73{fill:#9F4A8B;}
	.st74{fill:#FFBCAF;}
	.st75{opacity:0.6;fill:url(#SVGID_58_);}
	.st76{fill:url(#SVGID_59_);}
	.st77{fill:#D2726C;}
	.st78{opacity:0.6;fill:url(#SVGID_60_);}
	.st79{opacity:0.6;fill:url(#SVGID_61_);}
	.st80{opacity:0.5;fill:url(#SVGID_62_);}
	.st81{fill:url(#SVGID_63_);}
	.st82{fill:url(#SVGID_64_);}
	.st83{fill:url(#SVGID_65_);}
	.st84{opacity:0.8;fill:url(#SVGID_66_);}
	.st85{opacity:0.8;fill:url(#SVGID_67_);}
	.st86{fill:#34C7FF;}
	.st87{fill:url(#SVGID_68_);}
	.st88{fill:url(#SVGID_69_);}
	.st89{fill:url(#SVGID_70_);}
	.st90{opacity:0.6;fill:#36D1F7;}
	.st91{fill:#744CA2;}
	.st92{opacity:0.6;fill:url(#SVGID_71_);}
	.st93{opacity:0.3;fill:url(#SVGID_72_);}
	.st94{opacity:0.3;fill:url(#SVGID_73_);}
	.st95{opacity:0.3;fill:url(#SVGID_74_);}
	.st96{opacity:0.3;fill:url(#SVGID_75_);}
	.st97{fill:#D1D4FB;}
	.st98{fill:#E0FFFF;}
	.st99{fill:url(#SVGID_76_);}
	.st100{fill:url(#SVGID_77_);}
	.st101{opacity:0.81;fill:url(#SVGID_78_);}
	.st102{fill:#473DA2;}
	.st103{fill:url(#SVGID_79_);}
	.st104{fill:url(#SVGID_80_);}
	.st105{fill:url(#SVGID_81_);}
	.st106{fill:url(#SVGID_82_);}
	.st107{fill:url(#SVGID_83_);}
	.st108{fill:url(#SVGID_84_);}
	.st109{opacity:0.73;fill:url(#SVGID_85_);}
	.st110{fill:#953DA2;}
	.st111{opacity:0.73;fill:url(#SVGID_86_);}
	.st112{fill-rule:evenodd;clip-rule:evenodd;fill:url(#SVGID_87_);}
	.st113{fill-rule:evenodd;clip-rule:evenodd;fill:url(#SVGID_88_);}
	.st114{fill-rule:evenodd;clip-rule:evenodd;fill:url(#SVGID_89_);}
	.st115{opacity:0.5;fill-rule:evenodd;clip-rule:evenodd;fill:#601734;}
	.st116{fill-rule:evenodd;clip-rule:evenodd;fill:#B3D9FF;}
	.st117{fill:#FF1D9C;}
	.st118{fill:#6877FF;}
	.st119{fill:#4F31E0;}
	.st120{fill-rule:evenodd;clip-rule:evenodd;fill:url(#SVGID_90_);}
	.st121{fill-rule:evenodd;clip-rule:evenodd;fill:url(#SVGID_91_);}
	.st122{fill-rule:evenodd;clip-rule:evenodd;fill:url(#SVGID_92_);}
	.st123{fill-rule:evenodd;clip-rule:evenodd;fill:url(#SVGID_93_);}
	.st124{fill:none;}
</style>
<title>computer_bg</title>
<g>
	<path class="st0" d="M117.2,258.7c0-0.3,0.1-0.4,0.4-0.4l7.2,0.2c0.7,0,1.3,0.1,1.8,0.3c0.5,0.2,0.9,0.5,1.2,0.8
		c0.3,0.3,0.5,0.7,0.6,1.2c0.1,0.5,0.2,1,0.2,1.6l-0.1,2c0,0.6-0.1,1.1-0.3,1.6c-0.2,0.5-0.4,0.9-0.7,1.2c-0.3,0.3-0.7,0.6-1.2,0.7
		c-0.5,0.2-1.1,0.2-1.8,0.2l-3.9-0.1l-0.8-2.3l-0.1,0l-0.1,2.2l-2.7-0.1L117.2,258.7z M119.7,265.5l4.6,0.1c0.5,0,0.9-0.1,1.1-0.3
		c0.2-0.2,0.3-0.6,0.4-1.2l0-1.6c0-0.6-0.1-1-0.3-1.2c-0.2-0.2-0.6-0.3-1.1-0.4l-4.4-0.1c-0.1,0-0.1,0-0.1,0.1c0,0-0.1,0.1-0.1,0.1
		L119.7,265.5z"/>
	<path class="st0" d="M132.4,262.8L132.4,262.8l-0.2,2.9c0,0.1,0.1,0.2,0.2,0.2l8.1,0.2l-0.1,2.5l-10.6-0.3c-0.3,0-0.4-0.1-0.4-0.4
		l0.3-8.8c0-0.3,0.1-0.4,0.4-0.4l10.3,0.3c0.3,0,0.4,0.1,0.4,0.4l-0.1,2.5l-2.5,0.9l-0.1,0l0-1.3c0-0.1,0-0.1-0.1-0.1l-5.4-0.2
		c-0.1,0-0.1,0-0.1,0.1c0,0,0,0.1,0,0.1l0,1.2l4.5,0.1l-0.1,1.9l-3.8-0.1L132.4,262.8z"/>
	<path class="st0" d="M150.4,262.6l-0.1,0l0-1.1c0-0.1,0-0.2-0.2-0.2l-5.1-0.2c-0.2,0-0.3,0-0.4,0.1c-0.1,0.1-0.1,0.2-0.1,0.3l0,0.2
		c0,0.2,0,0.3,0.1,0.4c0.1,0.1,0.2,0.1,0.4,0.1l5.9,1c0.4,0.1,0.7,0.2,1,0.3c0.3,0.1,0.5,0.3,0.6,0.5c0.2,0.2,0.3,0.4,0.3,0.7
		c0.1,0.3,0.1,0.6,0.1,0.9l0,0.8c0,0.4-0.1,0.7-0.2,1c-0.1,0.3-0.3,0.5-0.5,0.7c-0.2,0.2-0.5,0.3-0.9,0.4c-0.4,0.1-0.8,0.1-1.3,0.1
		l-8.5-0.3l0.1-2.5l7.6,0.2c0.2,0,0.4,0,0.5-0.1c0.1-0.1,0.1-0.2,0.1-0.4l0-0.3c0-0.2,0-0.3-0.1-0.4c-0.1-0.1-0.2-0.1-0.3-0.1
		l-5.7-0.9c-0.4-0.1-0.7-0.2-1-0.3c-0.3-0.1-0.5-0.3-0.7-0.4c-0.2-0.2-0.3-0.4-0.4-0.7c-0.1-0.3-0.1-0.6-0.1-0.9l0-0.7
		c0-0.7,0.2-1.2,0.6-1.6c0.4-0.4,1-0.5,1.9-0.5l8.5,0.3c0.3,0,0.4,0.2,0.4,0.4l-0.1,2L150.4,262.6z"/>
	<path class="st0" d="M154,269l0.3-9.6l2.7,0.1l-0.3,9.6L154,269z"/>
	<path class="st0" d="M166.8,265.3c0-0.1,0-0.3,0-0.4c0-0.2,0-0.3,0-0.4l0-0.1l2.7,0.1l-0.1,4.7c0,0.2-0.1,0.4-0.3,0.4l-7.2-0.2
		c-0.7,0-1.3-0.1-1.8-0.3c-0.5-0.2-0.9-0.5-1.2-0.8c-0.3-0.3-0.5-0.7-0.6-1.2c-0.1-0.5-0.2-1-0.2-1.6l0.1-2c0-0.6,0.1-1.1,0.3-1.6
		c0.2-0.5,0.4-0.9,0.7-1.2c0.3-0.3,0.7-0.6,1.2-0.7c0.5-0.2,1.1-0.2,1.8-0.2l7.2,0.2c0.3,0,0.4,0.1,0.4,0.4l-0.1,2.1l-2.5,0.8
		l-0.1,0l0-0.9c0-0.1,0-0.1-0.1-0.1l-4.6-0.1c-0.3,0-0.5,0-0.7,0.1c-0.2,0-0.3,0.1-0.4,0.2c-0.1,0.1-0.2,0.3-0.3,0.5
		c-0.1,0.2-0.1,0.4-0.1,0.7l-0.1,1.7c0,0.6,0.1,1,0.3,1.2c0.2,0.2,0.6,0.4,1.1,0.4l4.5,0.1c0.1,0,0.1,0,0.1-0.2L166.8,265.3z"/>
	<path class="st0" d="M175.1,260.1c0.2,0,0.3,0,0.4,0.1c0.1,0.1,0.2,0.2,0.2,0.3l3.4,7c0.1,0.1,0.1,0.2,0.2,0.2l0.1,0
		c0.1,0,0.2-0.1,0.2-0.2l0.2-7.2l2.5,0.1l-0.3,9.2c0,0.3-0.1,0.4-0.4,0.4l-3.9-0.1c-0.2,0-0.3,0-0.4-0.1c-0.1-0.1-0.2-0.2-0.2-0.3
		l-3.6-7c0-0.1-0.1-0.2-0.2-0.2l-0.1,0c-0.1,0-0.2,0.1-0.2,0.2l-0.2,7.2l-2.5-0.1l0.3-9.2c0-0.3,0.1-0.4,0.4-0.4L175.1,260.1z"/>
</g>
<ellipse transform="matrix(0.7071 -0.7071 0.7071 0.7071 -110.2504 249.9993)" class="st1" cx="246.7" cy="258.1" rx="166.1" ry="166.1"/>
<g>
	
		<linearGradient id="SVGID_1_" gradientUnits="userSpaceOnUse" x1="116.6064" y1="342.3607" x2="116.6064" y2="266.0701" gradientTransform="matrix(0.906 -0.4233 0.4233 0.906 -112.0648 49.0804)">
		<stop  offset="0" style="stop-color:#DBCCFF"/>
		<stop  offset="1" style="stop-color:#D1BBFF"/>
	</linearGradient>
	<path class="st2" d="M124.5,247.5c-4.1-7-11.3-9.9-11.3-9.9l-2.5,1.2l5.7,10.3c-0.8,4-3.5,6.1-3.5,6.1l0,0c0,0-3.4,0.7-6.9-1.3
		l-4.3-11l-2.5,1.2c0,0-2.4,7.4,0.4,15c0,0,1.1,2.5,1.3,2.7c1,1.2,3.6,2.5,8.6,2.2l17.4,33.1c-1.4,2.5-1.7,5.6-0.4,8.4
		c2.1,4.5,7.5,6.5,12.1,4.4c4.5-2.1,6.5-7.5,4.4-12.1c-1.3-2.8-3.9-4.6-6.7-5.1l-14.3-34.6c3.4-3.6,4.1-6.4,3.9-8
		C125.7,249.8,124.5,247.5,124.5,247.5z M138.8,304.6l-4.6,2.1l-4.2-2.9l0.4-5.1l4.6-2.1l4.2,2.9L138.8,304.6z"/>
	
		<linearGradient id="SVGID_2_" gradientUnits="userSpaceOnUse" x1="116.6019" y1="345.337" x2="116.6019" y2="269.0464" gradientTransform="matrix(0.906 -0.4233 0.4233 0.906 -112.0648 49.0804)">
		<stop  offset="0" style="stop-color:#B5A6E7"/>
		<stop  offset="1" style="stop-color:#7760BF"/>
	</linearGradient>
	<path class="st3" d="M125.8,250.1c-4.1-7-11.3-9.9-11.3-9.9l-2.5,1.2l5.7,10.3c-0.8,4-3.5,6.1-3.5,6.1l0,0c0,0-3.4,0.7-6.9-1.3
		l-4.3-11l-2.5,1.2c0,0-2.4,7.4,0.4,15c0,0,3.9,5.3,9.9,4.9l17.4,33.1c-1.4,2.5-1.7,5.6-0.4,8.4c2.1,4.5,7.5,6.5,12.1,4.4
		c4.5-2.1,6.5-7.5,4.4-12.1c-1.3-2.8-3.9-4.6-6.7-5.1l-14.3-34.6C127.3,256.5,125.8,250.1,125.8,250.1z M140.1,307.3l-4.6,2.1
		l-4.2-2.9l0.4-5.1l4.6-2.1l4.2,2.9L140.1,307.3z"/>
	<rect x="99.7" y="243.3" transform="matrix(0.906 -0.4233 0.4233 0.906 -94.1264 65.8024)" class="st4" width="2.8" height="3"/>
	<rect x="111.2" y="238" transform="matrix(0.906 -0.4233 0.4233 0.906 -90.7797 70.173)" class="st4" width="2.8" height="3"/>
	<rect x="134.6" y="305.5" transform="matrix(0.906 -0.4233 0.4233 0.906 -117.0599 86.9119)" class="st4" width="5.1" height="3"/>
	<g>
		
			<linearGradient id="SVGID_3_" gradientUnits="userSpaceOnUse" x1="116.6018" y1="326.3702" x2="116.6018" y2="294.2124" gradientTransform="matrix(0.906 -0.4233 0.4233 0.906 -112.0648 49.0804)">
			<stop  offset="0" style="stop-color:#B5A6E7"/>
			<stop  offset="1" style="stop-color:#7760BF"/>
		</linearGradient>
		<path class="st5" d="M114.4,269.2l14,27c3.7,0.2,5.7-2.6,5.7-2.6l-11.4-28.2C117.6,265.1,114.4,269.2,114.4,269.2z M133,293.7
			c-0.4,0.4-1,0.8-1.8,1.2c-0.6,0.3-1.3,0.5-1.9,0.6l-14-26.4c0.7-0.6,1.9-1.5,3.4-2.2c1.1-0.5,2.3-0.9,3.5-1L133,293.7z"/>
		<path class="st4" d="M133,293.7l1.1-0.2c0,0-1.6,2.9-5.7,2.6l0.8-0.7C129.3,295.4,131.3,295.2,133,293.7z"/>
		
			<linearGradient id="SVGID_4_" gradientUnits="userSpaceOnUse" x1="112.0382" y1="294.856" x2="121.1653" y2="294.856" gradientTransform="matrix(0.906 -0.4233 0.4233 0.906 -112.0648 49.0804)">
			<stop  offset="0" style="stop-color:#8B8BE0"/>
			<stop  offset="1" style="stop-color:#A177B7"/>
		</linearGradient>
		<path class="st6" d="M114.4,269.2l0.8-0.1c0,0,2.4-2.5,6.8-3.2l0.6-0.5c0,0-1.8-0.3-4.6,1C115.3,267.6,114.4,269.2,114.4,269.2z"
			/>
	</g>
	
		<linearGradient id="SVGID_5_" gradientUnits="userSpaceOnUse" x1="116.6018" y1="296.9748" x2="116.6018" y2="291.4498" gradientTransform="matrix(0.906 -0.4233 0.4233 0.906 -112.0648 49.0804)">
		<stop  offset="0" style="stop-color:#FFFFFF"/>
		<stop  offset="1" style="stop-color:#A177B7"/>
	</linearGradient>
	<path class="st7" d="M110.7,266.7c0,0,6.7-1.2,12.5-5.8l1.8,4.4c0,0-2.1-2-6.6-0.2c-5.3,2.2-5,6.4-5,6.4L110.7,266.7z"/>
	
		<linearGradient id="SVGID_6_" gradientUnits="userSpaceOnUse" x1="121.4289" y1="329.6529" x2="121.4289" y2="294.2018" gradientTransform="matrix(0.906 -0.4233 0.4233 0.906 -112.0648 49.0804)">
		<stop  offset="0" style="stop-color:#000000"/>
		<stop  offset="1" style="stop-color:#FFFFFF"/>
	</linearGradient>
	<path class="st8" d="M125,265.3c-1.3-0.9-2.8-1-2.8-1l13.6,32.8l1.6-1.7L125,265.3z"/>
	<path class="st9" d="M125,265.3c0,0-1.4,4.4,2.7,6.5L125,265.3z"/>
</g>
<g>
	<linearGradient id="SVGID_7_" gradientUnits="userSpaceOnUse" x1="256.6794" y1="480.9716" x2="256.6794" y2="385.3685">
		<stop  offset="0" style="stop-color:#6456C0"/>
		<stop  offset="1" style="stop-color:#5F2C95"/>
	</linearGradient>
	<path class="st10" d="M327.3,481H277c-5.3-29.3-17.5-67.4-17.5-67.4c-3-1.8-8.8,0.4-8.8,0.4l-18.4,67h-46
		c-2.4-41.3,20.2-88.2,20.2-88.2l0,0c-0.1-0.2-0.8-1.6-0.6-2.6c0.1-0.4,0.8-1.2,1.7-2c1.2-1.1,2.7-2.3,2.7-2.3l85.9-0.5
		c0,0,0.9,0.4,2,1.1h0c1.9,1.1,4.4,2.9,4.4,4.2c0,1.8-0.7,2.9-0.9,3.2l0,0.1C319.9,428.6,327.3,481,327.3,481z"/>
	
		<radialGradient id="SVGID_8_" cx="206.0401" cy="448.0291" r="28.9646" gradientTransform="matrix(0.6462 0.1491 -0.3852 1.6696 249.5638 -332.1612)" gradientUnits="userSpaceOnUse">
		<stop  offset="0" style="stop-color:#4B474B"/>
		<stop  offset="1" style="stop-color:#000000"/>
	</radialGradient>
	<path class="st11" d="M228.8,450.9c-6.2,26.7-19.5,46.4-29.9,44c-10.3-2.4-13.7-26-7.6-52.7c6.2-26.7,19.5-46.4,29.9-44
		C231.6,400.6,235,424.2,228.8,450.9z"/>
	
		<radialGradient id="SVGID_9_" cx="335.2371" cy="433.7795" r="28.964" gradientTransform="matrix(0.6386 -0.179 0.4623 1.6499 -115.3296 -209.5783)" gradientUnits="userSpaceOnUse">
		<stop  offset="0" style="stop-color:#4B474B"/>
		<stop  offset="1" style="stop-color:#000000"/>
	</radialGradient>
	<path class="st12" d="M317.8,440.9c7.4,26.4,5.1,50.1-5.1,53c-10.2,2.9-24.5-16.2-31.9-42.6c-7.4-26.4-5.1-50.1,5.1-53
		C296.1,395.5,310.4,414.5,317.8,440.9z"/>
	<g>
		<linearGradient id="SVGID_10_" gradientUnits="userSpaceOnUse" x1="225.7378" y1="447.4089" x2="250.8121" y2="447.4089">
			<stop  offset="0" style="stop-color:#9E8CEF"/>
			<stop  offset="1" style="stop-color:#CAAFEE"/>
		</linearGradient>
		<path class="st13" d="M226.3,481l-0.5-0.1c5.9-34.5,20.7-63.4,20.9-63.7l0.1-0.1l3.8-3.3l0.4,0.4l-3.7,3.3
			C246.4,418.8,232,447.2,226.3,481z"/>
	</g>
	<g>
		
			<linearGradient id="SVGID_11_" gradientUnits="userSpaceOnUse" x1="305.2972" y1="447.4099" x2="330.3735" y2="447.4099" gradientTransform="matrix(-1 0 0 1 589.6286 0)">
			<stop  offset="0" style="stop-color:#9E8CEF"/>
			<stop  offset="1" style="stop-color:#CAAFEE"/>
		</linearGradient>
		<path class="st14" d="M283.8,481c-5.7-33.8-20.5-62.5-21.2-63.8l-3.4-3l0.4-0.4l3.4,3.1c0.2,0.3,15.4,29.5,21.3,64L283.8,481z"/>
	</g>
	<linearGradient id="SVGID_12_" gradientUnits="userSpaceOnUse" x1="253.3147" y1="480.9716" x2="253.3147" y2="385.3685">
		<stop  offset="0" style="stop-color:#CCCCFF"/>
		<stop  offset="1" style="stop-color:#755CBB"/>
	</linearGradient>
	<path class="st15" d="M302.5,390.7c0,1.8-0.7,2.9-0.9,3.2l0,0.1c-17.9,4-31.5,20.7-31.5,20.7c9.7,18.7,26,66.4,26,66.4H277
		c-5.3-29.3-17.5-67.4-17.5-67.4c-3-1.8-8.8,0.4-8.8,0.4l-18.4,67h-11.9c4.3-28.1,16.9-62.3,16.9-62.3
		c-12.4-14.4-30.8-25.9-30.8-25.9l0,0l-2.2-1.4l1.6-1.2c8,7.6,33.6,17.6,34.4,17.9l-32.7-19.9c1.2-1.1,2.7-2.3,2.7-2.3l85.9-0.5
		c0,0,0.9,0.4,2,1.1l-23.4,12.9L302.5,390.7z"/>
	<linearGradient id="SVGID_13_" gradientUnits="userSpaceOnUse" x1="264.4445" y1="433.17" x2="264.4445" y2="407.0945">
		<stop  offset="0" style="stop-color:#CCCCFF"/>
		<stop  offset="1" style="stop-color:#755CBB"/>
	</linearGradient>
	<polygon class="st16" points="259.4,413.6 269.5,407.1 267.1,413.6 265.3,433.2 	"/>
	<linearGradient id="SVGID_14_" gradientUnits="userSpaceOnUse" x1="234.2425" y1="423.5815" x2="234.2425" y2="398.0346">
		<stop  offset="0" style="stop-color:#CCCCFF"/>
		<stop  offset="1" style="stop-color:#755CBB"/>
	</linearGradient>
	<polygon class="st17" points="250.6,414 240.2,408.1 217.8,398 246.3,416.8 248,423.6 	"/>
</g>
<path class="st18" d="M279.4,212.7c0.1,0.5,0.1,0.7,0.1,0.7c-0.5,2.2-1.1,4.2-1.8,6.1c-2.1,6-4.7,10.3-6.7,13
	c-1.7,2.3-2.9,3.4-2.9,3.4c-15.6-4.9-23.3-20.2-26.3-27.8c0,0,0-0.1,0-0.1c-0.6-1.4-0.9-2.6-1.2-3.3c0,0,0,0,0,0
	c-0.2-0.6-0.3-0.9-0.3-0.9c0.1-0.1,0.1-0.3,0.2-0.4l0-0.1c0.3-0.5,0.5-1.1,0.8-1.6c2-4.5,3.4-8.7,4.3-12c0.8-2.8,1.2-5,1.4-6.1
	c0.1-0.6,0.1-0.9,0.1-0.9l7.3,3.8l25.1,13.3c-0.4,2.3-0.5,4.5-0.5,6.4c0,1.3,0,2.5,0.1,3.6c0.1,1.2,0.2,2.2,0.3,2.9v0
	C279.3,212.6,279.3,212.6,279.4,212.7z"/>
<linearGradient id="SVGID_15_" gradientUnits="userSpaceOnUse" x1="260.1542" y1="241.4012" x2="260.1542" y2="203.2392">
	<stop  offset="0" style="stop-color:#D5CDF8"/>
	<stop  offset="1" style="stop-color:#F3EDFB"/>
</linearGradient>
<path class="st19" d="M272.4,237.5c-1.4,1.4-3.2,2.7-5.2,3.8c0,0-0.1,0.1-0.1,0.1c0,0-0.1,0-0.2-0.1l0,0c-0.5-0.3-2.4-1.5-4.9-3.4
	c-6.6-4.9-17.5-14.9-20.6-28.4c0,0,0,0,0-0.1c-0.4-1.6-0.6-3.2-0.8-4.9c0,0,0,0,0,0c0-0.4-0.1-0.9-0.1-1.3c0,0,2.2,5.1,5.9,10.6
	c4.4,6.5,11.1,13.6,19,13.6c6.9,0,10.4-4.7,12.2-9c0.8-1.8,1.2-3.6,1.4-4.9c0,0,0,0,0,0c0.1-0.4,0.1-0.7,0.2-1v0
	c0-0.2,0-0.3,0.1-0.4c0.1-0.5,0.1-0.8,0.1-0.8S282.1,227.8,272.4,237.5z"/>
<linearGradient id="SVGID_16_" gradientUnits="userSpaceOnUse" x1="240.5083" y1="222.2827" x2="279.8001" y2="222.2827">
	<stop  offset="0" style="stop-color:#CCCCFF"/>
	<stop  offset="1" style="stop-color:#755CBB"/>
</linearGradient>
<path class="st20" d="M272.4,237.5c-1.4,1.4-3.2,2.7-5.2,3.8h-0.1l-0.2,0l0,0c-0.5-0.3-2.4-1.5-4.9-3.4
	c-6.6-4.9-17.5-14.9-20.6-28.4c0,0,0,0,0-0.1c-0.4-1.6-0.6-3.2-0.8-4.9c0,0,0,0,0,0c0-0.4-0.1-0.9-0.1-1.3c0,0,2.2,5.1,5.9,10.6
	c0,0,4.3,11.9,13.7,17.8c4.7,2.9,8.3,2.5,10.9,0.8c2.6-1.7,4.3-4.7,5.3-7c1-2.3,1.3-4.4,1.4-6c0-0.4,0-0.7,0-1
	c0.8-1.8,1.2-3.6,1.4-4.9c0,0,0,0,0,0c0.1-0.4,0.1-0.7,0.2-1v0c0-0.2,0-0.3,0.1-0.4c0.1-0.5,0.1-0.8,0.1-0.8
	S282.1,227.8,272.4,237.5z"/>
<linearGradient id="SVGID_17_" gradientUnits="userSpaceOnUse" x1="248.919" y1="393.8767" x2="248.919" y2="201.5782">
	<stop  offset="0" style="stop-color:#9E8CEF"/>
	<stop  offset="1" style="stop-color:#CAAFEE"/>
</linearGradient>
<path class="st21" d="M332.6,334.7c-0.1,0.1-0.2,0.1-0.2,0.1c-0.9,0.1-3.6-0.5-7.2-3.6l0,0c0,0,0,0,0,0c0,0,0,0,0,0
	c-3-2.6-6.6-7-10.2-14.2c-7.2-14.3-9.2-23.9-9.6-25.6l0-0.3l-4.2,6.6c-2.8,8.5-8.2,43.9-8.1,45.4c0.1,1.5,4.8,8.9,4.7,9.8
	c0,0,0,0,0,0c-0.1,0.9-2.2,2.9-2.8,5.2c-0.4,1.5,2.4,6.1,4.4,9.6v0c1,1.8,1.8,3.3,1.8,3.8c0,1.6-5.1,9.5-5.1,9.5v4.3l-0.1,0.1
	l-0.2,0.2l-0.2,0.2c-1.9,1.5-10.1,6.5-35.7,7.9c-30.3,1.6-50.4-8.1-50.4-8.1l1.5-4.2c0,0-1.4-1.2-1.5-1.8c-0.1-0.6,1.1-2,1.1-2
	s-3-1.6-3-3.7c0-2,6.1-8.3,5.9-13.7c-0.2-5.4-4.9-10.1-5.5-13.2c-0.6-3,7.9-10.6,7.9-10.6c-7.3-23.1-8.7-54.2-8.7-54.2l-1.4-1.6
	c0,0-8.7,19.9-16.7,29.6c-0.9,1.2-1.9,2.3-3,3.4c-2.2,2.4-4.6,4.6-6.8,6.6c-5.5,4.8-10.5,7.9-11.7,7.7c-2-0.4-10.2-16.5-9.8-32.9
	c0.2-7.8,4.9-16.6,9.8-23.6c0.5-0.8,1.1-1.5,1.6-2.2c3.5-4.7,6.8-8.4,8.4-10.1c0.6-0.7,1-1,1-1s-1.1-3.6-1.9-6.7
	c0-0.1,0-0.2-0.1-0.2c0,0,0-0.1,0-0.1c0-0.1,0-0.1,0-0.1c-0.5-1.9-0.7-3.6-0.5-4c0.7-1.1,4.6-2.3,5.3-3.1c0.7-0.8,3.5-14.5,5.7-16
	c2.1-1.4,5.7-2.5,17.9-7.3c0.6-0.2,1.2-0.5,1.9-0.7c13.7-5.4,27.1-12,27.1-12l5.1-6.3h2.3l-0.8,1.6l0,0.1c0.4,1.6,0.8,3.2,1.3,4.7
	c0,0,0,0.1,0,0.1c7.1,22.3,25.3,29.5,25.3,29.5c12.6-9.3,12.4-24.2,12.4-24.2v-2l2.4,0.7l1.6,3.9c0,0,2.7,4.3,13.6,9
	c1.9,0.8,3.9,1.9,6,3.1c9.9,5.6,21,14.4,21.9,16.2c0.1,0.2,0.2,0.5,0.3,0.9v0c1.2,4.6,3.6,21.8,5.8,27.9c1.4,3.8,3.6,5.9,5.2,7
	c0,0,0,0,0,0c1.2,0.8,2.1,1.1,2.1,1.1c0.2,0.9,0.3,1.9,0.5,2.8C343.4,313.4,334.6,333.3,332.6,334.7z"/>
<linearGradient id="SVGID_18_" gradientUnits="userSpaceOnUse" x1="169.1141" y1="274.0494" x2="215.9458" y2="274.0494">
	<stop  offset="0" style="stop-color:#CCCCFF"/>
	<stop  offset="1" style="stop-color:#755CBB"/>
</linearGradient>
<path class="st22" d="M215.9,279.3l-8.8,3l-1.4-1.6c0,0-8.7,19.9-16.7,29.6c-0.9,1.2-1.9,2.3-3,3.4c-2.2,2.4-4.6,4.6-6.8,6.6
	l-6.7-29l-3.4-22c3.5-4.7,6.8-8.4,8.4-10.1c0.6-0.7,1-1,1-1s-1.1-3.6-1.9-6.7c0-0.1,0-0.2-0.1-0.2c0,0,0-0.1,0-0.1
	c0-0.1,0-0.1,0-0.1c-0.5-1.9-0.7-3.6-0.5-4c0.7-1.1,4.6-2.3,5.3-3.1c0.7-0.8,3.5-14.5,5.7-16c0,0-1.4,13.1,6.1,29.8l3.7,5.1
	l10.7,8.6C207.5,271.4,211.5,276.8,215.9,279.3z"/>
<linearGradient id="SVGID_19_" gradientUnits="userSpaceOnUse" x1="167.6656" y1="327.9059" x2="167.6656" y2="237.9826">
	<stop  offset="0" style="stop-color:#9E8CEF"/>
	<stop  offset="1" style="stop-color:#DAC7F3"/>
</linearGradient>
<path class="st23" d="M190.4,303c-1.9,14.1-22.9,24.9-22.9,24.9c-4.7,0-9.9-8.1-14.6-18.1c-4.7-10-5-38.8-5.3-40.6
	c-0.3-1.8-2.9-5.3-3.1-6.9c-0.2-1.5,4.3-4.7,4.3-4.7l0-0.1l0-0.1c-0.5-1-3.1-6.5-2.9-7.6c0.2-1.1,5.2-3.5,5.2-3.5l0.3,5.5
	c0,0,11.6-2.2,15.5-11.1l0.7-2.7l1.9,1.3V251c0,0,0.4,1.8,1,1.8c0.6,0,5.1-2.3,6.1-1.9c1,0.3,1.9,6.6,3.2,7.4
	c1.3,0.8,4.6,3.2,5.1,4.3c0.2,0.5,0.2,2.3,0.3,4.4c0,2.6,0.1,5.7,0.4,7.4C186.2,277.6,192.3,288.9,190.4,303z"/>
<linearGradient id="SVGID_20_" gradientUnits="userSpaceOnUse" x1="322.2979" y1="301.9888" x2="382.6384" y2="301.9888">
	<stop  offset="0" style="stop-color:#A999F1"/>
	<stop  offset="1" style="stop-color:#DAC7F3"/>
</linearGradient>
<path class="st24" d="M382.2,290.9c-0.9,1.5-5.7,4.6-6.9,5.8c-1.2,1.2,0,5.2,0,5.2c-19.9,21.1-40.6,31.7-42.7,32.7
	c-0.1,0.1-0.2,0.1-0.2,0.1c-12.5-8.4-11.4-22.2-7.3-33.9c4-11.2,10.8-20.4,11.1-20.8l0,0c0,0,0,0,0,0c0.2-0.1,3.8-1.6,6.3-1.8
	c0.8-0.1,1.6,0.3,2.3,0.7c1.5,0.9,2.8,2.4,4.1,1.8c1.8-0.9,5.9-10.6,8.7-10.9c1.9-0.2,4.6,1.8,6.4,2.9c0.8,0.5,1.4,0.8,1.7,0.7
	c1-0.3,4.5-4.4,4.7-4.5c0.3-0.1,1.8,1,1.8,1l-1.1,1.4c1.7,9.8,7.2,16.3,7.2,16.3l3.7-5.4C382.2,282.5,383.2,289.5,382.2,290.9z"/>
<path class="st25" d="M279.4,212.3c0,0.1,0,0.3-0.1,0.4c-0.1,0.3-0.1,0.6-0.2,0.9c0,0,0,0,0,0c-1.3,4.7-6.4,9.6-12.9,7.2
	c-7.1-2.5-20.6-31.2-20.6-31.2l1.4-6.1l32.1,26.1l0.4,2.5L279.4,212.3z"/>
<g>
	<path class="st26" d="M172.5,207c0,0-2-10.8-1.1-18.8c0.9-8-0.2-17.1-0.2-17.1s-1.9-0.8-3.4,0c-1.4,0.8-4.7,9.1-3.2,15.7
		c1.5,6.6,0.3,22.5,0.3,22.5h-2.2l-4.9-6.7l-2.4-0.7c0,0-13.6,12.9-13.4,20.5l1.8,6.8l16.8-0.6l11-12.5L172.5,207z"/>
	<linearGradient id="SVGID_21_" gradientUnits="userSpaceOnUse" x1="148.0378" y1="225.7211" x2="148.0378" y2="202.011">
		<stop  offset="1.598750e-02" style="stop-color:#FFC2A9"/>
		<stop  offset="1" style="stop-color:#FF9595"/>
	</linearGradient>
	<path class="st27" d="M155.5,202c0,0,0.4,8.5,2.3,15.8c0,0-0.3,3-3.8,3.2l-0.9-1c0,0-0.6,3.4-3.7,3.7l-2.9-2.9l0.8,2.4
		c0,0-1.1,2.6-3.9,2.5c0,0-4.7-3.7-5-8.4l4.6-3.9v-3l5.5-3.9l0.1-2.2C148.5,204.3,151.8,202,155.5,202z"/>
	<linearGradient id="SVGID_22_" gradientUnits="userSpaceOnUse" x1="162.9681" y1="225.1598" x2="162.9681" y2="185.912">
		<stop  offset="0" style="stop-color:#FFEADB"/>
		<stop  offset="0.9944" style="stop-color:#C27CB6"/>
	</linearGradient>
	<path class="st28" d="M171.6,185.9c0,0-0.8,2.1-2,2.9c-1.2,0.8-4.6,1.4-4.6,1.4l-0.2,19.1h-2.2l-4.9-6.7c0,0,2.5,3.8,2.6,6.7
		l-1.9,0.9l-1.7-5.7l-0.8,4.1l0.8,5.1c0,0,2.9-2.5,8.1-2.6l0.8,1.4c0,0-9.5,7.8-11.6,12.5c0,0,4.7-5.9,15.3-12.5l1-3.1l1.3-7.5
		C171.8,202,170.5,191.2,171.6,185.9z"/>
	<linearGradient id="SVGID_23_" gradientUnits="userSpaceOnUse" x1="161.6948" y1="251.8606" x2="161.6948" y2="191.3545">
		<stop  offset="1.598750e-02" style="stop-color:#FFC2A9"/>
		<stop  offset="1" style="stop-color:#FF9595"/>
	</linearGradient>
	<path class="st29" d="M179.6,219.3c-0.9,2.6-10.1,13.6-11.1,16c-1,2.4-1.6,5.5-1.6,5.5c-4.5,9.8-15.5,11.1-15.5,11.1l-0.5-8.8
		c0,0-5.9-3.4-6.9-5.2l0,0l-0.1-0.3c-0.3-1.7,0-8.1,0-8.1l10.3-4.2c4.5-5.8,15.3-12.5,15.3-12.5l0.5-3c-7.8-3.8-6.5-15.4-5.2-16.9
		c1.3-1.4,3.8-1.4,3.8-1.4s2.9,9.3,4.7,13.7C175,209.4,180.5,216.6,179.6,219.3z"/>
	<path class="st30" d="M148.5,204.3c0,0,1.2,10.7,4.5,15.7c0,0-4.3-5.3-4.6-13.6L148.5,204.3z"/>
	<path class="st30" d="M143,210.4c0,0,1.1,8.6,6.4,13.4c0,0-4.7-2.3-6.4-10.4V210.4z"/>
	<linearGradient id="SVGID_24_" gradientUnits="userSpaceOnUse" x1="150.8744" y1="242.4185" x2="169.8986" y2="242.4185">
		<stop  offset="1.598750e-02" style="stop-color:#D1A1D6"/>
		<stop  offset="0.9944" style="stop-color:#BD89C4"/>
	</linearGradient>
	<path class="st31" d="M169.9,233c0,0-11.6,11.3-19,10.1l0.5,8.8c0,0,12.2-1.1,16.1-13.9C167.5,238,168.9,234.3,169.9,233z"/>
</g>
<g>
	<linearGradient id="SVGID_25_" gradientUnits="userSpaceOnUse" x1="383.8821" y1="288.7151" x2="383.8821" y2="207.8032">
		<stop  offset="1.598750e-02" style="stop-color:#FFC2A9"/>
		<stop  offset="1" style="stop-color:#FF9595"/>
	</linearGradient>
	<path class="st32" d="M415.4,248.3c0,0-10.7,19.5-23.1,25.5h-4.3l-9.8,14.9c0,0-6.4-4-6.8-17.1c0,0,2.2-2.3,2.8-5
		c0,0-3.5-2.8-4.5-4.8c-0.9-2-1.3-8.1-2-10.6s-6.4-7.7-7.7-8.4c-1.3-0.7-7.1-1-7.1-1s-0.8-2.1,0-3.1c0.8-1,9.9-4.5,14.8-1.2
		c0,0,0.3,2.6,0.9,3.9c0.5,1.4,4.9,6.2,5.6,6.2s3.6-2.4,4.9-4.3c1.2-1.8,7.8-15.9,9.4-20.7c0-0.1,0-0.1,0-0.1c0-0.1,0.1-0.2,0.1-0.2
		c0-0.1,0-0.1,0-0.1c0,0,0,0,0-0.1c1.2-4.1,8.3-12,12.1-14.2c0,0,1.6-0.4,2.5,1.6c0,0-3,8.7-6.2,13.8c-0.5,0.9-1.1,1.9-1.7,3
		c0,0,0,0,0,0c-2.7,5-5.8,11.5-6.2,12.5l-0.1,0.1l1.7,0.9l4.6-4.3l4.7-4.4l10.8,11.4l-1.1,1.4l-3.4,4.3l1.7,0.3l4-4.4L415.4,248.3z"
		/>
	<linearGradient id="SVGID_26_" gradientUnits="userSpaceOnUse" x1="393.441" y1="262.7916" x2="393.441" y2="222.5935">
		<stop  offset="0" style="stop-color:#FFEADB"/>
		<stop  offset="0.9944" style="stop-color:#C27CB6"/>
	</linearGradient>
	<path class="st33" d="M412.9,252.4l-3.4,5c0,0-18.7-14.4-22.8-15.6s-5.6-0.4-5.6-0.4l-4.2,5.3c0,0,7.7,6.8,8.4,16
		c0,0-2.6-11.6-11.3-15.2c0.7,0,3.6-2.4,4.9-4.3c1.2-1.8,7.8-15.9,9.4-20.7c-0.2,0.8-0.5,2.4,0.2,3.7c0.9,1.7,6.3,0.1,6.7,0
		c0,0,0,0,0,0l-6.2,12.5l-0.1,0.1l1.7,0.9l4.6-4.3l-2.3,5.3l16.7,2.9l-3.4,4.3l1.7,0.3L412.9,252.4z"/>
	<linearGradient id="SVGID_27_" gradientUnits="userSpaceOnUse" x1="401.3713" y1="248.917" x2="401.3713" y2="230.8969">
		<stop  offset="0" style="stop-color:#FFB0B0"/>
		<stop  offset="0.984" style="stop-color:#FFC2A9"/>
	</linearGradient>
	<path class="st34" d="M399.8,230.9c0,0,3.2-0.5,5.3,3.7l-0.5,1.4c0,0,3.2,0.6,6.2,5.8c0,0-2.7,4.9-9.4,7.2c0,0-3.1-0.9-3.7-3.5
		l0.6-1.7l-2.4,1.8c0,0-2.9,0.9-4.2-3.5L399.8,230.9z"/>
	<linearGradient id="SVGID_28_" gradientUnits="userSpaceOnUse" x1="411.8231" y1="251.6919" x2="411.8231" y2="241.8101">
		<stop  offset="0" style="stop-color:#FFB0B0"/>
		<stop  offset="0.984" style="stop-color:#FFC2A9"/>
	</linearGradient>
	<path class="st35" d="M416.3,247c0,0,0.7-3.1-2.6-5.1l-6.4,7.1c0,0,0.2,2.3,3,2.8C410.2,251.7,414.6,250.2,416.3,247z"/>
	<linearGradient id="SVGID_29_" gradientUnits="userSpaceOnUse" x1="369.5581" y1="271.3876" x2="387.9371" y2="271.3876">
		<stop  offset="1.598750e-02" style="stop-color:#D1A1D6"/>
		<stop  offset="0.9944" style="stop-color:#BD89C4"/>
	</linearGradient>
	<path class="st36" d="M369.6,261.8c0,0,7.4,8.3,18.4,11.9l-4.7,7.1l-9.8-12.5l0.6-1.8C374,266.6,370.1,263.7,369.6,261.8z"/>
	<path class="st30" d="M404.7,236c0,0-3.1,5.1-6.2,7.7l-0.6,1.7c0,0,6-4.1,8.3-8.8C406.1,236.6,405.4,236.1,404.7,236z"/>
</g>
<linearGradient id="SVGID_30_" gradientUnits="userSpaceOnUse" x1="343.9805" y1="334.8195" x2="343.9805" y2="244.2518">
	<stop  offset="0" style="stop-color:#CCCCFF"/>
	<stop  offset="1" style="stop-color:#755CBB"/>
</linearGradient>
<path class="st37" d="M382.2,290.9c-0.9,1.5-5.7,4.6-6.9,5.8c-1.2,1.2,0,5.2,0,5.2c-19.9,21.1-40.6,31.7-42.7,32.7
	c-0.1,0.1-0.2,0.1-0.2,0.1c-1.6,0.2-9.5-2-17.5-17.9c-7.2-14.3-9.2-23.9-9.6-25.6l0-0.3l1.7-2.4l2.6-29.2l1.8,5.9
	c6.9-8.3,13.4-21.1,13.4-21.1l0.3,0.9v0c1.2,4.6,3.6,21.8,5.8,27.9c1.4,3.8,3.6,5.9,5.2,7l0,0l0,0c-6.4,5.8-9.5,14.1-11.1,20.8
	c-1.4,6.1-1.5,10.7-1.5,10.7s1.8-8.3,7.3-18.2c2-3.6,5-6.8,7.9-9.5c2.2-2,4.4-3.7,6.1-4.9c1.5,0.9,2.8,2.4,4.1,1.8
	c-8.4,12.5-8.2,37.4-0.3,32.7c7.8-4.7,9.6-14.8,9.6-14.8c-1.9-12.2-1.3-26.1,0.2-28.7c1.8,0.1,7,3.7,7.3,3.6
	c-0.5,14.4,6.3,24,6.3,24l4.5-6.9c-6.5-11-6-21.6-6-21.6c0.3-0.1,1.8,1,1.8,1l-1.1,1.4c1.7,9.8,7.2,16.3,7.2,16.3l3.7-5.4
	C382.2,282.5,383.2,289.5,382.2,290.9z"/>
<linearGradient id="SVGID_31_" gradientUnits="userSpaceOnUse" x1="144.573" y1="316.5726" x2="296.0527" y2="316.5726">
	<stop  offset="0" style="stop-color:#CCCCFF"/>
	<stop  offset="1" style="stop-color:#755CBB"/>
</linearGradient>
<path class="st38" d="M296.1,381.1v4.3l-0.1,0.1l-0.2,0.2l-0.2,0.2c-1.9,1.5-10.1,6.5-35.7,7.9c-30.3,1.6-50.4-8.1-50.4-8.1l1.5-4.2
	c0,0-1.4-1.2-1.5-1.8c-0.1-0.6,1.1-2,1.1-2s-3-1.6-3-3.7c0-1.8,5-7.1,5.8-12.1c0.1-0.5,0.1-1.1,0.1-1.6c-0.2-5.4-4.8-10.1-5.5-13.1
	c0,0,0,0,0,0c-0.6-3,7.9-10.6,7.9-10.6c-7.3-23.1-8.7-54.2-8.7-54.2l-1.4-1.6c0,0-8.7,19.9-16.7,29.6c-7.9,9.8-19.5,18.1-21.5,17.7
	c-4.7,0-9.9-8.1-14.6-18.1c-4.7-10-5-38.8-5.3-40.6c-0.3-1.8-2.9-5.3-3.1-6.9c5.1,8.7,13.2,6.2,13.2,6.2c-5.9,0.1-8.9-10.8-8.9-10.8
	l0-0.1l0-0.1l-2.9-7.6c0.3,0.4,7,7.9,13.5,3.2c6.6-4.7,10.1-13.9,10.1-13.9V251c0,0,0.4,1.8,1,1.8c-0.4,5.4-1.5,12-2.9,18.5
	c-3,14.1-7.1,27.7-7.1,27.7s11.2-6.1,15.1-21.5c1.9-7.4,2.2-13.8,2-18.5c-0.2-4-0.7-6.7-0.9-7.7c0-0.1,0-0.2-0.1-0.2
	c0,0,0-0.1,0-0.1c0,0,0,0,0-0.1l1.1,2.3l2.1,5.1c2.4,19.8-2.5,49.7-2.5,49.7c7.2-8.9,8.7-28.7,8.4-33.5c-0.1-2.3-0.3-5.1-0.4-7.4
	c-0.2-2.5-0.3-4.4-0.3-4.4l14.7,8.8l-2.7-8.6l10.7,8.6c0,0,9.6,11.6,19.5,12.9c9.9,1.4,46.2,0.5,46.2,0.5s-31.5,2-40.7,4.7
	c-9.2,2.7-11,5.8-11,5.8c6.7,33.9,43.5,45.3,44.6,45.6c-33.4-5-49-33.4-49-33.4s-0.5,16,2,22.1c2.6,6.1,17.7,21,37.2,24.1
	c1.6,0.3,3.3,0.4,4.9,0.5c16.4,0.8,30-7.6,31.4-8.5c0.1-0.1,0.1-0.1,0.1-0.1s0,0,0,0.1c-0.5,0.8-7.3,10.3-34.5,11.3
	c-1.7,0.1-3.3,0.1-4.8,0c0,0,0,0,0,0c-25.2-1.1-38.1-17.9-38.1-17.9s-9.3,5-3.4,12.5c0.1,0.1,0.1,0.2,0.2,0.2
	c1.8,2,5.6,4.5,10.2,7.1c0.1,0.1,0.3,0.2,0.4,0.2c5.5,3.1,12,6.2,17,8.8c0,0,0.1,0,0.1,0c3.1,1.6,5.6,3,7,4c0,0,0,0,0,0
	c1.4,1,1.7,1.7,0.3,1.9c-7,0.8-33.7-5-34.8-3.4c-1.1,1.6,1.3,5.8,1.3,5.8c24.5,12.1,76.8,6.2,78.5,6c-43.8,11.2-79.7-3-79.7-3
	l1.2,4.2c0,0,19.5,6.8,42.5,7.3c23,0.5,37.4-5.3,37.4-5.3L296.1,381.1z"/>
<linearGradient id="SVGID_32_" gradientUnits="userSpaceOnUse" x1="278.1187" y1="291.2245" x2="307.0729" y2="291.2245">
	<stop  offset="0" style="stop-color:#CCEDFF"/>
	<stop  offset="1" style="stop-color:#755CBB"/>
</linearGradient>
<path class="st39" d="M278.1,284.7c0,0,17.4,0.9,29,4l-5.9,9C301.1,297.7,292.2,289.9,278.1,284.7z"/>
<linearGradient id="SVGID_33_" gradientUnits="userSpaceOnUse" x1="251.8573" y1="342.039" x2="294.4088" y2="342.039">
	<stop  offset="0" style="stop-color:#CCEDFF"/>
	<stop  offset="1" style="stop-color:#755CBB"/>
</linearGradient>
<path class="st40" d="M294.4,332.8c0,0-10.9,9.1-21.6,13.3c-10.7,4.2-21,4.6-21,4.6s6.1,1.8,21.3-0.6c15.1-2.4,20.3-10.6,20.3-10.6
	L294.4,332.8z"/>
<linearGradient id="SVGID_34_" gradientUnits="userSpaceOnUse" x1="253.8278" y1="361.2794" x2="299.2891" y2="361.2794">
	<stop  offset="0" style="stop-color:#CCEDFF"/>
	<stop  offset="1" style="stop-color:#755CBB"/>
</linearGradient>
<path class="st41" d="M299.3,367.7L299.3,367.7c-20.1,5.2-45.7-2.3-45.5-3.2c0.2-0.9,7,0.4,22.7-2.7c15.2-3.1,20.8-8.5,21.1-8.8
	c-0.1,0.9-2.2,2.9-2.8,5.2C294.4,359.6,297.3,364.3,299.3,367.7z"/>
<linearGradient id="SVGID_35_" gradientUnits="userSpaceOnUse" x1="214.7027" y1="313.642" x2="214.7027" y2="262.6201">
	<stop  offset="0" style="stop-color:#CCEDFF"/>
	<stop  offset="1" style="stop-color:#755CBB"/>
</linearGradient>
<path class="st42" d="M244.6,287.5c-17.2,1.7-21.8,6.5-21.8,6.5c-4.8,0.6-15.7-11.8-15.7-11.8l-1.4-1.6c0,0-8.7,19.9-16.7,29.6
	c-0.9,1.2-1.9,2.3-3,3.4l1.1-2.5c0,0,1.8-0.9,2.4-10.6c0.5-9.7-4.1-24.1-4.1-26.1c0-2-0.7-11.9-0.7-11.9l14.7,8.8l-2.7-8.6l10.7,8.6
	c0,0,4.2,6.3,14.8,11.6C232.2,287.9,243.4,287.5,244.6,287.5z"/>
<linearGradient id="SVGID_36_" gradientUnits="userSpaceOnUse" x1="218.8103" y1="317.931" x2="218.8103" y2="279.2547">
	<stop  offset="0" style="stop-color:#CCEDFF"/>
	<stop  offset="1" style="stop-color:#755CBB"/>
</linearGradient>
<path class="st43" d="M205.7,280.6l10.2-1.3c0,0,4.1,2.7,12.3,6.1l-6.9,10.1c0,0,2.7,14.4,10.5,22.5c0,0-20.7-11.5-23.6-21.2
	L205.7,280.6z"/>
<linearGradient id="SVGID_37_" gradientUnits="userSpaceOnUse" x1="157.6848" y1="268.49" x2="157.6848" y2="239.2686">
	<stop  offset="0" style="stop-color:#CCEDFF"/>
	<stop  offset="1" style="stop-color:#755CBB"/>
</linearGradient>
<path class="st44" d="M145.9,249.9l2.9,7.7c0,0,3,10.4,8.9,10.8c5.9,0.4,11.7-17.4,11.7-17.4v-11.8c0,0-6.3,13.5-13.1,15
	C149.6,255.8,145.9,249.9,145.9,249.9z"/>
<linearGradient id="SVGID_38_" gradientUnits="userSpaceOnUse" x1="181.3311" y1="242.7571" x2="193.1075" y2="242.7571">
	<stop  offset="0" style="stop-color:#CCEDFF"/>
	<stop  offset="1" style="stop-color:#755CBB"/>
</linearGradient>
<path class="st45" d="M181.3,243.8c0,0,5.3,10.6,11.8,13.8c0,0-7.7-18.8-6.1-29.8C187,227.9,184.2,229.6,181.3,243.8z"/>
<linearGradient id="SVGID_39_" gradientUnits="userSpaceOnUse" x1="309.3491" y1="313.642" x2="309.3491" y2="259.4801">
	<stop  offset="0" style="stop-color:#CCCCFF"/>
	<stop  offset="1" style="stop-color:#755CBB"/>
</linearGradient>
<path class="st46" d="M309.7,259.5l1.8,5.9l1.8,48.3c0,0-4.7-9.2-8-22.3l1.7-2.6C307.1,288.7,309.9,270.5,309.7,259.5z"/>
<linearGradient id="SVGID_40_" gradientUnits="userSpaceOnUse" x1="370.2418" y1="301.993" x2="370.2418" y2="273.6904">
	<stop  offset="0" style="stop-color:#CCCCFF"/>
	<stop  offset="1" style="stop-color:#755CBB"/>
</linearGradient>
<path class="st47" d="M365.8,273.7c0,0-1,23.7,9,25.8l0.5,2.5C375.3,302,362.3,301.5,365.8,273.7z"/>
<linearGradient id="SVGID_41_" gradientUnits="userSpaceOnUse" x1="338.1431" y1="300.7285" x2="338.1431" y2="279.0916">
	<stop  offset="0" style="stop-color:#CCCCFF"/>
	<stop  offset="1" style="stop-color:#755CBB"/>
</linearGradient>
<path class="st48" d="M349,280.9c0,0-0.4,0.8-4.1-1.8c0,0-12.7,9-17.6,21.6c0,0,7.8-11.6,12-12.9c4.2-1.3,5.2,3.4,5.2,3.4
	S346.1,284.7,349,280.9z"/>
<linearGradient id="SVGID_42_" gradientUnits="userSpaceOnUse" x1="151.5681" y1="270.3553" x2="151.5681" y2="262.32">
	<stop  offset="0" style="stop-color:#CCEDFF"/>
	<stop  offset="1" style="stop-color:#755CBB"/>
</linearGradient>
<path class="st49" d="M144.6,262.3c0,0,4.9,9,14,6.2c0,0-5.5,3.7-11,0.7C147.6,269.2,144.2,263.3,144.6,262.3z"/>
<linearGradient id="SVGID_43_" gradientUnits="userSpaceOnUse" x1="173.0323" y1="294.8524" x2="173.0323" y2="250.939">
	<stop  offset="0" style="stop-color:#CCCCFF"/>
	<stop  offset="1" style="stop-color:#755CBB"/>
</linearGradient>
<path class="st50" d="M176.5,250.9c0,0,6.7,25.1-10.8,43.9c0,0,11.4-5.8,13.9-19.3C182.2,262,176.5,250.9,176.5,250.9z"/>
<linearGradient id="SVGID_44_" gradientUnits="userSpaceOnUse" x1="286.0106" y1="263.9428" x2="286.0106" y2="230.8969">
	<stop  offset="0" style="stop-color:#CCEDFF"/>
	<stop  offset="1" style="stop-color:#755CBB"/>
</linearGradient>
<path class="st51" d="M296.7,230.9c0,0-0.8,11.3-6.2,19.4c-5.4,8.1-16.2,13.6-16.2,13.6s13.5-5,19.7-12
	C300.2,245,296.7,230.9,296.7,230.9z"/>
<linearGradient id="SVGID_45_" gradientUnits="userSpaceOnUse" x1="242.7178" y1="259.4756" x2="242.7178" y2="213.8661">
	<stop  offset="0" style="stop-color:#CCEDFF"/>
	<stop  offset="1" style="stop-color:#755CBB"/>
</linearGradient>
<path class="st52" d="M227.6,213.9c0,0,0,9.5,3,19.1c3,9.6,29.5,26.5,29.5,26.5s-27.2-11.3-32.5-21.5
	C222.3,227.8,227.6,213.9,227.6,213.9z"/>
<linearGradient id="SVGID_46_" gradientUnits="userSpaceOnUse" x1="227.3172" y1="267.8176" x2="303.4959" y2="267.8176">
	<stop  offset="0" style="stop-color:#8642A0"/>
	<stop  offset="1" style="stop-color:#6456C0"/>
</linearGradient>
<path class="st53" d="M227.3,258.9v15.4c0,0,35.5-0.3,75.3,2.3l0.9-13.9C303.5,262.8,268.9,258.7,227.3,258.9z"/>
<g>
	<path class="st54" d="M233.9,262.5c0-0.3,0.1-0.4,0.4-0.4l7.2,0.2c0.7,0,1.3,0.1,1.8,0.3c0.5,0.2,0.9,0.5,1.2,0.8
		c0.3,0.3,0.5,0.7,0.6,1.2s0.2,1,0.2,1.6l-0.1,2c0,0.6-0.1,1.1-0.3,1.6c-0.2,0.5-0.4,0.9-0.7,1.2c-0.3,0.3-0.7,0.6-1.2,0.7
		c-0.5,0.2-1.1,0.2-1.8,0.2l-3.9-0.1l-0.8-2.3l-0.1,0l-0.1,2.2l-2.7-0.1L233.9,262.5z M236.4,269.2l4.6,0.1c0.5,0,0.9-0.1,1.1-0.3
		c0.2-0.2,0.3-0.6,0.4-1.2l0-1.6c0-0.6-0.1-1-0.3-1.2c-0.2-0.2-0.6-0.3-1.1-0.4l-4.4-0.1c-0.1,0-0.1,0-0.1,0.1c0,0-0.1,0.1-0.1,0.1
		L236.4,269.2z"/>
	<path class="st54" d="M249.2,266.6L249.2,266.6l-0.2,2.9c0,0.1,0.1,0.2,0.2,0.2l8.1,0.2l-0.1,2.5l-10.6-0.3c-0.3,0-0.4-0.1-0.4-0.4
		l0.3-8.8c0-0.3,0.1-0.4,0.4-0.4l10.3,0.3c0.3,0,0.4,0.1,0.4,0.4l-0.1,2.5l-2.5,0.9l-0.1,0l0-1.3c0-0.1,0-0.1-0.1-0.1l-5.4-0.2
		c-0.1,0-0.1,0-0.1,0.1c0,0,0,0.1,0,0.1l0,1.2l4.5,0.1l-0.1,1.9l-3.8-0.1L249.2,266.6z"/>
	<path class="st54" d="M267.1,266.4l-0.1,0l0-1.1c0-0.1,0-0.2-0.2-0.2l-5.1-0.2c-0.2,0-0.3,0-0.4,0.1c-0.1,0.1-0.1,0.2-0.1,0.3
		l0,0.2c0,0.2,0,0.3,0.1,0.4c0.1,0.1,0.2,0.1,0.4,0.1l5.9,1c0.4,0.1,0.7,0.2,1,0.3c0.3,0.1,0.5,0.3,0.6,0.5c0.2,0.2,0.3,0.4,0.3,0.7
		c0.1,0.3,0.1,0.6,0.1,0.9l0,0.8c0,0.4-0.1,0.7-0.2,1c-0.1,0.3-0.3,0.5-0.5,0.7c-0.2,0.2-0.5,0.3-0.9,0.4c-0.4,0.1-0.8,0.1-1.3,0.1
		l-8.5-0.3l0.1-2.5l7.6,0.2c0.2,0,0.4,0,0.5-0.1c0.1-0.1,0.1-0.2,0.1-0.4l0-0.3c0-0.2,0-0.3-0.1-0.4c-0.1-0.1-0.2-0.1-0.3-0.1
		l-5.7-0.9c-0.4-0.1-0.7-0.2-1-0.3c-0.3-0.1-0.5-0.3-0.7-0.4c-0.2-0.2-0.3-0.4-0.4-0.7c-0.1-0.3-0.1-0.6-0.1-0.9l0-0.7
		c0-0.7,0.2-1.2,0.6-1.6c0.4-0.4,1-0.5,1.9-0.5l8.5,0.3c0.3,0,0.4,0.2,0.4,0.4l-0.1,2L267.1,266.4z"/>
	<path class="st54" d="M270.7,272.8l0.3-9.6l2.7,0.1l-0.3,9.6L270.7,272.8z"/>
	<path class="st54" d="M283.5,269c0-0.1,0-0.3,0-0.4c0-0.2,0-0.3,0-0.4l0-0.1l2.7,0.1l-0.1,4.7c0,0.2-0.1,0.4-0.3,0.4l-7.2-0.2
		c-0.7,0-1.3-0.1-1.8-0.3c-0.5-0.2-0.9-0.5-1.2-0.8c-0.3-0.3-0.5-0.7-0.6-1.2c-0.1-0.5-0.2-1-0.2-1.6l0.1-2c0-0.6,0.1-1.1,0.3-1.6
		c0.2-0.5,0.4-0.9,0.7-1.2c0.3-0.3,0.7-0.6,1.2-0.7c0.5-0.2,1.1-0.2,1.8-0.2l7.2,0.2c0.3,0,0.4,0.1,0.4,0.4l-0.1,2.1l-2.5,0.8
		l-0.1,0l0-0.9c0-0.1,0-0.1-0.1-0.1l-4.6-0.1c-0.3,0-0.5,0-0.7,0.1c-0.2,0-0.3,0.1-0.4,0.2c-0.1,0.1-0.2,0.3-0.3,0.5
		c-0.1,0.2-0.1,0.4-0.1,0.7l-0.1,1.7c0,0.6,0.1,1,0.3,1.2c0.2,0.2,0.6,0.4,1.1,0.4l4.5,0.1c0.1,0,0.1,0,0.1-0.2L283.5,269z"/>
	<path class="st54" d="M291.9,263.8c0.2,0,0.3,0,0.4,0.1c0.1,0.1,0.2,0.2,0.2,0.3l3.4,7c0.1,0.1,0.1,0.2,0.2,0.2l0.1,0
		c0.1,0,0.2-0.1,0.2-0.2l0.2-7.2l2.5,0.1l-0.3,9.2c0,0.3-0.1,0.4-0.4,0.4l-3.9-0.1c-0.2,0-0.3,0-0.4-0.1c-0.1-0.1-0.2-0.2-0.2-0.3
		l-3.6-7c0-0.1-0.1-0.2-0.2-0.2l-0.1,0c-0.1,0-0.2,0.1-0.2,0.2l-0.2,7.2l-2.5-0.1l0.3-9.2c0-0.3,0.1-0.4,0.4-0.4L291.9,263.8z"/>
</g>
<linearGradient id="SVGID_47_" gradientUnits="userSpaceOnUse" x1="233.8855" y1="223.858" x2="283.4606" y2="223.858">
	<stop  offset="0" style="stop-color:#CCCCFF"/>
	<stop  offset="1" style="stop-color:#755CBB"/>
</linearGradient>
<path class="st55" d="M283.5,215.9c-0.8,10-3.9,16.9-7.1,21.6c-4.5,6.4-9.3,8.6-9.3,8.6c-4.8-2.1-9-4.7-12.6-7.6
	c-15.3-12.2-20.2-29.1-20.6-30.5c6.5,15.6,15.9,25,23.1,30.3c5.8,4.3,10.1,5.9,10.1,5.9v-5c-1.1-0.4-2.3-0.9-3.3-1.5
	c-12.6-6.4-19.3-19.7-22.4-28.3c0,0,0,0,0-0.1c-1.7-4.7-2.3-7.9-2.3-7.9h2.3l-0.8,1.6l0,0.1c0.4,1.6,0.8,3.2,1.3,4.7
	c0,0,0,0.1,0,0.1c7.1,22.3,25.3,29.5,25.3,29.5c12.6-9.3,12.4-24.2,12.4-24.2v-2l2.4,0.7L283.5,215.9z"/>
<linearGradient id="SVGID_48_" gradientUnits="userSpaceOnUse" x1="361.3292" y1="298.7662" x2="361.3292" y2="270.0761">
	<stop  offset="0" style="stop-color:#CCCCFF"/>
	<stop  offset="1" style="stop-color:#755CBB"/>
</linearGradient>
<path class="st56" d="M358.5,270.1c0,0-3.4,11.2-0.2,28.7c0,0,1.6-22.1,2.8-24.1c1.2-1.9,4.6-1,4.6-1S360.4,270.7,358.5,270.1z"/>
<linearGradient id="SVGID_49_" gradientUnits="userSpaceOnUse" x1="320.776" y1="331.1316" x2="320.776" y2="244.2518">
	<stop  offset="0" style="stop-color:#CCCCFF"/>
	<stop  offset="1" style="stop-color:#755CBB"/>
</linearGradient>
<path class="st57" d="M325.1,331.1c-3-2.6-6.6-7-10.2-14.2c-7.2-14.3-9.2-23.9-9.6-25.6l1.7-2.6l2.3-22.1l2.1-1.3
	c0,0,7.6-8.4,13.4-21.1c0.1,0.2,0.2,0.5,0.3,0.9v0c1.2,4.6,3.6,21.8,5.8,27.9c1.4,3.8,3.6,5.9,5.2,7c0,0-13.2,19.6-13.8,33.5
	C321.8,326.4,324.6,330.5,325.1,331.1z"/>
<linearGradient id="SVGID_50_" gradientUnits="userSpaceOnUse" x1="227.3698" y1="371.9406" x2="227.3698" y2="347.0351">
	<stop  offset="0" style="stop-color:#CCCCFF"/>
	<stop  offset="1" style="stop-color:#755CBB"/>
</linearGradient>
<path class="st58" d="M246.8,371.9c0,0-23.8-3.9-33.5-10.2c0,0,0,0,0,0c0.1-0.5,0.1-1.1,0.1-1.6c-0.2-5.4-4.8-10.1-5.5-13.1
	c0.1,0.3,0.8,1.9,4.2,4.8c2.1,1.8,5.4,4.2,10.2,7.1c0.1,0.1,0.3,0.2,0.4,0.2c6.9,4.1,12.8,6.8,17,8.8c0,0,0.1,0,0.1,0
	C243.6,369.7,246.1,370.9,246.8,371.9C246.8,371.9,246.8,371.9,246.8,371.9z"/>
<linearGradient id="SVGID_51_" gradientUnits="userSpaceOnUse" x1="275.75" y1="365.0991" x2="275.75" y2="353.0042">
	<stop  offset="0" style="stop-color:#CCCCFF"/>
	<stop  offset="1" style="stop-color:#755CBB"/>
</linearGradient>
<path class="st59" d="M297.7,353c-0.1,0.9-2.2,2.9-2.8,5.2c0,0-8.7,9.2-41,6.4c0.2-0.9,7,0.4,22.7-2.7
	C291.8,358.8,297.3,353.3,297.7,353z"/>
<path class="st60" d="M303,228l-20.6,6.7l-6,2.8l0,0l-3.9,0l-5.3,0l-3.3,0.3l-1.8,0.1l-5,0.4l-2.5,0.2l-24.8-9l-4.4-1.6l-20.4-7.4
	c0.6-0.2,1.2-0.5,1.9-0.7c13.7-5.4,27.1-12,27.1-12l5.1-6.3h2.3c2-4.5,3.4-8.7,4.3-12l1.4-6.1c0.1-0.6,0.1-0.9,0.1-0.9l7.3,3.8
	l24.6,19.7c0,1.3,0,2.5,0.1,3.6l0.4,2.5c0.1-0.5,0.1-0.8,0.1-0.8l2.4,0.7l1.6,3.9c0,0,2.7,4.3,13.6,9C298.9,225.8,301,226.8,303,228
	z"/>
<g>
	<linearGradient id="SVGID_52_" gradientUnits="userSpaceOnUse" x1="275.2168" y1="209.6391" x2="275.2168" y2="126.8992">
		<stop  offset="1.598750e-02" style="stop-color:#FFC2A9"/>
		<stop  offset="1" style="stop-color:#FF9595"/>
	</linearGradient>
	<path class="st61" d="M287.3,209.2c0,0-9.6,2.2-20.2-3c-10.6-5.1-19.5-20.3-20.1-24.1c-0.5-3.8,4.1-13.7,4.1-21.4
		c0-7.7-3.8-21,2.6-28.2c6.4-7.2,35.6-8.3,45.1,1c0,0,2.9,7.4,2.9,11.5c0,1-0.2,2.5-0.5,4.2c-0.1,0.6-0.2,1.3-0.3,2
		c-0.8,5-2,11.2-1.5,13.9c0.2,0.9,0.5,1.8,0.8,2.6v0c1.2,2.7,2.9,4.9,3.2,7.2C303.9,178.1,299.8,199.7,287.3,209.2z"/>
	<linearGradient id="SVGID_53_" gradientUnits="userSpaceOnUse" x1="244.3723" y1="176.2517" x2="244.3723" y2="151.858">
		<stop  offset="1.598750e-02" style="stop-color:#FFC2A9"/>
		<stop  offset="1" style="stop-color:#FF9595"/>
	</linearGradient>
	<path class="st62" d="M251,158.5c0,0-2.6-6.6-9.2-6.7c0,0-3.9,1.5-4.5,4.5c0,0,1.4,10.7,3,15.6c1.6,5,7.6,4.3,7.6,4.3
		S253.1,168.3,251,158.5z"/>
	<linearGradient id="SVGID_54_" gradientUnits="userSpaceOnUse" x1="286.717" y1="185.4767" x2="287.7398" y2="180.1513">
		<stop  offset="0" style="stop-color:#E1616A"/>
		<stop  offset="1" style="stop-color:#FF8883"/>
	</linearGradient>
	<path class="st63" d="M276.3,180.3c0,0,2.2-0.2,3.1,0.5c0.9,0.7,4.4,4.1,8.8,5c4.4,0.9,7.3-2.8,8.2-3c0.9-0.2,2,1.1,2,1.1
		s-0.4-1.5-2.7-2.2c0,0-0.9,3.5-7.2,2.3c-6.3-1.2-9-4-9-4l-0.3-0.6C279.2,179.4,277.4,179.8,276.3,180.3z"/>
	<linearGradient id="SVGID_55_" gradientUnits="userSpaceOnUse" x1="277.4845" y1="181.402" x2="277.4845" y2="128.1009">
		<stop  offset="0" style="stop-color:#FFEADB"/>
		<stop  offset="0.9944" style="stop-color:#C27CB6"/>
	</linearGradient>
	<path class="st64" d="M267,147.5l0.1-0.7c0,0,6.3-11.1,18.8-11.4s15.3,7.5,15.3,7.5l2.3-3.5l-5.3-10.7l-36.7-0.6l-8.9,7.2
		l-1.1,17.6l4,23.3l9.7,5.2l2.7-2.4c-1-7.8-6.8-14.9-6.8-14.9l4.2-2.9c0,0,10.9,5.3,17.1,3.7c0,0,4.7-13.8,4.5-24
		C286.8,140.8,270.8,143.2,267,147.5z"/>
	<path class="st65" d="M266.4,148.3c0,0,0.6-4,7.3-5.6c7.5-1.8,13.6-3.3,13.6-3.3s-1.3,4.4-3.8,6c0,0-7.9-0.3-12,0.6
		C267.6,147,266.4,148.3,266.4,148.3z"/>
	<path class="st65" d="M301.2,142.9c0,0-3.8,2.9-6.4,9.9c0,0,2.5-3.2,4.8-3.2c1.6,0,1.3,1.6,1.3,1.6S302.4,147.1,301.2,142.9z"/>
	<linearGradient id="SVGID_56_" gradientUnits="userSpaceOnUse" x1="274.8868" y1="159.574" x2="274.8868" y2="149.0153">
		<stop  offset="0" style="stop-color:#CF6074"/>
		<stop  offset="1" style="stop-color:#F37270"/>
	</linearGradient>
	<path class="st66" d="M268.9,159.6c0,0,0.4-8.4,8.6-10.6c0,0,2.9,3.8,3.2,8.1C280.8,157.1,276.5,156.3,268.9,159.6z"/>
	<linearGradient id="SVGID_57_" gradientUnits="userSpaceOnUse" x1="295.9472" y1="162.9244" x2="295.9472" y2="153.7363">
		<stop  offset="0" style="stop-color:#CF6074"/>
		<stop  offset="1" style="stop-color:#FF817F"/>
	</linearGradient>
	<path class="st67" d="M292.5,162.9c0,0,0.7-6.7,4.5-9.2c0,0,2.6,2,2.4,7.6C299.4,161.3,297.1,160.5,292.5,162.9z"/>
	<path class="st68" d="M268.9,159.6c0,0,2.7,3.3,10.2,3.9c0,0,1.4-2.2,1.3-6.4C280.4,157.1,273.5,156.4,268.9,159.6z"/>
	<path class="st68" d="M292.5,162.9v1c0,0,1.2,2.4,5.3,2.8c0,0,1.3-2.1,1.4-5.4C299.2,161.3,296.6,160.6,292.5,162.9z"/>
	<path class="st69" d="M276.9,156.9c0,0-1.9,2.3-1.7,5.9c0,0,2.5,0.6,3.9,0.6c0,0,1.6-2.3,1.3-6.4
		C280.4,157.1,278.2,156.6,276.9,156.9z"/>
	<path class="st69" d="M296.4,161.4c0,0-1.1,1.1-1.3,4.7c0,0,1.5,0.6,2.6,0.6c0,0,1.5-2.1,1.4-5.4
		C299.2,161.3,298.2,160.9,296.4,161.4z"/>
	<path class="st65" d="M276.3,163.1c0,0-0.7-4.6,1.9-6.3l2.1,0.3c0,0,0.7,3.6-1.3,6.4C279.1,163.5,277,163.3,276.3,163.1z"/>
	<path class="st65" d="M297.4,161.2c0,0-1,2-1.4,5.2c0,0,0.7,0.3,1.8,0.3c0,0,1.5-1.8,1.4-5.4C299.2,161.3,298.1,161,297.4,161.2z"
		/>
	<path class="st70" d="M268.9,159.6c0,0,5-2.9,13.5-1.2l-1.6-1.2C280.8,157.1,274.8,155.3,268.9,159.6z"/>
	<path class="st70" d="M292.5,162.9c0,0,4-2.1,8.6-1l-1.9-1.4C299.2,160.5,296.1,160,292.5,162.9z"/>
	<path class="st9" d="M274.3,159.6c0,0,1.4-0.3,2.6,0.9C276.9,160.5,275.2,161,274.3,159.6z"/>
	<path class="st9" d="M294.3,163.5c0,0,2.1-0.4,2.9,0.6C297.2,164.1,296,164.8,294.3,163.5z"/>
	<path class="st71" d="M269.4,160.1c0,0,3.9,3.8,10.1,4.7l0.2-2.3l-0.6,1C279.1,163.5,273.1,163.1,269.4,160.1z"/>
	<path class="st71" d="M292.5,163.9c0,0,0.7,2.5,5.7,3.6l-0.2-1.2l-0.3,0.4C297.8,166.7,294.2,166.3,292.5,163.9z"/>
	<path class="st72" d="M282.4,173.8c0,0,1.9-0.4,5.3,0c3.5,0.4,7.3,1.4,9.5,0c0,0-2.8,2.8-5.3,3.2s-6.2-1.7-6.2-1.7l-1.6,0
		C284.1,175.4,282.9,174.7,282.4,173.8z"/>
	<path class="st73" d="M284.4,175.3c0,0,0.8-0.5,1.6-0.4c0.7,0.1,1.4,1.2,1.4,1.2S285.9,175.3,284.4,175.3z"/>
	<path class="st74" d="M297.2,173.8c0.9-0.9-3.8-9.2-6-9.5s-4.3,9.3-4.3,9.3s3.1,0.4,6.1,0.8C296,174.8,297.2,173.8,297.2,173.8z"/>
	<linearGradient id="SVGID_58_" gradientUnits="userSpaceOnUse" x1="296.8119" y1="168.2708" x2="296.8119" y2="147.5949">
		<stop  offset="0" style="stop-color:#FFEADB"/>
		<stop  offset="0.9944" style="stop-color:#C27CB6"/>
	</linearGradient>
	<path class="st75" d="M300.5,147.6c-1.3-0.2-5.7,5.3-5.7,5.3s-2.8,8.8-2.3,11.4c0.6,2.6,7.5,4,7.5,4l0.3-0.5v0
		c-0.4-0.8-0.7-1.7-0.8-2.6c-0.5-2.7,0.6-8.9,1.5-13.9c0,0,0.3-1,0.3-2C301.2,148.4,301.1,147.7,300.5,147.6z"/>
	<linearGradient id="SVGID_59_" gradientUnits="userSpaceOnUse" x1="276.3273" y1="210.6796" x2="276.3273" y2="110.3367">
		<stop  offset="0" style="stop-color:#2E33A0"/>
		<stop  offset="1" style="stop-color:#0665A5"/>
	</linearGradient>
	<path class="st76" d="M300.3,183.3c-1.4-3-0.5-4.5-12.9-6.2c-17.5-2.3-19,3-22,2.2c-0.1,0-0.2-0.1-0.4-0.1
		c-3.2-1.3-10.8-8.7-11-18.8c-0.2-10.5,6.8-17.9,6.8-17.9c-2.5-2.1-3.6-8.3-0.8-11c2.7-2.6,7.4-2,18.9-0.8
		c11.5,1.2,11.5,0.5,11.5,0.5c3.6,0.9,5.7,4.4,6.3,5.4c0.1,0.2,0.2,0.3,0.2,0.3l1.4-1.3c3.9,5.6,3.2,11.7,3.2,11.7
		s6.3-12.8,5.6-14.6c-1.3-3.3-4.9-8.2-5.2-8.5l0,0c0,0-1-9.7-4.1-9.7c-3,0-16,2.9-16,2.9c1.4-3.3,1.2-7.2,1.2-7.2s0,0-0.1,0.1
		c-4.2,3.8-8.4,4.2-14.3,6.9c-3,1.4-4.4,2.7-5.5,4l-0.4,0.5l-0.4,0.5c-0.4,0.5-0.8,1-1.3,1.6c0,0-0.1,0.1-0.1,0.1c0,0,0,0,0,0
		c-0.5,0.5-1,1-1.7,1.6c-3.9,3.1-12.3,5.2-13.4,8.6c-1,3.3,1.3,7.8,2.5,12.5c1.2,4.7,0.7,8.8,0.7,8.8s4,5.2,2.7,12.8
		c-1.2,6.8-3.8,7.9-3.8,7.9c-1.8,3.8-1,7.3-1,7.3c3.8,14.9,19.3,23.8,19.3,23.8c13.8,5.1,22.9,2.9,22.9,2.9s0,0,0,0
		c10-6.5,13.5-28.2,13.6-29.2C302.6,181.2,300.7,184.1,300.3,183.3z M294.1,197.1c-2.4-0.4-2.9-6.6-3.8-7.4
		c-0.8-0.8-5.2-0.5-5.2-0.5s-4.1,4.6-5.7,4.7c-1.6,0.1-10.3-3.4-8.4-8.7c1.9-5.3,8.4-6,8.4-6s3.4,2.8,8.5,3.2
		c5.1,0.3,6.9-0.6,7.5-0.9c0.6-0.3,3.9,1.2,3.8,5.8C299.2,190.7,296.6,197.5,294.1,197.1z"/>
	<path class="st77" d="M293.5,166.1c0,0,4.4,5.4,4,7.5c-0.5,2.2-5.5,3.4-5.5,3.4s4.1-1.4,4.9-3.4
		C296.8,173.6,295.8,169.5,293.5,166.1z"/>
	<linearGradient id="SVGID_60_" gradientUnits="userSpaceOnUse" x1="302.6827" y1="147.4913" x2="302.6827" y2="124.3433">
		<stop  offset="0" style="stop-color:#FFEADB"/>
		<stop  offset="0.9944" style="stop-color:#8860C7"/>
	</linearGradient>
	<path class="st78" d="M301.4,147.5c0,0,0.7-6.1-3.2-11.7c3.1-5.5,3.5-11.5,3.5-11.5l0,0c1.1,2.6,1.7,7.6,1.7,7.6l3.5,0.9
		C307.7,134.7,301.4,147.5,301.4,147.5z"/>
	<linearGradient id="SVGID_61_" gradientUnits="userSpaceOnUse" x1="271.1386" y1="210.6796" x2="271.1386" y2="110.3367">
		<stop  offset="0" style="stop-color:#CCC2DB"/>
		<stop  offset="0.9944" style="stop-color:#8860C7"/>
	</linearGradient>
	<path class="st79" d="M296.7,136.8c-0.6-1.1-2.7-4.5-6.3-5.4c0,0,0,0.7-11.5-0.5c-11.5-1.2-16.1-1.8-18.9,0.8
		c-2.7,2.6-1.7,8.8,0.8,11c0,0-7,7.4-6.8,17.9c0.2,10.1,7.8,17.5,11,18.8l-0.2,1.1c0,0,0.6,23,6.2,24.9c5.6,1.8,17.2,0.9,18.3,2
		c1,1-0.2,2.8-0.3,3c0,0,0,0,0,0s-9.1,2.2-22.9-2.9c0,0-15.5-8.9-19.3-23.8c0,0-0.9-3.5,1-7.3c0,0,2.6-1.1,3.8-7.9
		c1.3-7.6-2.7-12.8-2.7-12.8s0.6-4.1-0.7-8.8c-1.2-4.7-3.5-9.2-2.5-12.5c6.5,1,10.8-2.4,10.8-2.4s1.1-1.6,6.2-2.4
		c5-0.8,25.2,1.2,25.2,1.2s-2-1.7-6.3-2.8c-4-1.1-17.8,0.2-19.3,0.3c1.6-0.3,17.2-3,19-2.4c1.9,0.6,8.6,3.7,8.6,3.7
		c-0.6-3.1-6.7-10.6-6.7-10.6s-8.5,0.2-14.1,1.3c-5,1-7.7,3.3-8.3,3.8l1.3-1.6l0.4-0.5l0.4-0.5l2-0.3l9.8-4c3.3-1.8,7.5-6.1,8-6.6
		c0,0,0.1-0.1,0.1-0.1s0.2,3.9-1.2,7.2c8.3-1,11.1-0.5,11.1-0.5C296.6,122.4,296.7,136.8,296.7,136.8z"/>
	<linearGradient id="SVGID_62_" gradientUnits="userSpaceOnUse" x1="277.867" y1="210.6558" x2="277.867" y2="206.3447">
		<stop  offset="0" style="stop-color:#776D7E"/>
		<stop  offset="1" style="stop-color:#9D68C2"/>
	</linearGradient>
	<path class="st80" d="M266.2,207.3c0,0,5.1-1.2,12.7-0.9c7.7,0.3,12.1,0.3,10.2,3.8C289.1,210.2,279.5,212.4,266.2,207.3z"/>
	<linearGradient id="SVGID_63_" gradientUnits="userSpaceOnUse" x1="290.5152" y1="117.5383" x2="290.5152" y2="114.3354">
		<stop  offset="0" style="stop-color:#1F77D1"/>
		<stop  offset="1" style="stop-color:#0686C9"/>
	</linearGradient>
	<path class="st81" d="M292.8,117c0,0,4.7-1.8,6.5-1.5c0,0-0.7-1-1.5-1.2c-0.8-0.2-16.1,3.2-16.1,3.2S291.3,116.4,292.8,117z"/>
	<linearGradient id="SVGID_64_" gradientUnits="userSpaceOnUse" x1="270.1115" y1="128.0835" x2="270.1115" y2="118.6136">
		<stop  offset="0" style="stop-color:#1F77D1"/>
		<stop  offset="1" style="stop-color:#0686C9"/>
	</linearGradient>
	<path class="st82" d="M283.4,118.8c0,0-0.4,5.1-2,6.9l-19,2.4l-5.6-1c0,0,2.2-0.9,4.5-3.7C263.7,120.7,276.1,117.9,283.4,118.8z"/>
	<linearGradient id="SVGID_65_" gradientUnits="userSpaceOnUse" x1="304.4277" y1="132.8845" x2="304.4277" y2="124.3433">
		<stop  offset="0" style="stop-color:#1F77D1"/>
		<stop  offset="1" style="stop-color:#0686C9"/>
	</linearGradient>
	<path class="st83" d="M301.8,124.3c0,0,1.5,5,1.7,7.6l3.5,0.9C307,132.9,305.9,129.1,301.8,124.3z"/>
	<linearGradient id="SVGID_66_" gradientUnits="userSpaceOnUse" x1="247.9247" y1="170.4702" x2="236.9983" y2="157.0839">
		<stop  offset="0" style="stop-color:#FFEADB"/>
		<stop  offset="0.9944" style="stop-color:#B060F4"/>
	</linearGradient>
	<path class="st84" d="M250.2,167.5c0,0-1.3-6.4-4.6-9.6c-3.3-3.2-7-2.1-7-2.1s1,11.9,2.1,14.8c1.1,2.9,2.7,3.7,2.7,3.7
		s-2.3-2-2.6-5.9c-0.3-3.9-0.4-9.5,0.5-10.1c0.9-0.7,4.4,1.9,4.4,1.9s-1.1,1.3-1.8,4.8c-0.7,3.5,1.8,6,2.7,6c0.9-0.1-0.1-4,0.1-5.2
		C246.8,164.5,248.8,164.8,250.2,167.5z"/>
	<linearGradient id="SVGID_67_" gradientUnits="userSpaceOnUse" x1="249.0686" y1="168.7459" x2="243.6925" y2="162.1595">
		<stop  offset="0" style="stop-color:#FFEADB"/>
		<stop  offset="0.9944" style="stop-color:#B060F4"/>
	</linearGradient>
	<path class="st85" d="M246.9,159.5c0,0-3.6,2.3-3.2,7.2c0.4,4.8,3.1,4.6,3.1,3.6c0-1-0.5-3.6-0.2-5.1c0.3-1.5,2.7-0.8,2.7-0.8
		S247.7,160.6,246.9,159.5z"/>
	<path class="st86" d="M302.7,181c0,0-4.4,20.2-13.6,29.2C289.1,210.2,299.6,206.1,302.7,181z"/>
	<path class="st86" d="M297.8,114.3c0,0,2.3,1.8,2.8,8.1c0.4,6.3-2.3,13.3-2.3,13.3s3.5-5.2,3.9-11
		C302.5,119.1,299.7,115.1,297.8,114.3z"/>
</g>
<linearGradient id="SVGID_68_" gradientUnits="userSpaceOnUse" x1="269.4789" y1="128.9305" x2="287.9831" y2="128.9305">
	<stop  offset="0" style="stop-color:#1F77D1"/>
	<stop  offset="1" style="stop-color:#0686C9"/>
</linearGradient>
<path class="st87" d="M269.5,127.6c0,0,5.4,1.8,11.3,2.4c5.9,0.5,7.2,0.6,7.2,0.6s-2.4-2.3-7.5-3
	C275.4,126.9,269.5,127.6,269.5,127.6z"/>
<linearGradient id="SVGID_69_" gradientUnits="userSpaceOnUse" x1="295.5784" y1="184.2694" x2="301.1908" y2="184.2694">
	<stop  offset="0" style="stop-color:#1F77D1"/>
	<stop  offset="1" style="stop-color:#0686C9"/>
</linearGradient>
<path class="st88" d="M295.6,181.4c0,0,2.6,0,3.6,3.2c0.8,2.6,1,4.8,1,4.8l0.9-3.6c0,0-1.2-4.5-2.4-5.5c-0.9-0.7-2.4-1.5-3.2-1.3
	L295.6,181.4z"/>
<linearGradient id="SVGID_70_" gradientUnits="userSpaceOnUse" x1="288.6492" y1="180.0961" x2="294.7026" y2="180.0961">
	<stop  offset="0" style="stop-color:#1F77D1"/>
	<stop  offset="1" style="stop-color:#0686C9"/>
</linearGradient>
<path class="st89" d="M288.6,178.2l0.4,3.9c0,0,3.2,0.3,5.2-0.6l0.4-2.3C294.7,179.1,290.7,178.1,288.6,178.2z"/>
<path class="st86" d="M303,228c0,0,18.5,13.5,20.9,18.1c2.4,4.6,3.4,19.2,6.6,25.5c0,0-2.2-10.3-3.8-18.4c-1.6-8.1-1.2-8.2-2-10.2
	C323.8,241.1,310,231.5,303,228z"/>
<path class="st86" d="M299.7,303.1c0,0-8.9,38.1-8.5,40.7c0.4,2.6,6.2,7.8,6.4,9.3c0,0-4.4,5.9-4.2,7.2c0.2,1.3,7.7,9.6,7.5,12.1
	c-0.1,0.7-4.9,8.8-4.9,8.8s5.5-7.9,5.8-9.2c0.3-1.3-6.7-11.8-7-12.9c-0.5-2.8,3.5-4.8,3.6-6.6c0.1-1.8-5.5-6.3-5.5-9.3
	C293,340.2,299.7,303.1,299.7,303.1z"/>
<path class="st86" d="M301.5,393.9c0,0,19.2,43.5,25.8,87.1C327.3,481,326.2,438.5,301.5,393.9z"/>
<path class="st74" d="M179.6,219.3c0,0-5-1.1-7-5.4c-2.1-4.3-0.7-10.6-0.7-10.6s3.9,7.5,5.8,10C179.6,215.8,180.1,218.7,179.6,219.3
	z"/>
<g>
	<path class="st90" d="M335.2,192.8l3.5,98.4c0.1,3.9,3.3,7,7.2,7h169.5c3.9,0,7.2-3.1,7.2-7.1l2.4-99.5c0.1-4.1-3.2-7.4-7.3-7.4
		l-175.3,1.2C338.3,185.3,335,188.7,335.2,192.8z"/>
	<g>
		<path class="st91" d="M515.3,298.4H345.9c-4.1,0-7.4-3.2-7.5-7.3l-3.5-98.4c-0.1-2,0.7-4,2.1-5.5c1.4-1.5,3.3-2.3,5.4-2.3
			l175.3-1.2c2,0,4,0.8,5.4,2.2c1.4,1.5,2.2,3.4,2.2,5.4l-2.4,99.5C522.8,295.2,519.5,298.4,515.3,298.4z M517.7,184.4
			C517.7,184.4,517.7,184.4,517.7,184.4l-175.3,1.2c-1.9,0-3.7,0.8-5,2.1c-1.3,1.4-2,3.2-1.9,5.1l3.5,98.4c0.1,3.8,3.2,6.7,7,6.7
			h169.5c3.8,0,6.9-3.1,7-6.8l2.4-99.5c0-1.9-0.7-3.7-2-5.1C521.4,185.2,519.6,184.4,517.7,184.4z"/>
	</g>
	<linearGradient id="SVGID_71_" gradientUnits="userSpaceOnUse" x1="335.3264" y1="191.0149" x2="525.0736" y2="191.0149">
		<stop  offset="0" style="stop-color:#9D68C2"/>
		<stop  offset="1" style="stop-color:#AEC2FF"/>
	</linearGradient>
	<path class="st92" d="M335.4,197.8h189.3l0.3-5.2c0.3-4.6-3.4-8.4-8-8.4l-175.2,1.4c-3.7,0-6.6,3-6.5,6.7L335.4,197.8z"/>
	<linearGradient id="SVGID_72_" gradientUnits="userSpaceOnUse" x1="373.9257" y1="262.6806" x2="373.9257" y2="205.4514">
		<stop  offset="0" style="stop-color:#CCEDFF"/>
		<stop  offset="1" style="stop-color:#9D68C2"/>
	</linearGradient>
	<polygon class="st93" points="344.9,205.8 344.9,262.7 402.9,262.7 402.9,205.5 	"/>
	<linearGradient id="SVGID_73_" gradientUnits="userSpaceOnUse" x1="471.5101" y1="234.7787" x2="471.5101" y2="209.5704">
		<stop  offset="0" style="stop-color:#CCEDFF"/>
		<stop  offset="1" style="stop-color:#9D68C2"/>
	</linearGradient>
	<rect x="458.9" y="209.6" class="st94" width="25.2" height="25.2"/>
	<linearGradient id="SVGID_74_" gradientUnits="userSpaceOnUse" x1="501.2525" y1="234.7787" x2="501.2525" y2="209.5704">
		<stop  offset="0" style="stop-color:#CCEDFF"/>
		<stop  offset="1" style="stop-color:#9D68C2"/>
	</linearGradient>
	<rect x="488.6" y="209.6" class="st95" width="25.2" height="25.2"/>
	<linearGradient id="SVGID_75_" gradientUnits="userSpaceOnUse" x1="441.2708" y1="234.7787" x2="441.2708" y2="209.5704">
		<stop  offset="0" style="stop-color:#CCEDFF"/>
		<stop  offset="1" style="stop-color:#9D68C2"/>
	</linearGradient>
	<rect x="428.7" y="209.6" class="st96" width="25.2" height="25.2"/>
	<rect x="449.4" y="249.5" class="st97" width="64.5" height="6"/>
	<rect x="433.3" y="258.7" class="st97" width="80.6" height="1.9"/>
	<rect x="434" y="238" class="st97" width="15.4" height="1.9"/>
	<rect x="463.8" y="238" class="st97" width="15.4" height="1.9"/>
	<rect x="493.5" y="238" class="st97" width="15.4" height="1.9"/>
	<rect x="428.7" y="261.7" class="st97" width="25.9" height="1.9"/>
	<rect x="433.3" y="264.7" class="st97" width="80.6" height="1.9"/>
	<rect x="428.7" y="267.7" class="st97" width="85.2" height="1.9"/>
	<rect x="428.7" y="270.7" class="st97" width="85.2" height="1.9"/>
	<rect x="433.3" y="282.8" class="st97" width="80.6" height="1.9"/>
	<rect x="428.7" y="285.8" class="st97" width="85.2" height="1.9"/>
	<rect x="428.7" y="288.8" class="st97" width="85.2" height="1.9"/>
	<rect x="428.7" y="273.7" class="st97" width="81.8" height="1.9"/>
	<rect x="433.3" y="276.7" class="st97" width="80.6" height="1.9"/>
	<rect x="428.7" y="279.7" class="st97" width="69" height="1.9"/>
	<g>
		<path class="st98" d="M361.2,251.3c-9.1,0-16.5-7.4-16.5-16.5c0-9.1,7.4-16.5,16.5-16.5c9.1,0,16.5,7.4,16.5,16.5
			C377.7,243.9,370.3,251.3,361.2,251.3z M361.2,219.4c-8.5,0-15.4,6.9-15.4,15.4c0,8.5,6.9,15.4,15.4,15.4
			c8.5,0,15.4-6.9,15.4-15.4C376.6,226.3,369.7,219.4,361.2,219.4z"/>
	</g>
	<circle class="st9" cx="361.2" cy="234.8" r="9"/>
	<g>
		<path class="st98" d="M402.9,221.9c-9.1,0-16.5-7.4-16.5-16.5s7.4-16.5,16.5-16.5c9.1,0,16.5,7.4,16.5,16.5S412,221.9,402.9,221.9
			z M402.9,190c-8.5,0-15.4,6.9-15.4,15.4c0,8.5,6.9,15.4,15.4,15.4c8.5,0,15.4-6.9,15.4-15.4C418.3,197,411.4,190,402.9,190z"/>
	</g>
	
		<ellipse transform="matrix(0.1554 -0.9878 0.9878 0.1554 137.319 571.5195)" class="st9" cx="402.9" cy="205.5" rx="8.4" ry="8.4"/>
	<g>
		<polygon class="st9" points="342.1,190.1 343.3,188.3 349.8,194 348.8,195.4 		"/>
		<polygon class="st9" points="350,190.1 348.7,188.3 342.2,194 343.2,195.4 		"/>
	</g>
	<rect x="461.8" y="189.5" class="st9" width="58.3" height="2.9"/>
</g>
<g>
	<linearGradient id="SVGID_76_" gradientUnits="userSpaceOnUse" x1="170.1532" y1="172.8407" x2="170.1532" y2="146.4542">
		<stop  offset="0" style="stop-color:#D93DE3"/>
		<stop  offset="1" style="stop-color:#FF6DBA"/>
	</linearGradient>
	<polygon class="st99" points="154.8,147.3 154.8,172.6 185.1,172.8 185.5,146.5 	"/>
	<linearGradient id="SVGID_77_" gradientUnits="userSpaceOnUse" x1="186.2816" y1="172.8407" x2="186.2816" y2="146.4542">
		<stop  offset="0" style="stop-color:#A242EA"/>
		<stop  offset="1" style="stop-color:#FE117E"/>
	</linearGradient>
	<polygon class="st100" points="185.5,146.5 187.5,149.8 186.5,172.8 185.1,172.8 	"/>
	<polygon class="st9" points="160.2,155.8 163,151.8 178.1,164.4 175.8,167.5 	"/>
	<polygon class="st9" points="178.5,155.8 175.7,151.8 160.6,164.4 162.9,167.5 	"/>
</g>
<g>
	<linearGradient id="SVGID_78_" gradientUnits="userSpaceOnUse" x1="165.5746" y1="450.8116" x2="179.8437" y2="337.2002">
		<stop  offset="0" style="stop-color:#067EFF"/>
		<stop  offset="1" style="stop-color:#3E37A0"/>
	</linearGradient>
	<path class="st101" d="M225.5,445.3H121.8c-4.6,0-8.4-3.7-8.5-8.3l-1.9-85c-0.1-4.8,3.7-8.7,8.5-8.7h107.9c4.8,0,8.6,3.9,8.5,8.7
		l-2.3,85C233.8,441.6,230,445.3,225.5,445.3z"/>
	<g>
		<path class="st102" d="M225.5,445.5H121.8c-4.7,0-8.6-3.8-8.8-8.6l-1.9-85c-0.1-2.4,0.8-4.6,2.5-6.3c1.7-1.7,3.9-2.6,6.3-2.6
			h107.9c2.4,0,4.6,0.9,6.3,2.6c1.7,1.7,2.5,4,2.5,6.3l-2.3,85C234.1,441.8,230.2,445.5,225.5,445.5z M119.9,343.6
			c-2.2,0-4.3,0.9-5.9,2.5c-1.6,1.6-2.4,3.7-2.3,5.9l1.9,85c0.1,4.4,3.8,8,8.2,8h103.6c4.5,0,8.1-3.5,8.2-8l2.3-85
			c0.1-2.2-0.8-4.4-2.3-6c-1.6-1.6-3.7-2.5-5.9-2.5H119.9z"/>
	</g>
	<g>
		<rect x="139.3" y="360.7" class="st9" width="54.5" height="2.3"/>
		<rect x="139.3" y="366.3" class="st9" width="27.2" height="2.3"/>
		<rect x="139.3" y="371.1" class="st9" width="27.2" height="2.3"/>
		<rect x="169.7" y="371.1" class="st9" width="21.7" height="2.3"/>
		<rect x="139.3" y="375.8" class="st9" width="43.9" height="2.3"/>
		<rect x="139.3" y="380.6" class="st9" width="15.6" height="2.3"/>
		<rect x="158.2" y="394.8" class="st9" width="27" height="2.3"/>
		<rect x="139.3" y="385.3" class="st9" width="49" height="2.3"/>
		<rect x="139.3" y="390" class="st9" width="37.7" height="2.3"/>
		<rect x="139.3" y="394.8" class="st9" width="17.7" height="2.3"/>
		<rect x="139.3" y="399.5" class="st9" width="27.2" height="2.3"/>
		<rect x="139.3" y="404.3" class="st9" width="7.8" height="2.3"/>
		<rect x="150.4" y="404.3" class="st9" width="28.4" height="2.3"/>
		<rect x="158.2" y="408.8" class="st9" width="27" height="2.3"/>
		<rect x="139.3" y="408.8" class="st9" width="17.7" height="2.3"/>
		<rect x="139.3" y="413.6" class="st9" width="27.2" height="2.3"/>
		<rect x="139.3" y="418.3" class="st9" width="7.8" height="2.3"/>
		<rect x="150.4" y="418.3" class="st9" width="28.4" height="2.3"/>
	</g>
</g>
<linearGradient id="SVGID_79_" gradientUnits="userSpaceOnUse" x1="498.705" y1="169.9696" x2="498.705" y2="160.3919">
	<stop  offset="0" style="stop-color:#459FFF"/>
	<stop  offset="1" style="stop-color:#A96DFF"/>
</linearGradient>
<path class="st103" d="M503.5,165.2c0,2.6-2.1,4.8-4.8,4.8c-2.6,0-4.8-2.1-4.8-4.8s2.1-4.8,4.8-4.8
	C501.3,160.4,503.5,162.5,503.5,165.2z"/>
<linearGradient id="SVGID_80_" gradientUnits="userSpaceOnUse" x1="48.6133" y1="282.205" x2="48.6133" y2="270.2845">
	<stop  offset="0" style="stop-color:#459FFF"/>
	<stop  offset="1" style="stop-color:#A96DFF"/>
</linearGradient>
<path class="st104" d="M54.6,276.2c0,3.3-2.7,6-6,6s-6-2.7-6-6c0-3.3,2.7-6,6-6S54.6,273,54.6,276.2z"/>
<linearGradient id="SVGID_81_" gradientUnits="userSpaceOnUse" x1="512.7707" y1="169.9696" x2="512.7707" y2="160.3919">
	<stop  offset="0" style="stop-color:#B31A8F"/>
	<stop  offset="1" style="stop-color:#FE117E"/>
</linearGradient>
<circle class="st105" cx="512.8" cy="165.2" r="4.8"/>
<linearGradient id="SVGID_82_" gradientUnits="userSpaceOnUse" x1="203.9484" y1="201.4951" x2="203.9484" y2="194.7226">
	<stop  offset="0" style="stop-color:#B31A8F"/>
	<stop  offset="1" style="stop-color:#FE117E"/>
</linearGradient>
<circle class="st106" cx="203.9" cy="198.1" r="3.4"/>
<linearGradient id="SVGID_83_" gradientUnits="userSpaceOnUse" x1="430.7731" y1="350.9253" x2="430.7731" y2="344.1528">
	<stop  offset="0" style="stop-color:#8642A0"/>
	<stop  offset="1" style="stop-color:#6456C0"/>
</linearGradient>
<circle class="st107" cx="430.8" cy="347.5" r="3.4"/>
<linearGradient id="SVGID_84_" gradientUnits="userSpaceOnUse" x1="78.7084" y1="384.3285" x2="78.7084" y2="378.274">
	<stop  offset="0" style="stop-color:#8642A0"/>
	<stop  offset="1" style="stop-color:#6456C0"/>
</linearGradient>
<circle class="st108" cx="78.7" cy="381.3" r="3"/>
<g>
	<linearGradient id="SVGID_85_" gradientUnits="userSpaceOnUse" x1="104.112" y1="351.5771" x2="104.112" y2="301.5705">
		<stop  offset="0" style="stop-color:#D906E3"/>
		<stop  offset="1" style="stop-color:#FF6DF9"/>
	</linearGradient>
	<path class="st109" d="M130.3,351.6H78c-4.2,0-7.7-3.3-7.8-7.5l-1.2-34.4c-0.1-4.4,3.4-8.1,7.8-8.1h54.5c4.4,0,7.9,3.6,7.8,8
		l-1.1,34.4C138,348.2,134.5,351.6,130.3,351.6z"/>
	<g>
		<path class="st110" d="M130.3,351.8H78c-4.4,0-7.9-3.4-8.1-7.8l-1.2-34.4c-0.1-2.2,0.7-4.3,2.3-5.9c1.5-1.6,3.6-2.5,5.8-2.5h54.5
			c2.2,0,4.3,0.9,5.8,2.5c1.5,1.6,2.3,3.7,2.3,5.9l-1.1,34.4C138.3,348.4,134.7,351.8,130.3,351.8z M76.9,301.8
			c-2.1,0-4,0.8-5.4,2.3c-1.4,1.5-2.2,3.4-2.1,5.5l1.2,34.4c0.1,4.1,3.4,7.3,7.5,7.3h52.3c4.1,0,7.4-3.2,7.5-7.3l1.1-34.4
			c0.1-2.1-0.7-4-2.1-5.5c-1.4-1.5-3.4-2.3-5.4-2.3H76.9z"/>
	</g>
	<g>
		<polygon class="st9" points="92,313.9 79.1,328.9 92.2,340 92.2,334.3 84.6,327.7 91.7,319.7 		"/>
	</g>
	<g>
		<polygon class="st9" points="114.6,314.6 127.5,329.5 114.4,340.7 114.4,334.9 122,328.4 113.5,319.4 		"/>
	</g>
	<g>
		<polygon class="st9" points="94.8,340 106,315.3 111.3,315.3 98.6,340 		"/>
	</g>
</g>
<g>
	<linearGradient id="SVGID_86_" gradientUnits="userSpaceOnUse" x1="449.3924" y1="422.3606" x2="449.3924" y2="359.8031">
		<stop  offset="0" style="stop-color:#D906E3"/>
		<stop  offset="1" style="stop-color:#FF6DF9"/>
	</linearGradient>
	<path class="st111" d="M482.2,422.4h-65.4c-5.3,0-9.6-4.2-9.8-9.4l-1.5-43c-0.2-5.5,4.2-10.1,9.8-10.1h68.2c5.5,0,9.9,4.6,9.8,10.1
		l-1.3,43C491.8,418.2,487.4,422.4,482.2,422.4z"/>
	<g>
		<path class="st110" d="M482.2,422.6h-65.4c-5.4,0-9.8-4.3-10-9.7l-1.5-43c-0.1-2.7,0.9-5.3,2.8-7.3c1.9-2,4.5-3.1,7.2-3.1h68.2
			c2.7,0,5.3,1.1,7.2,3c1.9,2,2.9,4.6,2.8,7.3l-1.3,43C492,418.4,487.6,422.6,482.2,422.6z M415.3,360.1c-2.6,0-5,1-6.8,2.9
			c-1.8,1.9-2.8,4.3-2.7,6.9l1.5,43c0.2,5.1,4.3,9.2,9.5,9.2h65.4c5.2,0,9.3-4,9.5-9.2l1.3-43c0.1-2.6-0.9-5-2.7-6.9
			c-1.8-1.9-4.2-2.9-6.8-2.9H415.3z"/>
	</g>
	<rect x="418.6" y="366.7" class="st97" width="59.9" height="35.6"/>
	<polygon class="st9" points="443.3,375.6 443.3,393.5 458.6,383.7 	"/>
	<rect x="418.6" y="408.9" class="st97" width="59.9" height="3.3"/>
	<rect x="418.6" y="408.9" class="st9" width="15.5" height="3.3"/>
</g>
<g>
	<g>
		
			<linearGradient id="SVGID_87_" gradientUnits="userSpaceOnUse" x1="386.9963" y1="342.9107" x2="381.666" y2="297.1603" gradientTransform="matrix(0.9656 0.26 -0.26 0.9656 83.6957 -44.3546)">
			<stop  offset="0" style="stop-color:#1852A0"/>
			<stop  offset="1" style="stop-color:#067ED3"/>
		</linearGradient>
		<path class="st112" d="M374.8,355.5l-3.1,8.9C373.4,359.5,375.8,356.3,374.8,355.5z M371.6,364.4l-3.1,8.9
			C369.3,373.1,369.9,369.4,371.6,364.4z M374.8,355.5l-3.1,8.9C373.4,359.5,375.8,356.3,374.8,355.5z M371.6,364.4l-3.1,8.9
			C369.3,373.1,369.9,369.4,371.6,364.4z M380.7,372.2l3,1.7l3.3-9l-3.5-0.6c0.1-0.3,0.1-0.7,0.2-1c0.3-1.5,0.3-3,0.3-4.5l3.7-2.3
			l-1.7-7.9l-3.5,3.4c-0.5-1-1.1-1.9-1.8-2.6c-0.2-0.2-0.4-0.4-0.6-0.6l2.2-5l-5.7-1.9l0,0l-1.4,5c-1.3,0-2.6,0.3-3.9,0.9l-0.6-4.7
			l-6.3,4.8l1.5,4.2c-1.1,1.3-2.2,2.8-3.1,4.5l-3-1.7l-3.3,9l3.5,0.6c-0.4,1.9-0.5,3.7-0.5,5.5l-3.7,2.3l1.7,7.9l3.5-3.4
			c0.6,1.3,1.4,2.4,2.4,3.2l-2.2,5l5.6,2.2l0.9-3.2l0.6-2.2c1.3,0,2.6-0.3,3.9-0.9l0.6,4.7l6.3-4.8l-1.5-4.2c0.9-1,1.7-2.2,2.5-3.4
			C380.3,372.9,380.5,372.5,380.7,372.2z M371.6,364.4c-1.7,4.9,0,10-3.1,8.9c-3.1-1.1-4.3-6-2.6-10.9c1.7-4.9,5.7-8.1,8.8-7
			C377.9,356.6,373.4,359.5,371.6,364.4z M374.8,355.5l-3.1,8.9C373.4,359.5,375.8,356.3,374.8,355.5z M371.6,364.4l-3.1,8.9
			C369.3,373.1,369.9,369.4,371.6,364.4z"/>
	</g>
	
		<linearGradient id="SVGID_88_" gradientUnits="userSpaceOnUse" x1="381.8293" y1="343.084" x2="381.8293" y2="296.2046" gradientTransform="matrix(0.9656 0.26 -0.26 0.9656 83.6957 -44.3546)">
		<stop  offset="0" style="stop-color:#1852A0"/>
		<stop  offset="1" style="stop-color:#067ED3"/>
	</linearGradient>
	<path class="st113" d="M383.7,373.9l3.3-9l-3.3-1.6l-0.5-0.3l0.4-4.9l3.7-1.8l-1.2-7.7l-8.1-2.6l1.5,3.6l2.8-5.7l-5.7-1.9l-2.4-0.8
		l-5.6-2.2l-1.1,3.9l-4.9-2.3l-6.3,4.8l1.9,5.2l-5.9,16.4l-2.9,10.6l5.6,0.6l-1.8,4.2l5.6,2.2l8.1,2.6l-1.3-2.6l-0.8-1.6l3,1
		l5.1,1.7l6.3-4.8l-3.9-4.6l4.9-3L383.7,373.9z M365.9,362.4c1.7-4.9,5.7-8.1,8.8-7l-3.1,8.9l-3.1,8.9
		C365.4,372.3,364.2,367.4,365.9,362.4z"/>
	<g>
		
			<linearGradient id="SVGID_89_" gradientUnits="userSpaceOnUse" x1="342.8531" y1="361.3282" x2="339.4052" y2="331.7354" gradientTransform="matrix(0.9438 0.3306 -0.5202 1.4851 221.8423 -265.62)">
			<stop  offset="0" style="stop-color:#188DC1"/>
			<stop  offset="1" style="stop-color:#06BFE7"/>
		</linearGradient>
		<path class="st114" d="M375.6,371.3l3.3-9l-3.5-0.6c0.4-1.9,0.5-3.7,0.5-5.4l3.7-2.3l-1.7-7.9l-3.5,3.4c-0.6-1.3-1.4-2.4-2.4-3.2
			l2.2-5l-5.6-2.2l-1.5,5.3c-1.3,0-2.6,0.3-3.9,0.9l-0.6-4.7l-6.3,4.8l1.5,4.2c-1.1,1.3-2.2,2.8-3.1,4.5l-3-1.7l-3.3,9l3.5,0.6
			c-0.4,1.9-0.5,3.7-0.5,5.4l-3.7,2.3l1.7,7.9l3.5-3.4c0.6,1.3,1.4,2.4,2.4,3.2l-2.2,5l5.6,2.2l1.5-5.3c1.3,0,2.6-0.3,3.9-0.9
			l0.6,4.7l6.3-4.8l-1.5-4.2c1.1-1.3,2.2-2.8,3.1-4.5L375.6,371.3z M360.4,370.7c-3.1-1.1-4.3-6-2.6-10.9c1.7-4.9,5.7-8.1,8.8-7
			c3.1,1.1,4.3,6,2.6,10.9C367.5,368.7,363.5,371.8,360.4,370.7z"/>
	</g>
	<polygon class="st115" points="387.6,356.6 379.5,354 375.8,356.3 383.9,358.9 	"/>
	<polygon class="st116" points="379,380.9 370.9,378.2 369.5,374 377.6,376.7 	"/>
	<polygon class="st115" points="371.9,346.2 376.3,347.5 377.8,346.1 380.8,347 382.1,343.9 374.1,341.3 	"/>
	<path class="st115" d="M360.1,379.2l4.2,1.8l-0.4-2.7C364,378.3,361.7,379.5,360.1,379.2z"/>
	<path class="st115" d="M360.8,354.9l7.1,3.8c0,0,1-1.4,1.8-1.9C369.7,356.8,367.9,348.9,360.8,354.9z"/>
</g>
<polygon class="st117" points="197.1,88.2 203.9,101.9 199.4,104 192.9,91.4 "/>
<polygon class="st118" points="42.3,408.9 48.6,415.9 51.1,413 45.1,406.4 "/>
<polygon class="st119" points="365.7,172.2 359.3,176.1 356.7,171.2 363.7,167.1 "/>
<polygon class="st119" points="397.2,418.4 388,424.9 385.5,420 394.4,414.8 "/>
<g>
	<linearGradient id="SVGID_90_" gradientUnits="userSpaceOnUse" x1="400.2213" y1="142.9521" x2="412.365" y2="97.853">
		<stop  offset="0" style="stop-color:#188DC1"/>
		<stop  offset="1" style="stop-color:#06BFE7"/>
	</linearGradient>
	<polygon class="st120" points="385.1,138.9 383.5,102.8 430.8,102.8 428.8,138.8 	"/>
	<linearGradient id="SVGID_91_" gradientUnits="userSpaceOnUse" x1="379.3479" y1="137.7493" x2="388.4036" y2="104.118">
		<stop  offset="0" style="stop-color:#1852A0"/>
		<stop  offset="1" style="stop-color:#067ED3"/>
	</linearGradient>
	<polygon class="st121" points="383.5,102.8 382.1,104.9 383.5,138.9 385.1,138.9 	"/>
	<polygon class="st9" points="399.2,110 391.8,109.2 392.8,133.9 399.2,133.3 399.2,130.7 395.5,130.8 395.1,111.8 399.2,111.9 	"/>
	<polygon class="st9" points="414.4,110 421.8,109.2 420.8,133.9 414.4,133.3 414.4,130.7 418.1,130.8 418.5,111.8 414.4,111.9 	"/>
</g>
<g>
	
		<linearGradient id="SVGID_92_" gradientUnits="userSpaceOnUse" x1="99.5327" y1="220.6191" x2="107.8113" y2="189.8741" gradientTransform="matrix(-1 0 0 1 148.6559 0)">
		<stop  offset="0" style="stop-color:#188DC1"/>
		<stop  offset="1" style="stop-color:#06BFE7"/>
	</linearGradient>
	<polygon class="st122" points="59.4,217.8 60.5,193.3 28.3,193.3 29.6,217.8 	"/>
	
		<linearGradient id="SVGID_93_" gradientUnits="userSpaceOnUse" x1="85.3028" y1="217.0723" x2="91.4763" y2="194.1451" gradientTransform="matrix(-1 0 0 1 148.6559 0)">
		<stop  offset="0" style="stop-color:#1852A0"/>
		<stop  offset="1" style="stop-color:#067ED3"/>
	</linearGradient>
	<polygon class="st123" points="60.5,193.3 61.5,194.7 60.5,217.8 59.4,217.8 	"/>
	<path class="st9" d="M48.1,198.2c0,0,3.5-0.1,4.2,0.2c0.6,0.3-0.2,6-0.2,6l1.4,1.3l-1.3,1.3c0,0,0.1,5.8-0.8,6.3
		c-0.8,0.5-3.7,0-3.7,0v-1.5c0,0,2.3,0.1,2.7-0.2c0.4-0.3,0.3-5.4,0.3-5.4l0.6-0.7l-0.6-0.7c0,0,0.1-3.6,0-4.6
		c0-0.7-2.7-0.7-2.7-0.7V198.2z"/>
	<path class="st9" d="M40,198.2c0,0-3.5-0.1-4.2,0.2c-0.6,0.3,0.2,6,0.2,6l-1.4,1.3l1.3,1.3c0,0-0.1,5.8,0.8,6.3
		c0.8,0.5,3.7,0,3.7,0v-1.5c0,0-2.3,0.1-2.7-0.2c-0.4-0.3-0.3-5.4-0.3-5.4l-0.6-0.7l0.6-0.7c0,0-0.1-3.6,0-4.6
		c0-0.7,2.7-0.7,2.7-0.7V198.2z"/>
</g>
<g>
	<g>
		<path class="st91" d="M331.1,142.1l-7.9-20.6l20.5,4.3L331.1,142.1z M324.1,122.2l7.2,18.8l11.5-14.9L324.1,122.2z"/>
	</g>
	<g>
		
			<rect x="385" y="429.7" transform="matrix(0.5912 -0.8065 0.8065 0.5912 -187.0129 491.0666)" class="st91" width="11.7" height="0.5"/>
	</g>
	<g>
		<polygon class="st91" points="322.6,347.7 315.2,338.4 315.6,338.1 323,347.4 		"/>
	</g>
	<g>
		<polygon class="st91" points="92.9,412.8 78,402 78.4,401.6 93.2,412.3 		"/>
	</g>
	<g>
		
			<rect x="76.5" y="406.9" transform="matrix(0.606 -0.7955 0.7955 0.606 -290.1585 228.5574)" class="st91" width="18.4" height="0.5"/>
	</g>
	<g>
		
			<rect x="64" y="246.5" transform="matrix(0.4651 -0.8852 0.8852 0.4651 -188.661 191.6221)" class="st91" width="0.5" height="10.9"/>
	</g>
	<g>
		<polygon class="st91" points="438.5,125 438.1,124.7 449.2,112 449.6,112.3 		"/>
	</g>
	<g>
		
			<rect x="224.6" y="155.2" transform="matrix(0.8953 -0.4454 0.4454 0.8953 -48.0889 116.9668)" class="st91" width="0.5" height="11.2"/>
	</g>
	<g>
		
			<rect x="141.7" y="329" transform="matrix(0.767 -0.6416 0.6416 0.767 -176.3299 172.9875)" class="st91" width="16.7" height="0.5"/>
	</g>
</g>
<rect x="-41.7" y="48.5" class="st124" width="643" height="428.7"/>
</svg>
