<?xml version="1.0" encoding="utf-8"?>
<!-- Generator: Adobe Illustrator 23.0.5, SVG Export Plug-In . SVG Version: 6.00 Build 0)  -->
<svg version="1.1" id="Layer_1" xmlns="http://www.w3.org/2000/svg" xmlns:xlink="http://www.w3.org/1999/xlink" x="0px" y="0px"
	 viewBox="0 0 541.9 561.2" style="enable-background:new 0 0 541.9 561.2;" xml:space="preserve">
<style type="text/css">
	.st0{fill:url(#SVGID_1_);}
	.st1{fill:url(#SVGID_2_);}
	.st2{fill:#64A4FF;}
	.st3{fill:#BBD070;}
	.st4{fill:#97A43C;}
	.st5{fill:#48753A;}
	.st6{fill:#DBD8E3;}
	.st7{fill:#323657;}
	.st8{fill:#EEA987;}
	.st9{fill:#E8734D;}
	.st10{fill:#C4C1CC;}
	.st11{fill:#EFAA88;}
	.st12{fill:#EEA886;}
	.st13{fill:#16202E;}
	.st14{fill:#A77860;}
	.st15{fill:#4DA8F2;}
	.st16{fill:#FFC955;}
	.st17{clip-path:url(#SVGID_4_);fill:#96CBFF;}
	.st18{clip-path:url(#SVGID_4_);fill:#95CAFF;}
	.st19{clip-path:url(#SVGID_4_);fill:#94C9FF;}
	.st20{clip-path:url(#SVGID_4_);fill:#93C9FF;}
	.st21{clip-path:url(#SVGID_4_);fill:#92C8FF;}
	.st22{clip-path:url(#SVGID_4_);fill:#91C7FF;}
	.st23{clip-path:url(#SVGID_4_);fill:#90C6FF;}
	.st24{clip-path:url(#SVGID_4_);fill:#8FC6FF;}
	.st25{clip-path:url(#SVGID_4_);fill:#8EC5FF;}
	.st26{clip-path:url(#SVGID_4_);fill:#8DC4FF;}
	.st27{clip-path:url(#SVGID_4_);fill:#8CC3FF;}
	.st28{clip-path:url(#SVGID_4_);fill:#8BC2FF;}
	.st29{clip-path:url(#SVGID_4_);fill:#8AC2FF;}
	.st30{clip-path:url(#SVGID_4_);fill:#89C1FF;}
	.st31{clip-path:url(#SVGID_4_);fill:#88C0FF;}
	.st32{clip-path:url(#SVGID_4_);fill:#87BFFF;}
	.st33{clip-path:url(#SVGID_4_);fill:#86BFFF;}
	.st34{clip-path:url(#SVGID_4_);fill:#85BEFF;}
	.st35{clip-path:url(#SVGID_4_);fill:#84BDFF;}
	.st36{clip-path:url(#SVGID_4_);fill:#83BCFF;}
	.st37{clip-path:url(#SVGID_4_);fill:#82BBFF;}
	.st38{clip-path:url(#SVGID_4_);fill:#81BBFF;}
	.st39{clip-path:url(#SVGID_4_);fill:#80BAFF;}
	.st40{clip-path:url(#SVGID_4_);fill:#7FB9FF;}
	.st41{clip-path:url(#SVGID_4_);fill:#7EB8FF;}
	.st42{clip-path:url(#SVGID_4_);fill:#7DB7FF;}
	.st43{clip-path:url(#SVGID_4_);fill:#7CB7FF;}
	.st44{clip-path:url(#SVGID_4_);fill:#7BB6FF;}
	.st45{clip-path:url(#SVGID_4_);fill:#7AB5FF;}
	.st46{clip-path:url(#SVGID_4_);fill:#79B4FF;}
	.st47{clip-path:url(#SVGID_4_);fill:#78B4FF;}
	.st48{clip-path:url(#SVGID_4_);fill:#77B3FF;}
	.st49{clip-path:url(#SVGID_4_);fill:#76B2FF;}
	.st50{clip-path:url(#SVGID_4_);fill:#74B1FF;}
	.st51{clip-path:url(#SVGID_4_);fill:#73B0FF;}
	.st52{clip-path:url(#SVGID_4_);fill:#72B0FF;}
	.st53{clip-path:url(#SVGID_4_);fill:#71AFFF;}
	.st54{clip-path:url(#SVGID_4_);fill:#70AEFF;}
	.st55{clip-path:url(#SVGID_4_);fill:#6FADFF;}
	.st56{clip-path:url(#SVGID_4_);fill:#6EADFF;}
	.st57{clip-path:url(#SVGID_4_);fill:#6DACFF;}
	.st58{clip-path:url(#SVGID_4_);fill:#6CABFF;}
	.st59{clip-path:url(#SVGID_4_);fill:#6BAAFF;}
	.st60{clip-path:url(#SVGID_4_);fill:#6AA9FF;}
	.st61{clip-path:url(#SVGID_4_);fill:#69A9FF;}
	.st62{clip-path:url(#SVGID_4_);fill:#68A8FF;}
	.st63{clip-path:url(#SVGID_4_);fill:#67A7FF;}
	.st64{clip-path:url(#SVGID_4_);fill:#66A6FF;}
	.st65{clip-path:url(#SVGID_4_);fill:#65A6FF;}
	.st66{clip-path:url(#SVGID_4_);fill:#64A5FF;}
	.st67{clip-path:url(#SVGID_4_);fill:#63A4FF;}
	.st68{clip-path:url(#SVGID_4_);fill:#62A3FF;}
	.st69{clip-path:url(#SVGID_4_);fill:#61A2FF;}
	.st70{clip-path:url(#SVGID_4_);fill:#60A2FF;}
	.st71{clip-path:url(#SVGID_4_);fill:#5FA1FF;}
	.st72{clip-path:url(#SVGID_4_);fill:#5EA0FF;}
	.st73{clip-path:url(#SVGID_4_);fill:#5D9FFF;}
	.st74{clip-path:url(#SVGID_4_);fill:#5C9EFF;}
	.st75{clip-path:url(#SVGID_4_);fill:#5B9EFF;}
	.st76{clip-path:url(#SVGID_4_);fill:#5A9DFF;}
	.st77{clip-path:url(#SVGID_4_);fill:#599CFF;}
	.st78{clip-path:url(#SVGID_4_);fill:#589BFF;}
	.st79{clip-path:url(#SVGID_4_);fill:#579BFF;}
	.st80{clip-path:url(#SVGID_4_);fill:#569AFF;}
	.st81{clip-path:url(#SVGID_4_);fill:#5599FF;}
	.st82{fill:#CFA345;}
	.st83{fill:#6069A8;}
	.st84{fill:#202338;}
	.st85{fill:#464240;}
	.st86{fill:#EB4747;}
	.st87{fill:#5F8CC9;}
	.st88{fill:#5E5853;}
	.st89{fill:#91887F;}
	.st90{fill:#EDDAD3;}
	.st91{fill:#6E6760;}
	.st92{fill:#807066;}
	.st93{fill:#FFCB55;}
	.st94{fill:#CF8C6C;}
	.st95{fill:#3B3F66;}
	.st96{fill:#555C94;}
	.st97{fill:#354C70;}
	.st98{fill:#DEB135;}
	.st99{fill:#F2C344;}
	.st100{fill:#D9D0C4;}
	.st101{fill:#84BDFF;}
	.st102{fill:#FFD255;}
	.st103{fill:#3C5780;}
	.st104{fill:#C48A6F;}
	.st105{clip-path:url(#SVGID_6_);fill:#96CBFF;}
	.st106{clip-path:url(#SVGID_6_);fill:#95CAFF;}
	.st107{clip-path:url(#SVGID_6_);fill:#94C9FF;}
	.st108{clip-path:url(#SVGID_6_);fill:#93C9FF;}
	.st109{clip-path:url(#SVGID_6_);fill:#92C8FF;}
	.st110{clip-path:url(#SVGID_6_);fill:#91C7FF;}
	.st111{clip-path:url(#SVGID_6_);fill:#90C6FF;}
	.st112{clip-path:url(#SVGID_6_);fill:#8FC6FF;}
	.st113{clip-path:url(#SVGID_6_);fill:#8EC5FF;}
	.st114{clip-path:url(#SVGID_6_);fill:#8DC4FF;}
	.st115{clip-path:url(#SVGID_6_);fill:#8CC3FF;}
	.st116{clip-path:url(#SVGID_6_);fill:#8BC2FF;}
	.st117{clip-path:url(#SVGID_6_);fill:#8AC2FF;}
	.st118{clip-path:url(#SVGID_6_);fill:#89C1FF;}
	.st119{clip-path:url(#SVGID_6_);fill:#88C0FF;}
	.st120{clip-path:url(#SVGID_6_);fill:#87BFFF;}
	.st121{clip-path:url(#SVGID_6_);fill:#86BFFF;}
	.st122{clip-path:url(#SVGID_6_);fill:#85BEFF;}
	.st123{clip-path:url(#SVGID_6_);fill:#84BDFF;}
	.st124{clip-path:url(#SVGID_6_);fill:#83BCFF;}
	.st125{clip-path:url(#SVGID_6_);fill:#82BBFF;}
	.st126{clip-path:url(#SVGID_6_);fill:#81BBFF;}
	.st127{clip-path:url(#SVGID_6_);fill:#80BAFF;}
	.st128{clip-path:url(#SVGID_6_);fill:#7FB9FF;}
	.st129{clip-path:url(#SVGID_6_);fill:#7EB8FF;}
	.st130{clip-path:url(#SVGID_6_);fill:#7DB7FF;}
	.st131{clip-path:url(#SVGID_6_);fill:#7CB7FF;}
	.st132{clip-path:url(#SVGID_6_);fill:#7BB6FF;}
	.st133{clip-path:url(#SVGID_6_);fill:#7AB5FF;}
	.st134{clip-path:url(#SVGID_6_);fill:#79B4FF;}
	.st135{clip-path:url(#SVGID_6_);fill:#78B4FF;}
	.st136{clip-path:url(#SVGID_6_);fill:#77B3FF;}
	.st137{clip-path:url(#SVGID_6_);fill:#76B2FF;}
	.st138{clip-path:url(#SVGID_6_);fill:#74B1FF;}
	.st139{clip-path:url(#SVGID_6_);fill:#73B0FF;}
	.st140{clip-path:url(#SVGID_6_);fill:#72B0FF;}
	.st141{clip-path:url(#SVGID_6_);fill:#71AFFF;}
	.st142{clip-path:url(#SVGID_6_);fill:#70AEFF;}
	.st143{clip-path:url(#SVGID_6_);fill:#6FADFF;}
	.st144{clip-path:url(#SVGID_6_);fill:#6EADFF;}
	.st145{clip-path:url(#SVGID_6_);fill:#6DACFF;}
	.st146{clip-path:url(#SVGID_6_);fill:#6CABFF;}
	.st147{clip-path:url(#SVGID_6_);fill:#6BAAFF;}
	.st148{clip-path:url(#SVGID_6_);fill:#6AA9FF;}
	.st149{clip-path:url(#SVGID_6_);fill:#69A9FF;}
	.st150{clip-path:url(#SVGID_6_);fill:#68A8FF;}
	.st151{clip-path:url(#SVGID_6_);fill:#67A7FF;}
	.st152{clip-path:url(#SVGID_6_);fill:#66A6FF;}
	.st153{clip-path:url(#SVGID_6_);fill:#65A6FF;}
	.st154{clip-path:url(#SVGID_6_);fill:#64A5FF;}
	.st155{clip-path:url(#SVGID_6_);fill:#63A4FF;}
	.st156{clip-path:url(#SVGID_6_);fill:#62A3FF;}
	.st157{clip-path:url(#SVGID_6_);fill:#61A2FF;}
	.st158{clip-path:url(#SVGID_6_);fill:#60A2FF;}
	.st159{clip-path:url(#SVGID_6_);fill:#5FA1FF;}
	.st160{clip-path:url(#SVGID_6_);fill:#5EA0FF;}
	.st161{clip-path:url(#SVGID_6_);fill:#5D9FFF;}
	.st162{clip-path:url(#SVGID_6_);fill:#5C9EFF;}
	.st163{clip-path:url(#SVGID_6_);fill:#5B9EFF;}
	.st164{clip-path:url(#SVGID_6_);fill:#5A9DFF;}
	.st165{clip-path:url(#SVGID_6_);fill:#599CFF;}
	.st166{clip-path:url(#SVGID_6_);fill:#589BFF;}
	.st167{clip-path:url(#SVGID_6_);fill:#579BFF;}
	.st168{clip-path:url(#SVGID_6_);fill:#569AFF;}
	.st169{clip-path:url(#SVGID_6_);fill:#5599FF;}
	.st170{fill:#DB9C7C;}
	.st171{clip-path:url(#SVGID_8_);fill:#96CBFF;}
	.st172{clip-path:url(#SVGID_8_);fill:#95CAFF;}
	.st173{clip-path:url(#SVGID_8_);fill:#94C9FF;}
	.st174{clip-path:url(#SVGID_8_);fill:#93C9FF;}
	.st175{clip-path:url(#SVGID_8_);fill:#92C8FF;}
	.st176{clip-path:url(#SVGID_8_);fill:#91C7FF;}
	.st177{clip-path:url(#SVGID_8_);fill:#90C6FF;}
	.st178{clip-path:url(#SVGID_8_);fill:#8FC6FF;}
	.st179{clip-path:url(#SVGID_8_);fill:#8EC5FF;}
	.st180{clip-path:url(#SVGID_8_);fill:#8DC4FF;}
	.st181{clip-path:url(#SVGID_8_);fill:#8CC3FF;}
	.st182{clip-path:url(#SVGID_8_);fill:#8BC2FF;}
	.st183{clip-path:url(#SVGID_8_);fill:#8AC2FF;}
	.st184{clip-path:url(#SVGID_8_);fill:#89C1FF;}
	.st185{clip-path:url(#SVGID_8_);fill:#88C0FF;}
	.st186{clip-path:url(#SVGID_8_);fill:#87BFFF;}
	.st187{clip-path:url(#SVGID_8_);fill:#86BFFF;}
	.st188{clip-path:url(#SVGID_8_);fill:#85BEFF;}
	.st189{clip-path:url(#SVGID_8_);fill:#84BDFF;}
	.st190{clip-path:url(#SVGID_8_);fill:#83BCFF;}
	.st191{clip-path:url(#SVGID_8_);fill:#82BBFF;}
	.st192{clip-path:url(#SVGID_8_);fill:#81BBFF;}
	.st193{clip-path:url(#SVGID_8_);fill:#80BAFF;}
	.st194{clip-path:url(#SVGID_8_);fill:#7FB9FF;}
	.st195{clip-path:url(#SVGID_8_);fill:#7EB8FF;}
	.st196{clip-path:url(#SVGID_8_);fill:#7DB7FF;}
	.st197{clip-path:url(#SVGID_8_);fill:#7CB7FF;}
	.st198{clip-path:url(#SVGID_8_);fill:#7BB6FF;}
	.st199{clip-path:url(#SVGID_8_);fill:#7AB5FF;}
	.st200{clip-path:url(#SVGID_8_);fill:#79B4FF;}
	.st201{clip-path:url(#SVGID_8_);fill:#78B4FF;}
	.st202{clip-path:url(#SVGID_8_);fill:#77B3FF;}
	.st203{clip-path:url(#SVGID_8_);fill:#76B2FF;}
	.st204{clip-path:url(#SVGID_8_);fill:#74B1FF;}
	.st205{clip-path:url(#SVGID_8_);fill:#73B0FF;}
	.st206{clip-path:url(#SVGID_8_);fill:#72B0FF;}
	.st207{clip-path:url(#SVGID_8_);fill:#71AFFF;}
	.st208{clip-path:url(#SVGID_8_);fill:#70AEFF;}
	.st209{clip-path:url(#SVGID_8_);fill:#6FADFF;}
	.st210{clip-path:url(#SVGID_8_);fill:#6EADFF;}
	.st211{clip-path:url(#SVGID_8_);fill:#6DACFF;}
	.st212{clip-path:url(#SVGID_8_);fill:#6CABFF;}
	.st213{clip-path:url(#SVGID_8_);fill:#6BAAFF;}
	.st214{clip-path:url(#SVGID_8_);fill:#6AA9FF;}
	.st215{clip-path:url(#SVGID_8_);fill:#69A9FF;}
	.st216{clip-path:url(#SVGID_8_);fill:#68A8FF;}
	.st217{clip-path:url(#SVGID_8_);fill:#67A7FF;}
	.st218{clip-path:url(#SVGID_8_);fill:#66A6FF;}
	.st219{clip-path:url(#SVGID_8_);fill:#65A6FF;}
	.st220{clip-path:url(#SVGID_8_);fill:#64A5FF;}
	.st221{clip-path:url(#SVGID_8_);fill:#63A4FF;}
	.st222{clip-path:url(#SVGID_8_);fill:#62A3FF;}
	.st223{clip-path:url(#SVGID_8_);fill:#61A2FF;}
	.st224{clip-path:url(#SVGID_8_);fill:#60A2FF;}
	.st225{clip-path:url(#SVGID_8_);fill:#5FA1FF;}
	.st226{clip-path:url(#SVGID_8_);fill:#5EA0FF;}
	.st227{clip-path:url(#SVGID_8_);fill:#5D9FFF;}
	.st228{clip-path:url(#SVGID_8_);fill:#5C9EFF;}
	.st229{clip-path:url(#SVGID_8_);fill:#5B9EFF;}
	.st230{clip-path:url(#SVGID_8_);fill:#5A9DFF;}
	.st231{clip-path:url(#SVGID_8_);fill:#599CFF;}
	.st232{clip-path:url(#SVGID_8_);fill:#589BFF;}
	.st233{clip-path:url(#SVGID_8_);fill:#579BFF;}
	.st234{clip-path:url(#SVGID_8_);fill:#569AFF;}
	.st235{clip-path:url(#SVGID_8_);fill:#5599FF;}
	.st236{fill:#293B57;}
	.st237{fill:#E3F2FF;}
	.st238{fill:#EBEBEB;}
	.st239{fill:#162D40;}
	.st240{fill:#1D3B54;}
	.st241{fill:#D1C0BA;}
	.st242{fill:#FAE6DE;}
	.st243{fill:#54281A;}
	.st244{fill:#366E9C;}
	.st245{fill:#5C544D;}
	.st246{fill:#3C4145;}
	.st247{fill:#FCCCA2;}
	.st248{fill:#E2D2CA;}
	.st249{fill:#63A4FF;}
	.st250{fill:#F25F54;}
	.st251{fill:#C98462;}
	.st252{fill:#DE9D7D;}
	.st253{fill:#252E3B;}
	.st254{fill:#88C0FF;}
	.st255{fill:#5FA0FF;}
	.st256{fill:#5189DB;}
	.st257{fill:#C2BEBC;}
	.st258{fill:#D6D6D6;}
	.st259{fill:#E8E8E8;}
	.st260{fill:#C2C2C2;}
</style>
<title>computer_bg</title>
<g>
	<linearGradient id="SVGID_1_" gradientUnits="userSpaceOnUse" x1="384.885" y1="321.8489" x2="536.1429" y2="321.8489">
		<stop  offset="0" style="stop-color:#96CBFF"/>
		<stop  offset="1" style="stop-color:#5599FF"/>
	</linearGradient>
	<path class="st0" d="M516.3,355.4c3.2-5.2,5.5-10.9,7.1-16.6l12.5-2.4l0.1-13.8l0.1-13.8l-12.5-2.6c-1.4-5.8-3.7-11.4-6.7-16.8
		l7.1-10.5l-9.7-9.9l-9.7-9.9l-10.7,6.9c-5.2-3.2-10.9-5.5-16.6-7.1l-2.4-12.5l-13.8-0.1l-13.8-0.1l-2.6,12.5
		c-5.8,1.4-11.4,3.7-16.8,6.7l-10.5-7.1l-9.9,9.7l-9.9,9.7l6.9,10.7c-3.2,5.2-5.5,10.9-7.1,16.6l-12.5,2.4l-0.1,13.8l-0.1,13.8
		l12.5,2.6c1.4,5.8,3.7,11.4,6.7,16.8l-7.1,10.5l9.7,9.9l9.7,9.9l10.7-6.9c5.2,3.2,10.9,5.5,16.6,7.1l2.4,12.5l13.8,0.1l13.8,0.1
		l2.6-12.5c5.8-1.4,11.4-3.7,16.8-6.7l10.5,7.1l9.9-9.7l9.9-9.7L516.3,355.4z M436.3,345.6c-13.1-13.4-12.9-34.8,0.4-47.9
		c13.4-13.1,34.8-12.9,47.9,0.4c13.1,13.4,12.9,34.8-0.4,47.9C470.9,359.1,449.4,358.9,436.3,345.6z"/>
	
		<linearGradient id="SVGID_2_" gradientUnits="userSpaceOnUse" x1="-143.4789" y1="896.3145" x2="-30.5357" y2="896.3145" gradientTransform="matrix(0.9948 -0.1022 0.1022 0.9948 138.9922 -677.4161)">
		<stop  offset="0" style="stop-color:#96CBFF"/>
		<stop  offset="1" style="stop-color:#5599FF"/>
	</linearGradient>
	<path class="st1" d="M188.1,243.8c1.9-4.1,3.3-8.5,4-12.9l9.1-2.7l-1-10.3l-1-10.3l-9.4-1c-1.5-4.2-3.6-8.2-6.3-11.9l4.5-8.4
		l-7.9-6.6l-7.9-6.6l-7.4,6c-4.1-1.9-8.5-3.3-12.9-4l-2.7-9.1l-10.3,1l-10.3,1l-1,9.4c-4.2,1.5-8.2,3.6-11.9,6.3l-8.4-4.5l-6.6,7.9
		l-6.6,7.9l6,7.4c-1.9,4.1-3.3,8.5-4,12.9l-9.1,2.7l1,10.3l1,10.3l9.4,1c1.5,4.2,3.6,8.2,6.3,11.9l-4.5,8.4l7.9,6.6l7.9,6.6l7.4-6
		c4.1,1.9,8.5,3.3,12.9,4l2.7,9.1l10.3-1l10.3-1l1-9.4c4.2-1.5,8.2-3.6,11.9-6.3l8.4,4.5l6.6-7.9l6.6-7.9L188.1,243.8z M127.9,242.6
		c-10.8-8.9-12.2-24.9-3.3-35.6c8.9-10.8,24.9-12.2,35.6-3.3c10.8,8.9,12.2,24.9,3.3,35.6C154.6,250,138.6,251.5,127.9,242.6z"/>
	<g>
		<path class="st2" d="M493.1,451.7h-0.9v-61.6c0-13.7-11.1-24.9-24.9-24.9H404c-14.2,0-25.7-11.5-25.7-25.7V224.4
			c0-13.7-11.1-24.9-24.9-24.9H191.8v-0.9h161.6c14.2,0,25.7,11.5,25.7,25.7v115.1c0,13.7,11.1,24.9,24.9,24.9h63.4
			c14.2,0,25.7,11.5,25.7,25.7V451.7z"/>
	</g>
	<g>
		<g>
			<g>
				<g>
					<g>
						<path class="st3" d="M233.2,159.6c0,0,9.8,38.9-13.7,49.6c-23.5,10.6-19-8.8-19-8.8s-9.6-2.7,16.6-17.5
							C229.5,175.8,233.2,159.6,233.2,159.6z"/>
					</g>
				</g>
			</g>
		</g>
		<g>
			<g>
				<g>
					<g>
						<path class="st4" d="M294.7,163c0,0,4.8,33.9-39.6,48.6c-44.4,14.7-50.8,33.3-50.8,33.3S203,169.7,294.7,163z"/>
					</g>
				</g>
			</g>
		</g>
		<g>
			<g>
				<g>
					<g>
						<path class="st5" d="M204.1,231.1c-13.2-5,18.1-32,42.2-31.3c24.1,0.7,40.4,9.6,56.5,5.9C302.8,205.7,269,255.9,204.1,231.1z"
							/>
					</g>
				</g>
			</g>
		</g>
	</g>
	<g>
		<g>
			<g>
				<path class="st6" d="M248.4,253.7c0.8-10.2,1.3-19.8,1.6-28.7c-2.5-1.3-5.4-2.8-7.8-4c-7.4-3.5-17.6-8.2-24.2-11.2
					c-3.8-1.8-7.6-3.1-7.6-3.1s-26.3-2.5-28.4-2.4c-0.7,0-4,1.2-8.3,2.8c-9.3,3.5-27.3,10.7-30.1,12.8c-4.2,3-19.2,76.6-19.6,81.6
					c-0.4,4.9,20.4,11.5,39.7,16.6c0,7.5-0.2,17.9-0.3,27.4c0,1.6-0.1,3.2-0.1,4.8h84.3c-0.1-1.6-0.2-3.3-0.3-4.8c0-0.2,0-0.4,0-0.6
					c-0.3-6.5-1.6-18-1.3-29.3c0,0-0.2-11.9,1-17C247,276,248.4,253.7,248.4,253.7z M141.5,296.9c0.1-9.6,12.9-27.4,12.9-27.4
					s0.6-0.3,0.6-0.2c0,0,0.7-0.1,0.7-0.1c0,0,2-1.9,2-1.9c0.5,1.7,4.7,25.8,5.7,39.8C151.4,304.8,141.4,301.5,141.5,296.9z"/>
			</g>
		</g>
		<g>
			<g>
				<path class="st7" d="M250,345.5c-0.6-4-1.1-8-1.6-11.9c0,0,0,0,0-0.1c-0.2-1.3-0.3-2.6-0.5-3.9c0-0.1,0-0.1,0-0.2
					c-0.6-5.4-1.1-10.5-1.5-15.3c-0.3-3.6,0-7.2,0.5-10.6c1.5-24.2,2.2-49.6,2.2-49.6c0.8-10.4,1.2-20.2,1.5-29.2
					c0,0-33-15.6-36-16.5c0,0,6.3,14.7,11,47.5c1.8,12.6,5.1,33.9,7.6,55.5v0c1.3,11.7,3.8,23.6,5.6,34.2c0.3,1.6,0.6,3.2,0.8,4.8
					h11C250.4,348.7,250.2,347.1,250,345.5z"/>
			</g>
		</g>
		<g>
			<g>
				<path class="st7" d="M195,306.7c1.3-12.2,2.5-24.4,1.9-31.1c-4.6-53.7-17.4-67.9-19.3-70c-1.4,0.6-6.9,2.6-8.5,3.3
					c-8.8,3.5-26.8,9.8-29.2,11.6c-4.2,3-20.7,80.1-21.2,85.1c-0.3,3.4,21.2,10.4,43.3,16.7c-0.2,6,0.4,14.6-1.6,23.4
					c-0.4,1.6-0.9,2.6-1,4.7l30.7-0.1c0.2-1.6,0.4-3.2,0.6-4.8c0.6-4.8,1.2-9.7,1.8-14.9c9.2,2.4,15.5,3.9,15.5,3.9
					s8.6-14.6,11.2-20.5C219.5,312.9,208.4,310.3,195,306.7z M155.3,288.2c-0.3-11-0.2-18.7-0.2-18.7c1.1,3.8,2.6,14.5,3.9,25.2
					C154.6,292.5,155.4,290.4,155.3,288.2z"/>
			</g>
		</g>
		<g>
			<g>
				<path class="st8" d="M180.6,205.1c0,0,3.3-6.3,2.4-24.2c-0.3-5,26.1,11.8,26.1,11.8s-0.1,1.7-0.1,4c0,1,0,2,0,3.1
					c0,0.3,0,0.6,0,0.9c0,0.5,0,1,0,1.5c0,0.6,0,1.2,0.1,1.8c0,0.6,0.1,1.3,0.1,1.8c0.1,1.1,0.7,3,1,3.5
					C211.3,212,190.5,212.2,180.6,205.1z"/>
			</g>
		</g>
		<g>
			<path class="st9" d="M202.7,216.5l4.9,6.5c0,0-2.8,3.8-7.9,1L202.7,216.5z"/>
		</g>
		<g>
			<path class="st9" d="M206.2,223.3c0,0,17.8,43.4,14,98.6l-5.6,10.2l-6.3-8.7c0,0-1-73.3-6.1-100.3L206.2,223.3z"/>
		</g>
		<g>
			<path class="st8" d="M207.9,210.4l-5.2,6.1c0,0-8.3-1.6-10.8-6C189.4,206.2,207.9,210.4,207.9,210.4z"/>
		</g>
		<g>
			<path class="st10" d="M209.1,205.1c0,0-0.6,4.6-6.4,11.4l6.3,8.5l3.4-17.6L209.1,205.1z"/>
		</g>
		<g>
			<path class="st10" d="M182.2,199.5c0,0,12.1,13.6,20.5,17l-3.9,9.7L179.5,205L182.2,199.5z"/>
		</g>
		<g>
			<g>
				<path class="st7" d="M306.2,323c0,0-16-15.5-26.5-18.1c-4.9-1.2-11.3-7.9-17.3-15.8c-2-2.6-4-5.3-5.8-8c0,0,0,0,0,0
					c-7.5-10.8-13.3-21.1-13.3-21.1s-22-25.8-4.4-37.3c0,0,7.6-0.2,11.7,2.1c4.3,2.3,13.4,21.4,14.9,24.7
					c1.5,3.4,18.3,34.7,19.4,35.4c1.1,0.7,3,3.3,9.7,6.9c8.2,4.4,21.1,17.3,21.1,17.3L306.2,323z"/>
			</g>
		</g>
		<g>
			<path class="st11" d="M229.3,341c0,0-2.2-0.1-3.2-0.6c0,0-1.7-1.1-2.9-1.8c-0.4-0.2-0.7-0.4-1-0.5c-1-0.4-3.3-1-5.4-2.6
				c-2.1-1.6-9-8-9-8l4.4-6.8l2-6.8c0,0,16,1.6,18.1,2.9c0.2,0.1,0.4,0.3,0.6,0.4c1.7,1.2,2.4,2.9,3.3,3.7c0.3,0.3,3.1,3.3,2.9,4.5
				c-0.2,1.7-1,2.8-2.1,3.3c0,0-0.6,3.3-2.3,4.7c0,0-0.4,3-3,4.3C231.9,337.6,231.2,340.6,229.3,341z"/>
		</g>
		<g>
			<path class="st12" d="M203.9,134.6c0,0,28.9-7,22.8,29.7c-6.1,36.6-13,39.6-30.7,32.3c-17.6-7.3-16.4-30.7-17.4-42.2
				C177.5,142.9,194.6,135.1,203.9,134.6z"/>
		</g>
		<g>
			<path class="st12" d="M188.7,160c-0.4-3.2-6.8-4.3-7.3,0.5c-0.4,4.8,3.1,13.3,5.5,12.4C189.3,172,189.2,164.4,188.7,160z"/>
		</g>
		<g>
			<path class="st13" d="M180.3,173.1c0,0,0.6-11.5,4.8-11.9c4.2-0.4,4.9,4.2,4.9,4.2l4.3,0.7c0,0-1.5-10.1,2.7-11.9
				c4.2-1.8,27.3,5.2,30.6,2.1c3.3-3,1.4-23.4-4.7-26.2c-6.1-2.7-23.1-8.7-35.3-0.2c0,0-9.6-1-10.9,6.8
				C175.3,144.6,177.6,167.4,180.3,173.1z"/>
		</g>
		<g>
			<path class="st7" d="M219.8,313.9l-11.9,20.5c0,0-31.6-8.2-39-10.2l16.9-20.1C185.8,304.1,210.6,309.8,219.8,313.9z"/>
		</g>
		<g>
			<path class="st14" d="M209,203.9L209,203.9c-15.5-1.6-21.5-13.5-21.5-13.5c9.8,9.7,21.4,9.4,21.4,9.4c0,0.3,0,0.6,0,0.9
				c0,0.5,0,1,0,1.5C208.9,202.7,209,203.3,209,203.9z"/>
		</g>
	</g>
	<g>
		<path class="st15" d="M423.3,385.9c-0.8-1.1-2.2-1.9-3.7-1.9c-2.1,0-3.9,1.3-4.5,3.2l0,0l0,0c-0.2,0.5-0.2,0.9-0.2,1.5
			c0,0.6,0.1,1.2,0.3,1.7c0.3,0.8,0.8,1.6,1.5,2.1c0.7,0.5,1.5,0.9,2.5,1c0.1,0,0.2,0,0.4,0c0.1,0,0.2,0,0.2,0c0,0,0.1,0,0.1,0
			c0.5,0,0.9-0.1,1.4-0.3c1.8-0.7,3.1-2.4,3.1-4.4C424.2,387.7,423.9,386.7,423.3,385.9z M420.7,392.1L420.7,392.1
			c-0.3,0.1-0.7,0.2-1,0.2l0,0c-0.1,0-0.2,0-0.2,0c-0.3,0-0.7-0.1-1-0.2c-0.4-0.1-0.8-0.3-1.2-0.6c-0.1-0.1-0.2-0.2-0.4-0.3
			c-0.6-0.7-1-1.5-1-2.5c0-0.3,0-0.5,0.1-0.7c0-0.1,0.1-0.2,0.1-0.3c0.5-1.4,1.8-2.4,3.4-2.4c1.1,0,2.1,0.6,2.8,1.4
			c0.5,0.6,0.7,1.4,0.7,2.2C423,390.3,422,391.6,420.7,392.1z"/>
	</g>
	<g>
		<path class="st12" d="M242.3,297.1c18,18.5,41.7,41.8,41.7,41.8l9.3-17.6c0,0-21.1-24.7-35.4-41.3
			C253.5,282.2,245.5,287.3,242.3,297.1z"/>
	</g>
	<g>
		<g>
			<path class="st12" d="M231.2,322c0,0,4.8,2.3,6.1,3.4c1.3,1,6.4,4.9,7.6,5.8c1.2,0.9-1.9,3.5-11-0.5
				C224.7,326.7,231.2,322,231.2,322z"/>
		</g>
	</g>
	<g>
		<polygon class="st16" points="231.6,269 223.2,347.4 334.3,347.4 342.7,269 		"/>
	</g>
	<g>
		<path class="st16" d="M340.6,343.8H228.6l8.5-79.3h111.9L340.6,343.8z M229.6,342.9h110.2l8.3-77.6H238L229.6,342.9z"/>
	</g>
	<g>
		
			<rect x="214.3" y="340.4" transform="matrix(-1 -1.224647e-16 1.224647e-16 -1 447.2321 687.8062)" class="st16" width="18.6" height="7.1"/>
	</g>
	<g>
		<g>
			<defs>
				<rect id="SVGID_3_" x="35.9" y="347.3" width="301.9" height="4.8"/>
			</defs>
			<clipPath id="SVGID_4_">
				<use xlink:href="#SVGID_3_"  style="overflow:visible;"/>
			</clipPath>
			<path class="st17" d="M35.9,347.3v4.8V347.3z"/>
			<rect x="35.9" y="347.3" class="st17" width="4.6" height="4.8"/>
			<rect x="40.5" y="347.3" class="st18" width="4.6" height="4.8"/>
			<rect x="45.2" y="347.3" class="st19" width="4.6" height="4.8"/>
			<rect x="49.8" y="347.3" class="st20" width="4.6" height="4.8"/>
			<rect x="54.4" y="347.3" class="st21" width="4.6" height="4.8"/>
			<rect x="59.1" y="347.3" class="st22" width="4.6" height="4.8"/>
			<rect x="63.7" y="347.3" class="st23" width="4.6" height="4.8"/>
			<rect x="68.4" y="347.3" class="st24" width="4.6" height="4.8"/>
			<rect x="73" y="347.3" class="st25" width="4.6" height="4.8"/>
			<rect x="77.7" y="347.3" class="st26" width="4.6" height="4.8"/>
			<rect x="82.3" y="347.3" class="st27" width="4.6" height="4.8"/>
			<rect x="87" y="347.3" class="st28" width="4.6" height="4.8"/>
			<rect x="91.6" y="347.3" class="st29" width="4.6" height="4.8"/>
			<rect x="96.2" y="347.3" class="st30" width="4.6" height="4.8"/>
			<rect x="100.9" y="347.3" class="st31" width="4.6" height="4.8"/>
			<rect x="105.5" y="347.3" class="st32" width="4.6" height="4.8"/>
			<rect x="110.2" y="347.3" class="st33" width="4.6" height="4.8"/>
			<rect x="114.8" y="347.3" class="st34" width="4.6" height="4.8"/>
			<rect x="119.5" y="347.3" class="st35" width="4.6" height="4.8"/>
			<rect x="124.1" y="347.3" class="st36" width="4.6" height="4.8"/>
			<rect x="128.8" y="347.3" class="st37" width="4.6" height="4.8"/>
			<rect x="133.4" y="347.3" class="st38" width="4.6" height="4.8"/>
			<rect x="138" y="347.3" class="st39" width="4.6" height="4.8"/>
			<rect x="142.7" y="347.3" class="st40" width="4.6" height="4.8"/>
			<rect x="147.3" y="347.3" class="st41" width="4.6" height="4.8"/>
			<rect x="152" y="347.3" class="st42" width="4.6" height="4.8"/>
			<rect x="156.6" y="347.3" class="st43" width="4.6" height="4.8"/>
			<rect x="161.3" y="347.3" class="st44" width="4.6" height="4.8"/>
			<rect x="165.9" y="347.3" class="st45" width="4.6" height="4.8"/>
			<rect x="170.5" y="347.3" class="st46" width="4.6" height="4.8"/>
			<rect x="175.2" y="347.3" class="st47" width="4.6" height="4.8"/>
			<rect x="179.8" y="347.3" class="st48" width="4.6" height="4.8"/>
			<rect x="184.5" y="347.3" class="st49" width="4.6" height="4.8"/>
			<rect x="189.1" y="347.3" class="st50" width="4.6" height="4.8"/>
			<rect x="193.8" y="347.3" class="st51" width="4.6" height="4.8"/>
			<rect x="198.4" y="347.3" class="st52" width="4.6" height="4.8"/>
			<rect x="203.1" y="347.3" class="st53" width="4.6" height="4.8"/>
			<rect x="207.7" y="347.3" class="st54" width="4.6" height="4.8"/>
			<rect x="212.3" y="347.3" class="st55" width="4.6" height="4.8"/>
			<rect x="217" y="347.3" class="st56" width="4.6" height="4.8"/>
			<rect x="221.6" y="347.3" class="st57" width="4.6" height="4.8"/>
			<rect x="226.3" y="347.3" class="st58" width="4.6" height="4.8"/>
			<rect x="230.9" y="347.3" class="st59" width="4.6" height="4.8"/>
			<rect x="235.6" y="347.3" class="st60" width="4.6" height="4.8"/>
			<rect x="240.2" y="347.3" class="st61" width="4.6" height="4.8"/>
			<rect x="244.9" y="347.3" class="st62" width="4.6" height="4.8"/>
			<rect x="249.5" y="347.3" class="st63" width="4.6" height="4.8"/>
			<rect x="254.1" y="347.3" class="st64" width="4.6" height="4.8"/>
			<rect x="258.8" y="347.3" class="st65" width="4.6" height="4.8"/>
			<rect x="263.4" y="347.3" class="st66" width="4.6" height="4.8"/>
			<rect x="268.1" y="347.3" class="st67" width="4.6" height="4.8"/>
			<rect x="272.7" y="347.3" class="st68" width="4.6" height="4.8"/>
			<rect x="277.4" y="347.3" class="st69" width="4.6" height="4.8"/>
			<rect x="282" y="347.3" class="st70" width="4.6" height="4.8"/>
			<rect x="286.7" y="347.3" class="st71" width="4.6" height="4.8"/>
			<rect x="291.3" y="347.3" class="st72" width="4.6" height="4.8"/>
			<rect x="295.9" y="347.3" class="st73" width="4.6" height="4.8"/>
			<rect x="300.6" y="347.3" class="st74" width="4.6" height="4.8"/>
			<rect x="305.2" y="347.3" class="st75" width="4.6" height="4.8"/>
			<rect x="309.9" y="347.3" class="st76" width="4.6" height="4.8"/>
			<rect x="314.5" y="347.3" class="st77" width="4.6" height="4.8"/>
			<rect x="319.2" y="347.3" class="st78" width="4.6" height="4.8"/>
			<rect x="323.8" y="347.3" class="st79" width="4.6" height="4.8"/>
			<rect x="328.4" y="347.3" class="st80" width="4.6" height="4.8"/>
			<rect x="333.1" y="347.3" class="st81" width="4.6" height="4.8"/>
			<path class="st81" d="M337.7,352v-4.8V352z"/>
		</g>
	</g>
	<g>
		<rect x="260.7" y="449.3" class="st16" width="261.5" height="4.8"/>
	</g>
	<g>
		<path class="st82" d="M276.8,306.9c-0.9,4.4,1.1,8.5,4.6,9.2c3.4,0.7,6.9-2.3,7.8-6.6c0.9-4.4-1.1-8.5-4.6-9.2
			C281.1,299.6,277.7,302.6,276.8,306.9z"/>
	</g>
	<g>
		<g>
			<g>
				<path class="st83" d="M488.6,275.8c0,0,2.6,4.3,3.6,5.1c1.5,1,0.5,1.9-0.1,1.9c-0.7,0-4.3,0.3-5-0.6c-0.8-0.9-1.2-3.6-1.9-4.3
					c-0.7-0.7-1.5-3.5,0.4-4.1C487.1,273.2,488.6,275.8,488.6,275.8z"/>
			</g>
		</g>
	</g>
	<g>
		<g>
			<g>
				<path class="st84" d="M487.5,273.9c0,0,2.9,5.1,3.4,5.8c0.5,0.8-1,0.8-1.9,0.4c-0.9-0.4-3.2-4-3.5-4.7c-0.4-0.8-0.1-1.7-0.1-1.7
					L487.5,273.9z"/>
			</g>
		</g>
	</g>
	<g>
		<g>
			<g>
				<polygon class="st83" points="484.5,276.7 485.2,281.9 485.6,281.9 485.4,278.2 				"/>
			</g>
		</g>
	</g>
	<g>
		<g>
			<g>
				<path class="st83" d="M463.2,275.8c0,0,2.6,4.3,3.6,5.1c1.5,1,0.5,1.9-0.1,1.9c-0.7,0-4.3,0.3-5-0.6c-0.8-0.9-1.2-3.6-1.9-4.3
					c-0.7-0.7-1.5-3.5,0.4-4.1C461.7,273.3,463.2,275.8,463.2,275.8z"/>
			</g>
		</g>
	</g>
	<g>
		<g>
			<g>
				<path class="st84" d="M462.2,273.9c0,0,2.8,5.1,3.3,5.8c0.5,0.8-1,0.8-1.9,0.4c-0.9-0.4-3.2-4-3.5-4.7c-0.4-0.8-0.1-1.7-0.1-1.7
					L462.2,273.9z"/>
			</g>
		</g>
	</g>
	<g>
		<g>
			<g>
				<polygon class="st83" points="459.1,276.7 459.8,281.9 460.2,281.9 460,278.2 				"/>
			</g>
		</g>
	</g>
	<g>
		<g>
			<g>
				<path class="st84" d="M451.8,236.3l23.2,10.6c0,0,2.6,0.8,2.9,3.7c0.9,9,7.6,23.2,7.6,23.2c2.2,1.1,2,0.1,2,0.1
					c-1.4-4.4-3-22.3-3.6-29.5c-0.1-1.5-0.2-2.6-0.2-2.9c0-0.2-0.3-0.5-0.7-0.9c-3.2-2.6-16.3-7.9-16.3-7.9
					C456.9,232.5,451.8,236.3,451.8,236.3z"/>
			</g>
		</g>
	</g>
	<g>
		<g>
			<g>
				<path class="st84" d="M447.5,240.9c0.7,6.3,9.7,5.5,9.7,5.5H468c0,0-2.8,6.3-3.9,11.7c-1.2,5.7-3.9,15.7-3.9,15.7
					s0.2,0.3,2.1,0.2c0,0,8.5-17,11.8-21.2c0.7-0.9,2.7-5.9,3.1-8.9c0.1-1,0-1.8-0.3-2.1c-0.4-0.3-1.2-0.9-2.4-1.6
					c-3.4-2.1-9.3-5.4-12.6-6.2c-4.4-1-11.4-2.8-11.4-2.8S446.7,234.6,447.5,240.9z"/>
			</g>
		</g>
	</g>
	<g>
		<path class="st85" d="M454.8,192.6c0,0-1.6-3.1-0.8-6.4c0.8-3.3,3.8-6.6,8.3-5c4.5,1.5,8.1,5,5.4,9c-2.7,4,2.4,5.8,1.1,7.7
			c-1.3,1.9-0.8,3.9-0.3,4.3c0.5,0.4,2.3,2,2.1,3.9c-0.2,1.9-8.6-5.5-8.6-5.5S457.4,191.4,454.8,192.6z"/>
	</g>
	<g>
		<path class="st86" d="M468.4,232c0,0-0.7,3.3-18-0.9C450.4,231.1,456.2,229.2,468.4,232z"/>
	</g>
	<g>
		<g>
			<path class="st87" d="M450.2,232c-0.3,0.5-0.5,1-0.8,1.5c6.3,0.2,12.7,0.4,19,0.6c-1-3.4-0.7-7.9-0.5-11.3
				c0.2-4.2,2.5-7.1,2.3-11.4c1.3,0.2,1.5,0.2,2.7,0.4c-1.9-5.5-2.6-8.2-8.5-10.3c-1.9-0.7-3.2-0.8-5.3-0.6c-6.9,0.6-9,0.7-12.4,6.9
				c5.3,0.8,4.4,2.8,6,8c0.8,2.6,1.6,5.4,1.2,8.2C453.5,226.7,450.2,229.6,450.2,232z"/>
		</g>
	</g>
	<g>
		<g>
			<path class="st12" d="M461.3,202.9c-2.8-0.5-2.2-2.1-2.2-2.1s0.1-0.9,0.2-2c0-0.3,0-0.6,0-0.9c0-0.5,0-0.9-0.1-1.4
				c-0.2-1.9,5.1-0.8,5.1-0.8s-0.3,3.8,0.4,5C465.4,201.8,464.1,203.4,461.3,202.9z"/>
		</g>
	</g>
	<g>
		<g>
			<path class="st12" d="M455.9,200.7c0,0,5.7,6.6,7.8,8.1c0,0,2.4-2.2,0.9-8C464.6,200.9,461.8,199.5,455.9,200.7z"/>
		</g>
	</g>
	<g>
		<path class="st12" d="M456,184.9c0,0-3,5.7,0,11.1c2.9,5.4,8.7-2.4,9.1-3.3c0.4-0.9,2.3-6.1-1.6-7.6
			C459.6,183.6,456.9,183.4,456,184.9z"/>
	</g>
	<g>
		<path class="st85" d="M457,186.9c0,0-2,2.7-2.3,4.7c0,0-0.8-3.7,1.5-7.3c2.3-3.6,8.1-0.2,8.9,1.3c0.8,1.4,3.1,2.7-0.8,8.9
			C464.3,194.4,457.4,189.6,457,186.9z"/>
	</g>
	<g>
		<path class="st14" d="M461.7,196.6c0,0-0.5,1.1-2.5,2.2c0-0.3,0-0.6,0-0.9C459.2,197.9,460.6,197.7,461.7,196.6z"/>
	</g>
	<g>
		<path class="st12" d="M431.8,226.9c0,0-1.4,0.6-2.1,0.3c-0.7-0.3-1.7-0.3-2-0.3c-0.4,0-1.8-0.5-1.8,0c0,0.5,2.2,0.9,2.7,1.1
			c0.4,0.2-1.3,1.1-1.5,1.6c-0.2,0.4,1.9,3.3,3,2.5c1.1-0.8,1.8-2.4,2-2.6c0.2-0.1,0.9-0.6,0.9-0.6L431.8,226.9z"/>
	</g>
	<g>
		<path class="st12" d="M427.3,229.3c0,0-3.3,2.7-3.3,3.1c-0.1,0.4,0.1,0.5,0.4,0.3c0.3-0.2,3.3-2.5,3.3-2.5s-3.3,3.9-3.4,4.2
			c-0.1,0.2,0.3,0.5,0.4,0.4c0.2-0.1,3.7-3.8,3.7-3.8s-3.1,3.6-3.1,3.9c0,0.2,0.4,0.5,0.6,0.2c0.2-0.3,3.3-3.5,3.3-3.5
			s-2.1,2.8-1.9,3c0.1,0.2,0.3,0.5,0.8-0.3c0.5-0.7,1.9-2.4,1.9-2.4L427.3,229.3z"/>
	</g>
	<g>
		<g>
			<path class="st16" d="M466.8,246.4h-9.7c0,0-8.9,0.7-9.7-5.5c-0.7-6.3,2.9-9.7,2.9-9.7s4.7,1.3,8.9,2.3c2.1-0.4,4.6-0.7,7.5-0.7
				c0,0,17.5,5.8,17,8.8C483.7,241.5,476.4,237.6,466.8,246.4z"/>
		</g>
	</g>
	<g>
		<polygon class="st88" points="460.5,235.6 479,235.3 469.7,240 		"/>
	</g>
	<g>
		<path class="st87" d="M466.3,233.2c0,0-4.2,1.6-9.3,0.2l-0.2-1.9l10.5,0.6L466.3,233.2z"/>
	</g>
	<g>
		<polygon class="st89" points="469.7,240 460.5,236.5 460.5,235.6 470.4,239.1 		"/>
	</g>
	<g>
		<g>
			<path class="st90" d="M466.2,234.1c0,0.7,0.6,1.2,1.3,0.9l1.1-0.5c0.3-0.1,0.5-0.5,0.5-0.8c-0.4-2.8-1.4-13.7,0-15.6
				c0.5-0.7,0.8-1.3,1-1.8c0.9,2.4,2.1,5.5,2.5,7.1l8.7,11.6l2.9,0.7c-3.7-8.8-6.6-13.5-6.6-13.5c-0.6-1.5-2.2-6.2-3.7-10.3
				c-0.9-2.6-1.8-5-2.2-6.3c-0.2-0.7-0.7-1.2-1.3-1.6c-1.4-0.8-3.6-2.1-5.7-3.1c0,0,0,0,0,0c-0.1,0-0.1-0.1-0.2-0.1c0,0,0,0,0,0
				c0,0,0,0,0,0C468.5,206.8,467,223.4,466.2,234.1C466.2,234.1,466.2,234.1,466.2,234.1z"/>
		</g>
		<g>
			<path class="st90" d="M451.8,201.4c-1.2,0.2-4.3,3.2-6,6.2c-1.9,3.5-3.8,7.4-5.2,8.7c-2.6,2.4-10,10.8-10.3,10.6
				c-0.1-0.1,2,2.5,2.3,2.6c0.1,0.1,12.1-10.3,13.2-11.9c1.1-1.5,4-7.8,4.9-7.6c0,0,0,0,0,0c0,0,0,0,0,0c0.1,0.1,1.1,2.4,2.1,5.8
				c0,0.1,0,0.1,0,0.2c0.7,2.3,0.6,4.9,0.3,7.7c-0.3,2.2-1.9,5.7-2.9,7.4c-0.1,0.2-0.1,0.6,0,0.9c0,0,0,0,0,0
				c0.1,0.2,0.2,0.3,0.3,0.4l3.5,1.3l0.8,0.3c0.6,0.2,1.2,0.1,1.7-0.2c0.4-0.3,0.7-0.7,0.7-1.2c0.8-6,1.8-12.1,2.6-14.5
				c3.5-10.1-1.3-17.8-1.3-17.8S452.8,201,451.8,201.4z"/>
		</g>
	</g>
	<g>
		<polygon class="st91" points="469.7,240 475.2,225 492.9,225.3 487.7,239.1 		"/>
	</g>
	<g>
		<path class="st92" d="M480.9,231.6c-0.5,1.1-0.4,2.3,0.4,2.6c0.7,0.4,1.8-0.2,2.3-1.3c0.5-1.1,0.4-2.3-0.4-2.6
			C482.5,230,481.4,230.6,480.9,231.6z"/>
	</g>
	<g>
		<path class="st85" d="M462.2,190.6c0,0,1.1,1.8,0.1,3.3c-1.1,1.5,0.3,3,0.5,4.6c0.2,1.6-4.4,5.9,0.7,8.1c5.1,2.2,6.8-1.4,5.5-3.4
			c-1.3-2-2.2-3.6-2.3-6.4C466.5,194.1,465.6,189.7,462.2,190.6z"/>
	</g>
	<g>
		<polygon class="st93" points="437.1,183.2 447.8,183.2 447.8,191 447.8,192.6 446.1,191 437.1,191 		"/>
	</g>
	<g>
		<g>
			<g>
				<g>
					<g>
						<path class="st3" d="M377,302.3c0,0-23.3,22.2-12,39.5c11.3,17.3,16.7,2.1,16.7,2.1s7.7,2.3-3.7-19
							C372.6,314.9,377,302.3,377,302.3z"/>
					</g>
				</g>
			</g>
		</g>
		<g>
			<g>
				<g>
					<g>
						<path class="st4" d="M333.9,278.2c0,0-17.8,20.9,6,49.9c23.8,29,20.1,44.3,20.1,44.3S393.2,322.1,333.9,278.2z"/>
					</g>
				</g>
			</g>
		</g>
		<g>
			<g>
				<g>
					<g>
						<path class="st5" d="M365.4,363.8c11.1,2.2,2.1-30-14.5-39.8c-16.6-9.8-31.5-10.8-40.8-20.3
							C310,303.7,310.8,352.7,365.4,363.8z"/>
					</g>
				</g>
			</g>
		</g>
	</g>
	<g>
		<g>
			<g>
				<g>
					<path class="st12" d="M292.9,377.9c0,0,0.5-1.3,0.6-1.4c0.1-0.2,0.6-0.5,1.2-0.8c0.6-0.3,1.5-0.5,1.6-0.4
						c0.1,0.1,0.2,0.1,0.4,0.3c0.1,0.3,0.1,0.6,0.1,0.6s0.3,0.3,0.2,0.6c0,0,0.3,0.3,0.1,0.6c0,0,0.3,0.3,0.1,0.5
						c0,0-0.5,0.3-0.6,0.5c-0.1,0.2-1.2,0.7-2.3,1.1C294.3,379.6,293.1,379.6,292.9,377.9z"/>
				</g>
			</g>
		</g>
		<g>
			<g>
				<g>
					<path class="st94" d="M294.7,377.2c0,0,0,0.7-0.1,0.9c-0.1,0.2,1.4,0.6,1.4,0.6S295.5,377.2,294.7,377.2z"/>
				</g>
			</g>
		</g>
		<g>
			<g>
				<g>
					<polygon class="st95" points="267.2,443.9 267.8,441.9 270.5,442.3 270.1,444.1 					"/>
				</g>
			</g>
		</g>
		<g>
			<g>
				<g>
					<polygon class="st96" points="289.5,443.6 289.7,444.7 292.6,444.2 292.5,442.6 					"/>
				</g>
			</g>
		</g>
		<g>
			<g>
				<g>
					<g>
						<path class="st97" d="M283,412.7c0,0-0.4,2.4-1,5.1c-0.1,0.5-0.2,0.9-0.3,1.4c-0.5,2.6-1,5-1.2,5.5
							c-0.4,1.2-9.6,17.9-9.6,17.9s-3.7-0.3-3.9-0.8c0,0,7.7-18.2,7.6-18.9c0-0.7,0.9-19.3,0.9-19.3S282.8,411.6,283,412.7z"/>
					</g>
				</g>
			</g>
		</g>
		<g>
			<g>
				<g>
					<g>
						<path class="st97" d="M287.2,402.6c0,0,3.6,18.3,3.9,19.7c0.3,1.4,1.7,20.2,1.7,20.2s-0.8,1.7-3.8,1c0,0-4-20.2-4.4-20.8
							c-1.3-2.6-7.8-15.3-8.5-17.1c-0.6-1.8-0.4-3.9-0.4-3.9S280.5,398.9,287.2,402.6z"/>
					</g>
				</g>
			</g>
		</g>
		<g>
			<g>
				<g>
					<g>
						<path class="st98" d="M285.7,378.9c0,0,1.6,3.9,2,3.8c0.4-0.1,4.9-5.4,4.9-5.4s2.1,2.6,1.8,2.9c-0.4,0.4-5.7,9.3-6.4,9.1
							c-0.7-0.2-4-5.6-4-5.6S283.7,379.6,285.7,378.9z"/>
					</g>
				</g>
			</g>
		</g>
		<g>
			<g>
				<g>
					<g>
						<path class="st99" d="M279,371.4c0,0,4.1,3.1,5.2,4.3c1.1,1.2,4.2,6.3,4,7.9c-0.9,5.9-1.3,10.9-1.3,15c0,3.5,1.1,4.4,0.4,4.5
							c-0.8,0.1-11,3.8-12.6,4.2c0,0,1-12.3,1.5-13.8C276.8,392.1,274.6,377.2,279,371.4z"/>
					</g>
				</g>
			</g>
		</g>
		<g>
			<g>
				<g>
					<path class="st100" d="M305.2,365.5l0.9,4.6l0.9,4.6c0,0-5.2-1.6-11.2-0.5l-0.4-2l-0.4-2C301,369,305.2,365.5,305.2,365.5z"/>
				</g>
			</g>
		</g>
		<g>
			<g>
				<g>
					<path class="st101" d="M289.7,444.7c0,0,2.3-0.4,2.3-0.5c0.1-0.1,0.6-1,0.9-0.8c0.3,0.2,0.4,1.2,0.7,1.4c0.3,0.2,3,2,3.4,2.3
						c0.3,0.3,2.4,0.1,2.6,0.7s0.3,1.9-2.8,1.6c-3-0.3-6.5,0.2-7.2-0.2C289,449,289.5,445.6,289.7,444.7z"/>
				</g>
			</g>
		</g>
		<g>
			<g>
				<g>
					<path class="st101" d="M267.1,443.8c0,0,2.3-0.1,2.4-0.1c0.1-0.1,0.7-0.9,1-0.6c0.3,0.2,0.2,1.3,0.5,1.5
						c0.3,0.2,2.7,2.5,2.9,2.8c0.3,0.4,2.3,0.5,2.5,1.1c0.1,0.6-0.1,1.9-3,1.1c-2.9-0.8-6.5-0.9-7-1.3
						C265.7,447.9,266.8,444.7,267.1,443.8z"/>
				</g>
			</g>
		</g>
		<g>
			<g>
				<g>
					<g>
						<path class="st8" d="M284.9,403.5c0,0,0.3,1.1,0.7,1.4c0.4,0.2-2.1,2.6-2.1,2.6s-1-2.2-1-2.4
							C282.6,404.8,284.9,403.5,284.9,403.5z"/>
					</g>
				</g>
			</g>
		</g>
		<g>
			<g>
				<g>
					<g>
						<path class="st102" d="M277.2,376.3c0,0-2.9,13.9-3.2,15.3c-0.2,1.3,8.6,14.2,8.6,14.2l2.9-1.7c0,0-7.1-12.9-7.1-13.5
							c0-0.6,3.4-11.8,3.4-11.8s1.4-2.4-1.1-3.6C278.2,374,277.2,376.3,277.2,376.3z"/>
					</g>
				</g>
			</g>
		</g>
		<g>
			<g>
				<g>
					<path class="st103" d="M286.7,404.4c0,0,1,4.7,0.9,6.2s-5.5-2.3-5.2-3.7L286.7,404.4z"/>
				</g>
			</g>
		</g>
		<g>
			<g>
				<g>
					<g>
						<g>
							<path class="st12" d="M279,371.4c0,0,7.4,8.1,7,7.2c-1.6-3.2-2.8-3.7-2.7-4.3c0-0.5,0.2-1.8,0.2-2.2c0.1-0.8,0.1-1.5,0.1-1.5
								s-3.7-5.2-3.5-3.4C280.2,368.9,279,371.4,279,371.4z"/>
						</g>
					</g>
				</g>
			</g>
		</g>
		<g>
			<g>
				<g>
					<g>
						<g>
							<path class="st12" d="M286.1,361.9c0,0,1,2.4,1,3c0,0.6-0.1,1,0,1.6c0.1,0.7,0.6,2.1,0.6,2.5c-0.1,0.5-1.1,0.2-1.2,1
								c-0.1,0.8-0.9,2.2-1.2,2.3c-0.9,0.1-4.4-1.4-4.7-2.1c-0.2-0.7-1.5-4.8-1.9-5.6c-0.4-0.8,6.2-5.1,6.8-3.8
								C286.1,361.9,286.1,361.9,286.1,361.9z"/>
						</g>
					</g>
				</g>
			</g>
		</g>
		<g>
			<g>
				<g>
					<path class="st13" d="M277.1,363.7c-0.5-2,1.9-2.3,1.9-2.3s1.5-1.8,5.2-1.6c3.6,0.2,3.1,5,3.1,5s-2.5-0.4-3.6-0.1
						c0,0-0.1,2,0,2.5l-1.4-0.1c0,0,0.2-1.8-0.5-1.9c-0.7-0.1-0.9,3.8-2.1,4.7c0,0,0-0.3-0.2-0.5l0,0l0,0c-0.2-0.4-0.6-1.1-1-2
						C278,366.2,277.3,364.7,277.1,363.7z"/>
				</g>
			</g>
		</g>
		<g>
			<g>
				<g>
					<g>
						<g>
							<path class="st12" d="M282.6,365.7c0,0-0.5-1.4-1.7-0.5c-0.9,0.6,0,3,0.9,3C282.6,368.1,283,366.9,282.6,365.7z"/>
						</g>
					</g>
				</g>
			</g>
		</g>
		<g>
			<g>
				<g>
					<path class="st104" d="M280.4,369.5c0,0,0.2,0.7,0.4,0.9c0.2,0.2,1.1,0.9,2.7,1.4l-0.1,1.4C283.3,373.2,280.2,372,280.4,369.5z
						"/>
				</g>
			</g>
		</g>
		<g>
			<g>
				<g>
					<g>
						<defs>
							<path id="SVGID_5_" d="M296.7,379.3l0.5-0.2l-2.4-5l-1.3,0.6l2,4.3C295.8,379.4,296.2,379.5,296.7,379.3z"/>
						</defs>
						<clipPath id="SVGID_6_">
							<use xlink:href="#SVGID_5_"  style="overflow:visible;"/>
						</clipPath>
						<path class="st105" d="M293.5,374v5.5V374z"/>
						<rect x="293.5" y="374" class="st105" width="0.1" height="5.5"/>
						<rect x="293.6" y="374" class="st106" width="0.1" height="5.5"/>
						<rect x="293.6" y="374" class="st107" width="0.1" height="5.5"/>
						<rect x="293.7" y="374" class="st108" width="0.1" height="5.5"/>
						<rect x="293.8" y="374" class="st109" width="0.1" height="5.5"/>
						<rect x="293.8" y="374" class="st110" width="0.1" height="5.5"/>
						<rect x="293.9" y="374" class="st111" width="0.1" height="5.5"/>
						<rect x="293.9" y="374" class="st112" width="0.1" height="5.5"/>
						<rect x="294" y="374" class="st113" width="0.1" height="5.5"/>
						<rect x="294" y="374" class="st114" width="0.1" height="5.5"/>
						<rect x="294.1" y="374" class="st115" width="0.1" height="5.5"/>
						<rect x="294.2" y="374" class="st116" width="0.1" height="5.5"/>
						<rect x="294.2" y="374" class="st117" width="0.1" height="5.5"/>
						<rect x="294.3" y="374" class="st118" width="0.1" height="5.5"/>
						<rect x="294.3" y="374" class="st119" width="0.1" height="5.5"/>
						<rect x="294.4" y="374" class="st120" width="0.1" height="5.5"/>
						<rect x="294.4" y="374" class="st121" width="0.1" height="5.5"/>
						<rect x="294.5" y="374" class="st122" width="0.1" height="5.5"/>
						<rect x="294.6" y="374" class="st123" width="0.1" height="5.5"/>
						<rect x="294.6" y="374" class="st124" width="0.1" height="5.5"/>
						<rect x="294.7" y="374" class="st125" width="0.1" height="5.5"/>
						<rect x="294.7" y="374" class="st126" width="0.1" height="5.5"/>
						<rect x="294.8" y="374" class="st127" width="0.1" height="5.5"/>
						<rect x="294.8" y="374" class="st128" width="0.1" height="5.5"/>
						<rect x="294.9" y="374" class="st129" width="0.1" height="5.5"/>
						<rect x="295" y="374" class="st130" width="0.1" height="5.5"/>
						<rect x="295" y="374" class="st131" width="0.1" height="5.5"/>
						<rect x="295.1" y="374" class="st132" width="0.1" height="5.5"/>
						<rect x="295.1" y="374" class="st133" width="0.1" height="5.5"/>
						<rect x="295.2" y="374" class="st134" width="0.1" height="5.5"/>
						<rect x="295.2" y="374" class="st135" width="0.1" height="5.5"/>
						<rect x="295.3" y="374" class="st136" width="0.1" height="5.5"/>
						<rect x="295.4" y="374" class="st137" width="0.1" height="5.5"/>
						<rect x="295.4" y="374" class="st138" width="0.1" height="5.5"/>
						<rect x="295.5" y="374" class="st139" width="0.1" height="5.5"/>
						<rect x="295.5" y="374" class="st140" width="0.1" height="5.5"/>
						<rect x="295.6" y="374" class="st141" width="0.1" height="5.5"/>
						<rect x="295.6" y="374" class="st142" width="0.1" height="5.5"/>
						<rect x="295.7" y="374" class="st143" width="0.1" height="5.5"/>
						<rect x="295.8" y="374" class="st144" width="0.1" height="5.5"/>
						<rect x="295.8" y="374" class="st145" width="0.1" height="5.5"/>
						<rect x="295.9" y="374" class="st146" width="0.1" height="5.5"/>
						<rect x="295.9" y="374" class="st147" width="0.1" height="5.5"/>
						<rect x="296" y="374" class="st148" width="0.1" height="5.5"/>
						<rect x="296" y="374" class="st149" width="0.1" height="5.5"/>
						<rect x="296.1" y="374" class="st150" width="0.1" height="5.5"/>
						<rect x="296.2" y="374" class="st151" width="0.1" height="5.5"/>
						<rect x="296.2" y="374" class="st152" width="0.1" height="5.5"/>
						<rect x="296.3" y="374" class="st153" width="0.1" height="5.5"/>
						<rect x="296.3" y="374" class="st154" width="0.1" height="5.5"/>
						<rect x="296.4" y="374" class="st155" width="0.1" height="5.5"/>
						<rect x="296.4" y="374" class="st156" width="0.1" height="5.5"/>
						<rect x="296.5" y="374" class="st157" width="0.1" height="5.5"/>
						<rect x="296.6" y="374" class="st158" width="0.1" height="5.5"/>
						<rect x="296.6" y="374" class="st159" width="0.1" height="5.5"/>
						<rect x="296.7" y="374" class="st160" width="0.1" height="5.5"/>
						<rect x="296.7" y="374" class="st161" width="0.1" height="5.5"/>
						<rect x="296.8" y="374" class="st162" width="0.1" height="5.5"/>
						<rect x="296.8" y="374" class="st163" width="0.1" height="5.5"/>
						<rect x="296.9" y="374" class="st164" width="0.1" height="5.5"/>
						<rect x="297" y="374" class="st165" width="0.1" height="5.5"/>
						<rect x="297" y="374" class="st166" width="0.1" height="5.5"/>
						<rect x="297.1" y="374" class="st167" width="0.1" height="5.5"/>
						<rect x="297.1" y="374" class="st168" width="0.1" height="5.5"/>
						<rect x="297.2" y="374" class="st169" width="0.1" height="5.5"/>
						<path class="st169" d="M297.2,379.5V374V379.5z"/>
					</g>
				</g>
			</g>
		</g>
		<g>
			<g>
				<g>
					<path class="st170" d="M296.1,375.3c0,0-1.5,0.8-1.4,1.1c0.1,0.3,0.3,0.3,0.3,0.3l-0.5,0.6c0,0-0.1,0.6,0.6,0.5
						c0,0-0.1,0.5,0.5,0.4c0,0,0.1,0.4,0.4,0.4c0.3,0,1.2-0.6,1.2-0.6s0.1-0.2-0.1-0.5c0,0,0.2-0.4-0.1-0.6c0,0,0.1-0.3-0.2-0.6
						c0,0,0.1-0.7-0.5-0.9C296.3,375.2,296.2,375.3,296.1,375.3z"/>
				</g>
			</g>
		</g>
		<g>
			<g>
				<g>
					<g>
						<defs>
							<polygon id="SVGID_7_" points="291.8,375.1 297,374.2 296.2,369.9 291,371 							"/>
						</defs>
						<clipPath id="SVGID_8_">
							<use xlink:href="#SVGID_7_"  style="overflow:visible;"/>
						</clipPath>
						<path class="st171" d="M291,369.9v5.3V369.9z"/>
						<rect x="291" y="369.9" class="st171" width="0.1" height="5.3"/>
						<rect x="291.1" y="369.9" class="st172" width="0.1" height="5.3"/>
						<rect x="291.2" y="369.9" class="st173" width="0.1" height="5.3"/>
						<rect x="291.3" y="369.9" class="st174" width="0.1" height="5.3"/>
						<rect x="291.3" y="369.9" class="st175" width="0.1" height="5.3"/>
						<rect x="291.4" y="369.9" class="st176" width="0.1" height="5.3"/>
						<rect x="291.5" y="369.9" class="st177" width="0.1" height="5.3"/>
						<rect x="291.6" y="369.9" class="st178" width="0.1" height="5.3"/>
						<rect x="291.7" y="369.9" class="st179" width="0.1" height="5.3"/>
						<rect x="291.8" y="369.9" class="st180" width="0.1" height="5.3"/>
						<rect x="291.9" y="369.9" class="st181" width="0.1" height="5.3"/>
						<rect x="292" y="369.9" class="st182" width="0.1" height="5.3"/>
						<rect x="292.1" y="369.9" class="st183" width="0.1" height="5.3"/>
						<rect x="292.2" y="369.9" class="st184" width="0.1" height="5.3"/>
						<rect x="292.3" y="369.9" class="st185" width="0.1" height="5.3"/>
						<rect x="292.4" y="369.9" class="st186" width="0.1" height="5.3"/>
						<rect x="292.5" y="369.9" class="st187" width="0.1" height="5.3"/>
						<rect x="292.6" y="369.9" class="st188" width="0.1" height="5.3"/>
						<rect x="292.6" y="369.9" class="st189" width="0.1" height="5.3"/>
						<rect x="292.7" y="369.9" class="st190" width="0.1" height="5.3"/>
						<rect x="292.8" y="369.9" class="st191" width="0.1" height="5.3"/>
						<rect x="292.9" y="369.9" class="st192" width="0.1" height="5.3"/>
						<rect x="293" y="369.9" class="st193" width="0.1" height="5.3"/>
						<rect x="293.1" y="369.9" class="st194" width="0.1" height="5.3"/>
						<rect x="293.2" y="369.9" class="st195" width="0.1" height="5.3"/>
						<rect x="293.3" y="369.9" class="st196" width="0.1" height="5.3"/>
						<rect x="293.4" y="369.9" class="st197" width="0.1" height="5.3"/>
						<rect x="293.5" y="369.9" class="st198" width="0.1" height="5.3"/>
						<rect x="293.6" y="369.9" class="st199" width="0.1" height="5.3"/>
						<rect x="293.7" y="369.9" class="st200" width="0.1" height="5.3"/>
						<rect x="293.8" y="369.9" class="st201" width="0.1" height="5.3"/>
						<rect x="293.9" y="369.9" class="st202" width="0.1" height="5.3"/>
						<rect x="293.9" y="369.9" class="st203" width="0.1" height="5.3"/>
						<rect x="294" y="369.9" class="st204" width="0.1" height="5.3"/>
						<rect x="294.1" y="369.9" class="st205" width="0.1" height="5.3"/>
						<rect x="294.2" y="369.9" class="st206" width="0.1" height="5.3"/>
						<rect x="294.3" y="369.9" class="st207" width="0.1" height="5.3"/>
						<rect x="294.4" y="369.9" class="st208" width="0.1" height="5.3"/>
						<rect x="294.5" y="369.9" class="st209" width="0.1" height="5.3"/>
						<rect x="294.6" y="369.9" class="st210" width="0.1" height="5.3"/>
						<rect x="294.7" y="369.9" class="st211" width="0.1" height="5.3"/>
						<rect x="294.8" y="369.9" class="st212" width="0.1" height="5.3"/>
						<rect x="294.9" y="369.9" class="st213" width="0.1" height="5.3"/>
						<rect x="295" y="369.9" class="st214" width="0.1" height="5.3"/>
						<rect x="295.1" y="369.9" class="st215" width="0.1" height="5.3"/>
						<rect x="295.2" y="369.9" class="st216" width="0.1" height="5.3"/>
						<rect x="295.2" y="369.9" class="st217" width="0.1" height="5.3"/>
						<rect x="295.3" y="369.9" class="st218" width="0.1" height="5.3"/>
						<rect x="295.4" y="369.9" class="st219" width="0.1" height="5.3"/>
						<rect x="295.5" y="369.9" class="st220" width="0.1" height="5.3"/>
						<rect x="295.6" y="369.9" class="st221" width="0.1" height="5.3"/>
						<rect x="295.7" y="369.9" class="st222" width="0.1" height="5.3"/>
						<rect x="295.8" y="369.9" class="st223" width="0.1" height="5.3"/>
						<rect x="295.9" y="369.9" class="st224" width="0.1" height="5.3"/>
						<rect x="296" y="369.9" class="st225" width="0.1" height="5.3"/>
						<rect x="296.1" y="369.9" class="st226" width="0.1" height="5.3"/>
						<rect x="296.2" y="369.9" class="st227" width="0.1" height="5.3"/>
						<rect x="296.3" y="369.9" class="st228" width="0.1" height="5.3"/>
						<rect x="296.4" y="369.9" class="st229" width="0.1" height="5.3"/>
						<rect x="296.5" y="369.9" class="st230" width="0.1" height="5.3"/>
						<rect x="296.6" y="369.9" class="st231" width="0.1" height="5.3"/>
						<rect x="296.6" y="369.9" class="st232" width="0.1" height="5.3"/>
						<rect x="296.7" y="369.9" class="st233" width="0.1" height="5.3"/>
						<rect x="296.8" y="369.9" class="st234" width="0.1" height="5.3"/>
						<rect x="296.9" y="369.9" class="st235" width="0.1" height="5.3"/>
						<path class="st235" d="M297,375.1v-5.3V375.1z"/>
					</g>
				</g>
			</g>
		</g>
		<g>
			<g>
				<g>
					<path class="st12" d="M293.5,376.4c0,0,1.2,0,1.8,0.2c0.1,0.1,0.3,0.1,0.3,0.3c0,0.2-0.2,0.4-0.7,0.4c-0.5,0-1.1,0.3-1.1,0.3
						S293.2,377.6,293.5,376.4z"/>
				</g>
			</g>
		</g>
		<g>
			<g>
				<g>
					<path class="st236" d="M282.1,417.8c-0.1,0.5-0.2,0.9-0.3,1.4l-3-7.9C279.2,412.1,282.1,417.8,282.1,417.8z"/>
				</g>
			</g>
		</g>
	</g>
	<g>
		<path class="st16" d="M118.6,324.1H72c-3.5,0-6.4-2.9-6.4-6.4V244c0-3.5,2.9-6.4,6.4-6.4h46.6c3.5,0,6.4,2.9,6.4,6.4v73.8
			C125,321.3,122.1,324.1,118.6,324.1z"/>
	</g>
	<g>
		<g>
			<g>
				<g>
					<g>
						<rect x="115.6" y="293.5" class="st237" width="3.1" height="23.4"/>
					</g>
				</g>
			</g>
		</g>
		<g>
			<g>
				<g>
					<g>
						<rect x="109.5" y="296.1" class="st237" width="3.1" height="20.8"/>
					</g>
				</g>
			</g>
		</g>
		<g>
			<g>
				<g>
					<g>
						<rect x="102.9" y="299.5" class="st237" width="3.1" height="17.4"/>
					</g>
				</g>
			</g>
		</g>
		<g>
			<g>
				<g>
					<g>
						<rect x="96.1" y="303.8" class="st237" width="3.1" height="13.1"/>
					</g>
				</g>
			</g>
		</g>
		<g>
			<g>
				<g>
					<polygon class="st237" points="77.7,301 77.1,300.8 82.9,284.5 95.5,281.2 100,263.3 109.7,259 111.9,245.2 112.6,245.3 
						110.3,259.5 100.6,263.8 96,281.8 83.4,285.1 					"/>
				</g>
			</g>
		</g>
		<g>
			<g>
				<path class="st16" d="M97.2,280.3c0.7,0.8,0.5,2-0.3,2.7c-0.8,0.7-2,0.5-2.7-0.3c-0.7-0.8-0.5-2,0.3-2.7
					C95.4,279.4,96.6,279.5,97.2,280.3z"/>
			</g>
		</g>
		<g>
			<g>
				<path class="st237" d="M97.2,283.2c-1,0.8-2.4,0.6-3.2-0.3c-0.8-1-0.6-2.4,0.3-3.2c1-0.8,2.4-0.6,3.2,0.3
					C98.3,281,98.1,282.4,97.2,283.2z M94.8,280.3c-0.7,0.5-0.8,1.5-0.2,2.2c0.5,0.7,1.5,0.8,2.2,0.2c0.7-0.5,0.8-1.5,0.2-2.2
					C96.4,279.9,95.4,279.8,94.8,280.3z"/>
			</g>
		</g>
		<g>
			<g>
				<path class="st16" d="M101.8,262.5c0.7,0.8,0.5,2-0.3,2.7c-0.8,0.7-2,0.5-2.7-0.3c-0.7-0.8-0.5-2,0.3-2.7
					C99.9,261.6,101.1,261.7,101.8,262.5z"/>
			</g>
		</g>
		<g>
			<g>
				<path class="st237" d="M101.8,265.4c-1,0.8-2.4,0.6-3.2-0.3c-0.8-1-0.6-2.4,0.3-3.2c1-0.8,2.4-0.6,3.2,0.3
					C102.9,263.2,102.7,264.6,101.8,265.4z M99.4,262.5c-0.7,0.5-0.8,1.5-0.2,2.2c0.5,0.7,1.5,0.8,2.2,0.2c0.7-0.5,0.8-1.5,0.2-2.2
					C101,262.1,100,262,99.4,262.5z"/>
			</g>
		</g>
		<g>
			<g>
				<path class="st16" d="M111.4,258.1c0.7,0.8,0.5,2-0.3,2.7c-0.8,0.7-2,0.5-2.7-0.3c-0.7-0.8-0.5-2,0.3-2.7
					C109.5,257.2,110.7,257.3,111.4,258.1z"/>
			</g>
		</g>
		<g>
			<g>
				<path class="st237" d="M111.3,261c-1,0.8-2.4,0.6-3.2-0.3c-0.8-1-0.6-2.4,0.3-3.2c1-0.8,2.4-0.6,3.2,0.3
					C112.4,258.8,112.3,260.2,111.3,261z M108.9,258.1c-0.7,0.5-0.8,1.5-0.2,2.2c0.5,0.7,1.5,0.8,2.2,0.2c0.7-0.5,0.8-1.5,0.2-2.2
					C110.5,257.7,109.6,257.6,108.9,258.1z"/>
			</g>
		</g>
		<g>
			<g>
				<path class="st16" d="M84.7,283.8c0.7,0.8,0.5,2-0.3,2.7c-0.8,0.7-2,0.5-2.7-0.3s-0.5-2,0.3-2.7C82.8,282.9,84,283,84.7,283.8z"
					/>
			</g>
		</g>
		<g>
			<g>
				<path class="st237" d="M84.6,286.7c-1,0.8-2.4,0.6-3.2-0.3c-0.8-1-0.6-2.4,0.3-3.2c1-0.8,2.4-0.6,3.2,0.3
					C85.7,284.5,85.6,285.9,84.6,286.7z M82.2,283.8c-0.7,0.5-0.8,1.5-0.2,2.2c0.5,0.7,1.5,0.8,2.2,0.2c0.7-0.5,0.8-1.5,0.2-2.2
					C83.9,283.4,82.9,283.3,82.2,283.8z"/>
			</g>
		</g>
		<g>
			<g>
				<g>
					<g>
						<path class="st238" d="M89.4,266.1H73.3c-0.8,0-1.4-0.6-1.4-1.4v-1.2c0-0.8,0.6-1.4,1.4-1.4h16.1c0.8,0,1.4,0.6,1.4,1.4v1.1
							C90.8,265.4,90.2,266.1,89.4,266.1z"/>
					</g>
				</g>
			</g>
		</g>
		<g>
			<g>
				<g>
					<g>
						<path class="st238" d="M89.4,259.2H73.3c-0.8,0-1.4-0.6-1.4-1.4v-1.1c0-0.8,0.6-1.4,1.4-1.4h16.1c0.8,0,1.4,0.6,1.4,1.4v1.1
							C90.8,258.6,90.2,259.2,89.4,259.2z"/>
					</g>
				</g>
			</g>
		</g>
	</g>
	<g>
		<g>
			<path class="st13" d="M58.3,269.2c0,0-0.5,5.4,0.5,6.8c0,0-2.6-0.6-3.3-1.5S58.3,269.2,58.3,269.2z"/>
		</g>
		<g>
			<g>
				<path class="st12" d="M74.8,286.5c0,0,1-0.6,1.1-0.7c0.1-0.1,0.6-0.1,1.2,0c0.6,0.1,1.3,0.4,1.3,0.5c0,0.1,0.1,0.2,0.1,0.4
					c0,0.2-0.2,0.4-0.2,0.4s0.1,0.3-0.1,0.5c0,0,0.1,0.3-0.2,0.5c0,0,0.1,0.3-0.2,0.4c0,0-0.5,0-0.7,0c-0.2,0-1.2-0.1-2.2-0.3
					C75,288.3,73.9,288.1,74.8,286.5z"/>
			</g>
		</g>
		<g>
			<g>
				<path class="st94" d="M76.5,286.9c0,0-0.3,0.5-0.4,0.6c-0.2,0.1,0.7,1.1,0.7,1.1S77.1,287.3,76.5,286.9z"/>
			</g>
		</g>
		<g>
			<g>
				<path class="st12" d="M74.3,286.6c0,0,0.6-0.1,1-0.2c0.4-0.2-0.1,1.9-0.1,1.9s-0.9-0.6-1.5-0.6
					C73.1,287.6,74.3,286.6,74.3,286.6z"/>
			</g>
		</g>
		<g>
			<g>
				<path class="st239" d="M49.2,341.2c0,0,1.9,2.8,2.5,3.3c0,0,1.3,0.7,1.4,1.2c0.1,1,0.1,1.6-1.6,1.7c-1.7,0-2.8,0-3.1-1.1
					c-0.3-1-0.9-1.9-0.9-1.9l-0.1,2.7H47c0,0-0.2-2.7-0.2-3.1c0-0.4-0.3-1.9,0.5-2.6C48.2,340.9,49.2,341.2,49.2,341.2z"/>
			</g>
		</g>
		<g>
			<g>
				<path class="st239" d="M52,344.7c0,0-0.9,0.3-2,0c-1.1-0.3-2.2-2.9-2.5-3.2l-0.3-1.1h2.2c0,0,0,0.8,0.4,1.5
					C50.1,342.6,52,344.7,52,344.7z"/>
			</g>
		</g>
		<g>
			<g>
				<path class="st239" d="M61.5,340.2c0,0,0.3,0.7,0.8,1.4c0.4,0.5,1.6,2.6,2.1,2.8c0.5,0.1,2.2,0.4,2.3,1.4
					c0.1,0.9,0.2,1.6-1.4,1.7c-1.6,0.1-2.7,0.2-3.5-1c-0.8-1.1-2-2-2-2v3h-0.6c0,0-0.3-3.1-0.5-3.3c-0.2-0.2-0.6-2.6,0.9-3.9
					C61.2,338.9,61.5,340.2,61.5,340.2z"/>
			</g>
		</g>
		<g>
			<g>
				<path class="st239" d="M64.5,344.3c0,0-1.5,0.4-2,0c-0.6-0.4-2.5-3.6-3.1-3.8c0,0,0.6-1.2,2.2-0.3
					C61.5,340.2,64,343.8,64.5,344.3z"/>
			</g>
		</g>
		<g>
			<g>
				<path class="st240" d="M48.4,295.4c0,0-2.1,2.7-2.6,5.9c-0.6,3.2,0.3,13.9,0.3,15.4c0,1.6-1.4,6.5-1.1,9.4
					c0.3,3,1.8,15.3,1.8,15.3l3.6-0.1c0,0-0.7-13.3-0.5-14.6c0.2-1.2,0.8-6.5,0.8-7c0.1-0.5,4.1-14.1,4.1-16.3
					S53.4,291.6,48.4,295.4z"/>
			</g>
		</g>
		<g>
			<g>
				<path class="st240" d="M58.8,296.4c0,0,3.4,12.9,3.8,14.7c0.4,1.8,1.2,4.1,1.2,4.5c0,0.3-0.4,5.9-0.4,5.9l-1,18.8h-3.6
					c0,0-1.1-12-1.3-14.4c-0.2-2.4,1.3-6.1,1-7.2c-0.4-1-5.9-12.8-5.9-12.8S48.3,292.7,58.8,296.4z"/>
			</g>
		</g>
		<g>
			<g>
				<path class="st90" d="M57.7,277.1c0,0,1.4,0.1,2.4,1.2c1,1.1,2,2.8,2.3,3.4c0.3,0.6,4,6,4.2,6.1c0.2,0.1,1.8-0.3,3.2-0.4
					c2.1-0.2,5.4-1.3,5.4-1.3l0.5,2.4c0,0-7.9,2.6-9.7,2.1c-2.2-0.6-7.4-7.1-7.4-7.1S54.7,279.1,57.7,277.1z"/>
			</g>
		</g>
		<g>
			<g>
				<path class="st90" d="M55.4,276.1c0,0,1.8,0.8,2.4,1c0.6,0.1,3,3.2,3.4,4.3c0.4,1.1,0,2.8-0.9,4.8c-0.9,2,0,2.6-0.4,4.6
					c-0.4,2-0.4,7.4-0.3,8.5c0.1,1.1-11.3,3.2-13.6,1.2c0,0,1.5-5.1,3.4-7c0.4-0.4,0.4-3.2,0.1-3.8c-0.3-0.7-3.3-5.8-3.3-5.8
					s-0.2-5.2,1.1-6.2c1.1-0.9,4.3-1.2,4.8-1.4C52.6,276,54.2,275.9,55.4,276.1z"/>
			</g>
		</g>
		<g>
			<g>
				<path class="st241" d="M55.9,280l1.1-1.2l-0.9-3.3C56.1,275.5,55.8,277.3,55.9,280z"/>
			</g>
		</g>
		<g>
			<g>
				<path class="st12" d="M49.2,277.1c0,0-2.2-0.6-3.5,1.8c-1.3,2.4-1,3.8-1.2,4.9c-0.3,1.1-1.5,8.4-1.5,8.8c-0.1,0.3-1.2,4-1,5.2
					c0.1,1.1,1.2,9.8,1.1,10.1c0,0.3,2-0.3,2-0.3s-0.1-8.9,0-9.6c0.1-0.7,0.1-4.6,0.7-5.6c0.5-1,1.9-7,2.2-7.6
					C48.3,284.1,51.1,277.9,49.2,277.1z"/>
			</g>
		</g>
		<g>
			<g>
				<path class="st12" d="M56.2,274.1c0,0-0.4,3.2-0.3,4.3c0,0-1.8,1.8-3.9-2.1c0,0,0.9-1.6,0.2-3.9
					C51.6,270.1,56.2,274.1,56.2,274.1z"/>
			</g>
		</g>
		<g>
			<g>
				<polygon class="st12" points="55.9,278.4 55.9,280 54,278.3 				"/>
			</g>
		</g>
		<g>
			<g>
				<polygon class="st241" points="55.9,280 55.1,279 52.1,276 51,276.5 				"/>
			</g>
		</g>
		<g>
			<g>
				<polygon class="st242" points="57,278.8 58.3,279.2 56.1,275.5 				"/>
			</g>
		</g>
		<g>
			<g>
				<polygon class="st242" points="55.1,279 53.8,280.9 51,276.4 52.2,275.8 				"/>
			</g>
		</g>
		<g>
			<path class="st241" d="M61.3,286.9c0,0,0.4-2.9,0-4.7c0,0-0.3,1.4-0.9,3.7L61.3,286.9z"/>
		</g>
		<g>
			<path class="st241" d="M47.7,286.5c0,0,1.2-4,1.3-4.2c0,0-0.1,3.7-0.5,5.5C48.4,287.8,48,287,47.7,286.5z"/>
		</g>
		<g>
			<polygon class="st243" points="92.9,266.4 73.8,290.5 74.5,291 			"/>
		</g>
		<g>
			<g>
				<path class="st170" d="M78.3,286.2c0,0-1.4-0.1-1.5,0.1c-0.1,0.2,0.1,0.3,0.1,0.3l-0.6,0.2c0,0-0.3,0.4,0.2,0.6
					c0,0-0.3,0.3,0.2,0.5c0,0-0.1,0.3,0.1,0.4c0.2,0.1,1.1,0.2,1.1,0.2s0.2-0.1,0.2-0.4c0,0,0.3-0.2,0.2-0.5c0,0,0.2-0.2,0.1-0.5
					c0,0,0.4-0.4,0.1-0.8C78.5,286.2,78.4,286.2,78.3,286.2z"/>
			</g>
		</g>
		<g>
			<g>
				<path class="st12" d="M76,285.7c0,0,0.8,0.5,1.2,1c0.1,0.1,0.1,0.2,0.1,0.3c-0.1,0.1-0.3,0.1-0.7-0.1c-0.4-0.2-1-0.3-1-0.3
					S75.2,286.4,76,285.7z"/>
			</g>
		</g>
		<g>
			<path class="st12" d="M54.7,263.1c0,0,3.2-0.1,3.8,3.7c0.6,3.8-0.8,7.2-1.3,7.7c-0.5,0.5-3.8,0.1-4.5-1.9c-0.8-2-1.9-3.4-1.7-5.1
				C51.2,265.9,50.7,263.1,54.7,263.1z"/>
		</g>
		<g>
			<path class="st13" d="M58.7,268.3c0,0,0.9-4.8-3.4-5.6c-4.3-0.9-5.8,2.1-6.2,3.8c-0.4,1.7,0.1,6.7,0.1,6.7s2.9,2.5,4.6,3.2
				c0,0-1.4-5.2-0.9-9c0,0,3.5,0.5,5.8,0C58.6,267.3,58.7,268.1,58.7,268.3z"/>
		</g>
		<g>
			<path class="st14" d="M56.1,274.8c0,0-1.1,0-2.6-1c0,0,1.1,1.3,2.6,1.8C56.1,275.7,56.1,275,56.1,274.8z"/>
		</g>
		<g>
			
				<rect x="37.9" y="300.4" transform="matrix(0.9869 -0.1612 0.1612 0.9869 -48.5899 11.1207)" class="st244" width="12.7" height="9.4"/>
		</g>
		<g>
			<g>
				<g>
					<g>
						<g>
							<g>
								<path class="st12" d="M42.6,310.6c0,0-0.2-0.3-0.2-0.5c0,0,0-0.3,0-0.6c0-0.1,0-0.1,0-0.2c0-0.2-0.2-0.5-0.1-1
									c0-0.4,0.6-2.3,0.6-2.3l1.1,0l1-0.1c0,0,1.3,2.4,1.3,2.8c0,0,0,0.1,0,0.1c0,0.4-0.2,0.6-0.2,0.8c0,0.1-0.2,0.7-0.3,0.8
									c-0.3,0.1-0.5,0.1-0.6,0c0,0-0.5,0.2-0.9,0.1c0,0-0.5,0.2-0.9,0C43.4,310.6,42.9,310.8,42.6,310.6z"/>
							</g>
						</g>
					</g>
				</g>
			</g>
		</g>
		<g>
			<g>
				<path class="st90" d="M49.2,277.1c0,0-2.2-0.6-3.5,1.8c-1.3,2.4-1.3,3.5-1.4,4.7c-0.2,1.1-1.7,7.8-1.8,8.1
					c-0.1,0.3-0.6,4.5-0.6,6c0,1.2,0.2,8.7,0.2,9c0,0.3,3.5-0.5,3.5-0.5s-0.4-7-0.3-7.7c0.1-0.7,0.2-4.4,0.6-5.5
					c0.4-1.3,2.1-7.6,2.4-8.2C48.6,284.2,51.1,277.9,49.2,277.1z"/>
			</g>
		</g>
	</g>
	<g>
		<g>
			<g>
				<path class="st245" d="M163.6,342.7l0.2-2.1c0,0-3,0-3.4,0.2c0,0,0.3,1.8,0.3,2.1C160.8,343.2,163.6,342.7,163.6,342.7z"/>
			</g>
		</g>
		<g>
			<g>
				<path class="st246" d="M158.5,347.2c3.6,0,5.3,0.2,5.7-0.4c0.4-0.6-0.6-4.3-0.6-4.3s-0.9,0.3-2.9,0.1c0,0-0.9,1.1-1.8,1.6
					c-0.9,0.5-2.2,0.7-2.7,1.1C155.9,345.7,154.9,347.2,158.5,347.2z"/>
			</g>
		</g>
		<g>
			<g>
				<path class="st245" d="M143.4,342.7l0.2-2.1c0,0-3,0-3.4,0.2c0,0,0.3,1.8,0.3,2.1C140.5,343.2,143.4,342.7,143.4,342.7z"/>
			</g>
		</g>
		<g>
			<g>
				<path class="st246" d="M138.2,347.2c3.6-0.1,5.3,0.2,5.7-0.4c0.4-0.6-0.6-4.3-0.6-4.3s-0.8,0.3-2.9,0.1c0,0-0.9,1.1-1.8,1.6
					c-0.9,0.5-4.1,0.9-4.6,1.4C133.8,345.9,133.2,347.4,138.2,347.2z"/>
			</g>
		</g>
		<g>
			<g>
				<path class="st6" d="M159.5,294.3c0,0,1.5,4.5,1.3,8.3c-0.2,3.8,0.8,8.1,1.2,12.1c0.4,4.5,2.3,15.1,2.3,17.5
					c0.1,2.4-0.3,10.1-0.3,10.1l-3.6,0.1c0,0-3.1-18.6-3.9-20.5c-0.8-1.9-4.7-15.4-4.9-16.9C151.5,303.5,159.5,294.3,159.5,294.3z"
					/>
			</g>
		</g>
		<g>
			<g>
				<path class="st6" d="M144.2,295.1c0,0-2,10.6-2.3,12.9c-0.3,2.4-0.4,11.4-0.6,12.9c-0.1,1.5-0.9,19.3-1.6,21.5h4.7
					c0,0,3.6-12.9,3.6-19.1c0-6.1,2.8-13.3,4.5-17.4c1.8-4,5.9-4.1,7-11.6C159.5,294.3,145.6,292.8,144.2,295.1z"/>
			</g>
		</g>
		<g>
			<g>
				<path class="st12" d="M153.6,259.1c0,0-3.7-1.4-5.4,1.4c-1.7,2.8-1.5,8.4,0.3,9.1c1.9,0.7,4.6,0.3,5.6-1.4
					c0.9-1.7,1.8-4.3,1.8-6C155.9,260.5,154.6,259.5,153.6,259.1z"/>
			</g>
		</g>
		<g>
			<g>
				<path class="st12" d="M149.2,269.4c0,0,0.1,1-0.1,1.4c-0.2,0.5,4.6,0.5,4.6,0.5s0.4-2.6,1.1-4.8
					C155.6,264.4,149.2,269.4,149.2,269.4z"/>
			</g>
		</g>
		<g>
			<g>
				<path class="st247" d="M154.9,266.6c0,0-0.3,0.6-1.7,0.3c-1.4-0.2-3-2-3.6-2.2c-0.6-0.2-0.6-0.5-0.6-0.5l-0.4,0.5l-0.6,0
					c0,0,0.6-1.6-0.3-2.3c-0.8-0.7,0.9-5.3,5.3-3.7c0,0,3.1,0.6,3.3,2.5C156.5,263.2,155.6,265.6,154.9,266.6z"/>
			</g>
		</g>
		<g>
			<g>
				<path class="st248" d="M148.8,270.8c0,0,0-0.9,0.4-1c0.4-0.1,4.5-0.5,5-0.3v1.1C154.3,270.5,153.3,271.1,148.8,270.8z"/>
			</g>
		</g>
		<g>
			<g>
				<path class="st12" d="M149.1,263.4c0.1-0.3,0.9-1.2,1.2-0.3c0.3,1-0.5,2.3-0.9,2.2C148.9,265.2,148.9,264.2,149.1,263.4z"/>
			</g>
		</g>
		<g>
			<g>
				<path class="st249" d="M148.8,270.8c0,0-2.3,0.8-4.9,1.9c0,0-3,1.1-3.3,4.4c-0.2,1.8-2.1,11.1-2.4,11.9
					c-0.4,0.8-4.5,13.5-4.7,13.8c-0.1,0.3,3.4,1.7,3.6,1.6c0.2-0.1,4-11.6,4.4-12.5c0,0,2.2-6.9,2.2-7.9c0,0,0.1,2.9,0.2,3.8
					c0.1,0.8-1.9,16.8-1.9,17.2c0.1,0.4,9.4,1,13.1,0.6c3.7-0.4,6.7-1.3,6.7-1.3s-2.9-12.6-2.8-14c0.2-3,1.2-8.8,1.2-8.8l3,5.7
					l-3.9,10l0.9,3c0,0,7.2-10.9,7.5-11.9c0.2-1-0.4-2.3-0.7-3.1c-0.4-0.8-2.9-7.1-3.5-8c-0.6-0.9-1.6-4.4-4-5.4
					c-2-0.8-5.4-1.5-5.4-1.5L148.8,270.8z"/>
			</g>
		</g>
		<g>
			<g>
				
					<rect x="128" y="294.4" transform="matrix(0.9687 0.2484 -0.2484 0.9687 78.9222 -24.5713)" class="st250" width="17.6" height="12.3"/>
			</g>
		</g>
		<g>
			<g>
				<path class="st251" d="M132,305.5c0,0-0.5,0.8-0.7,1c-0.2,0.2,0.4,0.4,0.7,0.1C132.3,306.4,132,305.5,132,305.5z"/>
			</g>
		</g>
		<g>
			<g>
				<path class="st252" d="M135.6,308.1c0,0,0.3-0.3,0.4-0.5c0,0,0.1-0.4,0.2-0.6c0-0.1,0-0.1,0.1-0.2c0.1-0.2,0.3-0.5,0.4-1
					c0.1-0.5,0.3-2.7,0.3-2.7l-1.3-0.3l-1.1-0.2c0,0-2.3,2.3-2.4,2.7c0,0,0,0.1,0,0.1c-0.1,0.4,0,0.7,0,0.9c0,0.1,0,0.8,0.2,1
					c0.2,0.2,0.5,0.2,0.7,0.2c0,0,0.5,0.4,0.9,0.3c0,0,0.4,0.4,1,0.2C134.8,308,135.3,308.3,135.6,308.1z"/>
			</g>
		</g>
		<g>
			<g>
				<path class="st249" d="M140.7,294.4c0,0-3,9.2-3.6,10.1c0,0-2.2-0.5-3.6-1.6l3.3-9.9L140.7,294.4z"/>
			</g>
		</g>
	</g>
	<g>
		<g>
			<path class="st253" d="M413.5,308.6c0,0,11.2-32.9-10.2-43.1c-21.4-10.2-39.6,4.5-43,12.5c-3.4,8-2.5,22.5,0.4,32.6
				c2.9,10.1,2.5,25.5-3.9,30.7c-6.4,5.2-14.3,13.7-13.9,31.1c0.2,10.8,42.5-27.6,42.5-27.6L413.5,308.6z"/>
		</g>
		<g>
			<path class="st102" d="M383.4,347.8c0,0-17.6,3.9-24.6,8c-7,4.1-22.5,22.9-22.5,30.9c0,8.1,67.9,15.6,67.9,15.6l12.9,47
				c0,0,34.3-8.4,38.4-15.3c4.1-6.9-13-56.7-16-66.8c-3-10.3-15.3-17.4-29.6-19.4C395.6,345.8,383.4,347.8,383.4,347.8z"/>
		</g>
		<g>
			<path class="st12" d="M408.6,347.6c0,0-0.4,21.4-17.4,22c-17,0.6-13.4-20.5-13.4-20.5S390.2,344.1,408.6,347.6z"/>
		</g>
		<g>
			<path class="st253" d="M415.8,283.1c0,0,6,34.4-11.1,59.3C387,368.1,415.8,283.1,415.8,283.1z"/>
		</g>
		<g>
			<path class="st12" d="M405,332.5c0,0-1.2,10.2,0.8,16.6c2,6.4-25.9,6.5-25.9,1.3c0-5.9,2.9-10.9,0.2-21.1
				C377.4,319.1,405,332.5,405,332.5z"/>
		</g>
		<g>
			<path class="st14" d="M383.3,333.8c0,0,8.8,9.2,20.1,1c0,0-0.9,5.9-9,6.6C386.3,342.1,383.3,333.8,383.3,333.8z"/>
		</g>
		<g>
			<path class="st12" d="M394.4,271.1c0,0,22.3,6.6,19.1,37.5c-3.2,30.9-17.7,29.3-19.1,29.5c-1.4,0.2-18.6,1.4-24.1-36.1
				C364.8,264.5,394.4,271.1,394.4,271.1z"/>
		</g>
		<g>
			<path class="st253" d="M388.6,284.9c0,0,12.1,19.3,24.8,23.7c0,0,7-32.3-21.8-39.1c-28.7-6.8-24.2,32.6-22.1,43.1
				C369.6,312.7,375.6,297.2,388.6,284.9z"/>
		</g>
		<g>
			<path class="st254" d="M372.4,282c0,0,6.4-12.3,17.1-12.9c10.8-0.6,17.2,8.8,17.2,8.8s-4.2-10.5-17.1-10.5
				C376.6,267.4,372.4,282,372.4,282z"/>
		</g>
	</g>
	<g>
		<polygon class="st255" points="416.2,379 423.7,449.3 324.3,449.3 316.8,379 		"/>
	</g>
	<g>
		<path class="st255" d="M421.3,446.9H321.1l-7.6-71.1h100.3L421.3,446.9z M321.8,446h98.5l-7.5-69.4h-98.5L321.8,446z"/>
	</g>
	<g>
		<path class="st256" d="M376.4,413c0.9,4.4-1.1,8.5-4.6,9.2c-3.4,0.7-6.9-2.3-7.8-6.6c-0.9-4.4,1.1-8.5,4.6-9.2
			C372,405.7,375.5,408.7,376.4,413z"/>
	</g>
	<g>
		
			<rect x="414.3" y="442.2" transform="matrix(-1 -1.224647e-16 1.224647e-16 -1 847.2389 891.4833)" class="st255" width="18.6" height="7.1"/>
	</g>
	<g>
		<path class="st2" d="M356.7,238.4c-8.4,0-15.3-6.9-15.3-15.3c0-8.4,6.9-15.3,15.3-15.3c8.4,0,15.3,6.9,15.3,15.3
			C372,231.6,365.1,238.4,356.7,238.4z M356.7,208.7c-8,0-14.4,6.5-14.4,14.4c0,8,6.5,14.4,14.4,14.4s14.4-6.5,14.4-14.4
			C371.1,215.2,364.6,208.7,356.7,208.7z"/>
	</g>
	<g>
		<path class="st257" d="M86.9,393.9l0-1.3c2.6,0,5.2-0.1,7.8-0.2l0.1,1.3C92.2,393.8,89.5,393.9,86.9,393.9z M79.1,393.8
			c-2.6-0.1-5.2-0.2-7.8-0.4l0.1-1.3c2.6,0.2,5.2,0.3,7.8,0.4L79.1,393.8z M102.6,393.2l-0.1-1.3c2.6-0.2,5.2-0.5,7.7-0.8l0.2,1.3
			C107.8,392.7,105.1,393,102.6,393.2z M63.5,392.9c-2.7-0.3-5.3-0.6-7.8-1l0.2-1.3c2.5,0.4,5,0.7,7.7,1L63.5,392.9z M118.1,391.2
			l-0.2-1.3c2.5-0.4,5.1-0.9,7.6-1.4l0.3,1.3C123.2,390.3,120.6,390.8,118.1,391.2z M48,390.3c-2.6-0.6-5.2-1.4-7.5-2.2l0.4-1.2
			c2.3,0.8,4.8,1.5,7.4,2.2L48,390.3z M133.4,388.1l-0.3-1.3c2.4-0.6,4.9-1.2,7.5-1.9l0.3,1.3C138.3,386.9,135.8,387.5,133.4,388.1z
			 M33.2,385.1c-2.4-1.2-4.7-2.5-6.9-3.9l0.7-1.1c2.1,1.4,4.3,2.6,6.7,3.8L33.2,385.1z M148.5,384.1l-0.4-1.3
			c1.1-0.3,2.2-0.6,3.2-0.9c1.4-0.4,2.9-0.8,4.3-1.2l0.4,1.3c-1.4,0.4-2.8,0.8-4.3,1.2C150.7,383.5,149.6,383.8,148.5,384.1z
			 M216.3,383c-2.4-1.1-4.8-2.1-7.1-3l0.4-1.2c2.4,0.9,4.8,1.9,7.3,3L216.3,383z M163.5,379.9l-0.3-1.3c2.8-0.7,5.3-1.3,7.6-1.8
			l0.3,1.3C168.8,378.6,166.3,379.2,163.5,379.9z M201.7,377.8c-2.5-0.6-5.1-1-7.6-1.3l0.1-1.3c2.6,0.3,5.2,0.7,7.8,1.3L201.7,377.8
			z M178.7,376.9l-0.2-1.3c2.7-0.3,5.3-0.5,7.8-0.6l0,1.3C183.9,376.3,181.4,376.5,178.7,376.9z M20.1,376.4
			c-1.9-1.8-3.7-3.8-5.3-5.9l1-0.8c1.5,2,3.2,3.9,5.1,5.7L20.1,376.4z M10.7,363.8c-1.1-2.3-2.1-4.8-2.8-7.4l1.2-0.4
			c0.7,2.5,1.7,4.9,2.8,7.2L10.7,363.8z M6.3,348.7c-0.3-2.5-0.5-5.2-0.5-7.9l1.3,0c0,2.6,0.2,5.2,0.5,7.7L6.3,348.7z M7.4,333.1
			L6.1,333c0.3-2.5,0.7-5.2,1.2-7.8l1.3,0.3C8.1,328,7.7,330.6,7.4,333.1z M10.4,317.9l-1.2-0.4c1.3-4.6,2.5-7.3,2.6-7.5l1.2,0.5
			C12.9,310.6,11.7,313.4,10.4,317.9z"/>
	</g>
	<g>
		<path class="st257" d="M423.5,160.1c0,0-2.2-1.9-6.1-4.8l0.8-1c3.9,2.9,6.1,4.9,6.2,4.9L423.5,160.1z M411.1,150.8
			c-2.1-1.4-4.3-2.8-6.6-4.2l0.7-1.1c2.2,1.3,4.5,2.8,6.6,4.2L411.1,150.8z M397.8,142.8c-2.3-1.2-4.6-2.4-6.9-3.5l0.6-1.2
			c2.3,1.1,4.7,2.3,7,3.6L397.8,142.8z M383.8,136.1c-2.4-1-4.8-1.9-7.2-2.8l0.4-1.2c2.4,0.9,4.9,1.8,7.3,2.8L383.8,136.1z
			 M285,134.5l0-1.3c2.5-0.1,5.1-0.3,7.7-0.7l0.2,1.3C290.2,134.2,287.5,134.4,285,134.5z M277.1,134.1c-2.5-0.3-5.1-0.8-7.7-1.5
			l0.3-1.3c2.5,0.7,5.1,1.2,7.6,1.5L277.1,134.1z M300.5,132l-0.4-1.2c0.8-0.2,1.7-0.5,2.5-0.8c1.6-0.5,3.3-1.1,4.9-1.5l0.4,1.3
			c-1.6,0.5-3.3,1-4.9,1.5C302.2,131.5,301.3,131.7,300.5,132z M369.1,130.9c-2.5-0.7-5-1.4-7.5-2l0.3-1.3c2.5,0.6,5.1,1.3,7.6,2
			L369.1,130.9z M261.9,130.1c-2.3-0.9-4.6-1.9-7.2-3.2l0.6-1.2c2.5,1.2,4.8,2.2,7.1,3.1L261.9,130.1z M315.5,127.9l-0.3-1.3
			c2.5-0.5,5.2-0.9,7.7-1.3l0.2,1.3C320.5,126.9,318,127.4,315.5,127.9z M354,127.4c-2.6-0.4-5.1-0.8-7.7-1l0.1-1.3
			c2.6,0.2,5.2,0.6,7.8,1L354,127.4z M125.5,126.2l-0.7-1.1c2.2-1.4,4.5-2.8,6.6-4.1l0.7,1.1C129.9,123.3,127.7,124.7,125.5,126.2z
			 M330.8,126l-0.1-1.3c2.6-0.1,5.2-0.1,7.8-0.1l0,1.3C336,125.8,333.4,125.9,330.8,126z M247.8,123.4c-2.2-1.2-4.4-2.4-6.8-3.8
			l0.6-1.1c2.4,1.4,4.6,2.6,6.8,3.8L247.8,123.4z M138.8,118.1l-0.6-1.1c2.3-1.3,4.7-2.5,6.9-3.6l0.6,1.2
			C143.5,115.6,141.1,116.9,138.8,118.1z M234.1,115.8c-2.5-1.4-4.8-2.6-6.9-3.6l0.6-1.2c2.1,1,4.4,2.2,6.9,3.6L234.1,115.8z
			 M152.7,111.2l-0.5-1.2c2.4-1.1,4.9-2,7.3-2.9l0.4,1.2C157.6,109.2,155.2,110.2,152.7,111.2z M220.2,108.9
			c-2.5-1.1-4.9-1.9-7.2-2.7l0.4-1.2c2.4,0.8,4.8,1.7,7.3,2.8L220.2,108.9z M167.3,105.9l-0.4-1.2c2.6-0.7,5.1-1.4,7.6-1.9l0.3,1.3
			C172.4,104.6,169.8,105.2,167.3,105.9z M205.5,104.1c-2.5-0.6-5.1-1-7.6-1.2l0.1-1.3c2.6,0.3,5.2,0.7,7.8,1.3L205.5,104.1z
			 M182.5,102.9l-0.1-1.3c2.6-0.3,5.3-0.4,7.9-0.4l0,1.3C187.7,102.5,185.1,102.6,182.5,102.9z"/>
	</g>
	<g>
		<g>
			<g>
				<g>
					<polygon class="st258" points="261.5,397.3 228.8,387.7 238.6,384.8 					"/>
				</g>
			</g>
		</g>
		<g>
			<g>
				<g>
					<polygon class="st259" points="261.5,397.3 249.3,385 241.8,386.5 					"/>
				</g>
			</g>
		</g>
		<g>
			<g>
				<g>
					<polygon class="st260" points="236.4,389.9 236.6,393.7 261.5,397.3 					"/>
				</g>
			</g>
		</g>
	</g>
	<g>
		<g>
			<g>
				<g>
					<polygon class="st258" points="97,147.8 125.8,131.7 115.9,131 					"/>
				</g>
			</g>
		</g>
		<g>
			<g>
				<g>
					<polygon class="st259" points="97,147.8 105.9,133.5 113.3,133.3 					"/>
				</g>
			</g>
		</g>
		<g>
			<g>
				<g>
					<polygon class="st260" points="119.2,135.4 119.8,139 97,147.8 					"/>
				</g>
			</g>
		</g>
	</g>
</g>
</svg>
